<svg width="40" height="40" viewBox="0 0 40 40" fill="none" xmlns="http://www.w3.org/2000/svg">
<path d="M33.4167 17.7167L25.6333 14.3667L23.9 13.6334C23.6333 13.5001 23.4 13.1501 23.4 12.8501V7.75006C23.4 6.15006 22.2167 4.25006 20.7833 3.51672C20.2833 3.26672 19.6833 3.26672 19.1833 3.51672C17.7667 4.25006 16.5833 6.16672 16.5833 7.76672V12.8667C16.5833 13.1667 16.35 13.5167 16.0833 13.6501L6.58333 17.7334C5.53333 18.1667 4.68333 19.4834 4.68333 20.6167V22.8167C4.68333 24.2334 5.75 24.9334 7.06667 24.3667L15.4167 20.7667C16.0667 20.4834 16.6 20.8334 16.6 21.5501V23.4001V26.4001C16.6 26.7834 16.3833 27.3334 16.1167 27.6001L12.25 31.4834C11.85 31.8834 11.6667 32.6667 11.85 33.2334L12.6 35.5001C12.9 36.4834 14.0167 36.9501 14.9333 36.4834L18.9 33.1501C19.5 32.6334 20.4833 32.6334 21.0833 33.1501L25.05 36.4834C25.9667 36.9334 27.0833 36.4834 27.4167 35.5001L28.1667 33.2334C28.35 32.6834 28.1667 31.8834 27.7667 31.4834L23.9 27.6001C23.6167 27.3334 23.4 26.7834 23.4 26.4001V21.5501C23.4 20.8334 23.9167 20.5001 24.5833 20.7667L32.9333 24.3667C34.25 24.9334 35.3167 24.2334 35.3167 22.8167V20.6167C35.3167 19.4834 34.4667 18.1667 33.4167 17.7167Z" fill="#292D32"/>
</svg>
