<?xml version="1.0" encoding="UTF-8"?>
<svg id="Layer_1" data-name="Layer 1" xmlns="http://www.w3.org/2000/svg" viewBox="0 0 142.24 77.86">
  <path d="m25.84,5.36c1.64-.79,3.28-1.59,4.91-2.38.24-.11.48-.22.71-.35.97-.58,1.73-.58,2.53-.15,7.56,3.99,15.16,7.95,22.74,11.91,9.07,4.74,18.14,9.48,27.2,14.23.58.3,1.07.43,1.94-.04,10.94-5.93,21.94-11.73,32.84-17.77,5.04-2.8,9.88-4.08,14.78-3.81,1.68.09,3.17.52,4.48,1.31,1.31.78,1.73,2.07,1.52,3.73-.2,1.54-.96,3.01-1.93,4.43-2.25,3.3-5.11,6.09-8.45,8.32-1.76,1.17-3.71,1.98-5.58,2.91-14.97,7.44-29.93,14.9-44.9,22.31-14.77,7.31-29.54,14.59-44.3,21.88-2.64,1.3-5.26,2.67-7.93,3.82-2.85,1.22-5.41,1.26-7.22-.51-1.45-1.4-2.78-2.91-4.17-4.38-.19-.19-.4-.35-.59-.52-4.02-4.54-8.04-9.08-12.06-13.62-.32-.48-.64-.97-1-1.51.35-.2.64-.39.94-.53,3.19-1.55-.02.02,3.16-1.56.95-.48,1.64-.5,2.38-.12,5.4,2.72,10.82,5.38,16.24,8.08.38.19.71.23,1.24-.06,7.99-4.34,22.39-11.72,30.38-16.04,1.02-.55,2.04-1.12,3.15-1.74-.21-.27-.35-.46-.51-.64-7.65-8.71-15.31-17.43-22.96-26.13-3.21-3.65-6.44-7.29-9.65-10.93.04-.04.08-.07.12-.11"/>
</svg>