<svg width="42" height="42" viewBox="0 0 42 42" fill="none" xmlns="http://www.w3.org/2000/svg">
<g clip-path="url(#clip0_1_324)">
<g clip-path="url(#clip1_1_324)">
<path fill-rule="evenodd" clip-rule="evenodd" d="M34.1996 21.1375C33.9246 21.1375 33.6462 21.0883 33.3714 20.9913C33.3041 20.9675 33.2391 20.9363 33.1783 20.8983C33.1401 20.8744 32.0328 20.1875 30.2562 19.1705L32.6653 25.0124H37.4598C38.0036 25.0124 38.444 25.4529 38.444 25.9965V29.8029H3.81725V25.9965C3.81725 25.4529 4.25752 25.0124 4.80124 25.0124H8.74282L4.52207 14.7762C1.17275 12.4026 -0.69904 8.20326 0.243684 5.08952C0.858023 3.06003 2.59613 1.89587 5.01183 1.89587C6.09937 1.89587 7.33783 2.12691 8.69321 2.58199C13.9692 4.3542 29.1649 11.9528 33.9124 15.4423L34.0952 15.5759C35.1383 16.3346 37.08 17.7469 36.2463 19.7549C35.8923 20.6076 35.1079 21.1375 34.1996 21.1375ZM41.0077 40.0957C40.2529 40.0957 2.00654 40.0959 1.25339 40.0959C0.709669 40.0959 0.269304 39.6556 0.269304 39.1119V31.7755C0.269304 31.2319 0.709667 30.7915 1.25339 30.7915H41.0077C41.5514 30.7915 41.9918 31.2319 41.9918 31.7755V39.1117C41.9918 39.6554 41.5514 40.0957 41.0077 40.0957ZM23.1922 36.9785C23.4629 36.9785 23.6822 36.7596 23.6822 36.4887C23.6822 36.2179 23.4633 35.9991 23.1925 35.9991H19.069C18.7981 35.9991 18.5792 36.2179 18.5792 36.4887C18.5792 36.7596 18.7981 36.9785 19.069 36.9785H23.1922ZM35.2756 34.8886C35.5462 34.8886 35.7653 34.6694 35.7653 34.3988C35.7653 34.1279 35.5465 33.9091 35.2756 33.9091H27.1269C26.856 33.9091 26.6371 34.1279 26.6371 34.3988C26.6371 34.6696 26.856 34.8886 27.1269 34.8886H35.2756ZM15.1342 34.8886C15.4048 34.8886 15.6239 34.6694 15.6239 34.3988C15.6239 34.128 15.4048 33.9091 15.1342 33.9091H6.98542C6.71477 33.9091 6.49575 34.1281 6.49575 34.3988C6.49575 34.6694 6.71486 34.8886 6.98542 34.8886H15.1342ZM30.5367 25.0124L27.4923 17.6294C25.7014 16.6573 23.6131 15.5755 21.4156 14.5408L25.745 25.0124H30.5367ZM23.6148 25.0124L18.7964 13.3568C16.6909 12.4472 14.5551 11.6324 12.5427 11.0412L18.3229 25.0124L23.6148 25.0124ZM16.1932 25.0124L10.1642 10.4398C10.003 10.4079 9.26822 10.2715 8.42411 10.2715C7.72133 10.2715 6.47396 10.3723 6.01548 11.0485C5.56678 11.7094 5.88509 12.887 6.23198 13.7609L10.8714 25.0124L16.1932 25.0124Z" fill="#000002"/>
</g>
</g>
<defs>
<clipPath id="clip0_1_324">
<rect width="42" height="42" fill="white"/>
</clipPath>
<clipPath id="clip1_1_324">
<rect width="42" height="42" fill="white"/>
</clipPath>
</defs>
</svg>
