<svg width="38" height="42" viewBox="0 0 38 42" fill="none" xmlns="http://www.w3.org/2000/svg">
<path d="M31.8175 5.44402C24.5588 -1.81467 12.7388 -1.81467 5.47355 5.44402C1.94921 8.96179 0 13.6478 0 18.6225C0 23.6039 1.94265 28.2833 5.46699 31.8076C5.80827 32.1424 6.25455 32.3327 6.73365 32.3327C7.21275 32.3327 7.6656 32.1424 8.00687 31.8076C8.70255 31.1054 8.70255 29.9634 8.00687 29.2678C5.15853 26.4194 3.59653 22.6391 3.59653 18.6225C3.59653 14.606 5.15853 10.8257 8.00687 7.9839C10.8421 5.14868 14.6158 3.58669 18.639 3.58669C22.6621 3.58669 26.4424 5.14868 29.2776 7.9839C32.1128 10.8257 33.6814 14.5994 33.6748 18.6225C33.6748 22.6391 32.1128 26.4194 29.2645 29.2546C28.5688 29.9569 28.5688 31.0923 29.2645 31.7945C29.9601 32.4968 31.1021 32.4968 31.8044 31.7945C35.3287 28.2767 37.2648 23.6039 37.2713 18.6225C37.2779 13.6478 35.3353 8.96836 31.8175 5.44402Z" fill="#222222"/>
<path d="M29.0085 25.5401C29.2645 25.1398 29.3432 24.6607 29.2317 24.1947C29.1201 23.7222 28.8379 23.3218 28.4244 23.0725C26.2061 21.7139 23.4497 20.8738 20.4372 20.6244V20.5457C23.7056 20.6638 26.7837 21.1232 29.1332 21.832C29.3104 21.8911 29.4811 21.9174 29.6714 21.9174C30.5508 21.9174 31.2925 21.2808 31.4434 20.3947C31.4565 20.3094 31.4631 20.2175 31.4631 20.1322C31.4631 19.3644 30.9315 18.6293 30.1571 18.3996C27.9191 17.7236 25.1232 17.2642 22.1371 17.0607C25.0707 16.8442 28.1947 16.0763 30.3146 15.0262C30.7477 14.8096 31.0693 14.4421 31.2268 13.9892C31.3778 13.5298 31.345 13.0442 31.1284 12.6176C30.9118 12.191 30.5443 11.8694 30.0914 11.7119C29.6386 11.5609 29.1529 11.5937 28.7263 11.8038C26.6918 12.8145 23.22 13.5298 20.4569 13.5298C20.4504 13.5298 20.4372 13.4248 20.4372 13.4248C21.7367 12.2172 24.0797 11.1278 25.8517 10.9112C26.3965 10.8521 26.8756 10.5437 27.1643 10.0711C27.4531 9.59859 27.5122 9.02761 27.3153 8.496C27.0331 7.72157 26.193 7.24246 25.3136 7.36716C23.7909 7.57062 22.0124 8.1941 20.4372 9.06698V7.99065C20.4372 6.99963 19.63 6.19238 18.639 6.19238C17.648 6.19238 16.8473 6.99963 16.8473 7.99065V9.06698C15.2393 8.17441 13.4214 7.5378 11.8659 7.34747C11.3343 7.28184 10.8093 7.45904 10.4221 7.82657C10.0283 8.1941 9.82485 8.71914 9.85766 9.26387C9.91673 10.1039 10.5927 10.7996 11.4722 10.9243C13.2507 11.1475 15.574 12.2304 16.8473 13.4183C16.8473 13.4183 16.8276 13.5298 16.821 13.5298C14.058 13.5298 10.5862 12.8145 8.55818 11.8038C8.13159 11.5937 7.64592 11.5609 7.18651 11.7119C6.73367 11.8694 6.36614 12.191 6.14956 12.6241C5.7164 13.5036 6.08393 14.5865 6.96337 15.0262C9.08979 16.0763 12.2138 16.8442 15.1409 17.0607C12.1547 17.2576 9.37856 17.717 7.16026 18.3865C6.28738 18.6424 5.7164 19.489 5.83453 20.3554C5.90673 20.887 6.20206 21.3529 6.64835 21.6417C7.09463 21.9239 7.64593 21.9961 8.14471 21.8386C10.5008 21.1232 13.5789 20.6638 16.8473 20.5457V20.6244C13.8283 20.8738 11.0784 21.7139 8.86665 23.0725C8.45318 23.3218 8.17097 23.7156 8.05283 24.1816C7.94126 24.6476 8.02002 25.1267 8.26941 25.5401C8.51881 25.9471 8.91259 26.2358 9.37856 26.3474C9.84453 26.459 10.3302 26.3868 10.7371 26.1374C12.3516 25.1464 14.5108 24.4835 16.8473 24.2669V28.7823L13.5395 27.1218C13.067 26.8856 12.5222 26.8724 12.0366 27.0759C11.5509 27.2793 11.1834 27.6928 11.0193 28.1982C10.7634 29.0251 11.1834 29.9505 11.9972 30.364L14.7996 31.775V38.1871C14.7996 40.2872 16.5126 42.0002 18.6193 42.0002C20.7194 42.0002 22.4324 40.2872 22.4324 38.1871V31.7881L25.2807 30.364C26.0946 29.9571 26.5146 29.0251 26.2586 28.1982C26.1011 27.6928 25.7336 27.2793 25.2479 27.0759C24.7623 26.8724 24.211 26.8856 23.7384 27.1218L20.4372 28.7823V24.2669C22.7737 24.4835 24.9263 25.1464 26.5474 26.1374C27.4006 26.6493 28.5294 26.3474 29.0085 25.5401Z" fill="#222222"/>
</svg>
