<svg width="24" height="33" viewBox="0 0 24 33" fill="none" xmlns="http://www.w3.org/2000/svg">
<path d="M11.6734 9.79188C11.6734 9.79188 11.7779 12.8585 8.39804 14.8795C5.01787 16.9005 5.15733 18.5732 5.15733 18.5732C5.15733 18.5732 1.46356 18.4688 0.801691 21.5004C0.139821 24.5319 1.28906 25.8907 0 27.6682C0 27.6682 1.53329 26.9366 1.6377 24.6363C1.6377 24.6363 1.95129 27.2498 0.801326 29.027C0.801326 29.027 2.29957 28.2954 2.50839 27.1454C2.50839 27.1454 2.26489 29.3059 2.75225 30.3511C2.75225 30.3511 3.65835 29.3406 3.5189 27.6332C3.5189 27.6332 3.80657 28.513 4.66887 29.0098C4.66887 29.0098 4.09352 27.0239 3.98947 24.6538C3.98947 24.6538 4.44216 25.6994 5.08687 26.2572C5.08687 26.2572 5.19128 24.0967 4.23297 22.9639C3.27467 21.8315 3.95406 20.5074 5.05182 20.3508C5.05182 20.3508 4.73823 22.6854 6.89871 23.7656C6.89871 23.7656 7.38644 25.1594 6.13206 26.8318C6.13206 26.8318 6.34088 29.1321 8.15308 31.1528C8.15308 31.1528 7.41272 31.6365 8.00085 32.0417L7.82233 32.7646C7.82233 32.7646 9.06794 33.026 10.1394 32.9215C10.1394 32.9215 10.035 31.8063 9.34686 31.1009C9.34686 31.1009 7.77889 28.4348 8.51048 27.4159C9.24208 26.3963 11.9513 25.6822 11.9863 22.6854C12.021 19.6889 14.7302 20.438 16.5595 19.1833C18.3892 17.9289 18.8069 15.6293 18.8069 15.6293C18.8069 15.6293 19.173 16.2039 19.617 16.2824C20.0616 16.3609 21.7862 14.4794 22.5182 14.3746C23.2498 14.2702 22.309 16.8052 22.309 16.8052C22.309 16.8052 22.3178 17.8938 23.1019 18.2425C23.1019 18.2425 24.2347 17.5284 23.9558 15.4201C23.6769 13.3122 23.5028 12.3886 22.0743 13.1903C20.6454 13.9916 20.1401 12.8767 20.2796 11.9881C20.419 11.0996 20.0879 10.089 17.7883 8.8343C15.488 7.57956 15.6972 5.98567 16.6384 6.09008C17.5795 6.19449 18.3633 8.20711 19.2778 7.89315C19.8634 7.69273 20.4322 6.98705 19.4607 6.19449C18.4677 5.3844 18.5199 2.90157 16.6643 2.32658C16.6643 2.32658 17.6051 1.43801 17.6836 0.470939C17.6836 0.470939 17.1089 0.523144 16.7169 0.888943C16.7169 0.888943 16.8216 0.365434 16.6643 0C16.6643 0 15.7498 0.13106 14.9919 0.915228C14.9919 0.915228 13.5543 -0.208454 11.7512 0.18363C11.7512 0.18363 12.4572 0.575714 12.823 0.915228C12.823 0.915228 11.7256 0.758613 10.445 1.51613C10.445 1.51613 10.9152 1.96042 11.6209 1.96042C11.6209 1.96042 10.445 2.3525 9.6871 2.95341C9.6871 2.95341 10.0266 3.42398 10.8889 3.60688C10.8889 3.60688 9.73931 4.54766 8.66783 4.86162C8.66783 4.86162 9.76559 5.35812 10.7323 5.09673C10.7323 5.09673 9.76559 6.27261 8.40644 6.45551C8.40644 6.45551 9.08583 6.97866 10.3143 6.79539C10.3143 6.79539 9.19061 7.44886 8.79852 8.49406C8.40644 9.53925 7.88403 9.69623 7.88403 9.69623C7.88403 9.69623 9.76559 9.801 10.4453 8.72953C10.4453 8.72953 9.79188 9.4352 9.6349 10.6111C9.47828 11.7873 8.98142 12.0487 8.98142 12.0487C8.98142 12.0487 11.2029 11.1945 11.6734 9.79188Z" fill="black"/>
</svg>
