<svg width="37" height="36" viewBox="0 0 37 36" fill="none" xmlns="http://www.w3.org/2000/svg">
<path d="M35.9922 35.4375C35.9922 35.2883 35.933 35.1453 35.8276 35.0398C35.7221 34.9343 35.5791 34.875 35.4299 34.875H0.568084C0.4189 34.875 0.275826 34.9343 0.170337 35.0398C0.0648479 35.1452 0.00558472 35.2883 0.00558472 35.4375C0.00558472 35.5867 0.0648479 35.7298 0.170337 35.8352C0.275826 35.9407 0.4189 36 0.568084 36H35.4299C35.5791 36 35.7221 35.9407 35.8276 35.8352C35.933 35.7297 35.9922 35.5867 35.9922 35.4375Z" fill="#222222"/>
<path d="M27.5567 30.9375C27.5571 31.0865 27.6165 31.2293 27.7219 31.3347C27.8273 31.4401 27.9701 31.4995 28.1192 31.5H35.4288C35.5027 31.5 35.5759 31.4855 35.6441 31.4572C35.7124 31.4289 35.7744 31.3875 35.8266 31.3353C35.8789 31.283 35.9203 31.221 35.9486 31.1528C35.9768 31.0845 35.9914 31.0113 35.9913 30.9375V15.75C35.9914 15.6761 35.9768 15.603 35.9486 15.5347C35.9203 15.4665 35.8789 15.4044 35.8266 15.3522C35.7744 15.3 35.7124 15.2585 35.6441 15.2303C35.5759 15.202 35.5027 15.1875 35.4288 15.1875H28.1192C27.9701 15.1879 27.8273 15.2473 27.7219 15.3527C27.6165 15.4581 27.5571 15.6009 27.5567 15.75V30.9375ZM35.0042 22.1512C35.1095 22.2569 35.1687 22.4 35.1687 22.5492C35.1687 22.6984 35.1095 22.8415 35.0042 22.9472L32.6192 25.3322C32.5132 25.4381 32.3696 25.4977 32.2198 25.4981C32.1086 25.4975 32.0001 25.4641 31.9078 25.402C31.8156 25.3399 31.7438 25.2519 31.7014 25.1491C31.659 25.0464 31.648 24.9333 31.6696 24.8243C31.6913 24.7152 31.7448 24.615 31.8232 24.5362L34.2082 22.1512C34.3139 22.0459 34.457 21.9867 34.6062 21.9867C34.7554 21.9867 34.8985 22.0459 35.0042 22.1512ZM31.0273 22.1512L31.8232 21.3553C31.9288 21.2498 32.0719 21.1905 32.2212 21.1905C32.3705 21.1905 32.5136 21.2498 32.6192 21.3553C32.7247 21.4608 32.784 21.604 32.784 21.7533C32.784 21.9025 32.7247 22.0457 32.6192 22.1512L31.8232 22.9472C31.7171 23.0517 31.5742 23.1103 31.4253 23.1103C31.2763 23.1103 31.1334 23.0517 31.0273 22.9472C30.9219 22.8415 30.8627 22.6984 30.8627 22.5492C30.8627 22.4 30.9219 22.2569 31.0273 22.1512Z" fill="#222222"/>
<path d="M7.878 15.1875H0.568328C0.419277 15.1879 0.276454 15.2473 0.171059 15.3527C0.0656635 15.4581 0.00626145 15.6009 0.00582886 15.75V30.9375C0.0062644 31.0865 0.0656674 31.2293 0.171062 31.3347C0.276457 31.4401 0.419278 31.4995 0.568328 31.5H7.878C8.02705 31.4995 8.16987 31.4401 8.27527 31.3347C8.38066 31.2293 8.44007 31.0865 8.4405 30.9375V15.75C8.44007 15.6009 8.38066 15.4581 8.27527 15.3527C8.16988 15.2473 8.02705 15.1879 7.878 15.1875ZM4.40738 25.3322C4.35545 25.3846 4.29369 25.4262 4.22564 25.4547C4.15759 25.4831 4.08459 25.4979 4.01082 25.4981C3.861 25.4977 3.71742 25.4381 3.61145 25.3322L1.22645 22.9472C1.17419 22.8949 1.13273 22.8329 1.10445 22.7646C1.07617 22.6963 1.06161 22.6231 1.06161 22.5492C1.06161 22.4753 1.07617 22.4021 1.10445 22.3338C1.13273 22.2655 1.17419 22.2035 1.22645 22.1512C1.27871 22.099 1.34076 22.0575 1.40904 22.0292C1.47732 22.0009 1.55051 21.9864 1.62442 21.9864C1.69833 21.9864 1.77152 22.0009 1.8398 22.0292C1.90808 22.0575 1.97013 22.099 2.02239 22.1512L4.40738 24.5362C4.51275 24.6419 4.57192 24.785 4.57192 24.9342C4.57192 25.0834 4.51275 25.2265 4.40738 25.3322ZM5.20332 22.9472C5.09724 23.0517 4.95429 23.1103 4.80535 23.1103C4.65642 23.1103 4.51347 23.0517 4.40738 22.9472L3.61145 22.1512C3.5059 22.0457 3.4466 21.9025 3.4466 21.7533C3.4466 21.604 3.5059 21.4608 3.61145 21.3553C3.717 21.2498 3.86015 21.1905 4.00942 21.1905C4.15868 21.1905 4.30184 21.2498 4.40738 21.3553L5.20332 22.1512C5.30869 22.2569 5.36786 22.4 5.36786 22.5492C5.36786 22.6984 5.30869 22.8415 5.20332 22.9472Z" fill="#222222"/>
<path d="M35.1853 6.24384L30.8512 8.34759V2.5876C30.8518 2.54979 30.848 2.51204 30.84 2.4751C30.8356 2.45783 30.83 2.4409 30.8231 2.42447C30.8197 2.40634 30.815 2.38848 30.809 2.37104C30.8006 2.35416 30.7893 2.33729 30.7809 2.32041C30.7741 2.30452 30.7657 2.28943 30.7556 2.27541C30.7462 2.26161 30.7358 2.24846 30.7246 2.23604C30.7133 2.22035 30.7011 2.20533 30.6881 2.19104C30.674 2.17697 30.6571 2.16572 30.6403 2.15166C30.6294 2.13988 30.6171 2.12949 30.6037 2.12072C30.5718 2.10124 30.539 2.08341 30.5053 2.06729C28.6853 1.35015 26.7911 0.837932 24.8578 0.5401C22.5904 0.175681 20.2973 -0.00490628 18.0009 0.000101339C13.2197 0.000101339 8.66342 0.75385 5.49374 2.06729C5.46004 2.08341 5.42718 2.10124 5.3953 2.12072C5.38189 2.12949 5.36961 2.13988 5.35874 2.15166C5.34187 2.16572 5.32499 2.17697 5.31093 2.19104C5.2979 2.20533 5.28569 2.22035 5.27437 2.23604C5.26319 2.24846 5.25286 2.26162 5.24343 2.27541C5.23335 2.28943 5.22486 2.30452 5.21812 2.32041C5.20968 2.33729 5.19843 2.35416 5.18999 2.37104C5.18398 2.38847 5.17928 2.40634 5.17593 2.42447C5.16904 2.4409 5.16339 2.45782 5.15905 2.4751C5.15099 2.51204 5.14722 2.54979 5.1478 2.5876V8.34759L0.813748 6.24384C0.74729 6.21158 0.675116 6.19275 0.601365 6.18843C0.527615 6.18412 0.453739 6.19441 0.383973 6.21871C0.314208 6.24301 0.249926 6.28085 0.194814 6.33004C0.139701 6.37924 0.0948429 6.43883 0.0628112 6.5054L0.00656128 11.2501C0.00699683 11.3991 0.0663998 11.542 0.171795 11.6473C0.277189 11.7527 0.42001 11.8121 0.56906 11.8126H8.44124V9.94227L6.2728 8.8904V8.59509C6.98264 8.32324 7.70648 8.08947 8.44124 7.89478V7.59384C8.44142 7.27985 8.50753 6.96941 8.6353 6.68259C7.79717 6.89353 7.00405 7.12978 6.2728 7.39415V5.78259C9.29342 4.60978 13.5347 3.9376 18.0009 3.9376C22.4643 3.9376 26.7056 4.60978 29.7262 5.78259V7.39415C28.995 7.12978 28.2018 6.89353 27.3637 6.68259C27.4915 6.96941 27.5576 7.27985 27.5578 7.59384V7.89478C28.2925 8.08947 29.0164 8.32324 29.7262 8.59509V8.8904L27.5578 9.94227V11.8126H35.4299C35.579 11.8121 35.7218 11.7527 35.8272 11.6473C35.9326 11.542 35.992 11.3991 35.9924 11.2501C35.9924 10.9407 36.0712 6.78384 35.9362 6.5054C35.9042 6.43883 35.8593 6.37924 35.8042 6.33004C35.7491 6.28084 35.6848 6.24301 35.615 6.21871C35.5453 6.19441 35.4714 6.18412 35.3976 6.18843C35.3239 6.19275 35.2517 6.21158 35.1853 6.24384ZM29.7262 4.58166C26.6128 3.45385 22.4025 2.8126 18.0009 2.8126C13.5965 2.8126 9.38623 3.45385 6.2728 4.58166V2.9701C9.29342 1.79729 13.5347 1.1251 18.0009 1.1251C22.4643 1.1251 26.7056 1.79729 29.7262 2.9701V4.58166Z" fill="#222222"/>
<path d="M0.00582886 13.5C0.00580723 13.6492 0.0650352 13.7922 0.170485 13.8977C0.275934 14.0032 0.418968 14.0625 0.568123 14.0625H8.44015V12.9375H0.568128C0.418972 12.9375 0.275937 12.9968 0.170487 13.1023C0.065036 13.2078 0.00580723 13.3508 0.00582886 13.5Z" fill="#222222"/>
<path d="M35.992 13.5C35.9921 13.3508 35.9328 13.2078 35.8274 13.1023C35.7219 12.9968 35.5789 12.9375 35.4298 12.9375H27.5577V14.0625H35.4298C35.5789 14.0625 35.7219 14.0032 35.8274 13.8977C35.9328 13.7922 35.9921 13.6492 35.992 13.5Z" fill="#222222"/>
<path d="M22.7322 5.87801C19.5855 5.54066 16.4118 5.54066 13.2651 5.87801C13.5947 6.15673 13.8373 6.52419 13.9642 6.93675C15.2684 6.8142 16.6227 6.75 17.9986 6.75C19.3745 6.75 20.7288 6.8142 22.033 6.93675C22.1599 6.5242 22.4026 6.15674 22.7322 5.87801Z" fill="#222222"/>
<path d="M0.562499 33.75H35.429C35.5113 33.75 35.5926 33.7321 35.6673 33.6977C35.7421 33.6633 35.8085 33.6131 35.8619 33.5505C35.9154 33.488 35.9547 33.4146 35.977 33.3354C35.9994 33.2562 36.0043 33.1731 35.9915 33.0918C35.97 32.9592 35.9011 32.8388 35.7977 32.753C35.6943 32.6672 35.5634 32.6217 35.429 32.625H26.4318V7.59375C26.4321 7.29579 26.314 7.00993 26.1036 6.79898C25.8932 6.58803 25.6076 6.46925 25.3097 6.46875H24.1847C23.8961 6.46852 23.6185 6.57941 23.4096 6.77842C23.2006 6.97743 23.0763 7.24927 23.0625 7.5375V19.8281H23.0597V32.625H21.9347V20.8125C21.9342 20.6634 21.8748 20.5206 21.7694 20.4152C21.664 20.3098 21.5212 20.2504 21.3722 20.25H14.625C14.4759 20.2504 14.3331 20.3098 14.2277 20.4152C14.1223 20.5206 14.0629 20.6634 14.0625 20.8125V32.625H12.9375V7.59375C12.9375 7.446 12.9085 7.29969 12.8519 7.16318C12.7954 7.02667 12.7125 6.90264 12.6081 6.79816C12.5036 6.69369 12.3796 6.61082 12.2431 6.5543C12.1065 6.49778 11.9602 6.46871 11.8125 6.46875H10.6903C10.5425 6.46871 10.3962 6.49778 10.2597 6.5543C10.1232 6.61082 9.99918 6.69369 9.89471 6.79816C9.79024 6.90264 9.70737 7.02667 9.65085 7.16318C9.59433 7.29969 9.56526 7.446 9.5653 7.59375V32.625H0.562499C0.413315 32.625 0.270241 32.6842 0.164752 32.7897C0.0592632 32.8952 0 33.0383 0 33.1875C0 33.3366 0.0592632 33.4797 0.164752 33.5852C0.270241 33.6907 0.413315 33.75 0.562499 33.75ZM15.1875 21.375H20.8097V32.625H15.1875V21.375Z" fill="#222222"/>
<path d="M14.0625 19.125H21.9375V8.4375H14.0625V19.125ZM18 11.5312C18.445 11.5312 18.88 11.6632 19.25 11.9104C19.62 12.1577 19.9084 12.5091 20.0787 12.9202C20.249 13.3313 20.2936 13.7837 20.2068 14.2202C20.1199 14.6567 19.9056 15.0576 19.591 15.3722C19.2763 15.6869 18.8754 15.9012 18.4389 15.988C18.0025 16.0748 17.5501 16.0303 17.139 15.86C16.7278 15.6897 16.3764 15.4013 16.1292 15.0313C15.882 14.6613 15.75 14.2262 15.75 13.7812C15.7499 13.4857 15.8081 13.1931 15.9211 12.9201C16.0341 12.6471 16.1999 12.399 16.4088 12.1901C16.6178 11.9811 16.8658 11.8154 17.1389 11.7023C17.4119 11.5893 17.7045 11.5312 18 11.5312Z" fill="#222222"/>
</svg>
