<?xml version="1.0" encoding="UTF-8"?>
<svg id="Layer_1" data-name="Layer 1" xmlns="http://www.w3.org/2000/svg" viewBox="0 0 75.23 77.33">
  <path d="m1.94,31.75c.28-1.55.5-3.11.85-4.65.53-2.39,1.47-4.63,2.62-6.79,1.38-2.59,3.16-4.88,5.17-6.99,1-1.04,2.13-1.96,3.27-2.87,2.09-1.67,4.37-3.04,6.79-4.21,2.23-1.08,4.55-1.86,6.93-2.52,4.33-1.19,8.73-1.44,13.16-1.13,2.01.14,4.01.46,5.99.84,1.4.27,2.79.66,4.12,1.19,1.98.78,4.01,1.48,5.8,2.69.74.5,1.56.89,2.29,1.41,1.42,1.01,2.9,1.98,4.2,3.14,4.53,4.05,7.76,8.97,9.3,14.89.51,1.96.72,4.01,1.09,6.17-1.2-.14-2.19-.25-3.16-.37-.57-.07-1.15-.19-1.72-.21-.47-.02-.64-.2-.68-.66-.21-2.47-.84-4.84-1.8-7.12-.86-2.03-1.89-3.98-3.34-5.65-1.35-1.56-2.81-3.03-4.25-4.51-.45-.46-.99-.83-1.53-1.18-.98-.65-1.97-1.28-2.99-1.87-2.08-1.2-4.3-2.05-6.59-2.8-2.17-.71-4.37-.98-6.6-1.23-1.31-.15-2.64-.36-3.94-.24-2.71.26-5.46.52-8.11,1.17-2.26.55-4.46,1.49-6.55,2.54-1.91.97-3.75,2.18-5.4,3.54-3.05,2.51-5.52,5.53-7.22,9.15-1.22,2.59-2.01,5.28-2.28,8.13-.05.47-.19.67-.7.72-1.57.14-3.14.35-4.71.54v-1.12Z"/>
  <path d="m38.48,29.57c1.87-.78,3.8-1.63,5.75-2.4,1.11-.43,2.27-.75,3.4-1.12,2.88-.94,5.85-1.15,8.85-.99,1.25.07,2.49.29,3.72.54.73.15,1.44.47,2.14.75.54.22.76.94.5,1.47-.31.63-.8.78-1.44.55-.84-.31-1.68-.64-2.55-.8-3.58-.64-7.13-.35-10.63.54-1.23.31-2.43.71-3.63,1.13-.95.34-1.87.77-2.8,1.18-.2.09-.36.26-.6.43,1.07-.2,2.05-.43,3.04-.57,2.46-.34,4.93-.27,7.35.19,1.49.28,2.99.68,4.39,1.23,1.77.7,3.48,1.57,5.16,2.47.92.5,1.74,1.19,2.58,1.82.54.4.66,1.04.34,1.53-.31.47-.86.53-1.47.17-2.01-1.15-4.02-2.31-6.03-3.44-.28-.16-.61-.21-.92-.33-3.37-1.24-6.85-1.76-10.44-1.53-2.4.16-4.64.89-6.84,1.85.54-.05,1.08-.15,1.61-.15,1.79.02,3.59-.07,5.36.16,1.73.22,3.46.64,5.11,1.23,1.81.65,3.59,1.46,5.24,2.43,2.08,1.22,4.03,2.66,5.72,4.41.46.47.48,1.15.07,1.57-.37.38-.92.37-1.44-.04-1.48-1.16-2.94-2.36-4.45-3.47-.74-.54-1.57-.98-2.4-1.36-1.74-.8-3.52-1.46-5.38-1.99-3.04-.87-6.08-.84-9.16-.55-.06,0-.12.03-.31.09,1.14.25,2.16.52,3.2.68,1.87.3,3.6,1.03,5.28,1.82,2.03.97,3.95,2.17,5.67,3.64,1.61,1.38,3.16,2.81,4.41,4.55.52.73.46,1.32-.3,1.81-.16.1-.53.1-.65-.02-.7-.66-1.36-1.37-2.03-2.07-.54-.56-1.04-1.19-1.65-1.66-1.46-1.11-2.95-2.21-4.49-3.21-2.12-1.39-4.46-2.28-6.96-2.75-.32-.06-.62-.21-1-.17.05.06.09.15.15.17,2.09.68,3.83,1.97,5.41,3.41,2.52,2.29,4.7,4.88,6.42,7.83.13.22.3.41.43.63.39.66.23,1.42-.42,1.74-.19.09-.63,0-.77-.16-.61-.75-1.15-1.56-1.74-2.33-1.05-1.37-2.04-2.81-3.22-4.05-1.23-1.3-2.57-2.52-4.01-3.57-1.22-.88-2.55-1.68-4.14-1.9-.02.09-.08.21-.05.26.5.75.89,1.67,1.57,2.19,1.22.92,2.19,1.89,2.42,3.47.02.17.42.4.66.42.79.07,1.58.02,2.37.08.24.02.47.22.7.34-.12.24-.19.54-.38.69-.71.54-1.09,1.22-1.25,2.08-.28,1.53-.67,1.79-2.25,1.6-.14-.01-.28-.01-.5-.02,0,.27,0,.51,0,.75.05,5.37.12,10.75.16,16.12,0,.74-.08,1.49-.2,2.22-.15.94-.66,1.72-1.55,2.08-.94.38-1.86,1.1-2.94.73-1.12-.39-2.43-.55-3.06-1.79-.21-.4-.43-.86-.44-1.29-.09-3.47-.16-6.93-.17-10.4,0-2.56.1-5.12.16-7.68,0-.23,0-.46,0-.74-.58,0-1.14.07-1.67-.02-.28-.05-.62-.32-.74-.58-.24-.52-.27-1.14-.54-1.64-.28-.53-.74-.97-1.1-1.47-.15-.21-.23-.47-.34-.72.22-.09.44-.26.67-.28.76-.05,1.53-.06,2.3-.05.51,0,.74-.18.82-.71.19-1.32.99-2.24,2.05-2.98.35-.25.62-.64.9-.99.27-.34.5-.71.74-1.07.11-.17.2-.35.37-.68-1.82.36-3.21,1.17-4.53,2.13-.63.46-1.24.95-1.82,1.46-2.46,2.13-4.45,4.66-6.16,7.42-.11.18-.22.36-.36.51-.32.33-.59.87-1.18.55-.61-.32-.84-1.11-.46-1.69.88-1.35,1.74-2.73,2.75-3.99,1.24-1.54,2.6-2.98,3.96-4.42.55-.58,1.2-1.09,1.89-1.51,1.2-.73,2.45-1.35,3.68-2.03.05-.03.09-.08.09-.29-.34.1-.68.21-1.01.3-.94.25-1.92.41-2.82.76-2.03.8-4.03,1.67-5.75,3.05-1.19.94-2.4,1.86-3.54,2.86-.75.67-1.37,1.49-2.05,2.24-.15.17-.31.34-.48.5-.4.38-.79.7-1.32.14-.41-.43-.53-1.01-.14-1.51.59-.76,1.18-1.54,1.86-2.22,1.68-1.67,3.4-3.32,5.51-4.47,1.49-.81,2.96-1.69,4.53-2.29,1.62-.63,3.35-.98,5.04-1.44.52-.14,1.05-.27,1.58-.56-1.37-.05-2.73-.18-4.1-.14-1.27.03-2.57.11-3.81.38-2.38.52-4.72,1.25-6.88,2.42-1.29.7-2.55,1.48-3.75,2.32-.99.7-1.89,1.53-2.83,2.31-.64.52-1.2.59-1.6.17-.43-.45-.33-1.16.24-1.72,1.48-1.46,3.14-2.69,4.89-3.82,1.64-1.05,3.33-1.97,5.18-2.55,1.56-.49,3.15-.87,4.72-1.3,2.51-.69,5.05-.51,7.59-.3.14.01.28.02.42.02.04,0,.07-.03.2-.09-.56-.2-1.06-.36-1.54-.54-4.11-1.53-8.31-1.58-12.53-.67-2.32.5-4.55,1.35-6.65,2.49-1.2.65-2.33,1.45-3.5,2.18-.71.45-1.25.43-1.6-.06-.36-.51-.23-1.18.42-1.62,1.3-.87,2.59-1.74,3.94-2.52,2.29-1.32,4.78-2.09,7.36-2.72,3.18-.78,6.33-.68,9.51-.24.51.07.99.31,1.56.33-.22-.14-.42-.34-.66-.43-1.62-.61-3.24-1.21-4.87-1.78-3.1-1.1-6.31-1.5-9.58-1.29-1.42.09-2.84.43-4.25.68-.24.04-.46.19-.67.31-.66.37-1.21.2-1.55-.47-.31-.61-.03-1.26.63-1.53,3.1-1.28,6.34-1.45,9.62-1.18.74.06,1.49.1,2.21.27,1.84.44,3.71.82,5.49,1.45,1.95.68,3.81,1.61,5.7,2.45.26.12.47.32.8.4-.09-.14-.16-.31-.28-.41-1.32-1.08-2.62-2.17-3.98-3.21-2.33-1.77-4.94-2.97-7.74-3.84-1.85-.58-3.71-.67-5.6-.8-.36-.02-.91-.25-1.01-.52-.14-.37-.04-.92.16-1.29.13-.23.61-.34.95-.36,1.93-.11,3.84.19,5.67.78,1.64.52,3.33,1.01,4.84,1.82,1.97,1.06,3.79,2.41,5.66,3.65.18.12.28.35.41.54.07-.05.14-.1.21-.16-.4-.66-.78-1.34-1.2-2-1.43-2.18-3.14-4.1-5.23-5.65-.86-.64-1.87-1.08-2.83-1.58-.4-.21-.77-.39-.83-.92-.06-.54.16-.91.59-1.16.18-.1.47-.18.62-.1,1.32.71,2.69,1.34,3.89,2.21,1.6,1.16,3,2.57,4.13,4.22.18.26.4.48.6.72.06-.04.12-.07.19-.11-.6-1.26-1.13-2.57-1.84-3.77-.54-.89-1.31-1.64-2.01-2.43-.39-.45-.45-.93-.14-1.4.33-.51.84-.54,1.34-.24,1.31.78,2.01,2.07,2.71,3.35.4.73.75,1.48,1.16,2.3.35-1.96-.45-3.98.75-5.84,1.19,1.82.41,3.82.77,5.8.41-.82.74-1.54,1.12-2.24.66-1.2,1.34-2.39,2.49-3.21.67-.47,1.25-.43,1.59.06.37.52.22,1.1-.4,1.62-1.28,1.07-1.98,2.54-2.67,4-.33.69-.59,1.4-.79,2.17.56-.67,1.1-1.37,1.68-2.02.59-.67,1.19-1.34,1.86-1.93,1.44-1.27,2.98-2.38,4.81-3.06.48-.18.78-.35,1.19.07.61.63.48,1.4-.28,1.84-1.38.8-2.81,1.57-4.08,2.53-1.5,1.15-2.73,2.6-3.76,4.21-.41.64-.85,1.27-1.26,1.91-.14.21-.24.46-.45.86,1.88-1.52,3.67-2.78,5.61-3.84,2.15-1.17,4.37-2.08,6.77-2.5,1.49-.26,3.01-.38,4.52-.54.96-.1,1.24.58,1.25,1.13.02.73-.36,1.01-1.23,1.08-1.5.12-3.04.13-4.49.47-2.6.61-5.04,1.68-7.33,3.11-1.98,1.24-3.79,2.7-5.5,4.28-.1.09-.14.25-.14.25"/>
  <path d="m57.82,59.86c0-1.46.14-2.8-.04-4.09-.21-1.49.53-2.32,1.54-3.16,1.99-1.67,3.7-3.61,4.95-5.89.94-1.72,1.85-3.47,2.52-5.31.57-1.55.76-3.24,1.12-4.87.04-.18.06-.36.1-.64,1.72.21,3.42.42,5.2.64-.32,3.8-1.42,7.33-3.19,10.64-2.84,5.33-6.95,9.44-12.2,12.68"/>
  <path d="m17.35,59.82c-.97-.65-1.93-1.22-2.82-1.9-4.64-3.56-8.28-7.93-10.51-13.39-1.04-2.54-1.71-5.18-1.96-7.99,1.74-.22,3.44-.43,5.16-.64.2,1.13.36,2.2.59,3.26.42,2,1.14,3.91,2.09,5.72,1.28,2.45,2.83,4.7,4.86,6.61.77.72,1.56,1.43,2.31,2.16.17.16.36.4.36.6.03,1.77.01,3.54,0,5.3,0,.06-.04.12-.1.27"/>
  <path d="m1.94,31.75c.28-1.55.5-3.11.85-4.65.53-2.39,1.47-4.63,2.62-6.79,1.38-2.59,3.16-4.88,5.17-6.99,1-1.04,2.13-1.96,3.27-2.87,2.09-1.67,4.37-3.04,6.79-4.21,2.23-1.08,4.55-1.86,6.93-2.52,4.33-1.19,8.73-1.44,13.16-1.13,2.01.14,4.01.46,5.99.84,1.4.27,2.79.66,4.12,1.19,1.98.78,4.01,1.48,5.8,2.69.74.5,1.56.89,2.29,1.41,1.42,1.01,2.9,1.98,4.2,3.14,4.53,4.05,7.76,8.97,9.3,14.89.51,1.96.72,4.01,1.09,6.17-1.2-.14-2.19-.25-3.16-.37-.57-.07-1.15-.19-1.72-.21-.47-.02-.64-.2-.68-.66-.21-2.47-.84-4.84-1.8-7.12-.86-2.03-1.89-3.98-3.34-5.65-1.35-1.56-2.81-3.03-4.25-4.51-.45-.46-.99-.83-1.53-1.18-.98-.65-1.97-1.28-2.99-1.87-2.08-1.2-4.3-2.05-6.59-2.8-2.17-.71-4.37-.98-6.6-1.23-1.31-.15-2.64-.36-3.94-.24-2.71.26-5.46.52-8.11,1.17-2.26.55-4.46,1.49-6.55,2.54-1.91.97-3.75,2.18-5.4,3.54-3.05,2.51-5.52,5.53-7.22,9.15-1.22,2.59-2.01,5.28-2.28,8.13-.05.47-.19.67-.7.72-1.57.14-3.14.35-4.71.54v-1.12Z"/>
  <path d="m38.48,29.57c1.87-.78,3.8-1.63,5.75-2.4,1.11-.43,2.27-.75,3.4-1.12,2.88-.94,5.85-1.15,8.85-.99,1.25.07,2.49.29,3.72.54.73.15,1.44.47,2.14.75.54.22.76.94.5,1.47-.31.63-.8.78-1.44.55-.84-.31-1.68-.64-2.55-.8-3.58-.64-7.13-.35-10.63.54-1.23.31-2.43.71-3.63,1.13-.95.34-1.87.77-2.8,1.18-.2.09-.36.26-.6.43,1.07-.2,2.05-.43,3.04-.57,2.46-.34,4.93-.27,7.35.19,1.49.28,2.99.68,4.39,1.23,1.77.7,3.48,1.57,5.16,2.47.92.5,1.74,1.19,2.58,1.82.54.4.66,1.04.34,1.53-.31.47-.86.53-1.47.17-2.01-1.15-4.02-2.31-6.03-3.44-.28-.16-.61-.21-.92-.33-3.37-1.24-6.85-1.76-10.44-1.53-2.4.16-4.64.89-6.84,1.85.54-.05,1.08-.15,1.61-.15,1.79.02,3.59-.07,5.36.16,1.73.22,3.46.64,5.11,1.23,1.81.65,3.59,1.46,5.24,2.43,2.08,1.22,4.03,2.66,5.72,4.41.46.47.48,1.15.07,1.57-.37.38-.92.37-1.44-.04-1.48-1.16-2.94-2.36-4.45-3.47-.74-.54-1.57-.98-2.4-1.36-1.74-.8-3.52-1.46-5.38-1.99-3.04-.87-6.08-.84-9.16-.55-.06,0-.12.03-.31.09,1.14.25,2.16.52,3.2.68,1.87.3,3.6,1.03,5.28,1.82,2.03.97,3.95,2.17,5.67,3.64,1.61,1.38,3.16,2.81,4.41,4.55.52.73.46,1.32-.3,1.81-.16.1-.53.1-.65-.02-.7-.66-1.36-1.37-2.03-2.07-.54-.56-1.04-1.19-1.65-1.66-1.46-1.11-2.95-2.21-4.49-3.21-2.12-1.39-4.46-2.28-6.96-2.75-.32-.06-.62-.21-1-.17.05.06.09.15.15.17,2.09.68,3.83,1.97,5.41,3.41,2.52,2.29,4.7,4.88,6.42,7.83.13.22.3.41.43.63.39.66.23,1.42-.42,1.74-.19.09-.63,0-.77-.16-.61-.75-1.15-1.56-1.74-2.33-1.05-1.37-2.04-2.81-3.22-4.05-1.23-1.3-2.57-2.52-4.01-3.57-1.22-.88-2.55-1.68-4.14-1.9-.02.09-.08.21-.05.26.5.75.89,1.67,1.57,2.19,1.22.92,2.19,1.89,2.42,3.47.02.17.42.4.66.42.79.07,1.58.02,2.37.08.24.02.47.22.7.34-.12.24-.19.54-.38.69-.71.54-1.09,1.22-1.25,2.08-.28,1.53-.67,1.79-2.25,1.6-.14-.01-.28-.01-.5-.02,0,.27,0,.51,0,.75.05,5.37.12,10.75.16,16.12,0,.74-.08,1.49-.2,2.22-.15.94-.66,1.72-1.55,2.08-.94.38-1.86,1.1-2.94.73-1.12-.39-2.43-.55-3.06-1.79-.21-.4-.43-.86-.44-1.29-.09-3.47-.16-6.93-.17-10.4,0-2.56.1-5.12.16-7.68,0-.23,0-.46,0-.74-.58,0-1.14.07-1.67-.02-.28-.05-.62-.32-.74-.58-.24-.52-.27-1.14-.54-1.64-.28-.53-.74-.97-1.1-1.47-.15-.21-.23-.47-.34-.72.22-.09.44-.26.67-.28.76-.05,1.53-.06,2.3-.05.51,0,.74-.18.82-.71.19-1.32.99-2.24,2.05-2.98.35-.25.62-.64.9-.99.27-.34.5-.71.74-1.07.11-.17.2-.35.37-.68-1.82.36-3.21,1.17-4.53,2.13-.63.46-1.24.95-1.82,1.46-2.46,2.13-4.45,4.66-6.16,7.42-.11.18-.22.36-.36.51-.32.33-.59.87-1.18.55-.61-.32-.84-1.11-.46-1.69.88-1.35,1.74-2.73,2.75-3.99,1.24-1.54,2.6-2.98,3.96-4.42.55-.58,1.2-1.09,1.89-1.51,1.2-.73,2.45-1.35,3.68-2.03.05-.03.09-.08.09-.29-.34.1-.68.21-1.01.3-.94.25-1.92.41-2.82.76-2.03.8-4.03,1.67-5.75,3.05-1.19.94-2.4,1.86-3.54,2.86-.75.67-1.37,1.49-2.05,2.24-.15.17-.31.34-.48.5-.4.38-.79.7-1.32.14-.41-.43-.53-1.01-.14-1.51.59-.76,1.18-1.54,1.86-2.22,1.68-1.67,3.4-3.32,5.51-4.47,1.49-.81,2.96-1.69,4.53-2.29,1.62-.63,3.35-.98,5.04-1.44.52-.14,1.05-.27,1.58-.56-1.37-.05-2.73-.18-4.1-.14-1.27.03-2.57.11-3.81.38-2.38.52-4.72,1.25-6.88,2.42-1.29.7-2.55,1.48-3.75,2.32-.99.7-1.89,1.53-2.83,2.31-.64.52-1.2.59-1.6.17-.43-.45-.33-1.16.24-1.72,1.48-1.46,3.14-2.69,4.89-3.82,1.64-1.05,3.33-1.97,5.18-2.55,1.56-.49,3.15-.87,4.72-1.3,2.51-.69,5.05-.51,7.59-.3.14.01.28.02.42.02.04,0,.07-.03.2-.09-.56-.2-1.06-.36-1.54-.54-4.11-1.53-8.31-1.58-12.53-.67-2.32.5-4.55,1.35-6.65,2.49-1.2.65-2.33,1.45-3.5,2.18-.71.45-1.25.43-1.6-.06-.36-.51-.23-1.18.42-1.62,1.3-.87,2.59-1.74,3.94-2.52,2.29-1.32,4.78-2.09,7.36-2.72,3.18-.78,6.33-.68,9.51-.24.51.07.99.31,1.56.33-.22-.14-.42-.34-.66-.43-1.62-.61-3.24-1.21-4.87-1.78-3.1-1.1-6.31-1.5-9.58-1.29-1.42.09-2.84.43-4.25.68-.24.04-.46.19-.67.31-.66.37-1.21.2-1.55-.47-.31-.61-.03-1.26.63-1.53,3.1-1.28,6.34-1.45,9.62-1.18.74.06,1.49.1,2.21.27,1.84.44,3.71.82,5.49,1.45,1.95.68,3.81,1.61,5.7,2.45.26.12.47.32.8.4-.09-.14-.16-.31-.28-.41-1.32-1.08-2.62-2.17-3.98-3.21-2.33-1.77-4.94-2.97-7.74-3.84-1.85-.58-3.71-.67-5.6-.8-.36-.02-.91-.25-1.01-.52-.14-.37-.04-.92.16-1.29.13-.23.61-.34.95-.36,1.93-.11,3.84.19,5.67.78,1.64.52,3.33,1.01,4.84,1.82,1.97,1.06,3.79,2.41,5.66,3.65.18.12.28.35.41.54.07-.05.14-.1.21-.16-.4-.66-.78-1.34-1.2-2-1.43-2.18-3.14-4.1-5.23-5.65-.86-.64-1.87-1.08-2.83-1.58-.4-.21-.77-.39-.83-.92-.06-.54.16-.91.59-1.16.18-.1.47-.18.62-.1,1.32.71,2.69,1.34,3.89,2.21,1.6,1.16,3,2.57,4.13,4.22.18.26.4.48.6.72.06-.04.12-.07.19-.11-.6-1.26-1.13-2.57-1.84-3.77-.54-.89-1.31-1.64-2.01-2.43-.39-.45-.45-.93-.14-1.4.33-.51.84-.54,1.34-.24,1.31.78,2.01,2.07,2.71,3.35.4.73.75,1.48,1.16,2.3.35-1.96-.45-3.98.75-5.84,1.19,1.82.41,3.82.77,5.8.41-.82.74-1.54,1.12-2.24.66-1.2,1.34-2.39,2.49-3.21.67-.47,1.25-.43,1.59.06.37.52.22,1.1-.4,1.62-1.28,1.07-1.98,2.54-2.67,4-.33.69-.59,1.4-.79,2.17.56-.67,1.1-1.37,1.68-2.02.59-.67,1.19-1.34,1.86-1.93,1.44-1.27,2.98-2.38,4.81-3.06.48-.18.78-.35,1.19.07.61.63.48,1.4-.28,1.84-1.38.8-2.81,1.57-4.08,2.53-1.5,1.15-2.73,2.6-3.76,4.21-.41.64-.85,1.27-1.26,1.91-.14.21-.24.46-.45.86,1.88-1.52,3.67-2.78,5.61-3.84,2.15-1.17,4.37-2.08,6.77-2.5,1.49-.26,3.01-.38,4.52-.54.96-.1,1.24.58,1.25,1.13.02.73-.36,1.01-1.23,1.08-1.5.12-3.04.13-4.49.47-2.6.61-5.04,1.68-7.33,3.11-1.98,1.24-3.79,2.7-5.5,4.28-.1.09-.14.25-.14.25"/>
  <path d="m57.82,59.86c0-1.46.14-2.8-.04-4.09-.21-1.49.53-2.32,1.54-3.16,1.99-1.67,3.7-3.61,4.95-5.89.94-1.72,1.85-3.47,2.52-5.31.57-1.55.76-3.24,1.12-4.87.04-.18.06-.36.1-.64,1.72.21,3.42.42,5.2.64-.32,3.8-1.42,7.33-3.19,10.64-2.84,5.33-6.95,9.44-12.2,12.68"/>
  <path d="m17.35,59.82c-.97-.65-1.93-1.22-2.82-1.9-4.64-3.56-8.28-7.93-10.51-13.39-1.04-2.54-1.71-5.18-1.96-7.99,1.74-.22,3.44-.43,5.16-.64.2,1.13.36,2.2.59,3.26.42,2,1.14,3.91,2.09,5.72,1.28,2.45,2.83,4.7,4.86,6.61.77.72,1.56,1.43,2.31,2.16.17.16.36.4.36.6.03,1.77.01,3.54,0,5.3,0,.06-.04.12-.1.27"/>
</svg>