<?xml version="1.0" encoding="UTF-8"?>
<svg id="Layer_1" data-name="Layer 1" xmlns="http://www.w3.org/2000/svg" xmlns:xlink="http://www.w3.org/1999/xlink" viewBox="0 0 361.53 496.34">
  <defs>
    <style>
      .cls-1 {
        clip-path: url(#clippath-64);
      }

      .cls-1, .cls-2, .cls-3, .cls-4, .cls-5, .cls-6, .cls-7, .cls-8, .cls-9, .cls-10, .cls-11, .cls-12, .cls-13, .cls-14, .cls-15, .cls-16, .cls-17, .cls-18, .cls-19, .cls-20, .cls-21, .cls-22, .cls-23, .cls-24, .cls-25, .cls-26, .cls-27, .cls-28, .cls-29, .cls-30, .cls-31, .cls-32, .cls-33, .cls-34, .cls-35, .cls-36, .cls-37, .cls-38, .cls-39, .cls-40, .cls-41 {
        fill: none;
      }

      .cls-42 {
        fill: #fff;
      }

      .cls-2 {
        clip-path: url(#clippath-55);
      }

      .cls-3 {
        clip-path: url(#clippath-45);
      }

      .cls-4 {
        clip-path: url(#clippath-32);
      }

      .cls-5 {
        clip-path: url(#clippath-36);
      }

      .cls-6 {
        clip-path: url(#clippath-57);
      }

      .cls-43 {
        fill: #e0e0e0;
      }

      .cls-7 {
        clip-path: url(#clippath-47);
      }

      .cls-8 {
        clip-path: url(#clippath-43);
      }

      .cls-9 {
        clip-path: url(#clippath-63);
      }

      .cls-10 {
        clip-path: url(#clippath-40);
      }

      .cls-11 {
        clip-path: url(#clippath-37);
      }

      .cls-12 {
        clip-path: url(#clippath-34);
      }

      .cls-13 {
        clip-path: url(#clippath-46);
      }

      .cls-14 {
        clip-path: url(#clippath-35);
      }

      .cls-15 {
        clip-path: url(#clippath-58);
      }

      .cls-44 {
        fill: gray;
      }

      .cls-16, .cls-26, .cls-27, .cls-29, .cls-33, .cls-35, .cls-38 {
        stroke-linecap: round;
        stroke-linejoin: round;
      }

      .cls-16, .cls-26, .cls-35, .cls-38 {
        stroke: #000;
      }

      .cls-16, .cls-29, .cls-33 {
        stroke-width: .25px;
      }

      .cls-17 {
        clip-path: url(#clippath-48);
      }

      .cls-18 {
        clip-path: url(#clippath-51);
      }

      .cls-19 {
        clip-path: url(#clippath-52);
      }

      .cls-20 {
        clip-path: url(#clippath-50);
      }

      .cls-21 {
        clip-path: url(#clippath-42);
      }

      .cls-22 {
        clip-path: url(#clippath-44);
      }

      .cls-23 {
        clip-path: url(#clippath-33);
      }

      .cls-25 {
        clip-path: url(#clippath-56);
      }

      .cls-26 {
        stroke-width: .36px;
      }

      .cls-27 {
        stroke: #757575;
        stroke-width: .24px;
      }

      .cls-28 {
        clip-path: url(#clippath-53);
      }

      .cls-29 {
        stroke: #85878a;
      }

      .cls-45 {
        fill: #757575;
      }

      .cls-30 {
        clip-path: url(#clippath-61);
      }

      .cls-31 {
        clip-path: url(#clippath-54);
      }

      .cls-32 {
        clip-path: url(#clippath-38);
      }

      .cls-33 {
        stroke: gray;
      }

      .cls-34 {
        clip-path: url(#clippath-60);
      }

      .cls-35 {
        stroke-width: .72px;
      }

      .cls-36 {
        clip-path: url(#clippath-39);
      }

      .cls-37 {
        clip-path: url(#clippath-62);
      }

      .cls-38 {
        stroke-width: .48px;
      }

      .cls-39 {
        clip-path: url(#clippath-41);
      }

      .cls-40 {
        clip-path: url(#clippath-59);
      }

      .cls-41 {
        clip-path: url(#clippath-49);
      }
    </style>
    <clipPath id="clippath-32">
      <rect class="cls-24" x="-964.49" y="-182.01" width="1371.97" height="864.57"/>
    </clipPath>
    <clipPath id="clippath-33">
      <rect class="cls-24" x="-964.49" y="-182.01" width="1371.97" height="864.57"/>
    </clipPath>
    <clipPath id="clippath-34">
      <rect class="cls-24" x="-964.49" y="-182.01" width="1371.97" height="864.57"/>
    </clipPath>
    <clipPath id="clippath-35">
      <rect class="cls-24" x="-964.49" y="-182.01" width="1371.97" height="864.57"/>
    </clipPath>
    <clipPath id="clippath-36">
      <rect class="cls-24" x="-964.49" y="-182.01" width="1371.97" height="864.57"/>
    </clipPath>
    <clipPath id="clippath-37">
      <rect class="cls-24" x="-964.49" y="-182.01" width="1371.97" height="864.57"/>
    </clipPath>
    <clipPath id="clippath-38">
      <rect class="cls-24" x="-964.49" y="-182.01" width="1371.97" height="864.57"/>
    </clipPath>
    <clipPath id="clippath-39">
      <rect class="cls-24" x="-964.49" y="-182.01" width="1371.97" height="864.57"/>
    </clipPath>
    <clipPath id="clippath-40">
      <rect class="cls-24" x="-964.49" y="-182.01" width="1371.97" height="864.57"/>
    </clipPath>
    <clipPath id="clippath-41">
      <rect class="cls-24" x="-964.49" y="-182.01" width="1371.97" height="864.57"/>
    </clipPath>
    <clipPath id="clippath-42">
      <rect class="cls-24" x="-964.49" y="-182.01" width="1371.97" height="864.57"/>
    </clipPath>
    <clipPath id="clippath-43">
      <rect class="cls-24" x="-964.49" y="-182.01" width="1371.97" height="864.57"/>
    </clipPath>
    <clipPath id="clippath-44">
      <rect class="cls-24" x="-964.49" y="-182.01" width="1371.97" height="864.57"/>
    </clipPath>
    <clipPath id="clippath-45">
      <rect class="cls-24" x="-964.49" y="-182.01" width="1371.97" height="864.57"/>
    </clipPath>
    <clipPath id="clippath-46">
      <rect class="cls-24" x="-964.49" y="-182.01" width="1371.97" height="864.57"/>
    </clipPath>
    <clipPath id="clippath-47">
      <rect class="cls-24" x="-964.49" y="-182.01" width="1371.97" height="864.57"/>
    </clipPath>
    <clipPath id="clippath-48">
      <rect class="cls-24" x="-964.49" y="-182.01" width="1371.97" height="864.57"/>
    </clipPath>
    <clipPath id="clippath-49">
      <rect class="cls-24" x="-964.49" y="-182.01" width="1371.97" height="864.57"/>
    </clipPath>
    <clipPath id="clippath-50">
      <rect class="cls-24" x="-964.49" y="-182.01" width="1371.97" height="864.57"/>
    </clipPath>
    <clipPath id="clippath-51">
      <rect class="cls-24" x="-964.49" y="-182.01" width="1371.97" height="864.57"/>
    </clipPath>
    <clipPath id="clippath-52">
      <rect class="cls-24" x="-964.49" y="-182.01" width="1371.97" height="864.57"/>
    </clipPath>
    <clipPath id="clippath-53">
      <rect class="cls-24" x="-964.49" y="-182.01" width="1371.97" height="864.57"/>
    </clipPath>
    <clipPath id="clippath-54">
      <rect class="cls-24" x="-964.49" y="-182.01" width="1371.97" height="864.57"/>
    </clipPath>
    <clipPath id="clippath-55">
      <rect class="cls-24" x="-964.49" y="-182.01" width="1371.97" height="864.57"/>
    </clipPath>
    <clipPath id="clippath-56">
      <rect class="cls-24" x="-964.49" y="-182.01" width="1371.97" height="864.57"/>
    </clipPath>
    <clipPath id="clippath-57">
      <rect class="cls-24" x="-964.49" y="-182.01" width="1371.97" height="864.57"/>
    </clipPath>
    <clipPath id="clippath-58">
      <rect class="cls-24" x="-964.49" y="-182.01" width="1371.97" height="864.57"/>
    </clipPath>
    <clipPath id="clippath-59">
      <rect class="cls-24" x="-964.49" y="-182.01" width="1371.97" height="864.57"/>
    </clipPath>
    <clipPath id="clippath-60">
      <rect class="cls-24" x="-964.49" y="-182.01" width="1371.97" height="864.57"/>
    </clipPath>
    <clipPath id="clippath-61">
      <rect class="cls-24" x="-964.49" y="-182.01" width="1371.97" height="864.57"/>
    </clipPath>
    <clipPath id="clippath-62">
      <rect class="cls-24" x="-964.49" y="-182.01" width="1371.97" height="864.57"/>
    </clipPath>
    <clipPath id="clippath-63">
      <rect class="cls-24" x="-964.49" y="-182.01" width="1371.97" height="864.57"/>
    </clipPath>
    <clipPath id="clippath-64">
      <rect class="cls-24" x="-964.49" y="-182.01" width="1371.97" height="864.57"/>
    </clipPath>
  </defs>
  <path class="cls-26" d="m26.62,123.91h10.79v116.99m-10.79,12.93V102.33"/>
  <path class="cls-38" d="m345.05,126.05h2.14v-7.28h-2.14l-305.39,7.28h305.39Zm-307.53,0h2.14v-7.28h-2.14v7.28Z"/>
  <path class="cls-16" d="m345.08,120.81H39.63m305.45-2.08H39.63"/>
  <rect class="cls-33" x="318.2" y="260.43" width="13.85" height="73.64"/>
  <line class="cls-35" x1="340.65" y1="212.84" x2="340.65" y2="418.5"/>
  <rect class="cls-33" x="336.49" y="263.64" width="4.22" height="25.9"/>
  <polygon class="cls-44" points="337.53 269.67 339.94 269.67 339.94 268.86 340.26 268.86 340.26 270.81 339.94 270.81 339.94 270 337.53 270 337.53 269.67"/>
  <polygon class="cls-44" points="337.53 271.15 340.26 271.15 340.26 272.93 339.94 272.93 339.94 271.48 339.1 271.48 339.1 272.83 338.78 272.83 338.78 271.48 337.85 271.48 337.85 272.98 337.53 272.98 337.53 271.15"/>
  <polygon class="cls-44" points="337.53 273.42 340.26 273.42 340.26 273.74 337.85 273.74 337.85 274.95 337.53 274.95 337.53 273.42"/>
  <rect class="cls-44" x="337.53" y="275.39" width=".38" height=".34"/>
  <g class="cls-4">
    <path class="cls-44" d="m339.11,277.56v.53c0,.14.01.25.03.31.03.08.07.14.14.19.06.04.14.06.24.06s.17-.02.24-.06c.07-.04.12-.1.14-.17.03-.07.04-.2.04-.37v-.49h-.83Zm-1.26,0v.61c0,.11,0,.18.01.22.02.08.04.14.07.19.04.05.09.09.15.12.07.03.14.05.23.05.1,0,.19-.02.26-.07.08-.05.13-.11.16-.2.03-.08.04-.2.04-.36v-.57h-.94Zm-.32-.33h2.73v.92c0,.19-.03.34-.08.45-.06.11-.14.2-.26.27s-.24.1-.36.1c-.12,0-.23-.03-.33-.08-.1-.06-.19-.14-.25-.26-.05.15-.13.26-.25.34-.12.08-.26.12-.41.12-.13,0-.25-.02-.36-.07-.11-.05-.19-.11-.25-.18-.06-.07-.1-.16-.14-.27-.03-.11-.05-.24-.05-.4v-.94Z"/>
    <path class="cls-44" d="m338.85,279.77c-.33,0-.59.08-.78.24-.19.16-.28.36-.28.6s.09.45.29.6c.19.16.46.24.81.24.22,0,.42-.03.58-.1.16-.07.29-.17.38-.3.09-.13.14-.28.14-.44,0-.23-.09-.43-.26-.59-.18-.16-.47-.25-.88-.25m0-.34c.45,0,.81.11,1.06.33.26.22.38.5.38.85,0,.23-.06.43-.18.61-.12.18-.29.32-.5.42-.22.1-.46.14-.73.14s-.53-.05-.74-.15c-.22-.1-.38-.24-.5-.43-.11-.18-.17-.38-.17-.6,0-.23.06-.44.19-.62s.29-.32.51-.41c.21-.09.44-.14.68-.14"/>
    <path class="cls-44" d="m337.53,281.95l1.42.95,1.31-.84v.39l-.7.44c-.15.09-.26.16-.33.2.1.05.2.12.31.19l.72.49v.35l-1.29-.86-1.44.93v-.4l.97-.62c.06-.04.12-.07.18-.11-.1-.06-.17-.09-.21-.12l-.95-.62v-.39Z"/>
  </g>
  <path class="cls-42" d="m133.65,384.78v-15.17l41.58,15.17h-41.58Zm0-15.17l41.58,15.17v-15.17h-41.58Z"/>
  <path class="cls-33" d="m175.19,384.75h-41.52v-15.1h41.52v15.1Zm-39.73-.62l-1.78-1.78m.62-2.4l-.62-.62m3.3,3.29l-1.87-1.96m4.01,4.09l-1.34-1.42m-1.96-4.89l-1.87-1.96m4.54,4.62l-1.87-1.95m4.54,4.62l-1.87-1.96m2.94,2.93l-.27-.27m-7.31-10.31l-.98-.98m3.74,3.64l-1.96-1.87m4.63,4.62l-1.96-1.96m4.63,4.62l-1.96-1.95m4.45,4.44l-1.78-1.78m-7.22-10.31l-1.96-1.87m4.63,4.53l-1.96-1.87m4.63,4.53l-1.96-1.87m4.63,4.53l-1.96-1.87m4.63,4.53l-1.96-1.87m3.3,3.29l-.62-.62m-9.89-12.97l-1.52-1.51m4.19,4.18l-1.96-1.87m4.63,4.53l-1.96-1.87m4.63,4.53l-1.96-1.87m4.63,4.53l-1.87-1.87m4.54,4.53l-1.87-1.87m-7.31-10.31l-1.87-1.87m4.54,4.53l-1.87-1.87m4.54,4.53l-1.87-1.87m4.54,4.53l-1.87-1.87m4.54,4.53l-1.87-1.87m3.65,3.64l-.98-.98m-9.98-12.97l-1.16-1.15m3.83,3.82l-1.87-1.95m4.54,4.62l-1.87-1.96m4.54,4.62l-1.87-1.95m4.54,4.62l-1.87-1.87m4.54,4.53l-1.87-1.87m-7.31-10.31l-1.87-1.95m4.54,4.62l-1.87-1.95m4.63,4.62l-1.96-1.96m4.63,4.62l-1.96-1.95m4.63,4.62l-1.96-1.96m4.1,4.09l-1.43-1.42m-9.89-12.88l-.8-.8m3.47,3.46l-1.96-1.95m4.63,4.62l-1.96-1.95m4.63,4.62l-1.96-1.96m4.63,4.62l-1.96-1.95m4.63,4.62l-1.96-1.96m2.94,2.93l-.27-.27m-9.89-12.97l-1.96-1.87m4.63,4.53l-1.96-1.87m4.63,4.53l-1.96-1.87m4.63,4.62l-1.96-1.96m4.63,4.62l-1.87-1.95m4.36,4.44l-1.69-1.78m-9.98-12.97l-.36-.36m3.03,3.02l-1.87-1.87m4.54,4.53l-1.87-1.87m4.54,4.53l-1.87-1.87m4.54,4.53l-1.87-1.87m4.54,4.53l-1.87-1.87m3.3,3.29l-.62-.62m-9.98-12.97l-1.52-1.51m4.19,4.18l-1.87-1.87m4.54,4.53l-1.87-1.87m4.54,4.53l-1.87-1.87m4.54,4.53l-1.87-1.87m4.54,4.53l-1.87-1.87m-7.31-10.31l-1.87-1.87m4.54,4.53l-1.87-1.87m4.63,4.53l-1.96-1.87m4.63,4.53l-1.96-1.87m4.63,4.53l-1.96-1.87m3.03,3.02l-.36-.36m-9.89-12.97l-1.16-1.15m3.83,3.82l-1.96-1.95m4.63,4.62l-1.96-1.96m4.63,4.62l-1.96-1.95m4.19,4.18l-1.52-1.42m-4.54-7.64l-1.96-1.95m4.63,4.62l-1.96-1.95m4.63,4.62l-1.96-1.96m-1.87-4.89l-.8-.8m3.47,3.46l-1.87-1.95m3.74,3.82l-1.07-1.15m.71-2.31l-1.87-1.87m-38.4,15.1l-.89-.89m3.92.89l-3.92-3.91m6.95,3.91l-6.95-7.02m10.07,7.02l-10.07-10.04m13.1,10.04l-13.1-13.06m16.13,13.06l-15.15-15.1m18.26,15.1l-15.15-15.1m18.17,15.1l-15.14-15.1m18.17,15.1l-15.15-15.1m18.26,15.1l-15.15-15.1m18.17,15.1l-15.15-15.1m18.17,15.1l-15.06-15.1m18.17,15.1l-15.14-15.1m18.17,15.1l-15.15-15.1m16.04,12.97l-12.92-12.97m12.92,9.86l-9.89-9.86m9.89,6.84l-6.86-6.84m6.86,3.82l-3.74-3.82m3.74.71l-.71-.71m.71,0h-41.52v15.1h41.52v-15.1Z"/>
  <path class="cls-42" d="m164.43,391.02v-18.56l-.62,19.18.62-.62Zm0-18.56l-.62,19.18-.09-19.9.71.71Zm-.62,19.18l-.09-19.9-18.56,19.99,18.65-.09Zm-.09-19.9l-18.56,19.99v-19.99h18.56Zm-18.56,19.99v-19.99l-.62,19.36.62.62Zm0-19.99l-.62,19.36-.09-18.65.71-.71Z"/>
  <g class="cls-23">
    <path class="cls-33" d="m112.44,406.28l1.87-1.96m-4.54,4.63l1.87-1.96m-3.92,4.01l1.25-1.34m5.53-4.01l1.87-1.78m-4.55,4.46l1.96-1.87m-4.64,4.55l1.96-1.87m-3.39,3.39l.71-.71m5.53-4.01l1.87-1.96m-4.55,4.64l1.87-1.96m-4.55,4.63l1.87-1.96m-2.76,2.85l.09-.18m8.2-6.68l.36-.27m-3.03,2.94l1.96-1.87m-4.64,4.55l1.96-1.87m-4.64,4.55l1.96-1.87m5.53-4.01l.89-.89m-3.56,3.57l1.87-1.87m-4.55,4.55l1.87-1.87m-4.28,4.28l1.6-1.6m5.61-4.01l1.43-1.51m-4.19,4.19l1.96-1.96m-4.63,4.64l1.96-1.96m-3.74,3.74l1.07-1.07m5.52-4.01l1.96-1.87m-4.63,4.55l1.96-1.87m-4.63,4.55l1.87-1.87m-3.12,3.21l.45-.54m5.61-4.01l1.87-1.96m-4.55,4.64l1.87-1.96m-4.55,4.64l1.87-1.96m5.53-4.01l.53-.45m-3.21,3.12l1.96-1.87m-4.64,4.55l1.96-1.87m-4.64,4.55l1.96-1.87m5.53-4.01l1.07-1.07m-3.74,3.74l1.87-1.87m-4.55,4.55l1.87-1.87m-4.1,4.1l1.43-1.43m5.53-4.01l1.69-1.69m-4.37,4.37l1.96-1.96m-4.64,4.63l1.96-1.96m-3.57,3.57l.89-.89m5.53-4.01l1.87-1.87m-4.55,4.55l1.87-1.87m-4.54,4.55l1.87-1.87m-2.94,3.03l.27-.36m8.29-6.69l.09-.09m-2.76,2.76l1.87-1.96m-4.63,4.64l1.96-1.96m-4.63,4.63l1.96-1.96m5.53-4.01l.71-.62m-3.39,3.3l1.96-1.87m-4.63,4.55l1.87-1.87m-4.46,4.55l1.78-1.87m5.61-4.01l1.25-1.25m-3.92,3.92l1.87-1.87m-4.54,4.55l1.87-1.87m-3.92,3.92l1.25-1.25m5.53-4.01l1.87-1.87m-4.55,4.55l1.96-1.96m-4.64,4.64l1.96-1.96m-3.39,3.39l.71-.71m5.53-4.01l1.87-1.87m-4.55,4.55l1.87-1.87m-4.55,4.55l1.87-1.87m-2.76,2.76l.09-.09m8.2-6.68l.36-.36m-3.03,3.03l1.96-1.96m-4.64,4.63l1.96-1.96m-4.64,4.64l1.96-1.96m5.53-4.01l.89-.8m-3.56,3.48l1.87-1.87m-4.55,4.55l1.87-1.87m-4.28,4.37l1.6-1.69m5.61-4.01l1.43-1.43m-4.19,4.1l1.96-1.87m-4.63,4.55l1.96-1.87m-3.03,3.03l.36-.36m5.52-4.01l1.96-1.96m-4.63,4.64l1.96-1.96m-3.65,3.66l.89-.98m2.94-1.34l1.87-1.87m-4.19,4.19l1.52-1.52m2.85-1.34l.53-.53m-3.21,3.21l1.96-1.96m.18,1.34l1.07-1.07m-.27,1.87l.27-.27m2.09-19.52c.27,0,.49-.22.49-.49s-.22-.49-.49-.49-.49.22-.49.49.22.49.49.49m0-7.67c.27,0,.49-.22.49-.49s-.22-.49-.49-.49-.49.22-.49.49.22.49.49.49m10.85,2.38c-.65-.95-1.73-1.5-2.89-1.48m2.96,2.67v-1.16m-2.96,2.58c1.15.02,2.23-.54,2.89-1.48m-4.55.14c.11.8.81,1.38,1.62,1.34m-1.54-2.67v1.34m1.54-2.76c-.8-.04-1.5.54-1.62,1.34m10.86,5.97h-14.08m14.04-.09c.12,0,.22-.1.22-.22m0-9.05v9.09m0-9.14c0-.12-.1-.22-.22-.22m-14.04,9.63v-9.54h14.08m0,10.34h-14.97m14.93,0c.61,0,1.11-.5,1.11-1.11m0-9.05v9.09m0-9.14c0-.62-.5-1.11-1.11-1.11m-14.93,11.32v-11.23h14.97m1.07,13.46h-20.32m20.28-.09c1.21,0,2.18-.98,2.18-2.18m0-11.19v11.23m0-11.28c0-1.21-.98-2.18-2.18-2.18m-20.28,15.69v-15.6h20.32m8.47-15.78l18.63-.09m-19.34-.58c0,.18.07.35.2.47s.3.19.47.19m-.67-19.26l.09,18.63m.58-19.34c-.37,0-.67.3-.67.67m19.25-.67h-18.54m19.16.67c0-.37-.3-.67-.67-.67m.76,19.26v-18.54m-.67,19.17c.37,0,.67-.3.67-.67m-9.98-9.94v1.16m-8.29-5.26v13.19l16.67-.09v-13.1h-16.67Zm8.29-2.85v-.54m-.54.76c0,.27.22.49.49.49s.49-.22.49-.49-.22-.49-.49-.49-.49.22-.49.49m.54.4v.45m.36-.8h.44m-1.6,0h.53m.27,5.08v-1.25m-.8,2.01c0,.42.34.76.76.76s.76-.34.76-.76-.34-.76-.76-.76-.76.34-.76.76m-.54,0c0,.71.58,1.29,1.29,1.29s1.29-.58,1.29-1.29-.58-1.29-1.29-1.29-1.29.58-1.29,1.29m2.14.04h1.25m-4.01,0h1.25m-9.18,10.88l-.09-18.63.71-.71h18.54l.71.71v18.54l-.62.62-18.63.09-.62-.62Z"/>
    <path class="cls-33" d="m130.94,402.2h-4.27v-4.28h4.27v4.28Zm-4.36-2.18c0,1.21.98,2.18,2.18,2.18s2.18-.98,2.18-2.18-.98-2.18-2.18-2.18-2.18.98-2.18,2.18m-10.23-8.69h-8.63v48.03h8.63v-48.03Zm-7.74.45l.44-.45m-1.33,1.34l.09-.18m.18,1.34l1.96-1.87m.18,1.34l1.87-1.96m-4.27,4.37l1.6-1.69m2.85-1.34l1.42-1.34m-4.09,4.01l1.96-1.87m-3.74,3.74l1.07-1.07m5.52-4.01l.8-.8m-3.47,3.48l1.96-1.96m-4.63,4.63l1.87-1.96m-3.11,3.21l.44-.54m5.61-4.01l1.87-1.87m-4.54,4.54l1.87-1.87m-4.54,4.63l1.87-1.96m5.52-4.01l.53-.45m-3.2,3.12l1.96-1.87m-4.63,4.54l1.96-1.87m-4.63,4.54l1.96-1.87m5.52-4.01l1.07-1.07m-3.74,3.74l1.87-1.96m-4.54,4.63l1.87-1.96m-4.09,4.19l1.42-1.51m5.52-4.01l1.69-1.6m-4.36,4.28l1.96-1.87m-4.63,4.54l1.96-1.87m-3.56,3.56l.89-.89m5.52-4.01l1.87-1.96m-4.54,4.63l1.87-1.96m-4.54,4.63l1.87-1.96m-2.94,3.03l.27-.36m8.28-6.68l.09-.09m-2.76,2.76l1.87-1.87m-4.63,4.54l1.96-1.87m-4.63,4.63l1.96-1.96m5.52-4.01l.71-.71m-3.38,3.39l1.96-1.87m-4.63,4.54l1.87-1.87m-4.45,4.46l1.78-1.78m5.61-4.01l1.25-1.25"/>
  </g>
  <path class="cls-42" d="m113.3,413.15v4.37l-2.59-4.37h2.59Zm0,4.37l-2.59-4.37v4.37h2.59Z"/>
  <g class="cls-12">
    <path class="cls-33" d="m117.84,426.42h.18m-.27,2.98c0,.07.06.13.13.13s.13-.06.13-.13m-.18-1.47v1.51m0-3.03v.45m.18,1.07v1.51m0-3.03v.45m.44,1.07h-2.13v-1.07h2.13v1.07Zm.53-25.64l.44-.36.27-.36.27-.54.09-.62-.09-.62-.18-.27-.18-.27-.35-.09-.35-.09-.62.18-.53.45-.18.27-.09.36v.8l-.09.09h-.18l-.44.09-.44.09m2.13.71l.71-.53.27-.36.18-.45v-.53l-.18-.45-.35-.27-.44.09-.44.18-.27.45v.89l-.18.36-.35.18-1.06.18m1.06,1.29c0,.57.46,1.02,1.02,1.02s1.02-.46,1.02-1.02-.46-1.02-1.02-1.02-1.02.46-1.02,1.02m.26-.67h-1.33v1.43h1.33m-5.71,12.82c.22,0,.4-.18.4-.4s-.18-.4-.4-.4-.4.18-.4.4.18.4.4.4m0-1.33c.46,0,.84-.38.84-.85s-.38-.85-.84-.85-.84.38-.84.85.38.85.84.85m-1.2-2.23h2.57v4.36h-2.57,2.57v-4.36h-2.57Z"/>
    <path d="m86.47,263.7v-8.67h1.41l1.69,6.14.34,1.28c.08-.32.21-.78.38-1.39l1.7-6.03h1.27v8.67h-.91v-7.25l-2.07,7.25h-.84l-2.06-7.37v7.37h-.9Z"/>
  </g>
  <rect x="94.92" y="262.49" width=".99" height="1.21"/>
  <g class="cls-14">
    <path d="m101.2,258.67h1.54c.4,0,.69-.03.86-.08.24-.08.43-.22.56-.42s.2-.46.2-.8c0-.31-.06-.57-.18-.78-.12-.21-.28-.35-.48-.43-.2-.08-.56-.12-1.07-.12h-1.43v2.62Zm0,4h1.77c.39,0,.68-.04.86-.11.27-.1.47-.27.61-.51.14-.23.21-.53.21-.88,0-.33-.07-.6-.2-.83-.13-.23-.31-.39-.54-.5-.23-.1-.58-.16-1.07-.16h-1.65v2.98Zm-.94,1.02v-8.67h2.67c.54,0,.97.08,1.28.25.32.17.58.43.78.78.2.36.3.75.3,1.18,0,.4-.09.76-.26,1.07-.17.32-.42.58-.73.77.41.15.74.4.97.77.24.36.36.81.36,1.33s-.11.98-.32,1.38c-.21.4-.5.68-.86.86-.36.18-.85.27-1.48.27h-2.71Z"/>
  </g>
  <polygon points="106.93 263.7 106.93 255.03 112.07 255.03 112.07 256.05 107.87 256.05 107.87 258.7 111.8 258.7 111.8 259.73 107.87 259.73 107.87 262.68 112.23 262.68 112.23 263.7 106.93 263.7"/>
  <g class="cls-5">
    <path d="m114.45,262.68h1.51c.61,0,1.07-.1,1.39-.3.32-.2.56-.52.73-.96.22-.59.34-1.29.34-2.11,0-.88-.12-1.57-.36-2.07-.24-.5-.55-.84-.92-1.01-.25-.11-.65-.17-1.2-.17h-1.49v6.62Zm-.94,1.02v-8.67h2.45c.61,0,1.07.05,1.38.16.41.14.77.39,1.08.76.3.37.54.83.71,1.39.17.56.25,1.22.25,1.98,0,.98-.14,1.81-.43,2.5-.29.68-.66,1.17-1.11,1.46-.45.29-1.04.43-1.77.43h-2.56Z"/>
    <path d="m124.39,258.86h2.02c.44,0,.78-.05,1.01-.16.23-.11.41-.27.54-.5.13-.23.2-.49.2-.8,0-.44-.13-.78-.39-1.03-.26-.25-.64-.38-1.14-.38h-2.25v2.87Zm-.94,4.84v-8.67h3.15c.66,0,1.14.08,1.46.24.31.16.57.43.77.81.2.38.3.81.3,1.31,0,.65-.17,1.18-.51,1.59-.34.41-.84.66-1.49.77.26.16.46.32.6.48.28.33.53.7.74,1.11l1.24,2.36h-1.18l-.95-1.8c-.37-.71-.64-1.18-.83-1.43-.19-.24-.37-.41-.54-.49-.18-.09-.42-.13-.73-.13h-1.09v3.85h-.94Z"/>
    <path d="m131.33,259.49c0,1.07.24,1.9.71,2.49.47.59,1.04.88,1.72.88s1.27-.3,1.73-.89.7-1.47.7-2.63c0-.74-.12-1.41-.36-2-.18-.45-.46-.81-.84-1.08-.37-.27-.78-.41-1.22-.41-.71,0-1.29.3-1.75.89s-.69,1.51-.69,2.74m-.97-.02c0-1.48.32-2.61.97-3.41.65-.79,1.46-1.19,2.43-1.19.63,0,1.2.18,1.72.53.52.36.92.87,1.23,1.55.3.68.45,1.48.45,2.42,0,1.29-.29,2.33-.88,3.14-.64.89-1.48,1.34-2.52,1.34s-1.89-.46-2.53-1.37c-.58-.83-.87-1.83-.87-3"/>
    <path d="m139.05,259.49c0,1.07.24,1.9.71,2.49.47.59,1.04.88,1.72.88s1.27-.3,1.73-.89.7-1.47.7-2.63c0-.74-.12-1.41-.36-2-.18-.45-.46-.81-.84-1.08-.37-.27-.78-.41-1.22-.41-.71,0-1.29.3-1.75.89s-.69,1.51-.69,2.74m-.97-.02c0-1.48.32-2.61.98-3.41.65-.79,1.46-1.19,2.43-1.19.63,0,1.2.18,1.72.53.52.36.92.87,1.23,1.55.3.68.45,1.48.45,2.42,0,1.29-.29,2.33-.88,3.14-.64.89-1.48,1.34-2.52,1.34s-1.89-.46-2.53-1.37c-.58-.83-.87-1.83-.87-3"/>
    <path d="m146.05,263.7v-8.67h1.41l1.69,6.14.34,1.28c.08-.32.21-.78.38-1.39l1.71-6.03h1.27v8.67h-.91v-7.25l-2.07,7.25h-.84l-2.06-7.37v7.37h-.9Z"/>
  </g>
  <polygon points="236.88 212.75 236.88 204.08 237.82 204.08 237.82 211.73 241.32 211.73 241.32 212.75 236.88 212.75"/>
  <rect x="242.63" y="204.08" width=".94" height="8.67"/>
  <g class="cls-11">
    <path d="m247.26,212.75l-2.76-8.67h1.02l1.85,6.3c.14.49.27.96.37,1.42.11-.48.24-.95.38-1.42l1.92-6.3h.96l-2.78,8.67h-.97Z"/>
  </g>
  <rect x="252.02" y="204.08" width=".94" height="8.67"/>
  <polygon points="254.57 212.75 254.57 204.08 255.53 204.08 259.27 210.9 259.27 204.08 260.17 204.08 260.17 212.75 259.2 212.75 255.47 205.93 255.47 212.75 254.57 212.75"/>
  <g class="cls-32">
    <path d="m265.11,209.35v-1.02h3.01s0,3.22,0,3.22c-.46.45-.94.79-1.43,1.01-.49.23-1,.34-1.52.34-.69,0-1.31-.17-1.86-.52-.54-.35-.97-.85-1.29-1.52-.32-.67-.48-1.47-.48-2.4s.16-1.77.48-2.47c.32-.7.74-1.22,1.25-1.55.52-.33,1.13-.5,1.83-.5.52,0,.98.1,1.37.29.39.19.71.47.96.82.25.36.44.84.57,1.46l-.85.28c-.11-.49-.26-.86-.43-1.1-.17-.24-.4-.43-.69-.57-.28-.14-.6-.21-.96-.21-.52,0-.96.12-1.33.38-.37.25-.67.64-.9,1.17-.23.53-.34,1.17-.34,1.93,0,1.16.24,2.03.73,2.61s1.12.87,1.89.87c.37,0,.75-.09,1.14-.27.39-.18.7-.39.92-.63v-1.61h-2.09Z"/>
  </g>
  <polygon points="243.06 440.46 243.06 431.79 244 431.79 244 436.09 247.53 431.79 248.8 431.79 245.82 435.3 248.93 440.46 247.69 440.46 245.17 436.07 244 437.45 244 440.46 243.06 440.46"/>
  <rect x="249.89" y="431.79" width=".94" height="8.67"/>
  <polygon points="254.3 440.46 254.3 432.81 251.95 432.81 251.95 431.79 257.59 431.79 257.59 432.81 255.24 432.81 255.24 440.46 254.3 440.46"/>
  <g class="cls-36">
    <path d="m263.58,437.42l.94.29c-.21.97-.57,1.7-1.1,2.18-.52.48-1.16.72-1.91.72-.66,0-1.22-.16-1.69-.48-.47-.32-.85-.84-1.15-1.55-.3-.71-.45-1.55-.45-2.51s.15-1.76.45-2.42c.3-.66.7-1.16,1.21-1.5.51-.34,1.08-.51,1.7-.51.69,0,1.28.21,1.77.64.49.43.84,1.05,1.04,1.88l-.92.27c-.32-1.2-.95-1.8-1.9-1.8-.47,0-.88.12-1.23.36-.35.24-.62.62-.83,1.13-.21.51-.31,1.16-.31,1.95,0,1.19.21,2.08.63,2.67.42.59.97.89,1.67.89.51,0,.95-.18,1.33-.55.37-.36.62-.92.75-1.66"/>
  </g>
  <polygon points="265.7 440.46 265.7 431.79 266.64 431.79 266.64 435.35 270.33 435.35 270.33 431.79 271.27 431.79 271.27 440.46 270.33 440.46 270.33 436.37 266.64 436.37 266.64 440.46 265.7 440.46"/>
  <polygon points="272.89 440.46 272.89 431.79 278.02 431.79 278.02 432.81 273.83 432.81 273.83 435.46 277.76 435.46 277.76 436.48 273.83 436.48 273.83 439.43 278.19 439.43 278.19 440.46 272.89 440.46"/>
  <polygon points="279.46 440.46 279.46 431.79 280.42 431.79 284.16 438.61 284.16 431.79 285.06 431.79 285.06 440.46 284.09 440.46 280.36 433.64 280.36 440.46 279.46 440.46"/>
  <g class="cls-10">
    <path d="m247.58,296.94h1.51c.61,0,1.07-.1,1.39-.3.32-.2.56-.52.73-.96.22-.59.34-1.29.34-2.11,0-.88-.12-1.57-.36-2.07-.24-.5-.54-.84-.92-1.01-.25-.11-.65-.17-1.2-.17h-1.49v6.62Zm-.94,1.02v-8.67h2.45c.61,0,1.07.05,1.38.16.41.14.77.39,1.08.76.3.37.54.83.71,1.39.17.56.25,1.22.25,1.98,0,.98-.14,1.81-.43,2.5-.29.68-.66,1.17-1.11,1.46-.45.29-1.04.43-1.77.43h-2.56Z"/>
  </g>
  <rect x="254" y="289.3" width=".94" height="8.67"/>
  <polygon points="256.56 297.96 256.56 289.3 257.52 289.3 261.26 296.11 261.26 289.3 262.16 289.3 262.16 297.96 261.19 297.96 257.46 291.14 257.46 297.96 256.56 297.96"/>
  <rect x="263.93" y="289.3" width=".94" height="8.67"/>
  <polygon points="266.48 297.96 266.48 289.3 267.45 289.3 271.18 296.11 271.18 289.3 272.08 289.3 272.08 297.96 271.12 297.96 267.39 291.14 267.39 297.96 266.48 297.96"/>
  <g class="cls-39">
    <path d="m277.02,294.56v-1.02h3.01s0,3.22,0,3.22c-.46.45-.94.79-1.43,1.01-.49.23-1,.34-1.52.34-.69,0-1.31-.17-1.86-.52-.54-.35-.97-.85-1.29-1.52-.32-.67-.48-1.47-.48-2.4s.16-1.77.48-2.47c.32-.7.74-1.22,1.25-1.55.52-.33,1.13-.5,1.83-.5.52,0,.98.1,1.37.29.39.19.71.47.96.82.25.36.44.84.57,1.46l-.85.28c-.11-.49-.26-.85-.43-1.1-.17-.24-.4-.43-.69-.57-.28-.14-.6-.21-.96-.21-.52,0-.96.12-1.33.38-.37.25-.67.64-.9,1.17-.23.53-.34,1.17-.34,1.93,0,1.16.24,2.03.73,2.61.48.58,1.12.87,1.89.87.37,0,.75-.09,1.14-.27.39-.18.7-.39.92-.63v-1.61h-2.09Z"/>
  </g>
  <polyline class="cls-27" points="276.62 477.01 276.62 450.18 305.22 450.18 305.22 418.63 324.74 418.63"/>
  <g class="cls-21">
    <path class="cls-33" d="m175.28,206.35h-1.07v22.47h1.07v-22.47Zm.8,23.19h-15.16v-42.45h15.16v42.45Zm-23.18-33.7c-.07-.08-.18-.11-.28-.09m0,11.58c.1.02.21-.02.28-.09m.02-11.39c-1.22,3.73-1.22,7.75,0,11.47m-.02-1.08c.14.39.3.78.48,1.16m-.7-.62c.64-3.44.64-6.96,0-10.4m0-.69c-.26-.33-.69-.47-1.09-.36m0,12.43c.4.06.81-.07,1.1-.36m-1.13-12c-1.32,4.02-1.32,8.35,0,12.36m1.1-12c-1.24,3.78-1.24,7.86,0,11.64m8.26-12.2l-7.58.54m7.58,12.31l-7.58-.62m.04-11.66c-.18.38-.33.76-.47,1.15m-111.14,109.67l-.8.09-1.7-18.73.89-.09,1.6,18.73Zm-4.37-18.73l.89.09-.8,18.73h-.89l.8-18.82Zm10.52,18.73l-.8.09-1.7-18.73.89-.09,1.6,18.73Zm-4.37-18.73l.89.09-.8,18.73h-.89l.8-18.82Zm10.61,18.73l-.89.09-1.7-18.73.89-.09,1.69,18.73Zm-4.46-18.73l.89.09-.8,18.73h-.89l.8-18.82Zm10.61,18.73l-.89.09-1.69-18.73.89-.09,1.69,18.73Zm-4.46-18.73l.89.09-.8,18.73h-.8l.71-18.82Zm10.61,18.73l-.89.09-1.6-18.73.8-.09,1.69,18.73Zm-4.37-18.73l.8.09-.8,18.73h-.8l.8-18.82Zm10.52,18.73l-.89.09-1.61-18.73.8-.09,1.7,18.73Zm-4.37-18.73l.8.09-.71,18.73h-.89l.8-18.82Zm10.52,18.73l-.8.09-1.69-18.73.89-.09,1.61,18.73Zm-4.37-18.73l.89.09-.8,18.73h-.89l.8-18.82Zm10.52,18.73l-.8.09-1.7-18.73.89-.09,1.61,18.73Zm-4.37-18.73l.89.09-.8,18.73h-.89l.8-18.82Zm10.61,18.73l-.89.09-1.69-18.73.89-.09,1.7,18.73Zm-4.46-18.73l.89.09-.8,18.73h-.89l.8-18.82Zm10.61,18.73l-.89.09-1.69-18.73.89-.09,1.69,18.73Zm-4.46-18.73l.89.09-.8,18.73h-.8l.71-18.82Zm10.61,18.73l-.89.09-1.61-18.73.8-.09,1.69,18.73Zm-4.37-18.73l.8.09-.8,18.73h-.8l.8-18.82Zm-61.63,18.73h.89v-18.73h-.89v18.73Zm67.78-18.73l.8.09-.71,18.73h-.89l.8-18.82Zm4.37,18.73l-.89.09-1.61-18.73.8-.09,1.69,18.73Zm2.85,0h-.8v-18.73h.8v18.73Zm2.94,0h-.89v-18.73h.89v18.73Zm3.48-9.81H34.01m84.91.89H34.01m84.91,11.68H34.01v-24.26h84.91v24.26Zm.89.89H33.12v-26.04h86.69v26.04Z"/>
  </g>
  <path class="cls-27" d="m119.83,318.96h-.89v-3.48H34.01v106.58h67.62v-58.51h17.31v-5.62h.89v-38.98Zm185.37,131.2v26.04h-28.64"/>
  <path class="cls-33" d="m180.46,453.25h-4.31v19.48h4.31m0,0v-19.48"/>
  <g class="cls-8">
    <path class="cls-44" d="m179.39,465.99v-.62c0-.19-.02-.34-.06-.45-.04-.11-.1-.2-.17-.26-.1-.09-.24-.16-.41-.21s-.38-.08-.63-.08c-.34,0-.6.05-.78.15-.18.1-.3.22-.37.37-.04.1-.07.27-.07.5v.61h2.48Zm.38.39h-3.25v-1.01c0-.23.02-.4.05-.52.04-.17.12-.31.23-.43.15-.15.33-.27.56-.35.22-.08.48-.12.77-.12.25,0,.47.03.66.08.19.05.35.12.47.2s.22.17.3.27c.07.1.13.21.16.35.04.14.06.29.06.47v1.05Z"/>
    <path class="cls-44" d="m179.39,463.05v-.73c0-.12,0-.21-.02-.26-.02-.09-.05-.16-.09-.22-.04-.06-.1-.11-.18-.15-.08-.04-.17-.06-.27-.06-.12,0-.23.03-.32.08-.09.06-.15.13-.19.23-.04.1-.05.24-.05.43v.68h1.12Zm-1.5,0v-.63c0-.17-.01-.29-.04-.37-.03-.1-.09-.17-.16-.22-.07-.05-.17-.08-.28-.08-.11,0-.2.02-.29.07-.08.05-.14.11-.17.2-.03.09-.05.23-.05.44v.58h.98Zm1.88.39h-3.25v-1.1c0-.22.03-.4.1-.54.07-.14.17-.24.3-.32.14-.08.28-.12.43-.12.14,0,.27.03.39.1.12.07.22.17.3.31.06-.18.16-.31.29-.41.14-.1.3-.14.49-.14.15,0,.29.03.42.09.13.06.23.13.3.21.07.08.12.19.16.32.04.13.05.29.05.47v1.11Z"/>
    <path d="m69.74,351.29h1.54c.4,0,.69-.03.86-.08.24-.08.43-.22.56-.42.13-.2.2-.46.2-.79,0-.31-.06-.57-.18-.78-.12-.21-.28-.35-.48-.43-.2-.08-.56-.12-1.07-.12h-1.43v2.62Zm0,4h1.77c.39,0,.68-.04.86-.11.27-.1.47-.27.61-.5.14-.24.21-.53.21-.88,0-.33-.07-.6-.2-.83-.13-.23-.31-.39-.54-.5-.23-.1-.58-.16-1.07-.16h-1.65v2.98Zm-.94,1.02v-8.67h2.67c.54,0,.97.08,1.28.25.32.17.58.43.78.78.2.36.3.75.3,1.18,0,.4-.09.76-.26,1.07-.17.32-.42.58-.73.77.41.15.74.4.97.77.24.36.36.81.36,1.33s-.11.98-.32,1.38c-.21.4-.5.68-.86.86-.36.18-.85.27-1.48.27h-2.71Z"/>
    <path d="m76.71,352.76h2.42l-.74-2.4c-.23-.74-.4-1.34-.5-1.8-.09.56-.22,1.11-.39,1.65l-.79,2.54Zm-2.04,3.56l2.74-8.67h1.01l2.91,8.67h-1.08l-.83-2.62h-2.99l-.77,2.62h-.99Z"/>
  </g>
  <polygon points="83.9 356.32 83.9 348.67 81.56 348.67 81.56 347.65 87.19 347.65 87.19 348.67 84.84 348.67 84.84 356.32 83.9 356.32"/>
  <polygon points="88.13 356.32 88.13 347.65 89.07 347.65 89.07 351.21 92.77 351.21 92.77 347.65 93.71 347.65 93.71 356.32 92.77 356.32 92.77 352.23 89.07 352.23 89.07 356.32 88.13 356.32"/>
  <g class="cls-22">
    <path d="m141.37,405.21l-1.21-5.55h.62l.69,3.64c.07.37.14.75.19,1.14l.2-1.03.86-3.75h.73l.65,2.81c.16.68.28,1.34.36,1.96.06-.36.13-.76.22-1.21l.71-3.57h.61l-1.25,5.55h-.58l-.96-4.23-.14-.65c-.04.24-.09.46-.13.65l-.97,4.23h-.61Z"/>
  </g>
  <rect x="146.65" y="404.44" width=".64" height=".77"/>
  <g class="cls-3">
    <path d="m151.55,403.27l.6.19c-.13.62-.37,1.09-.7,1.39-.33.31-.74.46-1.22.46-.42,0-.78-.1-1.08-.31-.3-.21-.54-.54-.73-.99-.19-.46-.29-.99-.29-1.61s.1-1.13.29-1.55c.19-.42.45-.74.78-.96.33-.22.69-.32,1.09-.32.44,0,.82.14,1.13.41.31.27.54.67.66,1.2l-.59.17c-.2-.77-.61-1.15-1.22-1.15-.3,0-.57.08-.79.23-.22.15-.4.4-.53.73-.13.33-.2.74-.2,1.25,0,.76.13,1.33.4,1.71.27.38.62.57,1.07.57.33,0,.61-.12.85-.35.24-.23.4-.59.48-1.06"/>
  </g>
  <path class="cls-16" d="m184.8,314.55h-4.28m12.49,0h-5.53m13.82,0h-5.53m13.73,0h-5.53m13.82,0h-5.53m13.73,0h-5.53m13.82,0h-5.53m13.73,0h-5.44m13.73,0h-5.53m13.73,0h-5.44m13.73,0h-5.53m13.73,0h-5.44m13.73,0h-5.53m13.73,0h-5.44m13.73,0h-5.53m13.73,0h-5.44m13.73,0h-5.53m13.73,0h-5.44m12.49,0h-4.28"/>
  <g class="cls-13">
    <path class="cls-33" d="m42.38,346.41-2.32,2.32l1.96-1.96m-4.63,4.64l1.87-1.96m-4.54,4.64l1.87-1.96m5.61-4.01l.45-.45m-3.12,3.12l1.87-1.87m-4.54,4.55l1.87-1.87m-4.54,4.55l1.87-1.87m5.52-4.01l1.07-1.07m-3.74,3.75l1.96-1.96m-4.63,4.64l1.96-1.96m-4.18,4.19l1.51-1.52m5.52-4.01l1.6-1.61m-4.27,4.28l1.87-1.87m-4.54,4.55l1.87-1.87m-3.56,3.57l.89-.89m5.52-4.01l1.96-1.96m-4.63,4.64l1.96-1.96m-4.63,4.64l1.96-1.87m-3.03,2.94l.36-.27m8.19-6.78l.09-.09m-2.76,2.85l1.87-1.96m-4.54,4.64l1.87-1.96m-4.54,4.64l1.87-1.96m5.61-4.01l.62-.71m-3.38,3.39l1.96-1.87m-4.63,4.55l1.96-1.87m-4.54,4.55l1.87-1.87m5.52-4.01l1.25-1.25m-3.92,3.92l1.96-1.96m-4.63,4.64l1.87-1.96m-3.92,4.01l1.25-1.34m5.61-4.01l1.78-1.78m-4.45,4.46l1.87-1.87m-4.54,4.55l1.87-1.87m-3.38,3.39l.71-.71m5.52-4.01l1.96-1.96m-4.63,4.64l1.96-1.96m-4.63,4.64l1.96-1.87m-2.85,2.76l.18-.09m8.19-6.78l.27-.27m-2.94,3.03l1.87-1.96m-4.54,4.64l1.87-1.96m-4.54,4.64l1.87-1.96m5.52-4.01l.89-.89m-3.56,3.57l1.96-1.87m-4.63,4.55l1.96-1.87m-4.36,4.28l1.69-1.61m5.52-4.01l1.42-1.52m-4.1,4.19l1.87-1.96m-4.54,4.64l1.87-1.96m-3.74,3.83l1.07-1.16m5.61-4.01l1.87-1.87m-4.63,4.55l1.96-1.87m-4.63,4.55l1.96-1.87m-3.21,3.21l.53-.54m5.52-4.01l1.96-1.96m-4.63,4.64l1.87-1.96m-4.54,4.64l1.87-1.87m5.61-4.1l.45-.44m-3.12,3.21l1.87-1.96m-4.54,4.64l1.87-1.96m-4.54,4.64l1.87-1.96m5.52-4.01l1.07-1.07m-3.74,3.75l1.96-1.87m-4.63,4.55l1.96-1.87m-4.18,4.1l1.51-1.43m5.52-4.01l1.6-1.69m-4.27,4.37l1.87-1.96m-4.54,4.64l1.87-1.96m-3.56,3.57l.89-.89m5.52-4.01l1.96-1.87m-4.63,4.55l1.96-1.87m-4.63,4.55l1.96-1.87m-3.03,3.03l.36-.36m8.19-6.69l.09-.09m-2.76,2.77l1.87-1.96m-4.54,4.64l1.87-1.96m-4.54,4.64l1.87-1.87m5.61-4.1l.62-.62m-3.38,3.3l1.96-1.87m-4.63,4.64l1.96-1.96m-3.92,3.92l1.25-1.25m5.52-4.01l1.25-1.25m-3.92,3.92l1.96-1.87m-4.54,4.46l1.78-1.78m2.94-1.34l1.78-1.87m-4.45,4.55l1.87-1.96m.18,1.34l1.96-1.87m-2.94,2.94l.27-.27m2.85-1.34l.27-.36m-1.87,1.96l.8-.89m.71.89l.36-.36m2.09-14.8c.27,0,.49-.22.49-.49s-.22-.49-.49-.49-.49.22-.49.49.22.49.49.49m0-7.76c.27,0,.49-.22.49-.49s-.22-.49-.49-.49-.49.22-.49.49.22.49.49.49m10.84,2.38c-.65-.95-1.73-1.5-2.88-1.48m2.95,2.67v-1.16m-2.95,2.59c1.15.02,2.23-.54,2.88-1.48m-4.46.14c.11.8.81,1.38,1.61,1.34m-1.63-2.67v1.34m1.63-2.67c-.8-.04-1.5.54-1.61,1.34m10.76,5.88h-14.07m14.02-.09c.12,0,.22-.1.22-.22m.09-9.05v9.1m-.09-9.14c0-.12-.1-.22-.22-.22m-14.02,9.63v-9.54h14.07m0,10.35h-14.87m14.83,0c.61,0,1.11-.5,1.11-1.11m0-9.05v9.1m0-9.14c0-.61-.5-1.11-1.11-1.11m-14.83,11.33v-11.24h14.87m1.07,13.47h-20.3m20.26-.09c1.2,0,2.18-.98,2.18-2.18m.09-11.19v11.24m-.09-11.28c0-1.21-.98-2.18-2.18-2.18m-20.26,15.7v-15.61h20.3m-21.1,61.09h-3.29v-26.04h3.29v26.04Zm-7.21-13.64h3.03m-3.03-.89h3.03m-3.29,1.69h-.36v-2.59h.36m0,0v2.59l.27-.8v-.89m-.27-.89l.27.89m6.14-.89v2.59m-.62-2.59v2.59m.62,0h-.62l-1.34-.62h-1.16v-1.25h1.16l1.34-.71h.62m-1.96,1.96v-1.25"/>
    <path class="cls-33" d="m54.74,376.91h-4.27v4.37h4.27v-4.37Zm-4.36,2.18c0,1.2.98,2.18,2.18,2.18s2.18-.98,2.18-2.18-.98-2.18-2.18-2.18-2.18.98-2.18,2.18m-7.74-33.27h-8.63v38.93h8.63v-38.93Zm-7.74.45l.44-.45m-1.33,1.34l.18-.18m.18,1.34l1.87-1.87m.18,1.34l1.96-1.96m-4.36,4.36l1.69-1.69m2.85-1.34l1.34-1.34m-4,4.01l1.87-1.87m-3.74,3.74l1.07-1.07m5.6-4.01l.8-.8m-3.56,3.48l1.96-1.87m-4.63,4.54l1.96-1.87m-3.2,3.12l.53-.44"/>
  </g>
  <path class="cls-42" d="m39.6,363.1v4.37l-2.59-4.37h2.59Zm0,4.37l-2.59-4.37v4.37h2.59Z"/>
  <g class="cls-7">
    <path class="cls-33" d="m44.14,354.11h.27m-.09-3.07c0-.07-.06-.13-.13-.13s-.13.06-.13.13m.09,1.56v-1.51m0,3.03v-.45m.27-1.07v-1.51m0,3.03v-.45m.35-1.07h-2.13v1.07h2.13v-1.07Zm.62,25.73l.35.27.36.45.18.45.18.62-.18.62-.09.27-.27.27-.27.18h-.36l-.71-.09-.53-.45-.18-.36-.09-.27v-.89l-.27-.09-.35-.09h-.53m2.21-.8l.71.62.27.36.09.45v.53l-.09.45-.36.18h-.53l-.44-.27-.18-.36-.09-.98-.18-.27-.35-.18-1.06-.18m1.15-1.47c0,.56.46,1.02,1.02,1.02s1.02-.46,1.02-1.02-.46-1.02-1.02-1.02-1.02.46-1.02,1.02m.27.76h-1.42v-1.42h1.42m-5.72-9.97c.22,0,.4-.18.4-.4s-.18-.4-.4-.4-.4.18-.4.4.18.4.4.4m0-1.33c.46,0,.84-.38.84-.85s-.38-.85-.84-.85-.84.38-.84.85.38.85.84.85m-1.29-2.23h2.57v4.36h-2.57,2.57v-4.36h-2.57Z"/>
  </g>
  <path class="cls-43" d="m33.98,386.3h32.92v-.89l-32.92.89Zm0-.89v.89l32.92-.89h-32.92Z"/>
  <path class="cls-33" d="m34.01,386.89h67.57m-67.57-2.08h67.57m-67.57.61h32.89v.87h-32.89v-.87Z"/>
  <path class="cls-42" d="m49.15,345.79h-15.17l15.17-30.34v30.34Zm-15.17,0l15.17-30.34h-15.17v30.34Z"/>
  <path class="cls-33" d="m49.12,345.75h-15.1v-30.27h15.1v30.27Zm-.62-1.78l-1.78,1.78m-2.4-.62l-.62.62m3.29-3.29l-1.87,1.87m4-4.01l-1.33,1.34m-4.98,1.87l-1.95,1.96m4.62-4.63l-1.95,1.96m4.62-4.63l-1.96,1.96m2.93-2.94l-.27.27m-10.22,7.21l-1.07,1.07m3.73-3.74l-1.95,1.96m4.62-4.63l-1.96,1.96m4.62-4.63l-1.95,1.96m4.44-4.45l-1.78,1.78m-10.31,7.21l-1.87,1.96m4.53-4.63l-1.87,1.96m4.53-4.63l-1.87,1.96m4.62-4.63l-1.95,1.96m4.62-4.63l-1.95,1.87m3.29-3.2l-.62.53m-12.97,9.97l-1.51,1.51m4.18-4.18l-1.87,1.87m4.53-4.54l-1.87,1.87m4.53-4.54l-1.87,1.87m4.53-4.54l-1.87,1.87m4.53-4.54l-1.86,1.87m-10.31,7.3l-1.87,1.87m4.53-4.54l-1.87,1.87m4.53-4.54l-1.87,1.87m4.53-4.54l-1.87,1.87m4.53-4.54l-1.87,1.87m3.64-3.65l-.98.98m-12.97,9.97l-1.15,1.16m3.82-3.83l-1.96,1.87m4.62-4.54l-1.87,1.87m4.53-4.54l-1.87,1.87m4.53-4.63l-1.87,1.96m4.53-4.63l-1.87,1.96m-10.31,7.21l-1.96,1.96m4.62-4.63l-1.95,1.96m4.62-4.63l-1.96,1.96m4.62-4.63l-1.95,1.96m4.62-4.63l-1.87,1.96m4-4.1l-1.33,1.42m-12.97,9.88l-.8.8m3.46-3.47l-1.95,1.96m4.62-4.63l-1.95,1.96m4.62-4.63l-1.95,1.96m4.62-4.63l-1.95,1.96m4.62-4.63l-1.96,1.87m2.93-2.85l-.27.18m-12.97,9.97l-1.86,1.96m4.62-4.63l-1.96,1.87m4.62-4.54l-1.95,1.87m4.62-4.54l-1.96,1.87m4.44-4.36l-1.78,1.69m-10.31,7.3l-.35.36m3.02-3.03l-1.87,1.87m4.53-4.54l-1.87,1.87m4.53-4.54l-1.87,1.87m2.84-2.85l-.18.18m-7.64,4.63l-1.51,1.51m4.18-4.18l-1.87,1.87m4-4.01l-1.33,1.34m-2.31-.8l-1.87,1.96m-.62-2.49l-.18.18m15.1,29.2l-.89.89m.89-3.92l-3.91,3.92m3.91-7.03l-6.93,7.03m6.93-10.06l-10.04,10.06m10.04-13.09l-13.06,13.09m13.06-16.2l-15.1,15.14m15.1-18.16l-15.1,15.14m15.1-18.16l-15.1,15.14m15.1-18.25l-15.1,15.14m15.1-18.16l-15.1,15.14m13.95-17.01l-13.95,13.98m10.84-13.98l-10.84,10.86m7.82-10.86l-7.82,7.84m4.8-7.84l-4.8,4.81m1.69-4.81l-1.69,1.69m15.1-1.69h-15.1v30.27h15.1v-30.27Z"/>
  <path class="cls-42" d="m55.39,320.62h-18.56l19.18.62-.62-.62Zm-18.56,0l19.18.62-19.9.09.71-.71Zm19.18.62l-19.9.09,19.99,18.56-.09-18.65Zm-19.9.09l19.99,18.56h-19.99v-18.56Zm19.99,18.56h-19.99l19.36.62.62-.62Zm-19.99,0l19.36.62-18.65.09-.71-.71Z"/>
  <g class="cls-17">
    <path class="cls-33" d="m56.08,339.87l-.09-18.59m-.58,19.21c.18,0,.35-.07.47-.2s.2-.3.19-.47m-19.21.76l18.59-.09m-19.3-.67c0,.37.3.67.67.67m-.67-19.12v18.5m.67-19.21c-.37,0-.67.3-.67.67m19.21-.67h-18.5m19.12.58c0-.37-.3-.66-.67-.66m-9.92,10.05h1.16m-5.16,8.27h13.08l-.09-16.63h-12.99v16.63Zm-2.93-8.27h-.44m.67.44c.27,0,.49-.22.49-.49s-.22-.49-.49-.49-.49.22-.49.49.22.49.49.49m.4-.44h.45m-.8-.36v-.44m0,1.6v-.53m5.07-.27h-1.16m1.91.71c.42,0,.76-.34.76-.76s-.34-.76-.76-.76-.76.34-.76.76.34.76.76.76m0,.53c.71,0,1.29-.58,1.29-1.29s-.58-1.29-1.29-1.29-1.29.58-1.29,1.29.58,1.29,1.29,1.29m.04-2.05v-1.25m0,4v-1.24m10.85,9.16l-18.59.09-.71-.71v-18.5l.71-.71h18.5l.62.62.09,18.59-.62.62Z"/>
  </g>
  <path class="cls-27" d="m331.25,351.44v66.25h-6.51v32.46h-19.54m-197.49-58.85v48.06h67.53v-3.48h.89v-38.97h-.89v-27.29h-41.57v21.67h-25.96Z"/>
  <path class="cls-35" d="m232.38,476.95h4.37v-28.09h4.28v28.09h65v-25.95M176.11,126.2v190.49h4.37V126.2m2.14,357.26v-6.51h-2.14v-41.11m0-38.97v-36.83h-4.37m-2.14,119.15h-67.14m69.28-39.06v-4.28m-142.93-121.28v108.27m86.67-112.55H33.18m0,4.28h86.67v4.37m0,38.97v6.51m-17.39,0v58.41m21.67-64.92v6.51m-4.28-45.48h4.28m51.98,77.94h4.37m-4.37,38.97h4.37m-4.37-71.43h-51.98m-4.28,0h-17.39m129.91,112.55v6.51m-58.4-38.97h-67.14m69.28-4.37h-69.28m13.02-82.22h4.28m-4.28-47.62v-26.04h4.28v34.69m51.98,77.94v-28.18m0-4.28v-4.37"/>
  <g class="cls-41">
    <path d="m215.18,404.82c0-.5-.09-.93-.26-1.28-.17-.35-.42-.63-.74-.82-.23-.14-.48-.24-.74-.3-.26-.06-.59-.09-.98-.08h-.66s.04,5.02.04,5.02h.66c.38,0,.72-.04,1.01-.1.29-.06.55-.18.79-.35.3-.21.52-.48.67-.82.15-.34.22-.76.22-1.27m.9,0c0,.59-.11,1.13-.35,1.61-.24.48-.56.85-.96,1.12-.33.21-.66.35-1,.42-.34.07-.77.11-1.3.11h-1.5s-.05-6.49-.05-6.49h1.48c.61-.02,1.09.03,1.44.12.35.09.64.21.89.37.42.27.75.64.98,1.1.23.46.35,1,.36,1.64"/>
  </g>
  <polygon points="205.96 408.14 205.91 401.64 209.98 401.61 209.98 402.38 206.78 402.4 206.8 404.19 209.78 404.16 209.78 404.93 206.8 404.95 206.82 407.37 210.02 407.34 210.03 408.11 205.96 408.14"/>
  <g class="cls-20">
    <path d="m203.86,403.25c0-.16-.03-.29-.08-.41-.05-.11-.14-.2-.26-.27-.14-.08-.3-.12-.47-.14-.17-.02-.41-.02-.71-.02h-.83s.01,1.91.01,1.91h.98c.27,0,.47-.02.6-.05.13-.03.26-.09.4-.17.13-.08.22-.2.28-.33.05-.14.08-.31.08-.51m.33,2.95c0-.24-.04-.45-.11-.6-.07-.16-.21-.29-.43-.4-.14-.07-.29-.12-.45-.14-.16-.02-.39-.03-.69-.03h-.98s.02,2.41.02,2.41h.7c.38,0,.68-.03.89-.06.22-.04.41-.11.58-.23.16-.11.28-.24.35-.39.07-.14.11-.33.11-.56m.9-.04c0,.32-.06.61-.18.86-.12.25-.28.45-.49.61-.24.19-.51.33-.78.41-.28.08-.64.12-1.08.13h-1.86s-.05-6.49-.05-6.49h1.72c.46-.02.81,0,1.04.03.23.03.45.1.67.21.23.12.41.29.51.49.11.2.17.44.17.71,0,.31-.08.58-.24.82-.16.24-.38.43-.67.57v.04c.39.1.69.29.9.57.21.28.32.62.33,1.04"/>
  </g>
  <rect x="197.16" y="404.96" width="2.46" height=".79" transform="translate(-3.07 1.52) rotate(-.43)"/>
  <g class="cls-18">
    <path d="m196.07,408.21l-3.17.02v-.66s1.17,0,1.17,0l-.03-4.36h-1.18s0-.58,0-.58c.45,0,.77-.07.98-.2.21-.13.33-.37.35-.72h.68s.04,5.85.04,5.85h1.15s0,.65,0,.65Z"/>
    <path class="cls-33" d="m304.9,405.03v3.11m26.35,9.52v-25.9m-25.99,0v25.9m22.62-9.76c-1.34-1.23-3.4-1.23-4.75,0m4.56.19c-1.24-1.12-3.13-1.12-4.36,0m.45.4l-1.07-.98m.8,1.25l-.98-1.07m5.16,1.07l.98-1.07m-1.25.8l.98-.98m-16.64,1.74c.05.86.79,1.51,1.65,1.46.86-.05,1.51-.79,1.46-1.65-.05-.86-.79-1.51-1.65-1.46-.86.05-1.51.79-1.46,1.65m-.27.02c.06,1.01.92,1.77,1.93,1.71,1.01-.06,1.77-.92,1.71-1.93-.06-1.01-.93-1.77-1.93-1.71-1.01.06-1.77.92-1.71,1.93m-1.44-3.07c-1.52,1.68-1.52,4.24,0,5.92m-.32-6.23c-1.7,1.85-1.7,4.69,0,6.55m6.84-.32c1.52-1.68,1.52-4.24,0-5.92m.32,6.23c1.69-1.85,1.69-4.7,0-6.55m-7.19-5.62c1.24,1.12,3.13,1.12,4.36,0m-4.56.19c1.34,1.23,3.4,1.23,4.75,0m0-5.19c-1.34-1.23-3.4-1.23-4.75,0m4.56.19c-1.24-1.12-3.13-1.12-4.36,0m.81,2.49c.05.76.7,1.34,1.46,1.29.76-.05,1.34-.7,1.29-1.46-.05-.76-.7-1.34-1.46-1.29-.76.05-1.34.7-1.29,1.46m6.07,7.64c-1.85-1.7-4.69-1.7-6.55,0m6.23.32c-1.68-1.52-4.24-1.52-5.92,0m-5.1-14.14h25.99m-26.35,5.07v3.47m5.88-2.38c.04.61.56,1.08,1.18,1.04.61-.04,1.08-.56,1.04-1.18-.04-.61-.56-1.08-1.18-1.04-.61.04-1.08.56-1.04,1.18m-1.3-2.25c-1.12,1.24-1.12,3.13,0,4.36m-.19-4.55c-1.23,1.34-1.23,3.4,0,4.75m-4.84-4.38v1.07m.36-.98h.45m-.8.98h.36v-1.07h-.36m.36.98h.45m0-4.18h-.36v3.29m4.11-1.19c-.08.07-.15.15-.23.23m1.23.78c-.08.07-.16.15-.23.23m.36-.14l-1.07-.98m.8,1.16l-.98-.98m-4,6.14v2.94m-.09-2.94h.45m-.8-.98h.36v1.07h-.36m.36-.98h.45m-.8-.09v1.07m.36,3.74h.45m-.8-.98h.36v1.07h-.36m.36-.98h.45m-.8-.09v1.07m5.34-5.39c.07.08.15.16.23.23m-1.23.78c.07.08.15.15.23.23m.87-1.28l-.98,1.07m1.25-.8l-1.07,1.07m.32,3.93c-.11.1-.21.2-.31.31m1.69,1.08c-.11.1-.21.2-.31.31m.38-.29l-1.33-1.33m.98,1.69l-1.33-1.33m13.44-6.63c.05.86.79,1.51,1.65,1.46s1.51-.79,1.46-1.65c-.05-.86-.79-1.51-1.65-1.46-.86.05-1.51.79-1.46,1.65m-.27.02c.06,1.01.93,1.77,1.93,1.71,1.01-.06,1.77-.93,1.71-1.93-.06-1.01-.92-1.77-1.93-1.71-1.01.06-1.77.92-1.71,1.93m-1.45,3.47c1.85,1.69,4.69,1.69,6.55,0m-6.23-.32c1.68,1.52,4.24,1.52,5.92,0m0-6.53c-1.68-1.52-4.24-1.52-5.92,0m6.23-.32c-1.85-1.69-4.69-1.69-6.55,0m-6.6,4.96c1.12-1.24,1.12-3.13,0-4.36m.19,4.55c1.23-1.34,1.23-3.4,0-4.75m6.11-.1c-1.69,1.85-1.69,4.69,0,6.55m.32-6.23c-1.52,1.68-1.52,4.24,0,5.92m-6.93-5.63c-.07-.08-.15-.15-.23-.23m1.23-.78c-.07-.08-.15-.15-.23-.23m-.69,1.27l.98-.98m-1.25.8l.98-.98m6.59,1.34l-1.33-1.43m1.69,1.07l-1.34-1.34m1.27,1.32c-.11.1-.21.2-.31.31m-1.08-1.69c-.11.1-.21.2-.31.31m-6.21,5.19c.08-.07.16-.15.23-.23m.78,1.23c.08-.07.15-.15.23-.23m-1.19-.78l.98,1.07m-.71-1.33l.98,1.07m1.09,5.89c-.1-.11-.2-.21-.31-.31m1.69-1.08c-.1-.11-.2-.21-.31-.31m-1.01,1.76l1.43-1.33m-1.69.98l1.33-1.33m5.36,2.37c-.08.07-.15.15-.23.23m-.68-6.16l-1.34,1.42m.98-1.69l-1.33,1.33m-.07.03c.1.11.2.21.31.31m1.08-1.69c.1.11.2.21.31.31m6.1.45c1.69-1.85,1.69-4.69,0-6.55m-.32,6.23c1.52-1.68,1.52-4.24,0-5.92m-.64.15l1.33-1.34m-1.07,1.69l1.33-1.43m-.02-.03c-.1-.11-.2-.21-.31-.31m-1.08,1.69c-.1-.11-.2-.21-.31-.31m1.92,11.79c-.07-.08-.15-.15-.23-.23m-1.32-6.2l1.33,1.33m-1.6-1.07l1.33,1.42m-.06-.02c.11-.1.21-.2.31-.31m-1.69-1.08c.11-.1.21-.2.31-.31m-16.64,11.25c1.68,1.52,4.24,1.52,5.92,0m-6.23.32c1.85,1.7,4.69,1.7,6.55,0m-11.33,4.92h25.99m-26.35-8.63v3.47m-.09-4.36h.45m-.8.98h.36v-1.07h-.36m.36.98h.45m-.8.09v-1.07m.8,8.72h-.36v-3.38,3.38m-.45-3.29v-1.07m.36.98h.45m-.8-.98h.36v1.07h-.36m.36-.98h.45m5.23-.82c.1.11.2.21.31.31m-1.69,1.08c.1.11.2.21.31.31m1.1-1.67l-1.33,1.33m1.69-.98l-1.33,1.34m13.6-.3c1.34,1.23,3.4,1.23,4.75,0m-4.38-.68l-.98.98m1.25-.71l-1.07.98m-6.87-1.67c.11-.1.21-.2.31-.31m1.08,1.69c.11-.1.21-.2.31-.31m-1.32-1.37l1.43,1.33m-1.69-.98l1.33,1.34m5.13-.02c.07.08.15.15.23.23m.47-5.28c-1.12,1.24-1.12,3.13,0,4.36m-.19-4.56c-1.23,1.34-1.23,3.4,0,4.75m5.47.73c.08-.07.15-.15.23-.23m-.92-.96l.98.98m-.75-.71c1.12-1.24,1.12-3.13,0-4.36m.19,4.55c1.23-1.34,1.23-3.4,0-4.75m-4.78,4.78c1.24,1.12,3.13,1.12,4.36,0m-4.28-.54c.07.08.15.16.23.23m3.73,0c.08-.07.16-.15.23-.23m-.18.32l.98.98m-4-3.09c.04.61.56,1.08,1.18,1.04.61-.04,1.08-.57,1.04-1.18-.04-.61-.56-1.08-1.18-1.04-.61.04-1.08.56-1.04,1.18m-.76-2.16c-.08.07-.16.15-.23.23m4.19,0c-.07-.08-.15-.16-.23-.23m-3.24,2.18c.05.76.7,1.34,1.46,1.29.76-.05,1.34-.7,1.29-1.46-.04-.76-.7-1.34-1.46-1.29-.76.05-1.34.7-1.29,1.46"/>
    <path class="cls-27" d="m281.49,449.72v.45m18.19-.45h-18.28v-.36m18.28,0v.8m0-.8h-18.28m22.47,23.46v3.39m0-11.68v5.53m0-13.73v5.44m0-11.59v3.39m-25.95,19.26v3.39m0-11.68v5.53m0-13.73v5.44m0-11.59v3.39m22.56-3.39h3.39m-11.59,0h5.53m-13.82,0h5.53m-11.59,0h3.39m0,26.04h-3.39m11.59,0h-5.53m13.82,0h-5.53m11.59,0h-3.39m-29.6-80.26h4.37v-4.28h-4.37v4.28Zm2.18-4.37c-1.21,0-2.18.98-2.18,2.18s.98,2.18,2.18,2.18,2.18-.98,2.18-2.18-.98-2.18-2.18-2.18m-7.62-20.25h6.87m-3.52-.89c-.47,0-.85.38-.85.85s.38.85.85.85.85-.38.85-.85-.38-.85-.85-.85m.05-2.59v6.87m9.09,5.71v-13.47m-1.29,14.72c.71,0,1.29-.58,1.29-1.29m-16.94,1.38h15.69m-17.03-1.38c0,.71.58,1.29,1.29,1.29m-1.2-14.72v13.47m1.2-14.8c-.71,0-1.29.58-1.29,1.29m17.03-1.2h-15.69m16.94,1.2c0-.71-.58-1.29-1.29-1.29m2.18,14.8v-13.47m-2.18,15.61c1.21,0,2.18-.98,2.18-2.18m-17.83,2.18h15.69m-17.92-2.18c0,1.21.98,2.18,2.18,2.18m-2.1-15.61v13.47m2.1-15.7c-1.21,0-2.18.98-2.18,2.18m17.92-2.1h-15.69m17.83,2.1c0-1.21-.98-2.18-2.18-2.18m-4.06,84.01h.71v-1.07h-.71v1.07Zm-28.62,27.47h30.68v-26.04h-30.68v26.04Zm-.27-26.58h30.67v-.89h-30.67v.89Zm.27,22.83h30.68m-28.8,2.76h26.84v-1.87h-26.84v1.87Zm-13.38-90.92c0,.47.38.85.85.85m98.76-33.71h-98.71m-.05,0c-.47,0-.85.38-.85.85m0,32.06v-32.02"/>
    <path class="cls-45" d="m288.73,465.64l3.31-.72c.15-.03.32-.07.51-.1l-.51-.12-3.29-.78v-.45s4.35-.94,4.35-.94v.47s-2.79.53-2.79.53c-.35.07-.66.12-.94.17.49.07,1,.16,1.53.29l2.19.53v.57s-2.94.65-2.94.65l-.8.15c.3.04.6.1.89.16l2.83.57v.48s-4.33-.99-4.33-.99v-.48Z"/>
  </g>
  <rect class="cls-45" x="288.82" y="461.44" width=".5" height=".61" transform="translate(-175.05 746.99) rotate(-89.53)"/>
  <g class="cls-19">
    <path class="cls-45" d="m288.78,460.25l3.69.03-3.68-1.06v-.42s3.64-1,3.64-1l-3.62-.03v-.45s4.34.04,4.34.04v.63s-3.03.83-3.03.83c-.3.08-.54.14-.7.18l.64.17,3.06.87v.71s-4.34-.04-4.34-.04v-.45Z"/>
  </g>
  <path class="cls-16" d="m182.66,477.01h2.14v6.51h-2.14v-6.51Zm47.59,0h2.14v6.51h-2.14v-6.51Zm-43.66,0v-45.36l-1.78-.09v45.45h1.78Z"/>
  <path class="cls-29" d="m229.89,472.11l.18,1.07.18,3.83m-1.96-12.83l.45,1.43.89,3.74v.09m-4.28-12.83l.89,1.69,1.25,3.3m-6.42-11.85l1.34,1.87,1.69,2.58m-8.46-10.52l1.96,1.87,1.78,2.05m-10.16-8.82l2.58,1.69,1.78,1.43m-11.49-6.86l3.12,1.43,1.69.89m-12.56-4.72l3.74.98,1.43.45m-12.83-2.41l3.83.27,1.16.27m33.41,51.33h5.17m-13.28,0h5.44m-13.54,0h5.44m-13.54,0h5.43m-13.54,0h5.43m-13.28,0h5.17"/>
  <path class="cls-16" d="m176.15,434.8h4.31v1.07h-4.31v-1.07Zm0-37.86h4.31v1.07h-4.31v-1.07Z"/>
  <path class="cls-29" d="m180.49,429.9v4.9m0-13v5.43m0-13.54v5.43m0-13.54v5.43m0-13v4.9"/>
  <rect class="cls-16" x="139.3" y="433.53" width="36.79" height="1.27"/>
  <path class="cls-29" d="m180.46,320.83v-2.76m0,10.88v-5.44m0,13.56v-5.44m0,13.55v-5.44m0,13.55v-5.35m0,10.88v-2.77m-7.57,42.09l3.21-.18m-11.14,1.78l.45-.18,3.47-.89,1.34-.18m-12.65,4.55l1.16-.71,3.3-1.6.45-.09m-11.4,7.22l1.69-1.52,2.58-1.87m-9.53,9.45l1.87-2.5,1.52-1.7m-7.22,11.33l.18-.36,1.51-3.3.71-1.16m-4.54,12.66l.18-1.34.89-3.48.18-.45m-1.78,11.15l.18-3.21"/>
  <path class="cls-16" d="m135.37,357.45h40.72v1.34h-40.72v-1.34Zm40.72,1.34h4.37v1.25h-4.37v-1.25Zm0-42.05h4.37v1.34h-4.37v-1.34Z"/>
  <path class="cls-29" d="m170.56,318.51l1.87-.27,3.65-.18m-13.45,2.32l2.49-.8,2.76-.62m-12.56,4.81l2.94-1.6,1.87-.8m-11.31,7.22l.27-.27,2.94-2.32.98-.71m-9.62,9.35l.71-.98,2.41-2.85.36-.36m-7.57,11.13l.8-1.78,1.69-2.94m-5.26,12.38l.71-2.67.98-2.49m-2.76,13.36l.27-3.65.27-1.96"/>
  <path class="cls-16" d="m119.85,320.03h4.22v-1.07h-4.22v1.07Zm0,37.86h4.22v-1.07h-4.22v1.07Z"/>
  <path class="cls-29" d="m124.11,351.92v4.9m0-13v5.43m0-13.54v5.43m0-13.54v5.43m0-13v4.9"/>
  <rect class="cls-16" x="83" y="320.03" width="36.79" height="1.18"/>
  <path class="cls-29" d="m83.18,323.15l-.18-3.12m1.69,11.13l-.09-.45-.89-3.56-.18-1.25m4.45,12.56l-.62-1.16-1.6-3.21-.09-.45m7.12,11.31l-1.43-1.6-1.96-2.58m9.53,9.53l-2.49-1.87-1.69-1.51m11.31,7.21l-.36-.18-3.3-1.51-1.16-.71m12.65,4.54l-1.34-.18-3.47-.89-.44-.18m11.13,1.78l-3.21-.18"/>
  <line class="cls-35" x1="336.37" y1="483.46" x2="232.51" y2="483.46"/>
  <path class="cls-16" d="m313.01,460.78l-2.58,1.06m10.13-4.24l-5.06,2.12m10.04-4.33l-2.49,1.15m0,4.24l2.49,1.06m-10.04-4.24l5.06,2.12m-10.13-4.33l2.58,1.15"/>
  <polyline class="cls-35" points="310.5 479.18 310.5 455.45 325.48 455.45"/>
  <line class="cls-26" x1="310.45" y1="461.83" x2="325.53" y2="461.83"/>
  <line class="cls-35" x1="325.48" y1="479.18" x2="310.5" y2="479.18"/>
  <line class="cls-33" x1="180.46" y1="225.78" x2="180.43" y2="225.78"/>
  <line class="cls-35" x1="173.98" y1="479.18" x2="173.98" y2="444.65"/>
  <path class="cls-33" d="m238.33,279.96v-13.46h17.29v17.29h-17.29v-3.83Zm28.88,0v3.83h17.29v-17.29h-17.29v13.46Zm-11.59,34.58v-3.83h-17.29v17.29h17.29v-13.46Zm-23.08,0h57.76v-34.58h-57.76v34.58Zm51.96,0v13.46h-17.29v-17.29h17.29v3.83Z"/>
  <line class="cls-27" x1="248.29" y1="349.3" x2="248.29" y2="387.34"/>
  <path class="cls-45" d="m249.28,352.48l.18-.18-2.23-1.78,2.05,1.96Zm.18-.18l-2.23-1.78.18-.18,2.05,1.96Z"/>
  <path class="cls-45" d="m247.41,384.07l-.18.18,2.23,1.87-2.05-2.05Zm-.18.18l2.23,1.87-.18.18-2.05-2.05Z"/>
  <g class="cls-28">
    <path d="m245.14,371.8c-.14-.06-.33-.1-.54-.12-.22-.02-.48-.04-.78-.04s-.56.01-.77.04c-.22.02-.4.06-.55.12-.15.06-.26.14-.34.24-.08.1-.11.23-.11.4s.04.29.11.4c.08.1.19.19.34.25.15.06.33.1.56.12.23.02.48.03.76.03.3,0,.56-.01.76-.03.2-.02.39-.06.55-.12.15-.06.26-.14.34-.24.08-.1.12-.24.12-.41s-.04-.29-.11-.4c-.08-.1-.19-.18-.34-.24m-1.32-.75c.78,0,1.35.11,1.71.34.36.23.55.57.55,1.05s-.18.83-.56,1.05c-.37.22-.94.34-1.7.34s-1.35-.11-1.72-.34c-.36-.23-.54-.57-.54-1.05s.19-.83.56-1.05c.37-.22.94-.34,1.69-.34"/>
  </g>
  <rect x="245.15" y="369.57" width=".83" height=".7"/>
  <polygon points="242.3 365.98 245.98 367.85 245.98 368.47 242.16 366.48 242.16 368.73 241.65 368.73 241.65 365.98 242.3 365.98"/>
  <g class="cls-31">
    <path d="m242.66,363.4c-.19,0-.36.06-.49.19s-.2.31-.2.54c0,.21.06.38.18.52.12.14.27.2.47.2.14,0,.27-.04.36-.1.1-.07.19-.17.27-.31.03-.06.08-.15.14-.27.06-.12.1-.24.14-.34-.13-.17-.26-.28-.4-.34-.14-.06-.29-.09-.47-.09m2.17-.08c-.18,0-.32.03-.42.1-.1.07-.21.21-.32.4-.04.07-.08.15-.12.26-.04.11-.09.23-.15.37.11.16.24.28.39.37.16.09.33.13.54.13.26,0,.48-.08.65-.24s.26-.36.26-.6-.07-.44-.22-.59c-.15-.15-.35-.22-.6-.22m1.25.81c0,.22-.03.41-.1.59s-.16.33-.28.45c-.12.12-.25.22-.41.28-.16.06-.33.1-.51.1-.23,0-.45-.06-.65-.19-.2-.12-.35-.31-.47-.55h-.02c-.12.21-.26.37-.41.47-.15.1-.33.15-.55.15-.33,0-.6-.12-.82-.37-.22-.25-.33-.56-.33-.94s.1-.71.31-.95.47-.36.79-.36c.19,0,.39.06.58.17.19.11.34.28.45.49h.02c.12-.25.26-.44.43-.57.17-.13.39-.2.65-.2.37,0,.68.13.93.4.25.27.38.61.38,1.01"/>
  </g>
  <line class="cls-35" x1="33.18" y1="310.18" x2="33.18" y2="253.98"/>
  <rect class="cls-33" x="332.12" y="307.45" width="4.31" height="25.99"/>
  <polygon class="cls-44" points="335.39 313.9 332.98 313.9 332.98 314.71 332.66 314.71 332.66 312.76 332.98 312.76 332.98 313.57 335.39 313.57 335.39 313.9"/>
  <polygon class="cls-44" points="335.39 316.88 335.06 316.88 335.06 315.37 334.14 315.37 334.14 316.73 333.82 316.73 333.82 315.37 332.98 315.37 332.98 316.83 332.66 316.83 332.66 315.05 335.39 315.05 335.39 316.88"/>
  <polygon class="cls-44" points="335.39 318.85 335.06 318.85 335.06 317.64 332.66 317.64 332.66 317.32 335.39 317.32 335.39 318.85"/>
  <rect class="cls-44" x="335" y="319.29" width=".38" height=".34"/>
  <g class="cls-2">
    <path class="cls-44" d="m332.98,321.46v.49c0,.18.01.3.04.37.02.07.07.13.14.17.07.04.15.06.24.06.1,0,.17-.02.24-.06.06-.04.11-.1.14-.19.02-.06.03-.16.03-.31v-.53h-.83Zm1.15,0v.57c0,.16.01.28.04.36.03.08.08.15.16.2.07.05.16.07.26.07.09,0,.16-.02.23-.05.07-.03.12-.07.15-.12.04-.05.06-.11.07-.19,0-.04.01-.12.01-.22v-.61h-.94Zm1.26.61c0,.16-.02.29-.05.4-.03.11-.08.2-.14.27-.06.07-.14.13-.25.18-.11.05-.23.07-.36.07-.16,0-.3-.04-.41-.12-.12-.08-.2-.19-.25-.34-.06.11-.15.2-.25.26-.1.06-.21.09-.33.09-.12,0-.24-.03-.36-.1-.11-.07-.2-.15-.26-.27-.05-.11-.08-.26-.08-.45v-.92h2.73v.94Z"/>
    <path class="cls-44" d="m333.18,323.92c-.18.17-.26.36-.26.59,0,.16.05.31.14.44.09.13.22.23.38.3.17.07.36.1.58.1.35,0,.62-.08.81-.24.19-.16.29-.36.29-.6s-.09-.44-.28-.6-.45-.24-.78-.24c-.41,0-.7.08-.88.25m1.56-.44c.21.09.38.23.51.41.12.18.19.39.19.62,0,.21-.06.41-.17.6-.11.18-.28.33-.5.43-.22.1-.47.15-.74.15s-.52-.05-.73-.14c-.21-.1-.38-.23-.5-.42s-.18-.39-.18-.61c0-.35.13-.63.38-.85.26-.22.61-.33,1.06-.33.24,0,.47.05.68.14"/>
    <path class="cls-44" d="m335.39,326.24l-.95.62s-.11.06-.21.12c.07.04.13.07.18.11l.97.62v.4l-1.44-.93-1.29.86v-.35l.72-.49c.11-.08.21-.14.31-.2-.08-.04-.19-.11-.33-.2l-.7-.45v-.39l1.31.84,1.42-.95v.39Z"/>
    <path class="cls-33" d="m256.42,204.26h25.95v-25.95h-25.95v25.95Zm44.86-17.39h24.26m-25.95-1.65c0,.91.74,1.65,1.65,1.65m-1.56-24.26v22.65m1.56-24.34c-.91,0-1.65.74-1.65,1.65m25.95,24.3l.09-25.86m-1.74,25.86c.91,0,1.65-.74,1.65-1.65m-4.01,1.65h2.41m-4.1-1.65c0,.91.74,1.65,1.65,1.65m-1.56-24.26v22.65m1.56-24.34c-.91,0-1.65.74-1.65,1.65m5.71,0c0-.91-.74-1.65-1.65-1.65m1.65,24.34l.09-22.65m-24.35,50.11h24.26m-25.95-1.65c0,.91.74,1.65,1.65,1.65m-1.56-24.25v22.65m1.56-24.34c-.91,0-1.65.74-1.65,1.65m25.95,24.3v-25.86h-24.26m22.61,25.86c.91,0,1.65-.74,1.65-1.65m-4.01,1.65h2.41m-4.1-1.65c0,.91.74,1.65,1.65,1.65m-1.56-24.25v22.65m1.56-24.34c-.91,0-1.65.74-1.65,1.65m4.1-1.56h-2.41m4.01,1.56c0-.91-.74-1.65-1.65-1.65m1.65,24.34v-22.65m-24.26-27.46h24.35m-25.95-1.6v-24.34h25.86m-25.95,24.3c0,.91.74,1.65,1.65,1.65m24.3-25.95l.09,25.95h-24.35m-27.47-1.6v-24.25m-.09,24.21c0,.91.74,1.65,1.65,1.65m22.7,0h-22.65m22.61,0c.91,0,1.65-.74,1.65-1.65m-25.86-24.21l25.86-.09v24.34m-24.3-24.34c-.91,0-1.65.74-1.65,1.65m.09,2.45v-2.41m-.09,2.36c0,.91.74,1.65,1.65,1.65m22.7,0h-22.65m22.61,0c.91,0,1.65-.74,1.65-1.65m0-2.36v2.41m0-2.45c0-.91-.74-1.65-1.65-1.65m-22.61.09l22.65-.09m-50.12,24.34v-24.25m-.09,24.21c0,.91.74,1.65,1.65,1.65m22.7,0h-22.65m22.61,0c.91,0,1.65-.74,1.65-1.65m-25.86-24.21h25.86v24.25m-24.3-24.34c-.91,0-1.65.74-1.65,1.65m.09,2.45v-2.41m-.09,2.36c0,.91.74,1.65,1.65,1.65m22.7,0h-22.65m22.61,0c.91,0,1.65-.74,1.65-1.65m0-2.36v2.41m0-2.45c0-.91-.74-1.65-1.65-1.65m-22.61.09h22.65m-91.68,43.6v59.12m7.31-18.99h3.21v-21.13h-3.21m-2.05,0h-3.21v21.13h3.21m1.07,12.66v-46.46m.98,46.46v-46.46h-.98l-1.07,1.78v43.43l1.07,1.25h.98Zm-7.31-52.79h12.66v59.12h-12.66"/>
  </g>
  <polyline class="cls-27" points="233.34 385.26 305.21 385.26 305.21 390.55 331.16 390.55"/>
  <g class="cls-25">
    <path class="cls-33" d="m59.78,200.62l30.67,35.94m-40.29-30.94c-.56-.01-1.11.2-1.51.6-.4.39-.63.93-.63,1.5m1.7-35.45c-.57-.01-1.11.2-1.52.6-.4.39-.63.94-.63,1.5m15.34,33.22v21.94m-3.12-57.43l-1.51.27-1.34.45-1.34.71-1.25.8m-4.64,23.72l1.25-.09.71-.09.71-.27.89-.18.89-.36.98-.45,1.16-.54m4.73,35.49l-1.52.09-1.43-.18-.71-.27-.71-.27-.62-.45-.54-.45m5.46,1.5c1.06-.12,1.86-1.02,1.86-2.08m-21.04,7.09h17.39v17.3h-17.39m0-86.76h17.39m-17.39-17.3v86.76m32.9-69.46v26.48m-14.89,4.73l-1.34-.09-1.16-.27-1.16-.54-.98-.8m47.52-3.21l-42.89.27m0-26.57v33.53m42.89,26.66v-33.88m-39.85,14.13c0-.56-.23-1.1-.63-1.5-.4-.39-.95-.61-1.51-.6m-13.11-31.03v21.49m13.2,9.54l-1.69.18-1.52.45-1.43.71-1.34.89m-4.64,23.72l1.16-.09.71-.09.8-.18.8-.27.89-.36,1.07-.45,1.07-.45m33.79,7.05l12.22-9.27m-54.66-19.53v21.49m-.45-33.39c0,.56.22,1.1.62,1.49.4.39.94.61,1.5.6m-1.68,31.26c0,.56.22,1.1.62,1.49.4.39.94.61,1.5.6m78.3,5.26H41.77v-69.46h86.66v69.46Zm-69.28-69.46v-17.3m-9.01,55.82l1.43.09,1.43.27,1.34.45,1.34.71m-5.89-34.87l1.43.09,1.43.27,1.34.45,1.25.62m3.92-23.9h-17.39m0,104.06v-17.3"/>
    <path class="cls-26" d="m100.59,193.34c0,1.13.92,2.05,2.05,2.05s2.05-.92,2.05-2.05-.92-2.05-2.05-2.05-2.05.92-2.05,2.05"/>
  </g>
  <path class="cls-16" d="m109.85,446.11l-3.03-1.51m10.34,5.34l-4.9-2.49m12.21,6.23l-4.9-2.49m12.21,6.32l-4.81-2.58m12.21,6.32l-4.9-2.49m12.21,6.32l-4.9-2.58m12.21,6.32l-4.9-2.49m12.21,6.23l-4.9-2.49m12.21,6.32l-4.81-2.49m10.34,5.34l-3.03-1.6m-61.06,0l-3.03,1.6m10.34-5.34l-4.9,2.49m12.21-6.32l-4.9,2.49m12.21-6.23l-4.81,2.49m12.21-6.32l-4.9,2.58m12.21-6.32l-4.9,2.49m12.21-6.32l-4.9,2.58m12.21-6.32l-4.9,2.49m12.21-6.23l-4.81,2.49m10.34-5.34l-3.03,1.51"/>
  <g class="cls-6">
    <path d="m134.12,476.59v-8.67h1.41l1.69,6.14.34,1.28c.08-.32.21-.78.38-1.39l1.71-6.03h1.27v8.67h-.91v-7.25l-2.07,7.25h-.84l-2.06-7.37v7.37h-.9Z"/>
  </g>
  <rect x="142.57" y="475.38" width=".99" height="1.21"/>
  <g class="cls-15">
    <path d="m146.09,475.57h1.51c.61,0,1.07-.1,1.39-.3.32-.2.56-.52.73-.96.22-.59.34-1.29.34-2.11,0-.88-.12-1.57-.36-2.07-.24-.5-.55-.84-.92-1.01-.25-.11-.65-.17-1.2-.17h-1.49v6.62Zm-.94,1.02v-8.67h2.45c.61,0,1.07.05,1.38.16.41.14.77.39,1.08.76.3.37.54.83.71,1.39.17.56.25,1.22.25,1.98,0,.98-.14,1.81-.43,2.5-.29.68-.66,1.17-1.11,1.46-.45.29-1.04.43-1.77.43h-2.56Z"/>
  </g>
  <path class="cls-35" d="m176.03,368.81h-43.25v21.63h-25.9v49.66m0-71.29h21.62v17.26h-21.62v-17.26Z"/>
  <path class="cls-16" d="m110.11,371.42l-3.29-2.67m9.7,7.82l-4.27-3.47m10.76,8.53l-4.36-3.38m9.79,7.73l-3.29-2.58m-15.03,0l-3.29,2.58m9.7-7.73l-4.27,3.38m10.76-8.53l-4.36,3.47m9.79-7.82l-3.29,2.67"/>
  <g class="cls-40">
    <path d="m112.96,374.96v-4.33h.71l.84,3.07.17.64c.04-.16.1-.39.19-.69l.85-3.01h.63v4.33h-.45v-3.62l-1.04,3.62h-.42l-1.03-3.69v3.69h-.45Z"/>
  </g>
  <rect x="117.18" y="374.36" width=".5" height=".61"/>
  <g class="cls-34">
    <path d="m118.95,374.45h.76c.31,0,.54-.05.69-.15.16-.1.28-.26.36-.48.11-.29.17-.64.17-1.05,0-.44-.06-.79-.18-1.04-.12-.25-.27-.42-.46-.5-.12-.06-.33-.09-.6-.09h-.74v3.31Zm-.47.51v-4.33h1.23c.3,0,.53.03.69.08.21.07.39.2.54.38.15.18.27.41.35.69.09.28.13.61.13.99,0,.49-.07.91-.22,1.25-.14.34-.33.58-.55.73-.23.14-.52.21-.89.21h-1.28Z"/>
    <path d="m315.93,458.79v-.25h.92s0,.8,0,.8c-.14.11-.29.2-.44.25-.15.06-.3.09-.46.09-.21,0-.41-.05-.58-.14-.17-.09-.31-.22-.39-.39-.09-.17-.13-.37-.13-.58s.04-.41.13-.59c.09-.18.22-.32.38-.41.17-.09.36-.13.57-.13.16,0,.3.03.42.08.13.05.23.12.3.21.07.09.13.21.16.35l-.26.07c-.03-.11-.07-.2-.12-.26-.05-.06-.12-.11-.21-.15-.09-.04-.19-.06-.3-.06-.13,0-.25.02-.34.06-.1.04-.17.09-.23.16-.06.07-.1.14-.14.21-.06.13-.08.28-.08.44,0,.19.03.36.1.49.07.13.16.23.29.29.13.06.26.09.4.09.12,0,.25-.02.36-.07.12-.05.21-.1.27-.15v-.4h-.64Z"/>
    <path d="m317.66,458.75h.73l-.23-.6c-.07-.18-.12-.33-.15-.45-.03.14-.07.28-.12.41l-.24.64Zm-.62.89l.83-2.17h.31l.89,2.17h-.33l-.25-.66h-.91l-.24.66h-.3Z"/>
    <path d="m319.19,458.94l.27-.02c.01.11.04.2.09.27.05.07.12.13.22.17.1.04.21.07.33.07.11,0,.21-.02.29-.05.08-.03.15-.08.19-.13.04-.06.06-.12.06-.19s-.02-.13-.06-.18c-.04-.05-.1-.09-.19-.13-.06-.02-.19-.06-.39-.11-.2-.05-.34-.09-.42-.14-.1-.05-.18-.12-.23-.2s-.08-.17-.08-.27c0-.11.03-.21.09-.31s.15-.17.27-.22c.12-.05.25-.07.4-.07.16,0,.3.02.43.08.12.05.22.13.28.23.07.1.1.21.11.34l-.28.02c-.01-.14-.06-.24-.15-.31-.09-.07-.21-.1-.38-.1s-.3.03-.38.1c-.08.06-.12.14-.12.23,0,.08.03.14.09.19.05.05.2.1.43.15.23.05.39.1.48.14.12.06.22.13.28.22.06.09.09.19.09.31s-.03.22-.1.33c-.07.1-.16.18-.29.24-.12.06-.26.08-.42.08-.2,0-.36-.03-.49-.09-.13-.06-.24-.14-.31-.26-.08-.11-.11-.24-.12-.39"/>
  </g>
  <path class="cls-27" d="m325.54,479.24l-15.11-17.34m15.11,0l-15.11,17.34"/>
  <path class="cls-35" d="m48.34,479.19h54.13v-49.74h-54.13v49.74Zm0,4.27h134.29m-75.8-38.88v34.61m-4.37-56.23H33.18m313.98,28.11v-32.39h-6.51m6.51,36.66v23.85m-21.67-28.12v-32.39h6.51m-6.51,32.39h-19.44m19.44,4.27v23.85"/>
  <g class="cls-30">
    <path d="m61.16,465.52h.94v5.01c0,.84-.08,1.53-.24,2.07-.16.54-.46.96-.89,1.27-.43.31-.98.47-1.64.47-.94,0-1.64-.28-2.11-.84-.47-.56-.7-1.55-.7-2.97v-5.01h.94v5c0,.78.06,1.35.18,1.7.12.35.32.62.6.8s.62.28,1.01.28c.67,0,1.16-.19,1.46-.57.3-.38.45-1.12.45-2.21v-5Z"/>
  </g>
  <polygon points="65.51 474.18 65.51 466.54 63.16 466.54 63.16 465.52 68.8 465.52 68.8 466.54 66.45 466.54 66.45 474.18 65.51 474.18"/>
  <rect x="69.9" y="472.97" width=".99" height="1.21"/>
  <path class="cls-35" d="m325.49,139.13v-12.93h21.67M26.67,444.47v-190.57m320.49-127.7v12.93m-15.16,73.66v205.73"/>
  <polygon class="cls-38" points="37.52 103.49 37.52 118.64 131.8 24.62 124.14 16.96 37.52 103.49"/>
  <g class="cls-37">
    <path d="m174.13,96.1h1.54c.4,0,.69-.03.86-.08.24-.08.43-.22.56-.42.13-.2.2-.46.2-.79,0-.31-.06-.57-.18-.78-.12-.21-.28-.35-.48-.43-.2-.08-.56-.12-1.07-.12h-1.43v2.62Zm0,4h1.77c.39,0,.68-.04.86-.11.27-.1.47-.27.61-.51.14-.23.21-.53.21-.88,0-.33-.07-.6-.2-.83-.14-.23-.31-.39-.54-.5-.23-.1-.58-.16-1.07-.16h-1.65v2.98Zm-.94,1.02v-8.67h2.67c.54,0,.97.08,1.28.25.32.17.58.43.78.78.2.35.3.74.3,1.17,0,.4-.09.76-.26,1.08-.17.32-.42.58-.73.77.41.15.74.4.97.77.24.36.35.81.35,1.33s-.11.98-.32,1.38c-.21.4-.5.68-.86.86-.36.18-.85.27-1.48.27h-2.71Z"/>
    <path d="m181.11,97.57h2.42l-.74-2.4c-.23-.74-.4-1.34-.5-1.8-.09.56-.22,1.11-.39,1.66l-.79,2.54Zm-2.04,3.56l2.74-8.67h1.01l2.91,8.67h-1.07l-.83-2.62h-2.99l-.77,2.62h-.99Z"/>
  </g>
  <polygon points="186.41 101.13 186.41 92.46 187.35 92.46 187.35 100.11 190.85 100.11 190.85 101.13 186.41 101.13"/>
  <g class="cls-9">
    <path d="m197.03,98.09l.94.29c-.21.97-.57,1.7-1.1,2.18-.52.48-1.16.72-1.91.72-.66,0-1.22-.16-1.69-.48-.47-.32-.85-.84-1.15-1.55-.3-.71-.45-1.55-.45-2.51s.15-1.76.45-2.42c.3-.66.7-1.16,1.21-1.5.51-.34,1.08-.51,1.7-.51.69,0,1.28.21,1.77.64.49.43.84,1.05,1.04,1.88l-.92.27c-.32-1.2-.95-1.8-1.9-1.8-.47,0-.88.12-1.23.36-.35.24-.62.62-.83,1.13-.21.51-.31,1.16-.31,1.95,0,1.19.21,2.08.63,2.67.42.59.97.89,1.67.89.51,0,.95-.18,1.33-.55.37-.36.62-.92.75-1.66"/>
    <path d="m199.86,96.92c0,1.07.24,1.9.71,2.49.47.59,1.04.88,1.72.88s1.27-.3,1.74-.89c.47-.59.7-1.47.7-2.63,0-.75-.12-1.41-.36-2-.19-.45-.46-.81-.84-1.08-.37-.27-.78-.4-1.22-.4-.71,0-1.29.29-1.75.89-.46.59-.69,1.51-.69,2.74m-.97-.02c0-1.48.32-2.61.97-3.41.65-.79,1.46-1.19,2.43-1.19.63,0,1.2.18,1.71.53s.93.87,1.23,1.55c.3.68.45,1.48.45,2.42,0,1.28-.29,2.33-.87,3.14-.64.89-1.48,1.34-2.53,1.34s-1.89-.46-2.53-1.37c-.58-.83-.87-1.83-.87-3"/>
  </g>
  <polygon points="206.85 101.13 206.85 92.46 207.82 92.46 211.55 99.28 211.55 92.46 212.45 92.46 212.45 101.13 211.49 101.13 207.76 94.31 207.76 101.13 206.85 101.13"/>
  <g class="cls-1">
    <path d="m216.05,101.13v-3.67l-2.74-4.99h1.15l1.39,2.61c.28.52.52,1.01.73,1.47.21-.45.47-.97.78-1.53l1.38-2.55h1.09l-2.84,4.99v3.67h-.94Z"/>
  </g>
  <polyline class="cls-26" points="310.36 120 310.36 29.07 136.37 29.07 131.91 24.62"/>
  <path class="cls-16" d="m306.09,120.01V33.43h-171.52l-5.71-5.71m179.37,92.29V31.2h-172.77l-5.08-5.08"/>
  <polyline class="cls-26" points="37.41 240.99 37.41 253.84 26.62 253.84"/>
  <path class="cls-44" d="m37.46,102.29h-10.89l10.89,21.59v-21.59Zm-10.89,0l10.89,21.59h-10.89v-21.59Z"/>
  <polyline class="cls-26" points="26.62 102.33 37.41 102.33 37.41 123.83 26.62 123.83"/>
  <path class="cls-33" d="m26.96,253.85l10.47-10.52m-10.82-.62l10.82-10.79m-10.82-.71l10.82-10.79m-10.82-.71l10.82-10.79m-10.82-.62l10.82-10.88m-10.82-.62l10.82-10.79m-10.82-.71l10.82-10.79m-10.82-.71l10.82-10.79m-10.82-.62l10.82-10.88m-10.82-.62l10.82-10.88m-10.82-.62l10.82-10.79m-10.82-.71l3.9-3.92m4.08,129.94l2.84-2.85m-10.82-.62l10.82-10.88m-10.82-.62l10.82-10.79m-10.82-.71l10.82-10.79m-10.82-.62l10.82-10.88m-10.82-.62l10.82-10.88m-10.82-.62l10.82-10.79m-10.82-.71l10.82-10.79m-10.82-.71l10.82-10.79m-10.82-.62l10.82-10.88m-10.82-.62l10.82-10.79m-10.82-.71l10.82-10.79m-10.82-.71l.09-.09"/>
  <path class="cls-44" d="m347.25,139.05h-21.68l21.68,86.73v-86.73Zm-21.68,0l21.68,86.73h-21.68v-86.73Z"/>
  <path class="cls-44" d="m347.25,440.19h-21.68l21.68,43.36v-43.36Zm-21.68,0l21.68,43.36h-21.68v-43.36Z"/>
  <path class="cls-26" d="m347.21,483.51h-21.59v-43.35h21.59v43.35Zm0-257.71h-21.59v-86.71h21.59v86.71Z"/>
  <path class="cls-44" d="m48.26,444.56h-21.68l21.68,38.99v-38.99Zm-21.68,0l21.68,38.99h-21.68v-38.99Z"/>
  <rect class="cls-26" x="26.62" y="444.61" width="21.59" height="38.9"/>
  <path class="cls-33" d="m37.49,116.98h1.69m-1.69-2.76h4.46m-4.46-2.67h7.13m-7.13-2.68h9.9m-9.9-2.76h12.57m-12.48-2.67h15.25m-12.48-2.67h15.16m-12.48-2.76h15.25m-12.57-2.68h15.25m-12.48-2.67h15.16m-12.48-2.77h15.25m-12.48-2.67h15.16m-12.48-2.76l15.25.09m-12.57-2.76h15.25m-12.48-2.67h15.25m-12.57-2.76h15.25m-12.48-2.68h15.25m-12.57-2.67h15.25m-12.57-2.76h15.25m-12.48-2.68h15.25m-12.57-2.67h15.25m-12.48-2.76h15.25m-12.57-2.67h15.25m-12.57-2.68h15.34m-12.57-2.76h15.25m-12.57-2.67h15.34m-12.57-2.67h15.25m-12.57-2.76h15.25m-12.57-2.67h15.34m-12.57-2.67h15.25m-12.57-2.76h15.34m-12.57-2.68h15.25m-12.57-2.67h15.34m-12.66-2.76h15.34m-12.57-2.67h15.25m-12.57-2.67h10.52m-7.85-2.76h5.17"/>
</svg>