<?xml version="1.0" encoding="UTF-8"?>
<svg id="Layer_1" data-name="Layer 1" xmlns="http://www.w3.org/2000/svg" xmlns:xlink="http://www.w3.org/1999/xlink" viewBox="0 0 539 407.91">
  <defs>
    <style>
      .cls-1 {
        clip-path: url(#clippath-4);
      }

      .cls-1, .cls-2, .cls-3, .cls-4, .cls-5, .cls-6, .cls-7, .cls-8, .cls-9, .cls-10, .cls-11, .cls-12, .cls-13, .cls-14, .cls-15, .cls-16, .cls-17, .cls-18, .cls-19, .cls-20, .cls-21, .cls-22, .cls-23, .cls-24, .cls-25, .cls-26, .cls-27, .cls-28, .cls-29, .cls-30, .cls-31, .cls-32, .cls-33, .cls-34, .cls-35, .cls-36, .cls-37, .cls-38, .cls-39, .cls-40, .cls-41, .cls-42, .cls-43, .cls-44, .cls-45 {
        fill: none;
      }

      .cls-2 {
        clip-path: url(#clippath-2);
      }

      .cls-46 {
        fill: #fff;
      }

      .cls-3 {
        clip-path: url(#clippath-6);
      }

      .cls-4 {
        clip-path: url(#clippath-9);
      }

      .cls-5, .cls-19, .cls-30, .cls-31, .cls-35, .cls-36, .cls-38, .cls-39, .cls-44 {
        stroke-linecap: round;
        stroke-linejoin: round;
      }

      .cls-5, .cls-19, .cls-31, .cls-38, .cls-44 {
        stroke: #000;
      }

      .cls-5, .cls-30 {
        stroke-width: .24px;
      }

      .cls-6 {
        clip-path: url(#clippath-12);
      }

      .cls-7 {
        clip-path: url(#clippath-32);
      }

      .cls-8 {
        clip-path: url(#clippath-13);
      }

      .cls-9 {
        clip-path: url(#clippath-21);
      }

      .cls-10 {
        clip-path: url(#clippath-28);
      }

      .cls-47 {
        fill: #e0e0e0;
      }

      .cls-11 {
        clip-path: url(#clippath-7);
      }

      .cls-12 {
        clip-path: url(#clippath-18);
      }

      .cls-13 {
        clip-path: url(#clippath-27);
      }

      .cls-14 {
        clip-path: url(#clippath-10);
      }

      .cls-15 {
        clip-path: url(#clippath-34);
      }

      .cls-16 {
        clip-path: url(#clippath-22);
      }

      .cls-17 {
        clip-path: url(#clippath-5);
      }

      .cls-48 {
        fill: gray;
      }

      .cls-18 {
        clip-path: url(#clippath-24);
      }

      .cls-19, .cls-35, .cls-36 {
        stroke-width: .25px;
      }

      .cls-20 {
        clip-path: url(#clippath-26);
      }

      .cls-21 {
        clip-path: url(#clippath-31);
      }

      .cls-22 {
        clip-path: url(#clippath-16);
      }

      .cls-23 {
        clip-path: url(#clippath-15);
      }

      .cls-24 {
        clip-path: url(#clippath-3);
      }

      .cls-25 {
        clip-path: url(#clippath-11);
      }

      .cls-26 {
        clip-path: url(#clippath-29);
      }

      .cls-27 {
        clip-path: url(#clippath-33);
      }

      .cls-28 {
        clip-path: url(#clippath-19);
      }

      .cls-30, .cls-35 {
        stroke: #999;
      }

      .cls-31 {
        stroke-width: .36px;
      }

      .cls-32 {
        clip-path: url(#clippath-20);
      }

      .cls-33 {
        clip-path: url(#clippath-23);
      }

      .cls-34 {
        clip-path: url(#clippath-17);
      }

      .cls-36, .cls-39 {
        stroke: gray;
      }

      .cls-37 {
        clip-path: url(#clippath);
      }

      .cls-38 {
        stroke-width: .72px;
      }

      .cls-39 {
        stroke-width: .12px;
      }

      .cls-40 {
        clip-path: url(#clippath-1);
      }

      .cls-41 {
        clip-path: url(#clippath-8);
      }

      .cls-42 {
        clip-path: url(#clippath-25);
      }

      .cls-43 {
        clip-path: url(#clippath-14);
      }

      .cls-44 {
        stroke-width: .48px;
      }

      .cls-45 {
        clip-path: url(#clippath-30);
      }
    </style>
    <clipPath id="clippath">
      <rect class="cls-29" x="-52" y="-228.56" width="1371.97" height="864.57"/>
    </clipPath>
    <clipPath id="clippath-1">
      <rect class="cls-29" x="-52" y="-228.56" width="1371.97" height="864.57"/>
    </clipPath>
    <clipPath id="clippath-2">
      <rect class="cls-29" x="-52" y="-228.56" width="1371.97" height="864.57"/>
    </clipPath>
    <clipPath id="clippath-3">
      <rect class="cls-29" x="-52" y="-228.56" width="1371.97" height="864.57"/>
    </clipPath>
    <clipPath id="clippath-4">
      <rect class="cls-29" x="-52" y="-228.56" width="1371.97" height="864.57"/>
    </clipPath>
    <clipPath id="clippath-5">
      <rect class="cls-29" x="-52" y="-228.56" width="1371.97" height="864.57"/>
    </clipPath>
    <clipPath id="clippath-6">
      <rect class="cls-29" x="-52" y="-228.56" width="1371.97" height="864.57"/>
    </clipPath>
    <clipPath id="clippath-7">
      <rect class="cls-29" x="-52" y="-228.56" width="1371.97" height="864.57"/>
    </clipPath>
    <clipPath id="clippath-8">
      <rect class="cls-29" x="-52" y="-228.56" width="1371.97" height="864.57"/>
    </clipPath>
    <clipPath id="clippath-9">
      <rect class="cls-29" x="-52" y="-228.56" width="1371.97" height="864.57"/>
    </clipPath>
    <clipPath id="clippath-10">
      <rect class="cls-29" x="-52" y="-228.56" width="1371.97" height="864.57"/>
    </clipPath>
    <clipPath id="clippath-11">
      <rect class="cls-29" x="-52" y="-228.56" width="1371.97" height="864.57"/>
    </clipPath>
    <clipPath id="clippath-12">
      <rect class="cls-29" x="-52" y="-228.56" width="1371.97" height="864.57"/>
    </clipPath>
    <clipPath id="clippath-13">
      <rect class="cls-29" x="-52" y="-228.56" width="1371.97" height="864.57"/>
    </clipPath>
    <clipPath id="clippath-14">
      <rect class="cls-29" x="-52" y="-228.56" width="1371.97" height="864.57"/>
    </clipPath>
    <clipPath id="clippath-15">
      <rect class="cls-29" x="-52" y="-228.56" width="1371.97" height="864.57"/>
    </clipPath>
    <clipPath id="clippath-16">
      <rect class="cls-29" x="-52" y="-228.56" width="1371.97" height="864.57"/>
    </clipPath>
    <clipPath id="clippath-17">
      <rect class="cls-29" x="-52" y="-228.56" width="1371.97" height="864.57"/>
    </clipPath>
    <clipPath id="clippath-18">
      <rect class="cls-29" x="-52" y="-228.56" width="1371.97" height="864.57"/>
    </clipPath>
    <clipPath id="clippath-19">
      <rect class="cls-29" x="-52" y="-228.56" width="1371.97" height="864.57"/>
    </clipPath>
    <clipPath id="clippath-20">
      <rect class="cls-29" x="-52" y="-228.56" width="1371.97" height="864.57"/>
    </clipPath>
    <clipPath id="clippath-21">
      <rect class="cls-29" x="-52" y="-228.56" width="1371.97" height="864.57"/>
    </clipPath>
    <clipPath id="clippath-22">
      <rect class="cls-29" x="-52" y="-228.56" width="1371.97" height="864.57"/>
    </clipPath>
    <clipPath id="clippath-23">
      <rect class="cls-29" x="-52" y="-228.56" width="1371.97" height="864.57"/>
    </clipPath>
    <clipPath id="clippath-24">
      <rect class="cls-29" x="-52" y="-228.56" width="1371.97" height="864.57"/>
    </clipPath>
    <clipPath id="clippath-25">
      <rect class="cls-29" x="-52" y="-228.56" width="1371.97" height="864.57"/>
    </clipPath>
    <clipPath id="clippath-26">
      <rect class="cls-29" x="-52" y="-228.56" width="1371.97" height="864.57"/>
    </clipPath>
    <clipPath id="clippath-27">
      <rect class="cls-29" x="-52" y="-228.56" width="1371.97" height="864.57"/>
    </clipPath>
    <clipPath id="clippath-28">
      <rect class="cls-29" x="-52" y="-228.56" width="1371.97" height="864.57"/>
    </clipPath>
    <clipPath id="clippath-29">
      <rect class="cls-29" x="-52" y="-228.56" width="1371.97" height="864.57"/>
    </clipPath>
    <clipPath id="clippath-30">
      <rect class="cls-29" x="-52" y="-228.56" width="1371.97" height="864.57"/>
    </clipPath>
    <clipPath id="clippath-31">
      <rect class="cls-29" x="-52" y="-228.56" width="1371.97" height="864.57"/>
    </clipPath>
    <clipPath id="clippath-32">
      <rect class="cls-29" x="-52" y="-228.56" width="1371.97" height="864.57"/>
    </clipPath>
    <clipPath id="clippath-33">
      <rect class="cls-29" x="-52" y="-228.56" width="1371.97" height="864.57"/>
    </clipPath>
    <clipPath id="clippath-34">
      <rect class="cls-29" x="-52" y="-228.56" width="1371.97" height="864.57"/>
    </clipPath>
  </defs>
  <path class="cls-39" d="m436.11,39.77h-.66v1.07h.66v-1.07Zm26.6-25.37h-28.5v24.05h28.5V14.4Zm.17,24.63h-28.42v.74h28.42v-.74Zm-.17-21.16h-28.5m26.77-2.65h-24.87v1.74h24.87v-1.74Zm62.46,152.07h-12.06v132.73h12.06v-132.73Z"/>
  <polygon points="375.52 55.79 375.52 47.76 376.39 47.76 376.39 51.74 379.66 47.76 380.84 47.76 378.08 51.02 380.96 55.79 379.81 55.79 377.48 51.73 376.39 53.01 376.39 55.79 375.52 55.79"/>
  <rect x="381.85" y="47.76" width=".87" height="8.03"/>
  <polygon points="385.93 55.79 385.93 48.71 383.76 48.71 383.76 47.76 388.98 47.76 388.98 48.71 386.8 48.71 386.8 55.79 385.93 55.79"/>
  <g class="cls-37">
    <path d="m394.53,52.97l.88.27c-.19.9-.53,1.58-1.02,2.02-.48.44-1.07.67-1.77.67-.61,0-1.13-.15-1.56-.45-.43-.3-.79-.78-1.06-1.43-.27-.66-.41-1.43-.41-2.33s.14-1.63.41-2.24c.28-.61.65-1.07,1.12-1.39.47-.31,1-.47,1.58-.47.64,0,1.18.2,1.64.59.46.39.78.97.96,1.74l-.85.25c-.29-1.11-.88-1.67-1.76-1.67-.44,0-.82.11-1.14.34-.32.22-.58.57-.77,1.05-.19.48-.29,1.08-.29,1.8,0,1.1.19,1.92.58,2.47.39.55.9.83,1.54.83.48,0,.88-.17,1.23-.51.35-.34.58-.85.69-1.54"/>
  </g>
  <polygon points="396.49 55.79 396.49 47.76 397.37 47.76 397.37 51.06 400.79 51.06 400.79 47.76 401.66 47.76 401.66 55.79 400.79 55.79 400.79 52.01 397.37 52.01 397.37 55.79 396.49 55.79"/>
  <polygon points="403.15 55.79 403.15 47.76 407.91 47.76 407.91 48.71 404.02 48.71 404.02 51.16 407.67 51.16 407.67 52.11 404.02 52.11 404.02 54.84 408.07 54.84 408.07 55.79 403.15 55.79"/>
  <polygon points="409.24 55.79 409.24 47.76 410.14 47.76 413.6 54.08 413.6 47.76 414.43 47.76 414.43 55.79 413.54 55.79 410.08 49.47 410.08 55.79 409.24 55.79"/>
  <g class="cls-40">
    <path d="m340.42,26.73v-.24h.7s0,.75,0,.75c-.11.1-.22.18-.33.23-.11.05-.23.08-.35.08-.16,0-.3-.04-.43-.12-.13-.08-.23-.2-.3-.35-.07-.15-.11-.34-.11-.56s.04-.41.11-.57c.07-.16.17-.28.29-.36.12-.08.26-.12.42-.12.12,0,.22.02.32.07.09.05.17.11.22.19.06.08.1.2.13.34l-.2.07c-.03-.11-.06-.2-.1-.25-.04-.06-.09-.1-.16-.13-.07-.03-.14-.05-.22-.05-.12,0-.22.03-.31.09-.09.06-.15.15-.21.27-.05.12-.08.27-.08.45,0,.27.06.47.17.6.11.13.26.2.44.2.09,0,.17-.02.26-.06.09-.04.16-.09.21-.15v-.37h-.48Z"/>
    <path d="m341.72,26.7h.56l-.17-.56c-.05-.17-.09-.31-.12-.42-.02.13-.05.26-.09.38l-.18.59Zm-.47.82l.63-2.01h.23l.67,2.01h-.25l-.19-.61h-.69l-.18.61h-.23Z"/>
    <path d="m342.89,26.87l.2-.02c.01.11.04.2.08.26.04.06.09.11.17.15.07.04.15.06.24.06.13,0,.23-.03.3-.1.07-.06.11-.15.11-.25,0-.06-.01-.11-.04-.16-.03-.04-.07-.08-.12-.11-.05-.03-.17-.07-.34-.12-.15-.05-.27-.09-.33-.14-.07-.05-.12-.11-.15-.18-.04-.07-.06-.15-.06-.24,0-.16.05-.29.16-.4.11-.1.25-.15.42-.15.12,0,.23.02.32.07.09.05.16.12.21.21.05.09.08.2.08.32l-.21.02c-.01-.13-.05-.23-.12-.29-.07-.06-.16-.09-.28-.09s-.22.03-.28.08c-.06.05-.1.13-.1.21,0,.08.02.14.07.19.05.04.15.09.32.14.16.04.28.08.34.12.1.05.18.12.23.2.05.08.08.18.08.3s-.03.22-.08.31c-.05.09-.13.17-.22.22-.09.05-.2.07-.33.07-.2,0-.37-.06-.49-.18s-.18-.29-.19-.5"/>
    <path class="cls-39" d="m395.83,104.62h6.36m-3.26.74c.43,0,.78-.35.78-.78s-.35-.79-.78-.79-.79.35-.79.79.35.78.79.78m.04,2.4v-6.36m11.23-5.62v12.81m0-12.85c0-.66-.54-1.2-1.2-1.2m-20.02,0h20.07m-20.11,0c-.66,0-1.2.54-1.2,1.2m0,12.85v-12.81m0,12.77c0,.66.54,1.2,1.2,1.2m20.11.08h-20.07m20.02-.08c.66,0,1.2-.54,1.2-1.2m.83-12.77v12.81m0-12.85c0-1.12-.91-2.02-2.02-2.02m-20.02.08h20.07m-20.11-.08c-1.12,0-2.02.91-2.02,2.02m.08,12.85v-12.81m-.08,12.77c0,1.12.91,2.02,2.02,2.02m20.11.08h-20.07m20.02-.08c1.12,0,2.02-.91,2.02-2.02m-23.53-70.44v-.5m.91.74v-.25h-.99v.25m.91-.25v-.5m.08.74h-.99m4.13-.25v-.5m.91.74v-.25h-.99v.25m.91-.25v-.5m.08.74h-.99m4.13-.25v-.5m.91.74v-.25h-.99v.25m.91-.25v-.5m.08.74h-.99m-4.91-13.55c-.8,0-1.45.65-1.45,1.45s.65,1.45,1.45,1.45,1.45-.65,1.45-1.45-.65-1.45-1.45-1.45m0-.25c-.93,0-1.69.76-1.69,1.69s.76,1.69,1.69,1.69,1.69-.76,1.69-1.69-.76-1.69-1.69-1.69m-3.32-1.35c-1.57,1.72-1.57,4.36,0,6.08m.29-5.79c-1.41,1.56-1.41,3.94,0,5.5m6.06,0c1.41-1.56,1.41-3.94,0-5.5m.29,5.79c1.57-1.72,1.57-4.36,0-6.08m-6.36,6.36c1.72,1.57,4.36,1.57,6.07,0m-5.78-.29c1.56,1.41,3.93,1.41,5.49,0m-.39-.34l1.32,1.24m-.99-1.49l1.24,1.24m-1.59-1.05c.1-.09.2-.18.28-.28m1,1.57c.1-.09.19-.19.28-.28m-6.42-1.19l-1.32,1.24m1.57-.99l-1.32,1.24m-.31-.3c.09.1.19.19.28.28m1-1.57c.09.1.18.2.28.28m5.37-5.94c-1.72-1.57-4.35-1.57-6.07,0m5.78.29c-1.56-1.41-3.93-1.41-5.49,0m5.43.76l1.24-1.24m-1.57.91l1.32-1.24m.23.22c-.09-.1-.19-.19-.28-.28m-1,1.57c-.09-.1-.18-.2-.28-.28m-4.61.02l-1.32-1.24m1.07,1.57l-1.32-1.24m.22-.4c-.1.09-.19.19-.28.28m1.57,1c-.1.09-.2.18-.28.28m-3.95,14.11h-2.89m-8.84-24.46h36.09m0,24.04h-36.09m8.97-16.68c1.14-1.25,1.14-3.16,0-4.41m-.17,4.23c1.04-1.15,1.04-2.9,0-4.05m-.29,3.72l.91.99m-1.16-.74l.99.91m-.99-4.71l.99-.99m-.74,1.16l.91-.91m-2.35,13.47c-.66,0-1.2.54-1.2,1.2s.54,1.2,1.2,1.2,1.2-.54,1.2-1.2-.54-1.2-1.2-1.2m0-.25c-.8,0-1.45.65-1.45,1.45s.65,1.45,1.45,1.45,1.44-.65,1.44-1.45-.65-1.45-1.44-1.45m-2.36,4.05c1.34,1.21,3.38,1.21,4.72,0m-4.95.23c1.47,1.34,3.72,1.34,5.18,0m-.23-5.44c-1.34-1.21-3.38-1.21-4.72,0m4.95-.23c-1.47-1.34-3.72-1.34-5.18,0m23.64,1.39c-1.04,1.15-1.04,2.9,0,4.05m-.17-4.23c-1.14,1.25-1.14,3.16,0,4.41m4.81,0c1.14-1.25,1.14-3.16,0-4.41m-.17,4.23c1.04-1.15,1.04-2.9,0-4.05m-2.23.74c-.71,0-1.28.57-1.28,1.28s.57,1.28,1.28,1.28,1.28-.57,1.28-1.28-.57-1.28-1.28-1.28m-20.45,3.3c1.34-1.47,1.34-3.72,0-5.19m-.23,4.95c1.21-1.34,1.21-3.38,0-4.72m26.43,9.17V13.57m-4.71,24.46h-3.22m2.19-7.68c-.57,0-1.03.46-1.03,1.03s.46,1.03,1.03,1.03,1.03-.46,1.03-1.03-.46-1.03-1.03-1.03m-2.02,3.27c1.15,1.04,2.9,1.04,4.05,0m-4.23.17c1.25,1.14,3.16,1.14,4.4,0m-.26,4.57h-.99m.91-.25v-.5m-.91.74v-.25h.99v.25m-.91-.25v-.5m3.88,0v.41h-3.05m.81-3.77c.07-.07.14-.14.21-.21m-1.14-.72c.07-.07.14-.14.21-.21m0,.04l.91.91m-1.07-.74l.91.91m-5.7,3.8h-14.78m14.78.08v-.5m.91.74v-.25h-.99v.25m.91-.25v-.5m.08.74h-.99m-15.52-.25v-.5m.91.74v-.25h-.99v.25m.91-.25v-.5m.08.74h-.99m16.76-5.25c.07.07.14.14.21.21m-1.15.72c.07.07.14.14.21.21m.97-.94l-.91.91m.74-1.07l-.99.91m-17.38.04c.08-.08.16-.16.24-.24m-1.3-.81c.09-.08.17-.16.24-.24m.02.02l.99,1.07m-1.32-.83l1.16,1.07m19.45-15.62c-.8,0-1.44.65-1.44,1.45s.65,1.45,1.44,1.45,1.45-.65,1.45-1.45-.65-1.45-1.45-1.45m0-.25c-.93,0-1.69.76-1.69,1.69s.76,1.69,1.69,1.69,1.69-.76,1.69-1.69-.76-1.69-1.69-1.69m-3.32-1.35c-1.57,1.72-1.57,4.36,0,6.08m.29-5.79c-1.41,1.56-1.41,3.93,0,5.49m6.06,0c1.41-1.56,1.41-3.93,0-5.49m.29,5.79c1.57-1.72,1.57-4.36,0-6.08m-.55,12.21c-1.15-1.04-2.9-1.04-4.05,0m4.23-.17c-1.25-1.14-3.16-1.14-4.4,0m-1.58-5.67c1.72,1.57,4.36,1.57,6.08,0m-5.78-.29c1.56,1.41,3.93,1.41,5.49,0m-.06,6.64c-.07-.07-.14-.14-.21-.21m1.14-.72c-.07-.07-.14-.14-.21-.21m-.89,1.02l.91-.99m-.74,1.24l.91-.99m-1.24-6.11l1.32,1.32m-.99-1.57l1.24,1.24m-1.59-1.06c.1-.09.2-.18.28-.28m1,1.57c.1-.09.19-.19.28-.29m-4.89,5.84c-.07.07-.15.14-.21.21m-.73-1.15c-.07.07-.14.14-.21.21m1.02,1.06l-.99-.99m1.16.74l-.91-.99m-18.44.27c-.08-.09-.16-.17-.24-.24m1.3-.81c-.08-.08-.16-.16-.24-.24m-1.12,1.11l1.16-1.16m-.83,1.41l.99-1.07m-1.09-6.17c.07-.07.14-.14.21-.21m17.64,1.01l-1.32,1.24m1.57-.99l-1.32,1.32m-.31-.38c.09.1.19.19.28.29m1-1.57c.09.1.18.19.28.28m5.37-5.94c-1.72-1.57-4.36-1.57-6.08,0m5.78.29c-1.56-1.41-3.93-1.41-5.49,0m5.43.76l1.24-1.24m-1.57.91l1.32-1.24m.23.22c-.09-.1-.19-.19-.28-.28m-1,1.57c-.09-.1-.18-.2-.28-.28m-22.5-1.29c-.07-.07-.14-.14-.21-.21m18.1,1.51l-1.32-1.24m1.07,1.57l-1.32-1.24m.22-.4c-.1.09-.19.19-.28.28m1.57,1c-.1.09-.19.18-.28.28m-22.52,10.8c-1.21,1.34-1.21,3.38,0,4.72m-.23-4.95c-1.34,1.47-1.34,3.72,0,5.19m-4.23,4.22V13.57m8.01,24.46h-3.22m4.05.08v-.5m-.91.74v-.25h.99v.25m-.91-.25v-.5m-.08.74h.99m-8.09-.74v.41h3.14-3.14m3.05.33h.99m-.91-.25v-.5m.91.74v-.25h-.99v.25m.91-.25v-.5m.02-4.81c.08.09.16.17.24.24m-1.3.81c.08.08.16.16.24.24m1.04-1.03l-.99,1.07m.83-1.32l-1.16,1.07m.44-17.36c-1.14,1.25-1.14,3.16,0,4.41m.71-.26l-.91.91m.74-1.16l-.99.99m1.34,7.13c-.09.08-.17.16-.24.24m-.81-1.29c-.08.08-.16.16-.24.24m1.28.87l-.99-1.16m.83,1.41l-1.16-1.07m-.03-6.38c.07.07.14.14.21.21m.64-.64c1.15,1.04,2.9,1.04,4.05,0m-4.23.17c1.25,1.14,3.16,1.14,4.4,0m-4.87-5.29c-.07.07-.14.14-.21.21m1.18.81l-.91-.99m4.63.62c-1.15-1.04-2.9-1.04-4.05,0m4.23-.18c-1.25-1.14-3.16-1.14-4.4,0m-.03.38c-1.04,1.15-1.04,2.9,0,4.05m.29-.29c.07.07.14.14.21.21m0-3.89c-.07.07-.14.14-.21.21m.08.04l-.99-.91m2.85,1.57c-.57,0-1.03.46-1.03,1.03s.46,1.03,1.03,1.03,1.03-.46,1.03-1.03-.46-1.03-1.03-1.03m1.73,2.98c.07-.07.14-.14.21-.21m0-3.46c-.07-.07-.14-.14-.21-.21m-1.73.66c-.71,0-1.28.57-1.28,1.28s.57,1.28,1.28,1.28,1.28-.57,1.28-1.28-.57-1.28-1.28-1.28"/>
  </g>
  <polygon points="429.56 262.51 429.56 254.48 430.43 254.48 430.43 261.56 433.67 261.56 433.67 262.51 429.56 262.51"/>
  <rect x="434.89" y="254.48" width=".87" height="8.03"/>
  <g class="cls-2">
    <path d="m439.17,262.51l-2.56-8.03h.94l1.72,5.83c.13.45.25.89.35,1.32.1-.44.22-.88.35-1.32l1.78-5.83h.89l-2.57,8.03h-.89Z"/>
  </g>
  <rect x="443.58" y="254.48" width=".87" height="8.03"/>
  <polygon points="445.95 262.51 445.95 254.48 446.84 254.48 450.3 260.8 450.3 254.48 451.13 254.48 451.13 262.51 450.24 262.51 446.78 256.19 446.78 262.51 445.95 262.51"/>
  <g class="cls-24">
    <path d="m455.71,259.36v-.95h2.79s0,2.98,0,2.98c-.43.42-.87.73-1.33.94-.46.21-.92.32-1.41.32-.64,0-1.22-.16-1.72-.48-.5-.32-.9-.79-1.2-1.41-.29-.62-.44-1.36-.44-2.23s.15-1.64.44-2.29c.29-.65.68-1.13,1.16-1.44.48-.31,1.04-.46,1.7-.46.48,0,.9.09,1.26.27.36.18.66.43.89.76.23.33.41.78.52,1.35l-.78.26c-.11-.45-.24-.79-.4-1.02-.16-.22-.37-.4-.63-.53-.26-.13-.56-.19-.89-.19-.48,0-.89.12-1.23.35-.35.23-.62.59-.83,1.08-.21.49-.32,1.09-.32,1.79,0,1.07.23,1.88.67,2.41.45.54,1.03.8,1.75.8.34,0,.69-.08,1.05-.25.36-.17.64-.36.86-.59v-1.5h-1.93Z"/>
    <path d="m385.41,194.7h1.4c.57,0,1-.09,1.29-.28.29-.18.52-.48.67-.89.21-.54.31-1.2.31-1.95,0-.81-.11-1.45-.33-1.92-.22-.47-.51-.78-.85-.93-.23-.11-.6-.16-1.11-.16h-1.38v6.13Zm-.87.95v-8.03h2.27c.56,0,.99.05,1.28.15.38.13.71.36,1,.7.28.34.5.77.66,1.28.16.52.24,1.13.24,1.84,0,.91-.13,1.68-.4,2.31-.27.63-.61,1.08-1.03,1.35-.42.26-.96.4-1.64.4h-2.38Z"/>
  </g>
  <rect x="391.36" y="187.61" width=".87" height="8.03"/>
  <polygon points="393.73 195.64 393.73 187.61 394.62 187.61 398.08 193.93 398.08 187.61 398.92 187.61 398.92 195.64 398.02 195.64 394.57 189.33 394.57 195.64 393.73 195.64"/>
  <rect x="400.56" y="187.61" width=".87" height="8.03"/>
  <polygon points="402.93 195.64 402.93 187.61 403.82 187.61 407.28 193.93 407.28 187.61 408.11 187.61 408.11 195.64 407.22 195.64 403.76 189.33 403.76 195.64 402.93 195.64"/>
  <g class="cls-1">
    <path d="m412.69,192.49v-.95h2.79s0,2.98,0,2.98c-.43.42-.87.73-1.33.94-.46.21-.92.32-1.41.32-.64,0-1.22-.16-1.72-.48-.5-.32-.9-.79-1.2-1.41-.29-.62-.44-1.36-.44-2.23s.15-1.64.44-2.29c.29-.65.68-1.13,1.16-1.44.48-.31,1.04-.46,1.7-.46.48,0,.9.09,1.26.27.36.18.66.43.89.76.23.33.41.78.52,1.35l-.78.26c-.11-.45-.24-.79-.4-1.02-.16-.22-.37-.4-.63-.53-.26-.13-.56-.19-.89-.19-.48,0-.89.12-1.24.35-.35.23-.62.59-.83,1.08-.21.49-.32,1.09-.32,1.79,0,1.07.23,1.88.67,2.41.45.54,1.03.8,1.75.8.34,0,.69-.08,1.05-.25.36-.17.64-.36.86-.59v-1.5h-1.93Z"/>
    <path class="cls-5" d="m397.11,176.7c.07-2.66-.26-5.32-.97-7.84"/>
    <path class="cls-39" d="m395.77,169.69c-.16-.61-.62-1.05-1.18-1.13m2.13,8.16c.01-2.37-.31-4.73-.97-6.99"/>
    <path class="cls-5" d="m382.14,168.86c-.71,2.53-1.04,5.18-.97,7.84"/>
    <path class="cls-39" d="m382.5,169.74c-.64,2.25-.96,4.61-.95,6.98"/>
    <path class="cls-5" d="m395.2,168c-4.05-.56-8.16-.56-12.2,0"/>
    <path class="cls-39" d="m383.72,168.55c-.56.08-1.03.51-1.19,1.11m12-1.06c-3.6-.51-7.25-.51-10.85,0"/>
    <path class="cls-5" d="m425.14,178.34c0-.84-.61-1.53-1.36-1.53m-69.32,0h69.36m-69.4,0c-.75,0-1.36.68-1.36,1.53m0,29v-28.96m0,28.92c0,.84.61,1.53,1.36,1.53m69.4,0h-69.36m69.32,0c.75,0,1.36-.68,1.36-1.53m.08-28.92v28.96m-28.54-40.17c-.32.4-.57.88-.73,1.39m.71-1.41c.19-.56,0-1.19-.45-1.48m-14.16.01c-.44.3-.62.92-.44,1.47m14.57-1.4c-4.69-.97-9.5-.97-14.19,0m14.64,1.38c.05-.27-.02-.54-.2-.73m-14.11,2.17c-.16-.51-.41-.98-.73-1.39m.24-.78c-.17.19-.25.46-.2.73m14.8-.67c-4.86-.93-9.83-.93-14.69,0m14.35,2.43c-.12-.43-.44-.74-.83-.8m-12.27,0c-.39.07-.71.38-.83.8"/>
  </g>
  <polygon class="cls-39" points="424 180.2 424 205.54 422.27 207.53 356.1 207.53 354.28 205.54 354.28 180.2 356.1 178.22 422.27 178.22 424 180.2"/>
  <g class="cls-17">
    <path class="cls-5" d="m372.98,176.7c.07-2.66-.26-5.32-.97-7.84"/>
    <path class="cls-39" d="m371.72,169.69c-.16-.61-.62-1.05-1.18-1.13m2.05,8.16c.01-2.37-.31-4.73-.97-6.99"/>
    <path class="cls-5" d="m358.09,168.86c-.71,2.53-1.04,5.18-.97,7.84"/>
    <path class="cls-39" d="m358.37,169.74c-.64,2.25-.96,4.61-.95,6.98"/>
    <path class="cls-5" d="m371.15,168c-4.05-.56-8.16-.56-12.2,0"/>
    <path class="cls-39" d="m359.58,168.55c-.56.08-1.03.51-1.19,1.11m12.08-1.06c-3.6-.51-7.25-.51-10.85,0"/>
    <path class="cls-5" d="m421.16,176.7c.08-2.67-.27-5.33-1.04-7.87m-47.46-1.67c-.32.4-.57.87-.73,1.38m.71-1.4c.19-.55,0-1.19-.46-1.48m-14.24.01c-.44.3-.62.92-.44,1.46m14.65-1.4c-4.69-.96-9.5-.96-14.18,0m14.64,1.37c.05-.26-.02-.54-.2-.73m-14.2,2.15c-.16-.51-.41-.98-.73-1.38m.24-.78c-.17.19-.25.46-.2.73m14.88-.67c-4.86-.92-9.82-.92-14.68,0m14.26,2.42c-.12-.42-.44-.73-.83-.8m-12.19,0c-.39.07-.71.37-.83.8"/>
    <path class="cls-39" d="m419.83,169.69c-.16-.61-.62-1.05-1.18-1.13m2.13,8.16c.01-2.37-.31-4.73-.97-6.99"/>
    <path class="cls-5" d="m406.19,168.86c-.71,2.53-1.04,5.18-.97,7.84"/>
    <path class="cls-39" d="m406.55,169.74c-.64,2.25-.96,4.61-.95,6.98"/>
    <path class="cls-5" d="m419.34,168c-4.05-.56-8.16-.56-12.2,0"/>
    <path class="cls-39" d="m407.77,168.55c-.56.08-1.03.51-1.19,1.11m12.08-1.06c-3.6-.51-7.25-.51-10.85,0"/>
    <path class="cls-5" d="m396.14,216.72c.77-2.55,1.12-5.22,1.04-7.91m23.52-41.64c-.32.4-.57.88-.73,1.39m.71-1.41c.19-.56,0-1.19-.45-1.48m-14.13.01c-.44.3-.62.92-.43,1.47m14.62-1.4c-4.68-.97-9.48-.97-14.16,0m14.53,1.38c.05-.27-.02-.54-.19-.73m-14.09,2.17c-.16-.51-.41-.98-.73-1.39m.24-.78c-.17.19-.25.46-.2.73m14.85-.67c-4.85-.93-9.81-.93-14.66,0m14.24,2.43c-.12-.43-.44-.74-.83-.8m-12.25,0c-.38.07-.7.38-.83.8"/>
    <path class="cls-39" d="m394.6,217.02c.56-.08,1.02-.52,1.18-1.13m-.01.04c.65-2.25.98-4.61.97-6.98"/>
    <path class="cls-5" d="m381.17,208.88c-.07,2.66.26,5.32.97,7.84"/>
    <path class="cls-39" d="m381.56,208.94c-.01,2.37.31,4.73.95,6.98"/>
    <path class="cls-5" d="m383,217.66c4.05.57,8.16.57,12.2,0"/>
    <path class="cls-39" d="m382.53,215.92c.16.59.63,1.03,1.19,1.11m-.04.03c3.6.52,7.25.52,10.85,0"/>
    <path class="cls-5" d="m372.01,216.75c.77-2.53,1.12-5.2,1.04-7.87m22.88,8.24c.16.51.41.98.73,1.38m-.47,1.42c.45-.29.64-.92.45-1.48m-15.02,0c-.18.54,0,1.17.43,1.46m-.05.01c4.68.97,9.48.97,14.16,0m.26-.73c.17-.19.25-.46.2-.73m-15.01.03c.32-.4.57-.87.73-1.38m-.68,1.35c-.05.26.02.54.2.73m-.08.02c4.85.92,9.81.92,14.66,0m-1.16-1.62c.38-.07.7-.38.83-.8m-13.9,0c.12.43.44.73.83.8"/>
    <path class="cls-39" d="m370.54,217.02c.56-.08,1.02-.52,1.18-1.13m-.09.04c.65-2.25.98-4.61.97-6.98"/>
    <path class="cls-5" d="m357.12,208.88c-.07,2.66.26,5.32.97,7.84"/>
    <path class="cls-39" d="m357.42,208.94c-.01,2.37.31,4.73.95,6.98"/>
    <path class="cls-5" d="m358.95,217.66c4.05.57,8.16.57,12.2,0"/>
    <path class="cls-39" d="m358.39,215.92c.16.59.63,1.03,1.19,1.11m.04.03c3.6.52,7.25.52,10.85,0"/>
    <path class="cls-5" d="m420.12,216.75c.77-2.53,1.12-5.2,1.04-7.87m-49.23,8.24c.16.51.41.98.73,1.38m-.47,1.42c.45-.29.64-.92.46-1.48m-15.13,0c-.19.54,0,1.17.44,1.46m.03.01c4.69.97,9.5.97,14.18,0m.26-.73c.17-.19.25-.46.2-.73m-15.12.03c.32-.4.57-.87.73-1.38m-.68,1.35c-.05.26.02.54.2.73m0,.02c4.86.92,9.82.92,14.68,0m-1.25-1.62c.38-.07.7-.38.83-.8m-13.84,0c.12.43.44.73.83.8"/>
    <path class="cls-39" d="m418.65,217.02c.56-.08,1.02-.52,1.18-1.13m-.01.04c.65-2.25.98-4.61.97-6.98"/>
    <path class="cls-5" d="m405.22,208.88c-.07,2.66.26,5.32.97,7.84"/>
    <path class="cls-39" d="m405.61,208.94c-.01,2.37.31,4.73.95,6.98"/>
    <path class="cls-5" d="m407.13,217.66c4.05.57,8.16.57,12.2,0"/>
    <path class="cls-39" d="m406.58,215.92c.16.59.63,1.03,1.19,1.11m.04.03c3.6.52,7.25.52,10.85,0"/>
    <path class="cls-5" d="m419.98,217.17c.16.5.4.96.73,1.36m-.47,1.4c.45-.29.64-.91.45-1.46m-14.99,0c-.18.54,0,1.15.43,1.44m.03.01c4.67.95,9.46.96,14.13,0m.18-.72c.17-.19.25-.46.19-.72m-14.98.03c.32-.4.57-.86.73-1.36m-.68,1.33c-.05.26.02.53.19.72m0,.02c4.84.91,9.79.91,14.63,0m-1.24-1.6c.38-.06.7-.37.83-.79m-13.88,0c.12.42.44.73.82.79"/>
    <path class="cls-36" d="m404.83,273.5h-26.85v-26.52h26.85v26.52Zm-42.63-37.47c0-1.07-.87-1.94-1.94-1.94m0,6.11c1.07,0,1.94-.87,1.94-1.94m0-2.85h.33m1.9,1.86c0-1.07-.87-1.94-1.94-1.94m-.29.74v2.23m0,43.83c0-1.07-.87-1.94-1.94-1.94m2.23,4.87c1.07,0,1.94-.87,1.94-1.94m-2.23,1.94h.33m-.33-.66v-2.23m-1.94,4.13c1.07,0,1.94-.87,1.94-1.94m2.23-1.2v-45.85m-25.49-2.15c-1.07,0-1.94.87-1.94,1.94m8.55-3.02c-1.07,0-1.94.87-1.94,1.94m0,2.23c0,1.07.87,1.94,1.94,1.94m-6.57-4.96h4.88m-6.86,47.88c0,1.07.87,1.94,1.94,1.94m6.61-4.87c-1.07,0-1.94.87-1.94,1.94m0,2.23c0,1.07.87,1.94,1.94,1.94m-1.86-1.24h-4.71m2.81,0v-49.82m1.9,49.82v-48.99m-6.61,47.09v-46.02m23.21,43.13h-14.71m0,6.03h14.71m4.13-26.02h-20.74m1.9-26.11h14.71m0,6.03h-14.71m16.61,44.86l-.08-.08m5.08,7.6c-1.07,0-1.94.87-1.94,1.94m6.11,0c0-1.07-.87-1.94-1.94-1.94m-2.85.08v-.33m1.86-1.98c-1.07,0-1.94.87-1.94,1.94m.74.37h2.23m43.83-.08c-1.07,0-1.94.87-1.94,1.94m4.87-2.23c0-1.07-.87-1.94-1.94-1.94m1.94,2.31v-.33m-.66.33h-2.23m4.13,1.86c0-1.07-.87-1.94-1.94-1.94m-1.2-2.15h-45.85m-2.15,25.4c0,1.07.87,1.94,1.94,1.94m-3.02-8.55c0,1.07.87,1.94,1.94,1.94m2.23,0c1.07,0,1.94-.87,1.94-1.94m-4.96,6.65v-4.88m47.88,6.78c1.07,0,1.94-.87,1.94-1.94m-4.87-6.61c0,1.07.87,1.94,1.94,1.94m2.23,0c1.07,0,1.94-.87,1.94-1.94m-1.24,1.94v4.71m0-2.81h-49.82m49.82-1.9h-48.99m47.09,6.61h-46.02m43.13-23.22v14.71m6.03,0v-14.71m-26.02-4.13v20.74m-26.11-1.9v-14.71m6.03,0v14.71m44.86-16.61l-.08.08"/>
  </g>
  <path class="cls-38" d="m465.19,46.95V12.84m-24.12,102.25h24.12v-28m-140.44-50.22v78.22h32.05M465.19,12.84h-116.4m124.41-1.98h-4.05m-218.67,9.99H98.06m208.59-6.03h-52.13m268.82-3.96h-4.05m-78.23,108.28h28.09m-174.48,0h62.12m-102.27,0h3.96m-32.05,0h24.04m44.2-4.05h26.02m-66.17,0h3.96m-32.05,0h24.04m80.3,100.27v-44.11m3.97,152.47v-156.44m-20.08,3.96h16.11m-232.72,0h176.54m-48.16,44.11v4.05m24.04,0v100.27m0-156.44v4.05m0-48.15v4.05m64.19,44.11h20.08m-80.22,0h20.07m-176.54,0h152.42m4.05,120.34v32.05m0-100.27v64.18m0-120.34v4.05m0-48.15v4.05m0-108.37v100.27"/>
  <path class="cls-35" d="m431.11,12.76v24.86h-81.45v52.53h115.57m-34.12-76.57h-81.45v24.04h-24.12v76.65h138.87v-24.12"/>
  <path class="cls-38" d="m473.22,4.82v6.02m46.07,0v-6.02m-198.48,44.05v66.07"/>
  <path class="cls-5" d="m519.37,10.77h-1.98v-6.02h1.98v6.02Zm-44.07,0h-1.98v-6.02h1.98v6.02Zm40.44,0v42.01l1.65.08V10.77h-1.65Z"/>
  <path class="cls-19" d="m475.52,15.29l-.08-.99-.16-3.55m1.74,11.99l-.41-1.41-.74-3.47m3.97,11.82l-.83-1.57-1.16-3.06m5.95,10.99l-1.32-1.74-1.49-2.4m7.85,9.75l-1.82-1.74-1.65-1.9m9.42,8.18l-2.4-1.57-1.65-1.32m10.66,6.36l-2.89-1.32-1.57-.83m11.65,4.38l-3.47-.91-1.32-.41m11.9,2.23l-3.64-.25-.99-.17m1.57-41.66h4.79m-12.32,0h5.04m-12.56,0h5.04m-12.56,0h5.04m-12.56,0h5.04m-12.32,0h4.79"/>
  <g class="cls-3">
    <path class="cls-39" d="m519.57,263h.41v-.08h-.41m0,.33h.41v-.08h-.41m0,.33h.41v-.08h-.41m.41.25h-.41m0,.17h.41m-.41.25h.41v-.08h-.41m0,.33h.41v-.08h-.41m0,.33h.41v-.08h-.41m0,.33h.41v-.08h-.41m0,.33h.41v-.08h-.41m0,.33h.41v-.08h-.41m.41.25h-.41m0,.16h.41m-.41.25h.41v-.08h-.41m0,.33h.41v-.08h-.41m0,.33h.41v-.08h-.41m0,.33h.41v-.08h-.41m0,.33h.41v-.08h-.41m0,.33h.41v-.08h-.41m.41.25h-.41m0,.08h.41m0,.25h-.41m0,.08h.41m-.41.25h.41v-.08h-.41m0,.33h.41v-.08h-.41m0,.33h.41v-.08h-.41m0,.33h.41v-.08h-.41m0,.33h.41v-.08h-.41m.41.25h-.41m0,.08h.41m0,.17h-.41m0,.17h.41m-.41.25h.41v-.08h-.41m0,.33h.41v-.08h-.41m0,.33h.41v-.08h-.41m0,.33h.41v-.08h-.41m.49.83v-10.99m-5.1,14.12l2.3-2.64m-2.31,2.62c-.06.08-.09.19-.07.29m.08.47l-.08-.41m.1.41s.08,0,.11-.04m2.17-2.11l-2.06,2.23m3.29-14.33c0-.07-.06-.12-.12-.12m-.21.08h.25m-.29-.08c-.07,0-.12.06-.12.12m.37,8.39c.07,0,.12-.06.12-.12m-.33.21h.25m-.41-.21c0,.07.05.12.12.12m.37,1.2c0-.07-.06-.12-.12-.12m-.21,0h.25m-.29,0c-.07,0-.12.05-.12.12m0,19.75s.02.07.05.09c.03.02.07.03.1.02m-.06-.09c.06-.02.1-.05.13-.11m.18-.3l-.16.33m.1-.37c.04-.11.07-.22.07-.34m.08-20.28v-8.26m0,28.58v-19m-.49-1.32v-8.26m0,29.33v-19.74m-.16,21.73v-31.97m2.47,11.15v-.17m-.57.74c.2-.21.38-.44.53-.68m.04-.05l.25-10.99m1.48,12.72l-2.22-.83m2.22.82c.05.02.11,0,.15-.05m-.06,0c.1-.16.18-.33.21-.52m.03-.01c.01-.06-.02-.12-.07-.14m-1.98-.75l2.06.83m-2.07-1.05s.02-.04.02-.06m-.75.95c.29-.27.54-.57.74-.91m-.73,1.32v-12.31m-.03,12.35s.03-.06.03-.1m-.74.38l.74-.25m-.33,9l.49-9.67m-.59,11.68c.05-.66.08-1.33.09-1.99m-.33,3.75c.09-.61.16-1.22.2-1.83m-.27,2.84l.08-.91m-.08,4.46v-29.74m-.18,30.03c.06-.12.09-.25.09-.39m-.9,2.16l.9-1.73m-.95,1.69c-.03.05-.04.11-.04.17m.08.21v-.17m-.08.33l.08-.08m-.6-.01c.13.07.28.1.43.1m-.41-.08v-32.22m2.71-.08h-.41m0-.17h.41m0-.16h-.41m0-.08h.41m-.41-.25h.41v.08h-.41m0-.33h.41v.08h-.41m0-.33h.41v.08h-.41m0-.33h.41v.08h-.41m0-.33h.41v.08h-.41m.41-.25h-.41m0-.08h.41m0-.17h-.41m0-.17h.41m-.41-.25h.41v.08h-.41m0-.33h.41v.08h-.41m0-.33h.41v.08h-.41m0-.33h.41v.08h-.41m0-.33h.41v.08h-.41m0-.33h.41v.08h-.41m.41-.25h-.41m0-.17h.41m-.41-.25h.41v.08h-.41m0-.33h.41v.08h-.41m0-.33h.41v.08h-.41m0-.33h.41v.08h-.41m0-.33h.41v.08h-.41m0-.33h.41v.08h-.41m.41-.25h-.41m0-.17h.41m-.41-.25h.41v.08h-.41m0-.33h.41v.08h-.41m0-.33h.41v.08h-.41m0-.33h.41v.08h-.41m0-.33h.41v.08h-.41m0-.33h.41v.08h-.41m.41-.25h-.41m0-.17h.41m-.41-.25h.41v.08h-.41m0-.33h.41v.08h-.41m0-.33h.41v.08h-.41m0-.33h.41v.08h-.41m0-.33h.41v.08h-.41m0-.33h.41v.08h-.41m.41-.25h-.41m0-.08h.41m0-.25h-.41m0-.08h.41m-.41-.25h.41v.08h-.41m0-.33h.41v.08h-.41m.49-.83v11.07m-5.1-14.21l2.3,2.64m-2.38-3c-.02.1,0,.21.07.29m0-.68l-.08.49m.21-.54s-.07-.04-.11-.04m2.28,2.31l-2.06-2.23m3.17,14.29c.07,0,.12-.06.12-.12m-.33.21h.25m-.41-.21c0,.07.05.12.12.12m.37-8.38c0-.07-.06-.12-.12-.12m-.21,0h.25m-.29,0c-.07,0-.12.06-.12.12m.37-1.12c.07,0,.12-.06.12-.12m-.33.12h.25m-.41-.12c0,.07.05.12.12.12m.03-19.99s-.07,0-.1.02c-.03.02-.05.05-.05.09m.23,0c-.03-.05-.07-.09-.13-.11m.31.49l-.16-.33m.16.62c0-.12-.02-.23-.07-.34m.15,20.7v8.26m0-28.58v19.08m-.49,1.24v8.26m0-29.24v19.74m-.16-21.81v32.05m2.47-11.24v.17m-.04-.14c-.15-.25-.33-.47-.53-.68m.82,11.89l-.25-11.07m1.73-1.73l-2.22.83m2.36-.85s-.09-.07-.15-.05m.3.57c-.04-.18-.11-.36-.21-.52m.17.67c.05-.02.09-.08.07-.14m-2.05,1.06l2.06-.91m-2.06,1.03s0-.04-.02-.06m0,.02c-.2-.34-.45-.64-.74-.91m0-.33v12.39m0-12.42s0-.07-.03-.1m-.71-.21l.74.25m-.41-10.99l.58,7.6v4.05m-.63-11.69c-.04-.61-.11-1.22-.2-1.83m-.07-.93l.08.99m-.08-4.46v29.74m-.08-29.81c0-.13-.04-.26-.09-.39m-.81-1.69l.9,1.73m-.99-1.94c0,.06.01.12.04.17m.04-.29v.17m-.08-.33l.08.08m-.17-.16c-.15,0-.3.03-.43.1m.03.07v32.3"/>
  </g>
  <path class="cls-39" d="m519.59,260.46h.38v-.08h-.38m0,.33h.38v-.08h-.38m0,.33h.38v-.08h-.38m0,.32h.38v-.08h-.38m0,.33h.38v-.08h-.38m0,.33h.38v-.08h-.38m.38.24h-.38m0,.16h.38m-.38.24h.38v-.08h-.38m0,.33h.38v-.08h-.38m0,.32h.38v-.08h-.38"/>
  <path class="cls-38" d="m250.51,219.33h-24m52.04,0h-24m64.08,0h-4.04m-36.04-4.03h-52.04m104.17,0h-16.08m-40-47.9v3.95m40-3.95v3.95"/>
  <path class="cls-39" d="m247.04,230.37l.08-.74-17.25-1.57-.08.83,17.25,1.49Zm-17.25-4.05v.83l17.41-.74-.08-.83-17.33.74Zm17.25,9.75l.08-.74-17.25-1.57-.08.83,17.25,1.49Zm-17.25-4.05v.83l17.41-.74-.08-.83-17.33.74Zm17.25,9.83l.08-.83-17.25-1.57-.08.83,17.25,1.57Zm-17.25-4.13v.83l17.41-.74-.08-.83-17.33.74Zm17.25,9.83l.08-.83-17.25-1.57-.08.83,17.25,1.57Zm-17.25-4.13v.83l17.41-.74-.08-.74-17.33.66Zm17.25,9.83l.08-.83-17.25-1.49-.08.74,17.25,1.57Zm-17.25-4.05v.74l17.41-.74-.08-.74-17.33.74Zm17.25,9.75l.08-.83-17.25-1.49-.08.74,17.25,1.57Zm-17.25-4.05v.74l17.41-.66-.08-.83-17.33.74Zm17.25,9.75l.08-.74-17.25-1.57-.08.83,17.25,1.49Zm-17.25-4.05v.83l17.41-.74-.08-.83-17.33.74Zm17.25,9.75l.08-.74-17.25-1.57-.08.83,17.25,1.49Zm-17.25-4.05v.83l17.41-.74-.08-.83-17.33.74Zm17.25,9.83l.08-.83-17.25-1.57-.08.83,17.25,1.57Zm-17.25-4.13v.83l17.41-.74-.08-.83-17.33.74Zm17.25,9.83l.08-.83-17.25-1.57-.08.83,17.25,1.57Zm-17.25-4.13v.83l17.41-.74-.08-.74-17.33.66Zm17.25,9.83l.08-.83-17.25-1.49-.08.74,17.25,1.57Zm-17.25-4.05v.74l17.41-.74-.08-.74-17.33.74Zm17.25,9.75l.08-.83-17.25-1.49-.08.74,17.25,1.57Zm-17.25-4.05v.74l17.41-.66-.08-.83-17.33.74Zm17.25,9.75l.08-.74-17.25-1.57-.08.83,17.25,1.49Zm-17.25-4.05v.83l17.41-.74-.08-.83-17.33.74Zm17.25,9.75l.08-.74-17.25-1.57-.08.83,17.25,1.49Zm-17.25-4.05v.83l17.41-.74-.08-.83-17.33.74Zm17.33-76.34h-17.41v-.74h17.41v.74Zm-17.33,82.05v.83l17.41-.74-.08-.83-17.33.74Zm17.25,4.13l.08-.83-17.25-1.57-.08.83,17.25,1.57Zm.08,1.82h-17.41v.83h17.41v-.83Zm0,2.73h-17.41v.74h17.41v-.74Zm-9.08,3.97v-98.65m.74,98.65v-98.65m10.89,0h-22.45v98.65h22.45v-98.65Zm.74-.83h-24.01v100.31h24.01v-100.31Z"/>
  <path class="cls-38" d="m282.59,319.9v3.83m24-3.83v3.83h28.05m-108.14,0h56.09m-32.09-3.83h-24m40.09,0h-12.04m28.04,0h-12.04m48.09,0h-12.04m-80.09,3.83v-3.83"/>
  <polyline class="cls-30" points="314.64 220.31 317.86 220.31 317.86 318.93 271.38 318.93 271.38 282.83 255.36 282.83 255.36 220.31 278.56 220.31"/>
  <path class="cls-38" d="m278.66,215.51v3.83m35.9-3.83v3.83"/>
  <path class="cls-5" d="m314.63,219.41h-.99v-3.98h.99v3.98Zm-35.06,0h-.99v-3.98h.99v3.98Z"/>
  <rect class="cls-5" x="312.56" y="219.48" width="1.08" height="34.06"/>
  <path class="cls-46" d="m269.37,250.77h-14.05l14.05-30.5v30.5Zm-14.05,0l14.05-30.5h-14.05v30.5Z"/>
  <path class="cls-39" d="m269.36,250.75h-14.01v-30.46h14.01v30.46Zm-.58-1.65l-1.65,1.65m-2.31-.58l-.58.58m3.13-3.14l-1.81,1.82m3.79-3.8l-1.32,1.32m-4.62,1.73l-1.73,1.82m4.2-4.29l-1.73,1.82m4.2-4.29l-1.73,1.82m2.72-2.72l-.25.25m-9.56,6.69l-.91.99m3.38-3.47l-1.73,1.82m4.2-4.29l-1.73,1.82m4.2-4.29l-1.73,1.82m4.12-4.13l-1.65,1.65m-9.56,6.69l-1.81,1.82m4.29-4.29l-1.73,1.73m4.21-4.21l-1.73,1.73m4.2-4.21l-1.73,1.73m4.2-4.21l-1.73,1.73m3.05-3.05l-.58.58m-12.04,9.25l-1.4,1.4m3.87-3.88l-1.81,1.73m4.29-4.21l-1.81,1.73m4.29-4.21l-1.81,1.73m4.29-4.21l-1.81,1.73m4.29-4.21l-1.73,1.73m-9.56,6.77l-1.81,1.73m4.29-4.21l-1.81,1.73m4.29-4.21l-1.81,1.73m4.29-4.21l-1.81,1.73m4.29-4.29l-1.81,1.82m3.46-3.38l-.99.91m-12.04,9.25l-.99.99m3.54-3.55l-1.81,1.82m4.29-4.29l-1.81,1.82m4.29-4.29l-1.81,1.82m4.29-4.29l-1.81,1.82m4.29-4.29l-1.81,1.82m-9.56,6.69l-1.73,1.82m4.21-4.29l-1.73,1.82m4.2-4.29l-1.73,1.82m4.2-4.29l-1.73,1.82m4.29-4.29l-1.81,1.82m3.79-3.8l-1.32,1.32m-12.04,9.16l-.66.74m3.13-3.22l-1.73,1.82m4.2-4.29l-1.73,1.73m4.2-4.21l-1.73,1.73m4.2-4.21l-1.73,1.73m4.2-4.21l-1.73,1.73m2.72-2.64l-.25.17m-12.04,9.25l-1.73,1.73m4.2-4.21l-1.73,1.73m4.2-4.21l-1.73,1.73m4.2-4.21l-1.73,1.73m4.2-4.21l-1.73,1.73m3.96-3.96l-1.48,1.49m-12.04,9.25l-.33.33m2.8-2.81l-1.81,1.73m4.29-4.21l-1.73,1.73m4.21-4.21l-1.73,1.73m4.2-4.21l-1.73,1.73m2.55-2.56l-.08.08m-9.56,6.77l-1.4,1.4m3.87-3.96l-1.81,1.82m4.29-4.29l-1.81,1.82m3.71-3.63l-1.24,1.16m-4.53,1.73l-1.81,1.82m4.29-4.29l-1.81,1.82m-2.14-.74l-.99,1.07m2.55-2.56l-.82.83m12.28,28.81l-.82.82m.82-3.63l-3.71,3.63m3.71-6.52l-6.51,6.52m6.51-9.33l-9.32,9.33m9.32-12.13l-12.2,12.13m12.2-15.02l-14.01,14.04m14.01-16.84l-14.01,14.03m14.01-16.84l-14.01,14.03m14.01-16.92l-14.01,14.04m14.01-16.84l-14.01,14.03m14.01-16.84l-14.01,14.03m12.45-15.36l-12.45,12.47m9.64-12.47l-9.64,9.66m6.76-9.66l-6.76,6.85m3.96-6.85l-3.96,3.96m1.15-3.96l-1.15,1.16m14.01-1.16h-14.01v30.46h14.01v-30.46Z"/>
  <path class="cls-46" d="m275.16,226.22l-17.27.08,17.85.5-.58-.58Zm-17.27.08l17.85.5-18.43.08.58-.58Zm17.85.5l-18.43.08,18.51,17.19-.08-17.27Zm-18.43.08l18.51,17.19h-18.51v-17.19Zm18.51,17.19h-18.51l17.85.66.66-.66Zm-18.51,0l17.85.66h-17.27l-.58-.66Z"/>
  <g class="cls-11">
    <path class="cls-39" d="m261.45,253.18-2.15,2.15l1.82-1.82m-4.29,4.3l1.82-1.82m-3.3,3.3l.83-.83m5.12-3.72l1.73-1.73m-4.21,4.21l1.73-1.73m-4.21,4.21l1.73-1.73m-2.73,2.81l.25-.33m7.68-6.2l.08-.08m-2.64,2.56l1.82-1.82m-4.29,4.3l1.82-1.82m-4.29,4.3l1.82-1.82m5.12-3.72l.66-.58m-3.14,3.06l1.82-1.73m-4.29,4.21l1.73-1.73m-4.13,4.21l1.65-1.73m5.2-3.72l1.16-1.16m-3.63,3.63l1.73-1.73m-4.21,4.21l1.73-1.73m-3.63,3.63l1.16-1.16m5.12-3.72l1.73-1.73m-4.21,4.21l1.82-1.82m-4.29,4.3l1.82-1.82m-3.14,3.14l.66-.66m5.12-3.72l1.73-1.73m-4.21,4.21l1.73-1.73m-4.21,4.21l1.73-1.73m-2.56,2.56l.08-.08m7.59-6.2l.33-.33m-2.81,2.81l1.82-1.82m-4.29,4.3l1.82-1.82m-4.29,4.3l1.82-1.82m5.12-3.72l.83-.74m-3.3,3.22l1.73-1.73m-4.21,4.21l1.73-1.74m-3.96,4.05l1.49-1.57m5.2-3.72l1.32-1.32m-3.88,3.8l1.82-1.73m-4.29,4.21l1.82-1.73m-3.47,3.47l.99-.99m5.12-3.72l1.82-1.82m-4.29,4.3l1.73-1.82m-4.21,4.3l1.73-1.82m-2.89,2.98l.41-.5m5.2-3.72l1.73-1.74m-4.21,4.21l1.73-1.74m-4.21,4.21l1.73-1.74m5.12-3.72l.5-.49m-2.97,2.97l1.82-1.82m-4.29,4.3l1.82-1.82m-4.29,4.3l1.82-1.82m5.12-3.72l.99-.99m-3.47,3.47l1.73-1.74m-4.21,4.21l1.73-1.74m-3.8,3.88l1.32-1.4m5.12-3.72l1.57-1.49m-4.05,3.97l1.82-1.74m-4.29,4.21l1.82-1.74m-3.3,3.3l.83-.83m5.12-3.72l1.73-1.82m-4.21,4.3l1.73-1.82m-4.21,4.3l1.73-1.82m-2.73,2.81l.25-.33m7.68-6.2l.08-.08m-2.64,2.56l1.82-1.74m-4.29,4.21l1.82-1.74m-4.29,4.21l1.82-1.74m5.12-3.72l.66-.66m-3.14,3.14l1.82-1.82m-4.29,4.3l1.73-1.82m-3.55,3.64l1.07-1.16m5.2-3.72l1.16-1.16m-3.63,3.64l1.73-1.74m-4.13,4.13l1.65-1.65m2.64-1.24l1.73-1.74m-4.21,4.21l1.82-1.74m.17,1.24l1.73-1.82m-2.72,2.73l.25-.25m2.64-1.24l.33-.25m-1.82,1.73l.83-.74m.58.74l.41-.33m1.94-13.71c.25,0,.45-.2.45-.45s-.2-.45-.45-.45-.45.2-.45.45.2.45.45.45m0-7.11c.25,0,.45-.2.45-.45s-.2-.45-.45-.45-.45.2-.45.45.2.45.45.45m10.05,2.2c-.6-.88-1.61-1.39-2.67-1.38m2.74,2.4v-.99m-2.74,2.31c1.07.02,2.07-.5,2.67-1.38m-4.21.13c.1.74.75,1.28,1.5,1.24m-1.43-2.48v1.32m1.43-2.56c-.75-.03-1.39.51-1.5,1.24m10.06,5.45h-13.04m13,0c.11,0,.21-.09.21-.21m0-8.39v8.43m0-8.47c0-.11-.09-.21-.21-.21m-13,8.84v-8.84h13.04m0,9.67h-13.87m13.83,0c.57,0,1.03-.46,1.03-1.03m0-8.39v8.43m0-8.47c0-.57-.46-1.03-1.03-1.03m-13.83,10.49v-10.41h13.87m.99,12.39h-18.82m18.78,0c1.12,0,2.02-.91,2.02-2.02m0-10.37v10.41m0-10.45c0-1.12-.91-2.02-2.02-2.02m-18.78,14.46v-14.46h18.82m-5.61,56.18h-2.97v-24.04h2.97v24.04Zm-4.62-12.64h2.81m-2.81-.74h2.81m-3.05,1.57h-.33v-2.4h.33m0,0v2.4l.25-.83v-.74m-.25-.83l.25.83m5.12,1.57v-2.4h.49v2.4m-1.73-.58l1.24.58h.49m-1.82-1.82l1.32-.58m-1.24,1.82h-1.07v-1.24h1.07m0,1.24v-1.24m0-56.02l-.08-17.27m-.62,17.85c.16,0,.32-.07.44-.18s.18-.27.18-.44m-17.83.71h17.25m-17.91-.7c0,.34.28.62.62.62m-.54-17.76v17.18m.54-17.85c-.34,0-.62.28-.62.62m17.91-.62l-17.25.08m17.83.45c0-.34-.28-.62-.62-.62m-9.29,9.34h1.16m-4.87,7.77h12.22l-.08-15.53h-12.14v15.53Zm-2.64-7.77h-.49m.7.41c.25,0,.45-.2.45-.45s-.2-.45-.45-.45-.45.2-.45.45.2.45.45.45m.29-.41h.5m-.74-.25v-.5m0,1.49v-.41m4.71-.33h-1.16m1.86.66c.39,0,.7-.32.7-.7s-.31-.7-.7-.7-.7.31-.7.7.31.7.7.7m0,.49c.66,0,1.2-.54,1.2-1.2s-.54-1.2-1.2-1.2-1.2.54-1.2,1.2.54,1.2,1.2,1.2m.04-1.9l-.08-1.07m.08,3.64v-1.07m9.99,8.51h-17.25l-.58-.66v-17.18l.58-.58,17.25-.08.58.58.08,17.27-.66.66Z"/>
    <path class="cls-39" d="m272.5,249.88h-3.96v4.05h3.96v-4.05Zm-4.04,2.02c0,1.12.9,2.02,2.02,2.02s2.02-.9,2.02-2.02-.9-2.02-2.02-2.02-2.02.91-2.02,2.02m-5.11-5.16h-8v36.08h8v-36.08Zm-7.17.41l.33-.41m-1.15,1.24l.08-.08m.17,1.24l1.82-1.82m.16,1.24l1.73-1.73m-3.96,3.96l1.48-1.49m2.64-1.24l1.32-1.32m-3.79,3.8l1.82-1.82m-3.46,3.55l.99-1.07m5.11-3.72l.74-.74m-3.22,3.22l1.73-1.73m-4.21,4.21l1.73-1.73m-2.89,2.97l.41-.5m5.2-3.71l1.73-1.82m-4.21,4.29l1.73-1.82m-4.21,4.29l1.73-1.82m5.11-3.71l.49-.41m-2.97,2.89l1.81-1.73m-4.29,4.21l1.81-1.73m-4.29,4.29l1.82-1.82m5.11-3.72l.99-.99m-3.46,3.47l1.73-1.73m-4.21,4.21l1.73-1.73m-3.79,3.8l1.32-1.32m5.11-3.72l1.57-1.57"/>
  </g>
  <path class="cls-46" d="m260.53,262.76v4.05l-2.4-4.05h2.4Zm0,4.05l-2.4-4.05v4.05h2.4Z"/>
  <g class="cls-41">
    <path class="cls-39" d="m264.74,254.51h.16m0-2.85c0-.07-.05-.12-.12-.12s-.12.05-.12.12m.08,1.45v-1.4m0,2.81v-.41m.16-.99v-1.4m0,2.81v-.41m.41-.99h-1.98v.99h1.98v-.99Zm.49,23.77l.33.33.33.33.25.5.08.58-.08.58-.17.25-.16.25-.33.08-.33.08-.58-.17-.49-.41-.16-.25-.08-.33v-.74l-.08-.08h-.16l-.41-.08-.49-.08m2.06-.66l.66.5.25.33.16.49v.41l-.16.41-.33.25-.41-.08-.41-.17-.25-.41v-.83l-.16-.33-.33-.16-.99-.17m.99-1.28c0,.52.42.95.95.95s.95-.42.95-.95-.42-.95-.95-.95-.95.42-.95.95m.25.7h-1.23v-1.32h1.23m-5.31-9.24c.2,0,.37-.17.37-.37s-.17-.37-.37-.37-.37.17-.37.37.17.37.37.37m0-1.32c.43,0,.78-.35.78-.78s-.35-.78-.78-.78-.78.35-.78.78.35.78.78.78m-1.11-2.06h2.39v4.05h-2.39,2.39v-4.05h-2.39Z"/>
  </g>
  <path class="cls-47" d="m271.36,284.25h14.46v-.74l-14.46.74Zm0-.74v.74l14.46-.74h-14.46Z"/>
  <path class="cls-39" d="m271.38,284.89h46.5m-46.5-2.03h46.5m-46.5.65h14.45v.73h-14.45v-.73Z"/>
  <g class="cls-4">
    <path d="m281.29,253.38h1c.26,0,.45-.02.56-.05.16-.05.28-.14.37-.27.09-.13.13-.3.13-.52,0-.2-.04-.37-.12-.5-.08-.13-.18-.23-.31-.28-.13-.05-.36-.08-.7-.08h-.93v1.7Zm0,2.6h1.15c.25,0,.44-.02.56-.07.17-.07.31-.18.4-.33.09-.15.14-.34.14-.57,0-.21-.04-.39-.13-.54-.09-.15-.2-.25-.35-.32-.15-.07-.38-.1-.69-.1h-1.07v1.93Zm-.61.66v-5.62h1.73c.35,0,.63.05.83.16.2.11.37.28.5.51.13.23.2.48.2.76,0,.26-.06.49-.17.7-.11.21-.27.37-.48.5.27.1.48.26.63.5.15.23.23.52.23.87s-.07.64-.21.89c-.14.26-.33.44-.56.56-.23.12-.55.17-.96.17h-1.76Z"/>
    <path d="m285.81,254.33h1.57l-.48-1.56c-.15-.48-.26-.87-.33-1.17-.06.36-.14.72-.25,1.07l-.51,1.65Zm-1.32,2.31l1.78-5.62h.65l1.89,5.62h-.7l-.54-1.7h-1.94l-.5,1.7h-.64Z"/>
  </g>
  <polygon points="290.47 256.64 290.47 251.69 288.95 251.69 288.95 251.02 292.6 251.02 292.6 251.69 291.08 251.69 291.08 256.64 290.47 256.64"/>
  <polygon points="293.22 256.64 293.22 251.02 293.82 251.02 293.82 253.33 296.22 253.33 296.22 251.02 296.83 251.02 296.83 256.64 296.22 256.64 296.22 253.99 293.82 253.99 293.82 256.64 293.22 256.64"/>
  <path class="cls-38" d="m258.58,115.17v3.83m35.98-3.83v3.83"/>
  <path class="cls-5" d="m258.5,115.09h1.07v3.97h-1.07v-3.97Zm35.06,0h1.07v3.97h-1.07v-3.97Z"/>
  <rect class="cls-5" x="259.58" y="81.04" width="1.08" height="33.98"/>
  <path class="cls-46" d="m305.91,85.79h13.97l-13.97,28.52v-28.52Zm13.97,0l-13.97,28.52h13.97v-28.52Z"/>
  <path class="cls-39" d="m305.93,85.81h13.93v28.48h-13.93v-28.48Zm.49,1.65l1.65-1.65m2.31.58l.58-.58m-3.05,3.05l1.73-1.73m-3.71,3.71l1.24-1.24m4.62-1.82l1.73-1.73m-4.2,4.21l1.73-1.73m-4.2,4.29l1.73-1.82m-2.64,2.72l.16-.25m9.56-6.69l.91-.99m-3.38,3.47l1.73-1.82m-4.2,4.29l1.73-1.82m-4.2,4.29l1.73-1.82m-4.04,4.13l1.57-1.65m9.56-6.69l1.81-1.82m-4.29,4.29l1.81-1.82m-4.29,4.29l1.81-1.82m-4.29,4.29l1.73-1.82m-4.2,4.29l1.73-1.82m-2.97,3.05l.49-.58m12.04-9.16l1.4-1.4m-3.87,3.88l1.81-1.82m-4.29,4.29l1.81-1.73m-4.29,4.21l1.81-1.73m-4.29,4.21l1.81-1.73m-4.29,4.21l1.81-1.73m9.48-6.77l1.81-1.73m-4.29,4.21l1.81-1.73m-4.29,4.21l1.81-1.73m-4.29,4.21l1.81-1.73m-4.29,4.21l1.81-1.73m-3.38,3.38l.91-.91m12.04-9.24l.99-1.07m-3.46,3.55l1.73-1.73m-4.2,4.21l1.73-1.73m-4.29,4.21l1.81-1.73m-4.29,4.21l1.81-1.73m-4.29,4.21l1.81-1.73m9.56-6.77l1.73-1.73m-4.2,4.29l1.73-1.82m-4.2,4.29l1.73-1.82m-4.2,4.29l1.73-1.82m-4.2,4.29l1.73-1.82m-3.71,3.8l1.24-1.32m12.04-9.16l.66-.74m-3.13,3.22l1.73-1.82m-4.2,4.29l1.73-1.82m-4.21,4.29l1.73-1.82m-4.2,4.29l1.73-1.82m-4.2,4.29l1.73-1.82m-2.64,2.72l.16-.25m12.04-9.16l1.73-1.82m-4.2,4.29l1.73-1.82m-4.2,4.29l1.73-1.82m-4.2,4.29l1.73-1.73m-4.2,4.21l1.73-1.73m9.56-6.77l.33-.33m-2.8,2.81l1.81-1.73m-4.29,4.21l1.81-1.73m-4.29,4.21l1.81-1.73m-3.13,3.05l.58-.58m7.09-4.29l1.4-1.4m-3.87,3.88l1.81-1.73m-4.12,4.13l1.65-1.65m2.06.66l1.81-1.73m-2.72,2.72l.25-.25m2.64.25l.49-.58m-13.93-27.08l.74-.83m-.74,3.63l3.63-3.63m-3.63,6.44l6.43-6.44m-6.43,9.33l9.23-9.33m-9.23,12.13l12.12-12.13m-12.12,15.02l13.93-14.03m-13.93,16.84l13.93-14.03m-13.93,16.84l13.93-14.03m-13.93,16.92l13.93-14.03m-13.93,16.84l13.93-14.03m-13.27,16.18l13.27-13.37m-10.47,13.37l10.47-10.48m-7.58,10.48l7.58-7.68m-4.78,7.68l4.78-4.87m-1.98,4.87l1.98-1.98m-13.93,1.98h13.93v-28.48h-13.93v28.48Z"/>
  <path class="cls-46" d="m300.04,109.43h17.27l-17.85-.58.58.58Zm17.27,0l-17.85-.58h18.43l-.58.58Zm-17.85-.58h18.43l-18.52-17.28.08,17.28Zm18.43,0l-18.52-17.28h18.52v17.28Zm-18.52-17.28h18.52l-17.85-.58-.66.58Zm18.52,0l-17.85-.58h17.27l.58.58Z"/>
  <g class="cls-14">
    <path class="cls-39" d="m313.42,79.75l-1.57,1.49m4.05-3.97l-1.82,1.73m4.29-4.21l-1.82,1.74m3.3-3.31l-.83.83m-5.12,3.72l-1.73,1.74m4.21-4.21l-1.73,1.74m4.21-4.21l-1.73,1.73m2.72-2.73l-.25.25m-7.6,6.2l-.17.16m2.64-2.64l-1.82,1.82m4.29-4.3l-1.82,1.82m4.29-4.3l-1.82,1.82m-5.12,3.72l-.66.58m3.14-3.06l-1.73,1.74m4.21-4.21l-1.73,1.74m4.13-4.21l-1.65,1.73m-5.2,3.72l-1.16,1.16m3.63-3.64l-1.73,1.82m4.29-4.3l-1.82,1.82m3.63-3.72l-1.16,1.24m-5.12,3.72l-1.73,1.65m4.21-4.13l-1.82,1.73m4.29-4.21l-1.82,1.74m3.14-3.14l-.58.66m-5.2,3.72l-1.73,1.74m4.21-4.21l-1.73,1.73m4.21-4.21l-1.73,1.73m2.56-2.56l-.08.08m-7.59,6.2l-.33.33m2.81-2.81l-1.82,1.82m4.29-4.3l-1.82,1.82m4.29-4.3l-1.82,1.82m-5.12,3.72l-.83.83m3.3-3.3l-1.73,1.73m4.21-4.21l-1.73,1.73m3.96-4.05l-1.49,1.57m-5.12,3.72l-1.4,1.32m3.88-3.8l-1.82,1.82m4.29-4.3l-1.82,1.82m3.47-3.55l-.99,1.07m-5.12,3.72l-1.73,1.73m4.21-4.21l-1.73,1.73m4.21-4.21l-1.73,1.73m2.89-2.98l-.41.5m-5.2,3.72l-1.73,1.73m4.21-4.21l-1.73,1.73m4.29-4.21l-1.82,1.73m-5.12,3.72l-.5.49m2.97-2.97l-1.82,1.82m4.29-4.3l-1.82,1.82m4.29-4.3l-1.73,1.82m-5.2,3.72l-.99.99m3.47-3.47l-1.73,1.73m4.21-4.21l-1.73,1.73m3.8-3.8l-1.32,1.32m-5.12,3.72l-1.57,1.57m4.05-4.05l-1.82,1.82m4.29-4.3l-1.82,1.82m3.3-3.39l-.83.91m-5.12,3.72l-1.73,1.73m4.21-4.21l-1.73,1.74m4.21-4.21l-1.73,1.73m2.72-2.81l-.25.33m-7.6,6.2l-.17.08m2.64-2.56l-1.82,1.73m4.29-4.21l-1.82,1.73m4.29-4.21l-1.82,1.73m-5.12,3.72l-.66.66m3.14-3.14l-1.73,1.82m4.21-4.3l-1.73,1.82m3.55-3.64l-1.07,1.16m-5.2,3.72l-1.16,1.16m3.63-3.64l-1.73,1.74m4.13-4.13l-1.65,1.65m-2.64,1.24l-1.73,1.73m4.21-4.21l-1.82,1.82m-.17-1.24l-1.73,1.74m2.72-2.73l-.25.25m-2.64,1.24l-.33.25m1.82-1.74l-.83.74m-.58-.74l-.41.33m-2.02,13.63c-.25,0-.45.2-.45.45s.2.45.45.45.45-.2.45-.45-.2-.45-.45-.45m0,7.19c-.25,0-.45.2-.45.45s.2.45.45.45.45-.2.45-.45-.2-.45-.45-.45m-10.05-2.2c.6.88,1.61,1.39,2.67,1.38m-2.66-2.4v1.07m2.66-2.48c-1.06-.02-2.07.5-2.67,1.38m4.21-.13c-.1-.74-.75-1.28-1.5-1.24m1.59,2.56v-1.24m-1.59,2.4c.74.03,1.39-.51,1.5-1.24m-9.97-5.36h13.04m-13.08,0c-.11,0-.21.09-.21.21m.08,8.47v-8.43m-.08,8.39c0,.11.09.21.21.21m13.08-8.84v8.84h-13.04m0-9.67h13.87m-13.91,0c-.57,0-1.03.46-1.03,1.03m.08,8.47v-8.43m-.08,8.39c0,.57.46,1.03,1.03,1.03m13.91-10.49v10.49h-13.87m-.99-12.48h18.82m-18.86-.08c-1.12,0-2.02.91-2.02,2.02m.08,10.53v-10.49m-.08,10.45c0,1.12.9,2.02,2.02,2.02m18.86-14.46v14.46h-18.82m6.85-52.3h2.97v24.04h-2.97v-24.04Zm4.54,12.64h-2.72m2.72.74h-2.72m3.05-1.57h.33v2.4h-.33m0,0v-2.4l-.33.83v.74m.33.83l-.33-.83m-5.61.83v-2.4m.58,2.4v-2.4m-.58,0h.58l1.24.58h1.07v1.24h-1.07l-1.24.58h-.58m1.82-1.82v1.24m-1.24,55.27l.08,17.27m.54-17.93c-.16,0-.32.07-.44.18-.12.12-.18.28-.18.44m17.91-.54h-17.25m17.83.54c0-.34-.28-.62-.62-.62m.62,17.93v-17.27m-.62,17.85c.34,0,.62-.28.62-.62m-17.83.62h17.25m-17.91-.62c0,.34.28.62.62.62m9.37-9.17h-1.16m4.87-7.77h-12.14v15.45h12.14v-15.45Zm2.72,7.68h.41m-.78-.5c-.25,0-.45.2-.45.45s.2.46.45.46.45-.2.45-.46-.2-.45-.45-.45m-.21.5h-.49m.74.33v.41m0-1.4v.41m-4.71.33h1.16m-1.86-.74c-.39,0-.7.31-.7.7s.31.7.7.7.7-.31.7-.7-.31-.7-.7-.7m0-.5c-.66,0-1.2.54-1.2,1.2s.54,1.2,1.2,1.2,1.2-.54,1.2-1.2-.54-1.2-1.2-1.2m.04,1.9v1.16m0-3.72v1.16m-10.07-8.51h17.25l.58.58v17.27l-.58.58h-17.25l-.58-.58-.08-17.27.66-.58Z"/>
    <path class="cls-39" d="m302.7,82.64h3.96v-4.05h-3.96v4.05Zm3.96-2.02c0-1.12-.9-2.02-2.02-2.02s-2.02.91-2.02,2.02.9,2.02,2.02,2.02,2.02-.91,2.02-2.02m5.2,5.16h8v-36.08h-8v36.08Zm7.17-.41l-.33.41m1.16-1.24l-.08.17m-.16-1.24l-1.82,1.73m-.17-1.24l-1.73,1.82m3.96-4.05l-1.49,1.57m-2.64,1.24l-1.32,1.24m3.79-3.72l-1.81,1.73m3.46-3.47l-.99.99m-5.11,3.72l-.74.74m3.22-3.22l-1.73,1.73m4.21-4.21l-1.73,1.73m2.89-2.89l-.41.41m-5.2,3.72l-1.73,1.82m4.21-4.29l-1.73,1.82m4.29-4.29l-1.82,1.82m-5.11,3.72l-.49.41m2.97-2.89l-1.82,1.73m4.29-4.21l-1.81,1.73m4.29-4.21l-1.73,1.73m-5.2,3.71l-.99.99m3.46-3.47l-1.73,1.82m4.21-4.29l-1.73,1.82m3.79-3.88l-1.32,1.4"/>
  </g>
  <path class="cls-46" d="m314.67,69.76v-4.05l2.4,4.05h-2.4Zm0-4.05l2.4,4.05v-4.05h-2.4Z"/>
  <g class="cls-25">
    <path class="cls-39" d="m310.46,78.09h-.16m-.08,2.77c0,.07.05.12.12.12s.12-.06.12-.12m0-1.36v1.4m0-2.81v.33m-.16,1.07v1.4m0-2.81v.33m-.41,1.07h1.98v-1.07h-1.98v1.07Zm-.49-23.86l-.33-.25-.33-.41-.25-.5-.08-.5.08-.58.16-.33.16-.17.33-.16h.33l.58.08.49.41.17.33.08.25v.74l.08.08.17.08.41.08h.49m-2.06.74l-.66-.58-.25-.33-.16-.41v-.5l.16-.41.33-.25.41.08.41.25.25.33v.91l.16.25.33.17.99.16m-1.07,1.28c0-.52-.42-.95-.95-.95s-.95.42-.95.95.42.95.95.95.95-.42.95-.95m-.17-.7h1.24v1.4h-1.24m5.23,9.16c-.2,0-.37.17-.37.37s.17.37.37.37.37-.17.37-.37-.17-.37-.37-.37m0,1.24c-.43,0-.78.35-.78.78s.35.78.78.78.78-.35.78-.78-.35-.78-.78-.78m1.19,2.15h-2.39v-4.04h2.39s-2.39,0-2.39,0v4.04h2.39Z"/>
  </g>
  <path class="cls-47" d="m287.39,48.27v.83l18.52-.83h-18.52Zm18.52,0l-18.52.83h18.52v-.83Z"/>
  <path class="cls-39" d="m305.89,47.71h-50.55m50.55,1.95h-50.55m50.55-.57h-18.5v-.81h18.5v.81Z"/>
  <g class="cls-6">
    <path d="m270.38,67.49h1c.26,0,.45-.02.56-.05.16-.05.28-.14.37-.27.09-.13.13-.3.13-.52,0-.2-.04-.37-.12-.5-.08-.13-.18-.23-.31-.28-.13-.05-.36-.08-.7-.08h-.92v1.7Zm0,2.6h1.15c.25,0,.44-.02.56-.07.17-.07.31-.18.4-.33.09-.15.14-.34.14-.57,0-.21-.04-.39-.13-.54-.09-.15-.2-.26-.35-.32-.15-.07-.38-.1-.69-.1h-1.07v1.93Zm-.61.66v-5.62h1.73c.35,0,.63.06.83.16.2.11.37.28.5.51.13.23.2.48.2.76,0,.26-.06.49-.17.7-.11.21-.27.37-.48.5.27.1.48.26.63.5.15.23.23.52.23.87s-.07.64-.21.89c-.14.26-.33.44-.56.56-.23.12-.55.17-.96.17h-1.76Z"/>
    <path d="m274.9,68.44h1.57l-.48-1.56c-.15-.48-.26-.87-.33-1.17-.06.36-.14.72-.25,1.07l-.51,1.65Zm-1.32,2.31l1.78-5.62h.65l1.89,5.62h-.7l-.54-1.7h-1.94l-.5,1.7h-.64Z"/>
  </g>
  <polygon points="279.56 70.75 279.56 65.79 278.04 65.79 278.04 65.13 281.69 65.13 281.69 65.79 280.17 65.79 280.17 70.75 279.56 70.75"/>
  <polygon points="282.31 70.75 282.31 65.13 282.91 65.13 282.91 67.44 285.31 67.44 285.31 65.13 285.92 65.13 285.92 70.75 285.31 70.75 285.31 68.1 282.91 68.1 282.91 70.75 282.31 70.75"/>
  <path class="cls-30" d="m319.84,49.69v64.59h-25.18m-36.16,0h-3.14V15.57h50.53v34.11h14.78"/>
  <path class="cls-5" d="m313.48,209h-1.24v-37.71h1.24v37.71Zm1.15-37.71h-1.15v-3.96h1.15v3.96Zm-38.86,0h-1.15v-3.96h1.15v3.96Z"/>
  <path class="cls-5" d="m212.79,160.81h37.62v1.24h-37.62v-1.24Zm37.62,1.24h4.04v1.15h-4.04v-1.15Zm0-38.86h4.04v1.15h-4.04v-1.15Z"/>
  <path class="cls-38" d="m226.51,115.17v4.03m23.86,4.03h4.02m-4.02,39.9h4.02"/>
  <g class="cls-8">
    <path class="cls-36" d="m156.14,187.95l33.38,28.35m-26.73-39.34c-.52,0-1.02.21-1.39.59-.37.37-.56.88-.55,1.4m-28.96-2.32c-.52,0-1.02.21-1.39.58-.37.38-.56.88-.55,1.4m32.72,12.23h20.24m-53.13-2.89l.25-1.4.41-1.32.66-1.16.74-1.16m21.98-4.3l-.16,1.16-.08.66-.16.66-.25.74-.33.91-.33.91-.5,1.07m32.89,4.38l.08-1.4-.25-1.4-.16-.66-.33-.58-.33-.58-.5-.5m-.54,6.78c.99,0,1.82-.74,1.93-1.72m4.72-17.78v16.12h16.03v-16.12m-80.4,0v16.12m-16.11-16.12h80.48m-64.37,30.5h24.54m4.38-13.8l-.08-1.24-.25-1.16-.5-.99-.74-.91m-2.98,44.05l.25-39.75m-24.62,0h30.99m24.79,39.75h-31.4m11.16-38.92c-.01.52.19,1.03.55,1.4.37.37.87.58,1.39.58m-30.7-14.13h19.91m8.84,12.23l.16-1.57.41-1.4.66-1.32.83-1.32m21.98-4.21l-.08,1.08-.17.66-.16.66-.25.83-.25.83-.41.91-.5,1.07m6.61,31.24l-8.59,11.4m-18.1-50.74h19.92m-29,1.64c0-.52-.19-1.02-.56-1.39-.36-.37-.86-.58-1.38-.58m32.85,2.3c0-.52-.19-1.02-.56-1.39-.36-.37-.86-.58-1.38-.58m-57.55,74.63h64.37v-80.33h-64.37v80.33Zm0-64.21h-16.11m51.81-8.35l.08,1.32.16,1.32.41,1.24.66,1.16m-32.23-5.37l.08,1.32.16,1.24.41,1.32.66,1.16m-22.23,3.64v-16.12m96.52,0h-16.03M247.04,31.42l.08-.83-17.27-1.57-.08.83,17.27,1.57Zm-17.27-4.13v.83l17.44-.74-.08-.74-17.35.66Zm17.27,9.83l.08-.83-17.27-1.49-.08.74,17.27,1.57Zm-17.27-4.05v.74l17.44-.74-.08-.74-17.35.74Zm17.27,9.75l.08-.83-17.27-1.49-.08.74,17.27,1.57Zm-17.27-4.05v.74l17.44-.66-.08-.83-17.35.74Zm17.27,9.75l.08-.74-17.27-1.57-.08.83,17.27,1.49Zm-17.27-4.05v.83l17.44-.74-.08-.83-17.35.74Zm17.27,9.75l.08-.74-17.27-1.57-.08.83,17.27,1.49Zm-17.27-4.05v.83l17.44-.74-.08-.83-17.35.74Zm17.27,9.83l.08-.83-17.27-1.57-.08.83,17.27,1.57Zm-17.27-4.13v.83l17.44-.74-.08-.83-17.35.74Zm17.27,9.83l.08-.83-17.27-1.57-.08.83,17.27,1.57Zm-17.27-4.13v.83l17.44-.74-.08-.74-17.35.66Zm17.27,9.84l.08-.83-17.27-1.49-.08.74,17.27,1.57Zm-17.27-4.05v.74l17.44-.74-.08-.74-17.35.74Zm17.27,9.75l.08-.83-17.27-1.49-.08.74,17.27,1.57Zm-17.27-4.05v.74l17.44-.66-.08-.83-17.35.74Zm17.27,9.75l.08-.74-17.27-1.57-.08.83,17.27,1.49Zm-17.27-4.05v.83l17.44-.74-.08-.83-17.35.74Zm17.27,9.75l.08-.74-17.27-1.57-.08.83,17.27,1.49Zm-17.27-4.05v.83l17.44-.74-.08-.83-17.35.74Zm17.27,9.84l.08-.83-17.27-1.57-.08.83,17.27,1.57Zm-17.27-4.13v.83l17.44-.74-.08-.83-17.35.74Zm17.27,9.83l.08-.83-17.27-1.57-.08.83,17.27,1.57Zm-17.27-4.13v.83l17.44-.74-.08-.74-17.35.66Zm17.35-70.25h-17.44v-.83h17.44v.83Zm-17.35,76.03v.74l17.44-.74-.08-.74-17.35.74Zm17.27,4.05l.08-.83-17.27-1.49-.08.74,17.27,1.57Zm.08,1.82h-17.44v.83h17.44v-.83Zm0,2.73h-17.44v.83h17.44v-.83Zm-9.09,4.05V21.59m.74,92.72V21.59m10.91,0h-22.48v92.72h22.48V21.59Zm.74-.83h-24.05v94.29h24.05V20.76Z"/>
    <path class="cls-31" d="m149.48,225.78c-1.04,0-1.89.85-1.89,1.89s.84,1.89,1.89,1.89,1.89-.85,1.89-1.89-.84-1.89-1.89-1.89"/>
    <path class="cls-36" d="m156.3,37.46l33.3,28.35m-26.73-39.34c-.52,0-1.02.21-1.39.59-.37.38-.56.88-.55,1.4m-28.96-2.32c-.52,0-1.02.21-1.39.59-.37.37-.56.88-.55,1.4m32.72,12.22h20.32m-53.21-2.89l.25-1.41.41-1.32.66-1.16.74-1.16m21.98-4.3l-.08,1.16-.17.66-.17.66-.25.74-.25.91-.41.91-.49,1.07m32.88,4.38l.08-1.41-.17-1.4-.25-.66-.25-.58-.41-.58-.5-.5m-.45,6.78c.99,0,1.82-.74,1.93-1.72m4.64-17.78v16.03h16.03v-16.03m-80.39,0v16.03m-16.03-16.03h80.39m-64.36,30.5h24.54m4.38-13.8l-.08-1.24-.25-1.16-.5-.99-.74-.91m-2.97,44.05l.25-39.75m-24.62,0h31.07m24.71,39.75h-31.4m11.15-38.92c-.01.52.19,1.03.55,1.4.37.37.87.58,1.39.58m-30.7-14.13h19.91m8.84,12.23l.16-1.57.41-1.41.66-1.32.83-1.32m21.98-4.22l-.08,1.07-.17.66-.17.66-.16.83-.33.83-.41.91-.49,1.08m6.61,31.24l-8.59,11.41m-18.1-50.74h19.91m-29,1.64c0-.52-.2-1.02-.56-1.39-.37-.37-.86-.58-1.38-.58m32.84,2.3c0-.52-.2-1.02-.56-1.39-.37-.37-.86-.58-1.38-.58m-57.55,74.54h64.36V20.76h-64.36v80.25Zm0-64.21h-16.03m51.72-8.26l.08,1.32.25,1.32.41,1.24.58,1.16m-32.22-5.37l.08,1.32.25,1.24.33,1.32.66,1.16m-22.14,3.55v-16.03m96.42,0h-16.03m-12.89,302.32h-20.82v-1.07h20.82v1.07Zm-38.59.74h39.25v-14.05h-39.25v14.05Zm7.94-21.75c-.02.1.01.2.09.26m10.56,0c.07-.07.1-.17.08-.26m0,.2c-3.45-1.13-7.18-1.13-10.63,0m10.7.43c-.35-.16-.71-.31-1.07-.44m-9.13-.12c3.18.59,6.45.59,9.63,0m-10.61-1.09c-.1.37.03.77.33,1.01m10.85.01c.27-.27.39-.65.33-1.02m0-.02c-3.72-1.22-7.73-1.22-11.45,0m11.12,1.02c-3.5-1.15-7.28-1.15-10.78,0m-.52,7.73l.5-7.02m11.4,7.02l-.58-7.02m-9.73-.49c-.36.13-.72.28-1.07.44"/>
    <path class="cls-31" d="m149.57,75.27c-1.04,0-1.89.85-1.89,1.89s.84,1.89,1.89,1.89,1.89-.84,1.89-1.89-.84-1.89-1.89-1.89"/>
    <path class="cls-39" d="m185.54,166.53h-20.81v-.99h20.81v.99Zm-38.56.74h39.31v-14.03h-39.31v14.03Zm7.93-21.72c-.02.1.01.2.09.26m10.64,0c.07-.07.1-.17.09-.26m-.09.2c-3.45-1.13-7.17-1.13-10.62,0m10.7.43c-.35-.16-.71-.31-1.07-.44m-9.13-.12c3.18.59,6.45.59,9.63,0m-10.52-1.09c-.1.37.03.77.33,1m10.76.01c.27-.27.39-.65.33-1.02m0-.02c-3.72-1.22-7.73-1.22-11.45,0m11.11,1.02c-3.5-1.15-7.28-1.15-10.78,0m-.52,7.72l.58-7.01m11.31,7.01l-.58-7.01m-9.72-.49c-.36.13-.72.28-1.07.44"/>
    <path d="m134.92,271.27v-8.03h1.31l1.56,5.68.31,1.19c.08-.3.19-.72.35-1.29l1.58-5.59h1.17v8.03h-.84v-6.71l-1.92,6.71h-.78l-1.91-6.83v6.83h-.84Z"/>
  </g>
  <rect x="142.74" y="270.15" width=".92" height="1.12"/>
  <g class="cls-43">
    <path d="m146,266.62h1.43c.37,0,.64-.02.8-.08.23-.08.4-.21.52-.39.12-.18.18-.43.18-.74,0-.29-.06-.53-.17-.72-.11-.19-.26-.32-.44-.4-.18-.07-.52-.11-1-.11h-1.32v2.43Zm0,3.71h1.64c.36,0,.63-.03.8-.1.25-.1.44-.25.57-.47.13-.22.19-.49.19-.82,0-.3-.06-.56-.19-.77-.12-.21-.29-.36-.5-.46-.21-.1-.54-.14-.99-.14h-1.53v2.76Zm-.87.95v-8.03h2.47c.5,0,.9.08,1.19.23.29.15.53.4.72.73.19.33.28.69.28,1.09,0,.37-.08.7-.24.99-.16.3-.39.53-.68.71.38.14.68.38.9.71.22.33.33.75.33,1.24s-.1.91-.3,1.28c-.2.37-.46.63-.8.8-.33.17-.79.25-1.37.25h-2.51Z"/>
  </g>
  <polygon points="151.31 271.27 151.31 263.24 156.07 263.24 156.07 264.19 152.18 264.19 152.18 266.65 155.83 266.65 155.83 267.59 152.18 267.59 152.18 270.33 156.23 270.33 156.23 271.27 151.31 271.27"/>
  <g class="cls-23">
    <path d="m158.28,270.33h1.4c.57,0,.99-.09,1.29-.28.29-.18.52-.48.67-.89.21-.54.31-1.2.31-1.95,0-.81-.11-1.45-.33-1.92-.22-.47-.5-.78-.85-.93-.23-.11-.6-.16-1.11-.16h-1.38v6.13Zm-.87.95v-8.03h2.27c.56,0,.99.05,1.28.15.38.13.72.36,1,.7.28.34.5.77.66,1.28s.24,1.13.24,1.84c0,.91-.13,1.68-.4,2.31-.27.63-.61,1.08-1.03,1.35-.42.26-.97.4-1.64.4h-2.38Z"/>
    <path d="m167.49,266.79h1.87c.41,0,.72-.05.93-.15.21-.1.38-.25.5-.46.12-.21.19-.46.19-.74,0-.4-.12-.72-.36-.96-.24-.23-.59-.35-1.06-.35h-2.08v2.66Zm-.87,4.48v-8.03h2.92c.61,0,1.06.08,1.35.22.29.15.53.4.71.75.19.35.28.75.28,1.21,0,.61-.16,1.1-.47,1.47-.32.38-.77.61-1.38.72.24.15.43.3.56.45.26.31.49.65.69,1.02l1.15,2.18h-1.1l-.88-1.67c-.34-.65-.6-1.09-.77-1.32-.17-.23-.34-.38-.5-.46-.16-.08-.39-.12-.68-.12h-1.01v3.56h-.87Z"/>
    <path d="m173.91,267.38c0,.99.22,1.76.65,2.3.44.55.97.82,1.59.82s1.18-.28,1.61-.83c.43-.55.65-1.36.65-2.43,0-.69-.11-1.31-.33-1.85-.17-.42-.43-.75-.77-1-.34-.25-.72-.38-1.13-.38-.66,0-1.2.27-1.62.82s-.64,1.4-.64,2.54m-.9-.01c0-1.37.3-2.42.9-3.16.6-.74,1.35-1.1,2.25-1.1.58,0,1.11.16,1.59.49.48.33.86.81,1.14,1.43.28.63.42,1.37.42,2.24,0,1.19-.27,2.16-.81,2.91-.6.83-1.37,1.24-2.34,1.24s-1.75-.42-2.34-1.27c-.54-.77-.8-1.69-.8-2.78"/>
    <path d="m181.07,267.38c0,.99.22,1.76.65,2.3.44.55.97.82,1.59.82s1.18-.28,1.61-.83c.43-.55.65-1.36.65-2.43,0-.69-.11-1.31-.33-1.85-.17-.42-.43-.75-.77-1-.34-.25-.72-.38-1.13-.38-.66,0-1.2.27-1.62.82s-.64,1.4-.64,2.54m-.9-.01c0-1.37.3-2.42.9-3.16.6-.74,1.35-1.1,2.25-1.1.58,0,1.11.16,1.59.49.48.33.86.81,1.14,1.43.28.63.42,1.37.42,2.24,0,1.19-.27,2.16-.81,2.91-.6.83-1.37,1.24-2.34,1.24s-1.75-.42-2.34-1.27c-.54-.77-.8-1.69-.8-2.78"/>
    <path d="m187.55,271.27v-8.03h1.31l1.56,5.68.31,1.19c.08-.3.19-.72.35-1.29l1.58-5.59h1.17v8.03h-.84v-6.71l-1.92,6.71h-.78l-1.91-6.83v6.83h-.84Z"/>
    <path d="m166.45,112.8h1.43c.37,0,.64-.03.8-.08.23-.08.4-.21.52-.39.12-.18.18-.43.18-.74,0-.29-.05-.53-.17-.72-.11-.19-.26-.32-.44-.4-.18-.07-.52-.11-1-.11h-1.32v2.43Zm0,3.71h1.64c.36,0,.63-.03.8-.1.25-.1.44-.25.57-.47.13-.22.19-.49.19-.82,0-.3-.06-.56-.19-.77-.12-.21-.29-.36-.5-.46-.21-.1-.54-.15-.99-.15h-1.53v2.76Zm-.87.95v-8.03h2.47c.5,0,.9.08,1.19.23.29.15.53.4.72.73.19.33.28.69.28,1.09,0,.37-.08.7-.24.99-.16.3-.39.53-.68.71.38.14.68.38.9.71.22.33.33.75.33,1.23s-.1.91-.3,1.28c-.2.37-.46.63-.8.8-.33.17-.79.25-1.37.25h-2.51Z"/>
  </g>
  <polygon points="171.76 117.45 171.76 109.42 176.52 109.42 176.52 110.37 172.63 110.37 172.63 112.82 176.27 112.82 176.27 113.77 172.63 113.77 172.63 116.5 176.67 116.5 176.67 117.45 171.76 117.45"/>
  <g class="cls-22">
    <path d="m178.72,116.5h1.4c.57,0,.99-.09,1.29-.28.29-.18.52-.48.67-.89.21-.54.31-1.2.31-1.96,0-.81-.11-1.45-.33-1.92-.22-.46-.5-.78-.85-.93-.23-.11-.6-.16-1.11-.16h-1.38v6.13Zm-.87.95v-8.03h2.27c.56,0,.99.05,1.28.15.38.13.72.36,1,.7.28.34.5.77.66,1.28.16.52.24,1.13.24,1.84,0,.91-.13,1.68-.4,2.31-.27.63-.61,1.08-1.03,1.35s-.97.4-1.64.4h-2.38Z"/>
    <path d="m187.94,112.97h1.87c.41,0,.72-.05.93-.15.21-.1.38-.26.5-.47.12-.21.19-.46.19-.74,0-.41-.12-.72-.36-.96-.24-.23-.59-.35-1.06-.35h-2.08v2.66Zm-.87,4.48v-8.03h2.92c.61,0,1.06.08,1.35.22.29.15.53.4.71.75.19.35.28.75.28,1.21,0,.61-.16,1.1-.47,1.47-.32.38-.77.61-1.38.72.25.15.43.29.56.45.26.31.49.65.69,1.02l1.15,2.18h-1.1l-.88-1.67c-.34-.65-.6-1.09-.77-1.32-.17-.23-.34-.38-.5-.46-.16-.08-.39-.12-.68-.12h-1.01v3.56h-.87Z"/>
    <path d="m194.36,113.55c0,.99.22,1.76.65,2.3.44.55.97.82,1.59.82s1.18-.28,1.61-.83c.43-.55.65-1.36.65-2.43,0-.69-.11-1.31-.33-1.85-.17-.42-.43-.75-.77-1-.34-.25-.72-.38-1.13-.38-.66,0-1.2.27-1.62.82-.43.55-.64,1.4-.64,2.54m-.9-.01c0-1.37.3-2.42.9-3.16.6-.74,1.35-1.1,2.25-1.1.58,0,1.11.17,1.59.49.48.33.86.8,1.14,1.43.28.63.42,1.37.42,2.24,0,1.19-.27,2.16-.81,2.91-.6.82-1.37,1.24-2.34,1.24s-1.75-.42-2.34-1.27c-.54-.77-.8-1.69-.8-2.78"/>
    <path d="m201.52,113.55c0,.99.22,1.76.65,2.3.44.55.97.82,1.59.82s1.17-.28,1.61-.83c.43-.55.65-1.36.65-2.43,0-.69-.11-1.31-.33-1.85-.17-.42-.43-.75-.77-1-.34-.25-.72-.38-1.13-.38-.66,0-1.2.27-1.62.82-.43.55-.64,1.4-.64,2.54m-.9-.01c0-1.37.3-2.42.9-3.16.6-.74,1.35-1.1,2.25-1.1.58,0,1.11.17,1.59.49.48.33.86.8,1.14,1.43.28.63.42,1.37.42,2.24,0,1.19-.27,2.16-.81,2.91-.6.82-1.37,1.24-2.34,1.24s-1.75-.42-2.34-1.27c-.54-.77-.8-1.69-.8-2.78"/>
    <path d="m208,117.45v-8.03h1.31l1.56,5.68.31,1.19c.08-.3.19-.72.35-1.29l1.58-5.59h1.17v8.03h-.84v-6.71l-1.92,6.71h-.78l-1.91-6.83v6.83h-.84Z"/>
  </g>
  <path class="cls-38" d="m473.2,4.82H98.06m431.32,0h-10.08"/>
  <path class="cls-39" d="m523.56,43.37h3.85v-18.06h-3.85m-.08,0v18.06"/>
  <g class="cls-34">
    <path class="cls-48" d="m524.39,31.56v.58c0,.18.02.32.06.42.04.1.09.18.16.24.09.08.22.15.38.2.16.05.35.07.58.07.31,0,.56-.05.73-.14.17-.09.28-.21.34-.34.04-.09.06-.25.06-.46v-.57h-2.3Zm-.35-.36h3.01v.93c0,.21-.02.37-.04.48-.04.15-.11.29-.22.4-.14.14-.31.25-.51.32-.21.07-.45.11-.72.11-.23,0-.43-.02-.61-.07-.18-.05-.32-.11-.44-.18-.12-.08-.21-.16-.27-.25s-.12-.2-.15-.32c-.03-.13-.05-.27-.05-.43v-.98Z"/>
    <path class="cls-48" d="m525.78,34.28v.59c0,.16.01.27.03.34.03.09.08.16.15.21.07.05.16.07.26.07s.19-.02.26-.06c.08-.04.13-.1.16-.18s.04-.22.04-.41v-.54h-.91Zm-1.39,0v.67c0,.12,0,.2.02.24.02.08.04.15.08.21.04.05.09.1.17.14.07.03.16.05.25.05.11,0,.21-.03.29-.08.08-.05.14-.12.17-.22.03-.09.05-.22.05-.4v-.62h-1.03Zm-.35-.36h3.01v1.02c0,.21-.03.37-.09.5-.06.13-.15.22-.28.29-.13.07-.26.11-.4.11s-.25-.03-.36-.09c-.11-.06-.2-.16-.27-.28-.05.16-.14.29-.27.38-.13.09-.28.13-.46.13-.14,0-.27-.03-.39-.08-.12-.05-.22-.12-.28-.2-.07-.08-.11-.18-.15-.3-.03-.12-.05-.26-.05-.44v-1.03Z"/>
  </g>
  <rect class="cls-39" x="523.47" y="54.49" width="3.93" height="24.1"/>
  <polygon class="cls-48" points="524.45 60.17 526.68 60.17 526.68 59.42 526.98 59.42 526.98 61.22 526.68 61.22 526.68 60.47 524.45 60.47 524.45 60.17"/>
  <polygon class="cls-48" points="524.45 61.54 526.98 61.54 526.98 63.18 526.68 63.18 526.68 61.84 525.9 61.84 525.9 63.1 525.61 63.1 525.61 61.84 524.75 61.84 524.75 63.23 524.45 63.23 524.45 61.54"/>
  <polygon class="cls-48" points="524.45 63.64 526.98 63.64 526.98 63.94 524.75 63.94 524.75 65.06 524.45 65.06 524.45 63.64"/>
  <rect class="cls-48" x="524.45" y="65.46" width=".35" height=".32"/>
  <g class="cls-12">
    <path class="cls-48" d="m525.91,67.47v.49c0,.13.01.23.03.29.03.08.07.13.13.17.06.04.13.06.22.06s.16-.02.22-.05c.06-.04.11-.09.13-.15.02-.07.04-.18.04-.35v-.45h-.76Zm-1.17,0v.57c0,.1,0,.17.01.21.01.07.04.13.07.17.03.05.08.08.14.11.06.03.13.04.21.04.09,0,.18-.02.25-.07.07-.04.12-.1.15-.18.03-.08.04-.19.04-.33v-.53h-.87Zm-.3-.3h2.53v.85c0,.17-.02.31-.08.42-.05.1-.13.19-.24.25-.11.06-.22.09-.33.09-.11,0-.21-.03-.3-.08-.1-.05-.17-.13-.23-.24-.04.14-.12.24-.23.32-.11.07-.24.11-.38.11-.12,0-.23-.02-.33-.07-.1-.04-.18-.1-.24-.17-.05-.07-.1-.15-.12-.25-.03-.1-.04-.22-.04-.37v-.87Z"/>
    <path class="cls-48" d="m525.67,69.52c-.31,0-.55.07-.72.22-.18.15-.26.33-.26.56s.09.41.27.56c.18.15.43.22.75.22.21,0,.39-.03.54-.09.15-.06.27-.15.36-.27.09-.12.13-.26.13-.41,0-.21-.08-.4-.24-.55-.16-.15-.43-.23-.82-.23m0-.31c.42,0,.75.1.99.3.24.2.36.47.36.79,0,.21-.06.4-.17.57-.11.17-.27.3-.47.39-.2.09-.43.13-.68.13s-.49-.05-.69-.14c-.2-.09-.35-.22-.46-.4-.1-.17-.16-.35-.16-.55,0-.21.06-.41.17-.57.11-.17.27-.3.47-.38.2-.09.41-.13.63-.13"/>
    <path class="cls-48" d="m524.45,71.54l1.32.88,1.21-.78v.36l-.65.41c-.13.09-.24.15-.31.18.09.05.19.11.29.18l.67.46v.33l-1.19-.8-1.34.86v-.37l.9-.57c.05-.03.11-.07.17-.1-.09-.05-.16-.09-.19-.11l-.88-.57v-.36Z"/>
  </g>
  <path class="cls-38" d="m469.15,86.99v32m0-108.14v36.05"/>
  <path class="cls-5" d="m334.74,122.85v-3.71m0,11.31v-5.03m0,12.71v-5.12m0,12.71v-5.03m0,12.71v-5.12m0,12.71v-5.03m0,11.31v-3.71"/>
  <path class="cls-38" d="m465.38,46.98h3.74m-3.74,39.95h3.74"/>
  <path class="cls-5" d="m465.3,50.37v-3.46m0,11.14v-5.12m0,12.71v-5.03m0,12.71v-5.12m0,12.71v-5.03m0,11.14v-3.55m3.89-33.08v-3.46m0,11.14v-5.12m0,12.71v-5.03m0,12.71v-5.12m0,12.71v-5.03m0,11.14v-3.55"/>
  <path class="cls-38" d="m356.94,115.17v3.83m84.08-3.83v3.83"/>
  <line class="cls-30" x1="441.09" y1="119.12" x2="356.86" y2="119.12"/>
  <path class="cls-5" d="m359.5,115.07h-2.64m10.32,0h-5.12m12.72,0h-5.04m12.72,0h-5.12m12.72,0h-5.04m12.72,0h-5.12m12.72,0h-5.04m12.72,0h-5.12m12.72,0h-5.04m12.72,0h-5.12m12.72,0h-5.04m10.24,0h-2.64"/>
  <polyline class="cls-39" points="318.74 215.38 318.74 171.28 330.77 215.38"/>
  <path class="cls-38" d="m250.56,20.84v94.21m272.79,100.23V10.85"/>
  <path class="cls-5" d="m518.3,167.3h5.12m-12.81,0h5.12m-12.72,0h5.04m-12.72,0h5.12m-12.72,0h5.04m-12.72,0h5.12m-12.72,0h5.04m-12.72,0h5.12m-12.72,0h5.04m-12.72,0h5.12m-12.72,0h5.04m-12.72,0h5.12m-12.72,0h5.04m-12.72,0h5.12m-12.72,0h5.04m-12.72,0h5.12m-12.72,0h5.04m-12.72,0h5.12m-12.72,0h5.04m-12.72,0h5.12m-12.81,0h5.12m-12.72,0h5.12m-12.81,0h5.12m-12.72,0h5.12m-12.81,0h5.12"/>
  <g class="cls-28">
    <path class="cls-39" d="m428.13,292.61c-1.07,0-1.94.87-1.94,1.94m6.11,0c0-1.07-.87-1.94-1.94-1.94m-2.77.08v-.33m1.86-1.98c-1.07,0-1.94.87-1.94,1.94m.66.37h2.23m43.9-.08c-1.07,0-1.94.87-1.94,1.94m4.79-2.23c0-1.07-.87-1.94-1.94-1.94m1.94,2.31v-.33m-.58.33h-2.23m4.13,1.86c0-1.07-.87-1.94-1.94-1.94m-1.28-2.15h-45.76m-2.23,25.38c0,1.07.87,1.94,1.94,1.94m-3.01-8.54c0,1.07.87,1.94,1.94,1.94m2.23,0c1.07,0,1.94-.87,1.94-1.94m-4.96,6.64v-4.87m47.86,6.77c1.07,0,1.94-.87,1.94-1.94m-4.79-6.6c0,1.07.87,1.94,1.94,1.94m2.23,0c1.07,0,1.94-.87,1.94-1.94m-1.32,1.94v4.7m0-2.81h-49.81m49.81-1.9h-48.98m47.08,6.6h-46.01m43.2-23.2v14.69m6.03,0v-14.69m-26.1-4.13v20.72m-26.1-1.9v-14.69m6.03,0v14.69m44.85-16.59v.08"/>
  </g>
  <path class="cls-38" d="m334.84,32.89h-14.04v12.05h-9.99V14.81h24.03m4.05,0h6.03v18.08h-6.03V14.81Zm9.99-1.98v24.03h-24.03m204.53,174.46V4.82"/>
  <path class="cls-5" d="m329.86,29.07l4.86,3.7m-10.96-8.23l4.04,3.04m-10.14-7.65l4.04,3.05m-10.96-8.23l4.86,3.7m14.25,0l4.86-3.7m-10.96,8.23l4.04-3.05m-10.14,7.65l4.04-3.04m-10.96,8.23l4.86-3.7"/>
  <path class="cls-38" d="m334.64,32.8V14.82m-13.94,33.91h-13.94V14.82"/>
  <path class="cls-5" d="m343.41,28.58l1.39,4.2m-3.84-11.44l1.63,4.86m-3.75-11.44l1.39,4.2m3.18,0l1.39-4.2m-3.84,11.44l1.63-4.86m-3.75,11.44l1.39-4.2"/>
  <g class="cls-32">
    <path d="m318.07,27.44v-3.01h.49l.59,2.13.12.45c.03-.11.07-.27.13-.48l.59-2.1h.44v3.01h-.31v-2.52l-.72,2.52h-.29l-.72-2.56v2.56h-.31Z"/>
  </g>
  <rect x="321" y="27.02" width=".35" height=".42"/>
  <g class="cls-9">
    <path d="m322.23,27.08h.53c.21,0,.37-.03.48-.1.11-.07.19-.18.25-.33.08-.2.12-.45.12-.73,0-.31-.04-.55-.12-.72-.08-.17-.19-.29-.32-.35-.09-.04-.23-.06-.42-.06h-.52v2.3Zm-.33.35v-3.01h.85c.21,0,.37.02.48.06.14.05.27.14.37.26.1.13.19.29.25.48.06.19.09.42.09.69,0,.34-.05.63-.15.87-.1.24-.23.41-.39.51-.16.1-.36.15-.61.15h-.89Z"/>
  </g>
  <polyline class="cls-39" points="310.72 44.86 320.68 32.83 310.72 32.83 320.68 44.86"/>
  <path class="cls-38" d="m254.61,287.81h11.9m3.91-4.03h-15.81m11.9,4.03v31.87m3.91-35.9v35.9"/>
  <path class="cls-5" d="m263.65,315.79l1.31,3.96m-3.61-11.21l1.56,4.87m-3.94-12.04l1.56,4.78m-3.94-12.04l1.56,4.78m-3.61-11.13l1.23,3.88m9.2.17l1.56-4.04m-4.27,11.21l1.81-4.78m-4.44,11.96l1.81-4.78m-4.52,11.87l1.81-4.7m-4.19,11.21l1.56-4.12"/>
  <g class="cls-16">
    <path d="m255.41,305.57v-3.01h.49l.59,2.13.12.45c.03-.11.07-.27.13-.48l.59-2.09h.44v3.01h-.31v-2.52l-.72,2.52h-.29l-.72-2.56v2.56h-.31Z"/>
  </g>
  <rect x="258.35" y="305.15" width=".35" height=".42"/>
  <g class="cls-33">
    <path d="m259.58,305.22h.52c.21,0,.37-.04.48-.1.11-.07.19-.18.25-.33.08-.2.12-.45.12-.73,0-.31-.04-.55-.12-.72-.08-.17-.19-.29-.32-.35-.09-.04-.23-.06-.42-.06h-.52v2.3Zm-.33.35v-3.01h.85c.21,0,.37.02.48.05.14.05.27.14.37.26.11.13.19.29.25.48.06.19.09.42.09.69,0,.34-.05.63-.15.87-.1.24-.23.41-.39.51-.16.1-.36.15-.61.15h-.89Z"/>
  </g>
  <path class="cls-39" d="m350.03,55.22h-.41m.74,16.84h-.33v-16.92h.33m-.33,16.84h-.41m.74.08v-16.92m-21.71,20.8h-3.14m10.81,0h-5.12m12.71,0h-5.03m10.73,0h-3.14m-17.83-24.01h-3.14m10.81,0h-5.12m12.71,0h-5.03m10.73,0h-3.14m3.14,20.88v3.14m0-10.73v5.03m0-12.71v5.12m0-10.73v3.05m-24.1,0v-3.05m0,10.73v-5.12m0,12.71v-5.03m0,10.73v-3.14"/>
  <g class="cls-18">
    <path d="m335.31,61.91l.7,3.06c.03.14.06.29.1.47l.1-.47.7-3.06h.42l.9,4.01h-.44l-.52-2.58c-.07-.32-.12-.61-.16-.87-.06.45-.14.93-.26,1.42l-.47,2.03h-.53l-.63-2.71-.15-.74c-.04.28-.09.55-.14.82l-.5,2.63h-.45l.88-4.01h.44Z"/>
  </g>
  <rect x="338.69" y="61.91" width=".46" height=".56"/>
  <g class="cls-42">
    <path d="m340.31,61.91v3.42l.95-3.42h.39l.96,3.36v-3.36h.42v4.01h-.59l-.79-2.79c-.08-.28-.14-.49-.18-.64l-.16.59-.78,2.84h-.65v-4.01h.42Z"/>
    <path d="m476.53,147.7h-3.72v-.84c.27-.25.52-.5.76-.73.24-.23.47-.47.7-.72.46-.5.77-.91.94-1.21.17-.3.25-.62.25-.94,0-.17-.03-.31-.08-.44-.05-.13-.12-.23-.22-.32-.09-.08-.2-.14-.33-.18-.12-.04-.26-.06-.41-.06s-.29.02-.43.05c-.15.04-.29.08-.42.14-.11.05-.22.1-.33.17-.1.07-.19.12-.25.17h-.04v-.86c.17-.08.4-.17.7-.24.3-.08.58-.12.85-.12.56,0,1,.15,1.32.45.32.3.48.7.48,1.21,0,.23-.03.45-.08.65-.05.2-.13.38-.23.55-.1.18-.22.35-.36.52-.14.17-.29.34-.44.51-.25.27-.54.56-.85.86-.31.3-.56.53-.75.7h2.96v.69Z"/>
  </g>
  <rect x="477.26" y="144.7" width="2.28" height=".73"/>
  <g class="cls-20">
    <path d="m483.48,143.15c0-.15-.02-.27-.07-.38-.05-.11-.13-.19-.23-.25-.13-.07-.27-.12-.43-.13-.16-.02-.38-.02-.66-.02h-.77v1.76h.91c.25,0,.43-.01.55-.04.12-.03.24-.08.37-.16.12-.08.21-.18.26-.31.05-.13.08-.28.08-.47m.28,2.73c0-.23-.03-.41-.1-.56-.07-.15-.2-.27-.39-.37-.13-.07-.27-.11-.42-.13-.15-.02-.36-.03-.64-.03h-.91v2.22h.65c.35,0,.63-.02.83-.05.2-.03.38-.1.53-.21.15-.1.26-.22.33-.36.07-.13.11-.31.11-.52m.83-.03c0,.3-.06.56-.17.79-.11.23-.27.42-.46.57-.23.18-.47.3-.73.38-.26.07-.59.11-1,.11h-1.73v-6.02h1.6c.43,0,.75.01.96.04.21.03.42.1.62.2.21.12.37.27.47.46.1.19.15.41.15.66,0,.28-.08.54-.23.76-.15.22-.36.4-.62.52v.03c.36.1.64.27.83.53.2.26.3.58.3.96"/>
  </g>
  <polygon points="485.4 147.7 485.4 141.68 489.16 141.68 489.16 142.39 486.2 142.39 486.2 144.04 488.96 144.04 488.96 144.75 486.2 144.75 486.2 146.99 489.16 146.99 489.16 147.7 485.4 147.7"/>
  <g class="cls-13">
    <path d="m493.96,144.69c0-.46-.08-.86-.23-1.19-.15-.33-.38-.58-.68-.77-.21-.13-.44-.22-.68-.28s-.54-.08-.91-.08h-.61v4.65h.61c.36,0,.67-.03.94-.08.27-.06.51-.16.73-.32.28-.19.49-.44.63-.75s.21-.71.21-1.18m.83.01c0,.55-.11,1.05-.33,1.49-.22.44-.52.79-.89,1.04-.31.19-.61.32-.93.38-.31.06-.71.1-1.2.1h-1.39v-6.02h1.37c.57,0,1.01.04,1.33.13.32.08.6.2.82.35.39.26.69.6.9,1.02.21.42.32.93.32,1.52"/>
  </g>
  <path class="cls-38" d="m318.61,219.48v100.2M98.06,171.37v-3.96"/>
  <line class="cls-44" x1="98.02" y1="323.8" x2="529.42" y2="323.8"/>
  <path class="cls-5" d="m529.45,328.67H93.19m436.26,1.91H91.12"/>
  <path class="cls-44" d="m97.87,6.77v317m0-317h-6.71v-1.98h6.71v1.98Z"/>
  <path class="cls-5" d="m93.12,328.6V6.73m-1.99,323.85V6.73"/>
  <line class="cls-44" x1="529.42" y1="323.92" x2="529.42" y2="330.54"/>
  <polyline class="cls-31" points="499.26 330.58 499.43 402.8 6.83 402.8 6.83 34.85 91.12 34.85"/>
  <path class="cls-5" d="m495.32,330.6l.08,68.26H10.87V38.88h80.25m406.19,291.71l.08,70.24H8.88V36.82h82.23"/>
  <g class="cls-10">
    <path d="m228.11,359.77h1.43c.37,0,.64-.02.8-.08.23-.08.4-.21.52-.39.12-.18.18-.43.18-.74,0-.29-.05-.53-.17-.72-.11-.19-.26-.32-.44-.4-.18-.07-.52-.11-1-.11h-1.32v2.43Zm0,3.71h1.64c.36,0,.63-.03.8-.1.25-.1.44-.25.57-.47.13-.22.19-.49.19-.82,0-.3-.06-.56-.19-.77-.12-.21-.29-.36-.5-.46-.21-.1-.54-.14-.99-.14h-1.53v2.76Zm-.87.95v-8.03h2.47c.5,0,.9.08,1.19.23.29.15.53.4.72.73.19.33.28.69.28,1.09,0,.37-.08.7-.24,1-.16.3-.39.53-.68.71.38.14.68.38.9.71.22.33.33.75.33,1.24s-.1.91-.3,1.28c-.2.37-.46.63-.8.8-.33.17-.79.25-1.37.25h-2.51Z"/>
    <path d="m234.57,361.13h2.24l-.68-2.22c-.21-.68-.37-1.24-.46-1.67-.09.52-.21,1.03-.36,1.53l-.73,2.35Zm-1.89,3.3l2.54-8.03h.93l2.7,8.03h-1l-.77-2.43h-2.77l-.71,2.43h-.92Z"/>
  </g>
  <polygon points="239.48 364.42 239.48 356.4 240.35 356.4 240.35 363.48 243.6 363.48 243.6 364.42 239.48 364.42"/>
  <g class="cls-26">
    <path d="m249.32,361.61l.88.27c-.19.9-.53,1.58-1.02,2.02-.48.44-1.07.67-1.77.67-.61,0-1.13-.15-1.56-.45-.43-.3-.79-.77-1.06-1.43-.27-.66-.41-1.43-.41-2.33s.14-1.63.41-2.24.65-1.07,1.12-1.39c.47-.31,1-.47,1.58-.47.64,0,1.18.2,1.64.59.46.39.78.97.96,1.74l-.85.25c-.29-1.11-.88-1.67-1.76-1.67-.44,0-.82.11-1.14.34-.32.23-.58.58-.77,1.05-.19.48-.29,1.08-.29,1.8,0,1.1.19,1.93.58,2.48.39.55.9.82,1.54.82.47,0,.88-.17,1.23-.51.35-.34.58-.85.69-1.54"/>
    <path d="m251.94,360.53c0,.99.22,1.76.65,2.3.44.55.97.82,1.59.82s1.18-.28,1.61-.83c.43-.55.65-1.36.65-2.43,0-.69-.11-1.31-.33-1.85-.17-.42-.43-.75-.77-1-.35-.25-.72-.38-1.13-.38-.66,0-1.2.27-1.62.82-.42.55-.64,1.4-.64,2.54m-.9-.01c0-1.37.3-2.42.9-3.16.6-.74,1.35-1.1,2.25-1.1.58,0,1.11.16,1.59.49.48.33.86.81,1.14,1.43.28.63.42,1.37.42,2.24,0,1.19-.27,2.16-.81,2.91-.6.83-1.37,1.24-2.34,1.24s-1.75-.42-2.34-1.27c-.54-.77-.8-1.69-.8-2.78"/>
  </g>
  <polygon points="258.42 364.42 258.42 356.4 259.31 356.4 262.77 362.71 262.77 356.4 263.61 356.4 263.61 364.42 262.71 364.42 259.26 358.11 259.26 364.42 258.42 364.42"/>
  <g class="cls-45">
    <path d="m266.93,364.42v-3.4l-2.54-4.63h1.07l1.29,2.42c.26.48.48.93.67,1.36.19-.42.43-.89.72-1.42l1.28-2.36h1.01l-2.63,4.63v3.4h-.87Z"/>
    <path d="m228.11,359.77h1.43c.37,0,.64-.02.8-.08.23-.08.4-.21.52-.39.12-.18.18-.43.18-.74,0-.29-.05-.53-.17-.72-.11-.19-.26-.32-.44-.4-.18-.07-.52-.11-1-.11h-1.32v2.43Zm0,3.71h1.64c.36,0,.63-.03.8-.1.25-.1.44-.25.57-.47.13-.22.19-.49.19-.82,0-.3-.06-.56-.19-.77-.12-.21-.29-.36-.5-.46-.21-.1-.54-.14-.99-.14h-1.53v2.76Zm-.87.95v-8.03h2.47c.5,0,.9.08,1.19.23.29.15.53.4.72.73.19.33.28.69.28,1.09,0,.37-.08.7-.24,1-.16.3-.39.53-.68.71.38.14.68.38.9.71.22.33.33.75.33,1.24s-.1.91-.3,1.28c-.2.37-.46.63-.8.8-.33.17-.79.25-1.37.25h-2.51Z"/>
    <path d="m234.57,361.13h2.24l-.68-2.22c-.21-.68-.37-1.24-.46-1.67-.09.52-.21,1.03-.36,1.53l-.73,2.35Zm-1.89,3.3l2.54-8.03h.93l2.7,8.03h-1l-.77-2.43h-2.77l-.71,2.43h-.92Z"/>
  </g>
  <polygon points="239.48 364.42 239.48 356.4 240.35 356.4 240.35 363.48 243.6 363.48 243.6 364.42 239.48 364.42"/>
  <g class="cls-21">
    <path d="m249.32,361.61l.88.27c-.19.9-.53,1.58-1.02,2.02-.48.44-1.07.67-1.77.67-.61,0-1.13-.15-1.56-.45-.43-.3-.79-.77-1.06-1.43-.27-.66-.41-1.43-.41-2.33s.14-1.63.41-2.24.65-1.07,1.12-1.39c.47-.31,1-.47,1.58-.47.64,0,1.18.2,1.64.59.46.39.78.97.96,1.74l-.85.25c-.29-1.11-.88-1.67-1.76-1.67-.44,0-.82.11-1.14.34-.32.23-.58.58-.77,1.05-.19.48-.29,1.08-.29,1.8,0,1.1.19,1.93.58,2.48.39.55.9.82,1.54.82.47,0,.88-.17,1.23-.51.35-.34.58-.85.69-1.54"/>
    <path d="m251.94,360.53c0,.99.22,1.76.65,2.3.44.55.97.82,1.59.82s1.18-.28,1.61-.83c.43-.55.65-1.36.65-2.43,0-.69-.11-1.31-.33-1.85-.17-.42-.43-.75-.77-1-.35-.25-.72-.38-1.13-.38-.66,0-1.2.27-1.62.82-.42.55-.64,1.4-.64,2.54m-.9-.01c0-1.37.3-2.42.9-3.16.6-.74,1.35-1.1,2.25-1.1.58,0,1.11.16,1.59.49.48.33.86.81,1.14,1.43.28.63.42,1.37.42,2.24,0,1.19-.27,2.16-.81,2.91-.6.83-1.37,1.24-2.34,1.24s-1.75-.42-2.34-1.27c-.54-.77-.8-1.69-.8-2.78"/>
  </g>
  <polygon points="258.42 364.42 258.42 356.4 259.31 356.4 262.77 362.71 262.77 356.4 263.61 356.4 263.61 364.42 262.71 364.42 259.26 358.11 259.26 364.42 258.42 364.42"/>
  <g class="cls-7">
    <path d="m266.93,364.42v-3.4l-2.54-4.63h1.07l1.29,2.42c.26.48.48.93.67,1.36.19-.42.43-.89.72-1.42l1.28-2.36h1.01l-2.63,4.63v3.4h-.87Z"/>
    <path d="m31.8,197.02h1.43c.37,0,.64-.02.8-.08.23-.08.4-.21.52-.39.12-.18.18-.43.18-.74,0-.29-.06-.53-.17-.72-.11-.19-.26-.32-.44-.4-.18-.07-.52-.11-1-.11h-1.32v2.43Zm0,3.71h1.64c.36,0,.63-.03.8-.1.25-.1.44-.25.57-.47.13-.22.19-.49.19-.82,0-.3-.06-.56-.19-.77-.12-.21-.29-.36-.5-.46-.21-.1-.54-.14-.99-.14h-1.53v2.76Zm-.87.95v-8.03h2.47c.5,0,.9.08,1.19.23.29.15.53.4.72.73.19.33.28.69.28,1.09,0,.37-.08.7-.24,1-.16.3-.39.53-.68.71.38.14.68.38.9.71.22.33.33.75.33,1.24s-.1.91-.3,1.28c-.2.37-.46.63-.8.8-.33.17-.79.25-1.37.25h-2.51Z"/>
    <path d="m38.26,198.38h2.24l-.68-2.22c-.21-.68-.37-1.24-.47-1.67-.08.52-.21,1.03-.36,1.53l-.73,2.35Zm-1.89,3.3l2.54-8.03h.93l2.7,8.03h-1l-.77-2.43h-2.77l-.71,2.43h-.92Z"/>
  </g>
  <polygon points="43.18 201.68 43.18 193.65 44.05 193.65 44.05 200.73 47.29 200.73 47.29 201.68 43.18 201.68"/>
  <g class="cls-27">
    <path d="m53.02,198.86l.88.27c-.19.9-.53,1.58-1.02,2.02-.48.44-1.07.67-1.77.67-.61,0-1.13-.15-1.56-.45-.43-.3-.79-.77-1.06-1.43-.28-.66-.41-1.43-.41-2.33s.14-1.63.41-2.24.65-1.07,1.12-1.39c.47-.31,1-.47,1.58-.47.64,0,1.18.2,1.64.59.46.39.78.97.96,1.74l-.85.25c-.29-1.11-.88-1.67-1.76-1.67-.44,0-.82.11-1.14.34-.32.23-.58.58-.77,1.05-.19.48-.29,1.08-.29,1.8,0,1.1.19,1.93.58,2.48.39.55.9.82,1.54.82.47,0,.88-.17,1.23-.51.34-.34.58-.85.69-1.54"/>
    <path d="m55.63,197.78c0,.99.22,1.76.65,2.3.44.55.97.82,1.59.82s1.17-.28,1.61-.83c.43-.55.65-1.36.65-2.43,0-.69-.11-1.31-.33-1.85-.17-.42-.43-.75-.78-1-.34-.25-.72-.38-1.13-.38-.66,0-1.2.27-1.62.82s-.64,1.4-.64,2.54m-.9-.01c0-1.37.3-2.42.9-3.16.6-.74,1.35-1.1,2.25-1.1.58,0,1.11.16,1.59.49.48.33.86.81,1.14,1.43.28.63.42,1.37.42,2.24,0,1.19-.27,2.16-.81,2.91-.6.83-1.37,1.24-2.34,1.24s-1.75-.42-2.34-1.27c-.54-.77-.8-1.69-.8-2.78"/>
  </g>
  <polygon points="62.11 201.68 62.11 193.65 63.01 193.65 66.47 199.96 66.47 193.65 67.3 193.65 67.3 201.68 66.41 201.68 62.95 195.36 62.95 201.68 62.11 201.68"/>
  <g class="cls-15">
    <path d="m70.63,201.68v-3.4l-2.54-4.63h1.07l1.29,2.42c.26.48.48.93.67,1.36.19-.42.43-.89.72-1.42l1.28-2.36h1.01l-2.63,4.63v3.4h-.87Z"/>
  </g>
  <path class="cls-48" d="m210.28,4.63h-112.41l112.41,20V4.63Zm-112.41,0l112.41,20h-112.41V4.63Z"/>
  <path class="cls-48" d="m113.9,283.59h-16.03l16.03,24.05v-24.05Zm-16.03,0l16.03,24.05h-16.03v-24.05Z"/>
  <path class="cls-48" d="m138.03,307.64h-40.17l40.17,16.04v-16.04Zm-40.17,0l40.17,16.04h-40.17v-16.04Z"/>
  <path class="cls-48" d="m529.49,211.43h-8.1l8.1,112.41v-112.41Zm-8.1,0l8.1,112.41h-8.1v-112.41Z"/>
  <rect class="cls-39" x="316.67" y="211.37" width="20.05" height="112.29"/>
  <path class="cls-48" d="m336.74,211.35h-20.08l20.08,112.33v-112.33Zm-20.08,0l20.08,112.33h-20.08v-112.33Z"/>
  <path class="cls-31" d="m316.73,323.78h20v-112.37h-20v112.37ZM210.39,4.77h-112.38v20.08h112.38V4.77Zm-72.22,302.91h-24.13v-24.04h-16.03v40.16h40.16v-16.11Zm383.17,16.11h8.1v-112.37h-8.1v112.37Z"/>
</svg>