<?xml version="1.0" encoding="UTF-8"?>
<svg id="Layer_1" data-name="Layer 1" xmlns="http://www.w3.org/2000/svg" xmlns:xlink="http://www.w3.org/1999/xlink" viewBox="0 0 336.57 430.95">
  <defs>
    <style>
      .cls-1 {
        clip-path: url(#clippath-64);
      }

      .cls-1, .cls-2, .cls-3, .cls-4, .cls-5, .cls-6, .cls-7, .cls-8, .cls-9, .cls-10, .cls-11, .cls-12, .cls-13, .cls-14, .cls-15, .cls-16, .cls-17, .cls-18, .cls-19, .cls-20, .cls-21, .cls-22, .cls-23, .cls-24, .cls-25, .cls-26, .cls-27, .cls-28, .cls-29, .cls-30, .cls-31, .cls-32, .cls-33, .cls-34, .cls-35, .cls-36, .cls-37, .cls-38, .cls-39, .cls-40, .cls-41, .cls-42, .cls-43, .cls-44, .cls-45, .cls-46 {
        fill: none;
      }

      .cls-47 {
        fill: #fff;
      }

      .cls-2 {
        clip-path: url(#clippath-55);
      }

      .cls-3 {
        clip-path: url(#clippath-68);
      }

      .cls-4 {
        clip-path: url(#clippath-45);
      }

      .cls-5 {
        clip-path: url(#clippath-36);
      }

      .cls-6 {
        clip-path: url(#clippath-57);
      }

      .cls-48 {
        fill: #e0e0e0;
      }

      .cls-7 {
        clip-path: url(#clippath-47);
      }

      .cls-8 {
        clip-path: url(#clippath-43);
      }

      .cls-9 {
        clip-path: url(#clippath-63);
      }

      .cls-10 {
        clip-path: url(#clippath-40);
      }

      .cls-11 {
        clip-path: url(#clippath-37);
      }

      .cls-12 {
        clip-path: url(#clippath-46);
      }

      .cls-13 {
        clip-path: url(#clippath-35);
      }

      .cls-14 {
        clip-path: url(#clippath-58);
      }

      .cls-49 {
        fill: gray;
      }

      .cls-15, .cls-26, .cls-27, .cls-30, .cls-35, .cls-38, .cls-41 {
        stroke-linecap: round;
        stroke-linejoin: round;
      }

      .cls-15, .cls-26, .cls-38, .cls-41 {
        stroke: #000;
      }

      .cls-15, .cls-30, .cls-35 {
        stroke-width: .25px;
      }

      .cls-16 {
        clip-path: url(#clippath-69);
      }

      .cls-17 {
        clip-path: url(#clippath-48);
      }

      .cls-18 {
        clip-path: url(#clippath-51);
      }

      .cls-19 {
        clip-path: url(#clippath-52);
      }

      .cls-20 {
        clip-path: url(#clippath-50);
      }

      .cls-21 {
        clip-path: url(#clippath-42);
      }

      .cls-22 {
        clip-path: url(#clippath-44);
      }

      .cls-24 {
        clip-path: url(#clippath-56);
      }

      .cls-25 {
        clip-path: url(#clippath-70);
      }

      .cls-26 {
        stroke-width: .36px;
      }

      .cls-27 {
        stroke: #757575;
        stroke-width: .24px;
      }

      .cls-28 {
        clip-path: url(#clippath-71);
      }

      .cls-29 {
        clip-path: url(#clippath-53);
      }

      .cls-30 {
        stroke: #85878a;
      }

      .cls-31 {
        clip-path: url(#clippath-66);
      }

      .cls-32 {
        clip-path: url(#clippath-61);
      }

      .cls-33 {
        clip-path: url(#clippath-54);
      }

      .cls-34 {
        clip-path: url(#clippath-38);
      }

      .cls-35 {
        stroke: gray;
      }

      .cls-36 {
        clip-path: url(#clippath-60);
      }

      .cls-37 {
        clip-path: url(#clippath-67);
      }

      .cls-38 {
        stroke-width: .72px;
      }

      .cls-39 {
        clip-path: url(#clippath-39);
      }

      .cls-40 {
        clip-path: url(#clippath-62);
      }

      .cls-41 {
        stroke-width: .48px;
      }

      .cls-42 {
        clip-path: url(#clippath-65);
      }

      .cls-43 {
        clip-path: url(#clippath-72);
      }

      .cls-44 {
        clip-path: url(#clippath-41);
      }

      .cls-45 {
        clip-path: url(#clippath-59);
      }

      .cls-46 {
        clip-path: url(#clippath-49);
      }
    </style>
    <clipPath id="clippath-35">
      <rect class="cls-23" x="-981.43" y="-215.57" width="1371.97" height="864.57"/>
    </clipPath>
    <clipPath id="clippath-36">
      <rect class="cls-23" x="-981.43" y="-215.57" width="1371.97" height="864.57"/>
    </clipPath>
    <clipPath id="clippath-37">
      <rect class="cls-23" x="-981.43" y="-215.57" width="1371.97" height="864.57"/>
    </clipPath>
    <clipPath id="clippath-38">
      <rect class="cls-23" x="-981.43" y="-215.57" width="1371.97" height="864.57"/>
    </clipPath>
    <clipPath id="clippath-39">
      <rect class="cls-23" x="-981.43" y="-215.57" width="1371.97" height="864.57"/>
    </clipPath>
    <clipPath id="clippath-40">
      <rect class="cls-23" x="-981.43" y="-215.57" width="1371.97" height="864.57"/>
    </clipPath>
    <clipPath id="clippath-41">
      <rect class="cls-23" x="-981.43" y="-215.57" width="1371.97" height="864.57"/>
    </clipPath>
    <clipPath id="clippath-42">
      <rect class="cls-23" x="-981.43" y="-215.57" width="1371.97" height="864.57"/>
    </clipPath>
    <clipPath id="clippath-43">
      <rect class="cls-23" x="-981.43" y="-215.57" width="1371.97" height="864.57"/>
    </clipPath>
    <clipPath id="clippath-44">
      <rect class="cls-23" x="-981.43" y="-215.57" width="1371.97" height="864.57"/>
    </clipPath>
    <clipPath id="clippath-45">
      <rect class="cls-23" x="-981.43" y="-215.57" width="1371.97" height="864.57"/>
    </clipPath>
    <clipPath id="clippath-46">
      <rect class="cls-23" x="-981.43" y="-215.57" width="1371.97" height="864.57"/>
    </clipPath>
    <clipPath id="clippath-47">
      <rect class="cls-23" x="-981.43" y="-215.57" width="1371.97" height="864.57"/>
    </clipPath>
    <clipPath id="clippath-48">
      <rect class="cls-23" x="-981.43" y="-215.57" width="1371.97" height="864.57"/>
    </clipPath>
    <clipPath id="clippath-49">
      <rect class="cls-23" x="-981.43" y="-215.57" width="1371.97" height="864.57"/>
    </clipPath>
    <clipPath id="clippath-50">
      <rect class="cls-23" x="-981.43" y="-215.57" width="1371.97" height="864.57"/>
    </clipPath>
    <clipPath id="clippath-51">
      <rect class="cls-23" x="-981.43" y="-215.57" width="1371.97" height="864.57"/>
    </clipPath>
    <clipPath id="clippath-52">
      <rect class="cls-23" x="-981.43" y="-215.57" width="1371.97" height="864.57"/>
    </clipPath>
    <clipPath id="clippath-53">
      <rect class="cls-23" x="-981.43" y="-215.57" width="1371.97" height="864.57"/>
    </clipPath>
    <clipPath id="clippath-54">
      <rect class="cls-23" x="-981.43" y="-215.57" width="1371.97" height="864.57"/>
    </clipPath>
    <clipPath id="clippath-55">
      <rect class="cls-23" x="-981.43" y="-215.57" width="1371.97" height="864.57"/>
    </clipPath>
    <clipPath id="clippath-56">
      <rect class="cls-23" x="-981.43" y="-215.57" width="1371.97" height="864.57"/>
    </clipPath>
    <clipPath id="clippath-57">
      <rect class="cls-23" x="-981.43" y="-215.57" width="1371.97" height="864.57"/>
    </clipPath>
    <clipPath id="clippath-58">
      <rect class="cls-23" x="-981.43" y="-215.57" width="1371.97" height="864.57"/>
    </clipPath>
    <clipPath id="clippath-59">
      <rect class="cls-23" x="-981.43" y="-215.57" width="1371.97" height="864.57"/>
    </clipPath>
    <clipPath id="clippath-60">
      <rect class="cls-23" x="-981.43" y="-215.57" width="1371.97" height="864.57"/>
    </clipPath>
    <clipPath id="clippath-61">
      <rect class="cls-23" x="-981.43" y="-215.57" width="1371.97" height="864.57"/>
    </clipPath>
    <clipPath id="clippath-62">
      <rect class="cls-23" x="-981.43" y="-215.57" width="1371.97" height="864.57"/>
    </clipPath>
    <clipPath id="clippath-63">
      <rect class="cls-23" x="-981.43" y="-215.57" width="1371.97" height="864.57"/>
    </clipPath>
    <clipPath id="clippath-64">
      <rect class="cls-23" x="-981.43" y="-215.57" width="1371.97" height="864.57"/>
    </clipPath>
    <clipPath id="clippath-65">
      <rect class="cls-23" x="-981.43" y="-215.57" width="1371.97" height="864.57"/>
    </clipPath>
    <clipPath id="clippath-66">
      <rect class="cls-23" x="-981.43" y="-215.57" width="1371.97" height="864.57"/>
    </clipPath>
    <clipPath id="clippath-67">
      <rect class="cls-23" x="-981.43" y="-215.57" width="1371.97" height="864.57"/>
    </clipPath>
    <clipPath id="clippath-68">
      <rect class="cls-23" x="-981.43" y="-215.57" width="1371.97" height="864.57"/>
    </clipPath>
    <clipPath id="clippath-69">
      <rect class="cls-23" x="-981.43" y="-215.57" width="1371.97" height="864.57"/>
    </clipPath>
    <clipPath id="clippath-70">
      <rect class="cls-23" x="-981.43" y="-215.57" width="1371.97" height="864.57"/>
    </clipPath>
    <clipPath id="clippath-71">
      <rect class="cls-23" x="-981.43" y="-215.57" width="1371.97" height="864.57"/>
    </clipPath>
    <clipPath id="clippath-72">
      <rect class="cls-23" x="-981.43" y="-215.57" width="1371.97" height="864.57"/>
    </clipPath>
  </defs>
  <path class="cls-35" d="m273.28,50.73h-7.15m7.15,2.14h-7.15m7.15,2.14h-7.15m7.15,2.14h-7.15m7.15,2.14h-7.15m7.15,2.14h-7.15m7.15,2.14h-7.15m7.15,2.14h-7.15m7.15,2.14h-7.15m7.15,2.14h-7.15m7.15,2.14h-7.15m7.15,2.14h-7.15m7.15,2.14h-7.15m7.15,2.14h-7.15m7.15,2.14h-7.15m7.15,2.14h-7.15m7.15,2.14h-7.15m7.15,2.14h-7.15m7.15,2.14h-7.15m7.15,2.14h-7.15m7.15,2.14h-7.15m7.15,2.14h-6.27m6.27,2.14h-4.13m4.13,2.14h-1.99m1.99-89.04h-.22m.22,2.14h-2.36m2.36,2.14h-4.5m4.5,2.14h-6.64m6.64,2.14h-7.15m7.15,2.14h-7.15m7.15,2.14h-7.15m7.15,2.14h-7.15m7.15,2.14h-7.15m7.15,2.14h-7.15m7.15,2.14h-7.15m7.15,2.14h-7.15m7.15,2.14h-7.15m7.15,2.14h-7.15m7.15,2.14h-7.15m7.15,2.14h-7.15m7.15,2.14h-7.15m7.15,2.14h-7.15m7.15,2.14h-7.15m7.15,2.14h-7.15m7.15,2.14h-7.15m7.15,2.14h-7.15m7.15,2.14h-7.15m7.15,2.14h-7.15m7.15,2.14h-7.15m7.15,2.14h-7.15m7.15,2.14h-7.15m7.15,2.14h-7.15m7.15,2.14h-7.15m7.15,2.14h-7.15m7.15,2.14h-7.15m7.15,2.14h-7.15m7.15,2.14h-7.15m7.15,2.14h-7.15m7.15,2.14h-7.15m7.15,2.14h-7.15m7.15,2.14h-7.15m7.15,2.14h-7.15m7.15,2.14h-7.15m7.15,2.14h-7.15m7.15,2.14h-5.53m5.53,2.14h-3.39m3.39,2.14h-1.25m.52-89.26v-.74m-2.14,2.87v-2.87m-2.14,5.01v-5.01m-2.14,7.15v-7.15m-2.14,7.15v-7.15m-2.14,7.15v-7.15m-2.14,7.15v-7.15m-2.14,7.15v-7.15m-2.14,7.15v-7.15m-2.14,7.15v-7.15m-2.14,7.15v-7.15m-2.14,7.15v-7.15m-2.14,7.15v-7.15m-2.14,7.15v-7.15m-2.14,7.15v-7.15m-2.14,7.15v-7.15m-2.14,7.15v-7.15m-2.14,7.15v-7.15m-2.14,7.15v-7.15m-2.14,7.15v-7.15m-2.14,7.15v-7.15m-2.14,7.15v-7.15m-2.14,7.15v-7.15m-2.14,7.15v-7.15m-2.14,7.15v-7.15m-2.14,7.15v-7.15m-2.14,7.15v-7.15m-2.14,7.15v-7.15m-2.14,7.15v-7.15m-2.14,7.15v-7.15m-2.14,7.15v-7.15m-2.14,7.15v-7.15m-2.14,7.15v-7.15m-2.14,7.15v-7.15m-2.14,7.15v-7.15m-2.14,7.15v-7.15m-2.14,7.15v-7.15m-2.14,7.15v-7.15m-2.14,7.15v-7.15m-2.14,7.15v-7.15m-2.14,7.15v-7.15m-2.14,7.15v-7.15m-2.14,7.15v-7.15m-2.14,7.15v-7.15m-2.14,7.15v-7.15m-2.14,7.15v-7.15m-2.14,7.15v-7.15m-2.14,7.15v-7.15m-2.14,7.15v-7.15m-2.14,7.15v-7.15m-2.14,7.15v-7.15m-2.21,7.15v-7.15m-2.14,7.15v-7.15m-2.14,7.15v-7.15m-2.14,7.15v-7.15m-2.14,7.15v-7.15m-2.14,7.15v-7.15m-2.14,7.15v-7.15m-2.14,7.15v-7.15m-2.14,7.15v-7.15m-2.14,7.15v-7.15m-2.14,7.15v-7.15m-2.14,7.15v-7.15m-2.14,7.08v-7.08m-2.14,4.94v-4.94m-2.14,2.8v-2.8m-2.14.66v-.66m140.46,1.47v-1.47m-2.14,3.61v-3.61m-2.14,5.75v-5.75m-2.14,7.15v-7.15m-2.14,7.15v-7.15m-2.14,7.15v-7.15m-2.14,7.15v-7.15m-2.14,7.15v-7.15m-2.14,7.15v-7.15m-2.14,7.15v-7.15m-2.14,7.15v-7.15m-2.14,7.15v-7.15m-2.14,7.15v-7.15m-2.14,7.15v-7.15m-2.14,7.15v-7.15m-2.14,7.15v-7.15m-2.14,7.15v-7.15m-2.14,7.15v-7.15m-2.14,7.15v-7.15m-2.14,7.15v-7.15m-2.14,7.15v-7.15m-2.14,7.15v-7.15m-2.14,7.15v-7.15m-2.14,7.15v-7.15m-2.14,7.15v-7.15m-2.14,7.15v-7.15m-2.14,7.15v-7.15m-2.14,7.15v-7.15m-2.14,7.15v-7.15m-2.14,7.15v-7.15m-2.14,7.15v-7.15m-2.14,7.15v-7.15m-2.14,7.15v-7.15m-2.14,7.15v-7.15m-2.14,7.15v-7.15m-2.14,7.15v-7.15m-2.14,7.15v-7.15m-2.14,7.15v-7.15m-2.14,7.15v-7.15m-2.14,7.15v-7.15m-2.14,7.15v-7.15m-2.14,7.15v-7.15m-2.14,7.15v-7.15m-2.14,7.15v-7.15m-2.14,7.15v-7.15m-2.14,7.15v-7.15m-2.14,7.15v-7.15m-2.14,7.15v-7.15m-2.14,7.15v-7.15m-2.14,7.15v-7.15m-2.14,7.15v-7.15m-2.14,7.15v-7.15m-2.14,7.15v-7.15m-2.14,7.15v-7.15m-2.14,7.15v-7.15m-2.14,7.15v-7.15m-2.14,7.15v-7.15m-2.14,7.15v-7.15m-2.14,7.15v-7.15m-2.14,7.15v-7.15m-2.14,7.15v-7.15m-2.14,7.15v-7.15m-2.14,7.15v-7.15m-2.14,6.41v-6.41m-2.14,4.27v-4.27m-2.14,2.14v-2.14"/>
  <path class="cls-35" d="m137.83,89.21h-7.15m7.15,2.14h-7.15m7.15,2.14h-7.15m6.27,2.14h-6.27m4.13,2.14h-4.13m1.99,2.14h-1.99m.22-89.04h-.22m2.36,2.14h-2.36m4.5,2.14h-4.5m6.64,2.14h-6.64m7.15,2.14h-7.15m7.15,2.14h-7.15m7.15,2.14h-7.15m7.15,2.14h-7.15m7.15,2.14h-7.15m7.15,2.14h-7.15m7.15,2.14h-7.15m7.15,2.14h-7.15m7.15,2.14h-7.15m7.15,2.14h-7.15m7.15,2.14h-7.15m7.15,2.14h-7.15m7.15,2.14h-7.15m7.15,2.14h-7.15m7.15,2.14h-7.15m7.15,2.14h-7.15m7.15,2.14h-7.15m7.15,2.14h-7.15m7.15,2.14h-7.15m7.15,2.14h-7.15m7.15,2.14h-7.15m7.15,2.14h-7.15m7.15,2.14h-7.15m7.15,2.14h-7.15m7.15,2.14h-7.15m7.15,2.14h-7.15m7.15,2.14h-7.15m7.15,2.14h-7.15m7.15,2.14h-7.15m7.15,2.14h-7.15m7.15,2.14h-7.15m7.15,2.14h-7.15m7.15,2.14h-7.15m7.15,2.14h-7.15m7.15,2.14h-7.15m7.15,2.14h-7.15m5.53,2.14h-5.53m3.39,2.14h-3.39m1.25,2.14h-1.25m141.86,1.25v-.74m-2.14.74v-2.88m-2.14,2.88v-5.01m-2.14,5.01v-7.15m-2.14,7.15v-7.15m-2.14,7.15v-7.15m-2.14,7.15v-7.15m-2.14,7.15v-7.15m-2.14,7.15v-7.15m-2.14,7.15v-7.15m-2.14,7.15v-7.15m-2.14,7.15v-7.15m-2.14,7.15v-7.15m-2.14,7.15v-7.15m-2.14,7.15v-7.15m-2.14,7.15v-7.15m-2.14,7.15v-7.15m-2.14,7.15v-7.15m-2.14,7.15v-7.15m-2.14,7.15v-7.15m-2.14,7.15v-7.15m-2.14,7.15v-7.15m-2.14,7.15v-7.15m-2.14,7.15v-7.15m-2.14,7.15v-7.15m-2.14,7.15v-7.15m-2.14,7.15v-7.15m-2.14,7.15v-7.15m-2.14,7.15v-7.15m-2.14,7.15v-7.15m-2.14,7.15v-7.15m-2.14,7.15v-7.15m-2.14,7.15v-7.15m-2.14,7.15v-7.15m-2.14,7.15v-7.15m-2.14,7.15v-7.15m-2.14,7.15v-7.15m-2.14,7.15v-7.15m-2.14,7.15v-7.15m-2.14,7.15v-7.15m-2.14,7.15v-7.15m-2.14,7.15v-7.15m-2.14,7.15v-7.15m-2.14,7.15v-7.15m-2.14,7.15v-7.15m-2.14,7.15v-7.15m-2.14,7.15v-7.15m-2.14,7.15v-7.15m-2.14,7.15v-7.15m-2.14,7.15v-7.15m-2.14,7.15v-7.15m-2.21,7.15v-7.15m-2.14,7.15v-7.15m-2.14,7.15v-7.15m-2.14,7.15v-7.15m-2.14,7.15v-7.15m-2.14,7.15v-7.15m-2.14,7.15v-7.15m-2.14,7.15v-7.15m-2.14,7.15v-7.15m-2.14,7.15v-7.15m-2.14,7.15v-7.15m-2.14,7.15v-7.15m-2.14,7.15v-7.08m-2.14,7.08v-4.94m-2.14,4.94v-2.8m-2.14,2.8v-.66m140.46.66v-1.48m-2.14,1.48v-3.61m-2.14,3.61v-5.75m-2.14,5.75v-7.15m-2.14,7.15v-7.15m-2.14,7.15v-7.15m-2.14,7.15v-7.15m-2.14,7.15v-7.15m-2.14,7.15v-7.15m-2.14,7.15v-7.15m-2.14,7.15v-7.15m-2.14,7.15v-7.15m-2.14,7.15v-7.15m-2.14,7.15v-7.15m-2.14,7.15v-7.15m-2.14,7.15v-7.15m-2.14,7.15v-7.15m-2.14,7.15v-7.15m-2.14,7.15v-7.15m-2.14,7.15v-7.15m-2.14,7.15v-7.15m-2.14,7.15v-7.15m-2.14,7.15v-7.15m-2.14,7.15v-7.15m-2.14,7.15v-7.15m-2.14,7.15v-7.15m-2.14,7.15v-7.15m-2.14,7.15v-7.15m-2.14,7.15v-7.15m-2.14,7.15v-7.15m-2.14,7.15v-7.15m-2.14,7.15v-7.15m-2.14,7.15v-7.15m-2.14,7.15v-7.15m-2.14,7.15v-7.15m-2.14,7.15v-7.15m-2.14,7.15v-7.15m-2.14,7.15v-7.15m-2.14,7.15v-7.15m-2.14,7.15v-7.15m-2.14,7.15v-7.15m-2.14,7.15v-7.15m-2.14,7.15v-7.15m-2.14,7.15v-7.15m-2.14,7.15v-7.15m-2.14,7.15v-7.15m-2.14,7.15v-7.15m-2.14,7.15v-7.15m-2.14,7.15v-7.15m-2.14,7.15v-7.15m-2.14,7.15v-7.15m-2.14,7.15v-7.15m-2.14,7.15v-7.15m-2.14,7.15v-7.15m-2.14,7.15v-7.15m-2.14,7.15v-7.15m-2.14,7.15v-7.15m-2.14,7.15v-7.15m-2.14,7.15v-7.15m-2.14,7.15v-7.15m-2.14,7.15v-7.15m-2.14,7.15v-7.15m-2.14,7.15v-7.15m-2.14,7.15v-6.41m-2.14,6.41v-4.28m-2.14,4.28v-2.14M273.28,12.26h-1.62m1.62,2.14h-3.76m3.76,2.14h-5.9m5.9,2.14h-7.15m7.15,2.14h-7.15m7.15,2.14h-7.15m7.15,2.14h-7.15m7.15,2.14h-7.15m7.15,2.14h-7.15m7.15,2.14h-7.15m7.15,2.14h-7.15m7.15,2.14h-7.15m7.15,2.14h-7.15m7.15,2.14h-7.15m7.15,2.14h-7.15m7.15,2.14h-7.15m7.15,2.14h-7.15m7.15,2.14h-7.15"/>
  <path class="cls-35" d="m132.28,12.26h-1.6m3.71,2.14h-3.71m5.82,2.14h-5.82m7.06,2.14h-7.06m7.06,2.14h-7.06m7.06,2.14h-7.06m7.06,2.14h-7.06m7.06,2.14h-7.06m7.06,2.14h-7.06m7.06,2.14h-7.06m7.06,2.14h-7.06m7.06,2.14h-7.06m7.06,2.14h-7.06m7.06,2.14h-7.06m7.06,2.14h-7.06m7.06,2.14h-7.06m7.06,2.14h-7.06m7.06,2.14h-7.06m7.06,2.14h-7.06m7.06,2.14h-7.06m7.06,2.14h-7.06m7.06,2.14h-7.06m7.06,2.14h-7.06m7.06,2.14h-7.06m7.06,2.14h-7.06m7.06,2.14h-7.06m7.06,2.14h-7.06m7.06,2.14h-7.06m7.06,2.14h-7.06m7.06,2.14h-7.06m7.06,2.14h-7.06m7.06,2.14h-7.06m7.06,2.14h-7.06m7.06,2.14h-7.06m7.06,2.14h-7.06m7.06,2.14h-7.06"/>
  <path class="cls-26" d="m291.09,81.38l-3.38-7.93-3.45,7.93m17.62,20.49h-28.42m28.42-7.12h-28.42m28.42-7.12h-28.42m28.42-7.05h-28.42"/>
  <g class="cls-13">
    <path class="cls-41" d="m299.95,69.78c0-1.55-1.23-2.8-2.75-2.8s-2.75,1.25-2.75,2.8,1.23,2.8,2.75,2.8,2.75-1.25,2.75-2.8m0,7.05c0-1.55-1.23-2.8-2.75-2.8s-2.75,1.25-2.75,2.8,1.23,2.8,2.75,2.8,2.75-1.25,2.75-2.8"/>
  </g>
  <path d="m297.84,77.55v-1.93l-1.34,1.93h1.34Zm0,1.51v-1.02h-1.86v-.48l1.95-2.77h.43v2.77h.58v.48h-.58v1.02h-.52Z"/>
  <g class="cls-5">
    <path d="m295.79,70.78l.55-.05c.04.27.14.47.29.61.15.14.33.2.54.2.25,0,.47-.09.64-.29.18-.19.26-.44.26-.76s-.08-.54-.25-.71c-.17-.17-.39-.26-.66-.26-.17,0-.32.04-.46.12-.14.08-.24.18-.32.3l-.49-.06.41-2.2h2.13v.5h-1.71l-.23,1.15c.26-.18.53-.27.81-.27.37,0,.69.13.95.39.26.26.39.59.39,1s-.11.72-.34,1c-.27.35-.65.52-1.12.52-.39,0-.71-.11-.95-.33-.25-.22-.39-.51-.42-.87"/>
  </g>
  <path class="cls-26" d="m287.72,73.45v31.44m14.17-31.44h-28.42"/>
  <g class="cls-11">
    <path class="cls-41" d="m299.95,84.09c0-1.55-1.23-2.8-2.75-2.8s-2.75,1.25-2.75,2.8,1.23,2.8,2.75,2.8,2.75-1.25,2.75-2.8m0,6.98c0-1.55-1.23-2.8-2.75-2.8s-2.75,1.25-2.75,2.8,1.23,2.8,2.75,2.8,2.75-1.25,2.75-2.8"/>
    <path d="m298.84,92.79v.51h-2.83c0-.13.02-.25.06-.36.07-.19.19-.38.34-.57.16-.19.39-.4.69-.65.46-.38.78-.68.94-.91.16-.22.24-.43.24-.63s-.08-.38-.22-.53c-.15-.14-.34-.21-.58-.21-.25,0-.45.08-.61.23-.15.15-.23.36-.23.63l-.54-.05c.04-.4.18-.71.42-.92.24-.21.56-.32.97-.32s.73.11.97.34c.24.23.36.51.36.85,0,.17-.03.34-.1.5-.07.17-.19.34-.35.52-.16.18-.43.43-.81.75-.32.27-.52.44-.61.54-.09.1-.16.19-.22.28h2.1Z"/>
    <path d="m295.86,85.01l.53-.07c.06.3.16.51.31.64.15.13.32.2.53.2.25,0,.46-.09.63-.26.17-.17.26-.38.26-.64,0-.24-.08-.44-.24-.6-.16-.16-.36-.23-.6-.23-.1,0-.22.02-.37.06l.06-.46s.06,0,.08,0c.22,0,.42-.06.6-.17.18-.12.27-.3.27-.54,0-.19-.06-.35-.19-.48-.13-.13-.3-.19-.51-.19s-.38.06-.51.19c-.14.13-.22.32-.26.58l-.52-.09c.06-.35.21-.62.44-.82.23-.19.51-.29.85-.29.23,0,.45.05.65.15.2.1.35.24.45.41.1.17.16.36.16.55s-.05.35-.15.51c-.1.15-.25.27-.44.36.25.06.45.18.59.36.14.18.21.41.21.69,0,.37-.14.69-.41.95-.27.26-.62.39-1.03.39-.38,0-.69-.11-.94-.34-.25-.22-.39-.51-.42-.87"/>
    <path class="cls-41" d="m299.95,98.28c0-1.52-1.23-2.75-2.75-2.75s-2.75,1.23-2.75,2.75,1.23,2.75,2.75,2.75,2.75-1.23,2.75-2.75"/>
    <path d="m298.21,100.46h-.53v-3.35c-.13.12-.29.24-.5.36-.21.12-.39.21-.55.27v-.51c.29-.14.55-.3.77-.5s.38-.39.47-.57h.34v4.3Z"/>
  </g>
  <path class="cls-26" d="m302.03,101.86h1.26v-28.42m-1.26,28.42v-29.82"/>
  <line class="cls-26" x1="137.86" y1="94.81" x2="237.55" y2="94.81"/>
  <path class="cls-15" d="m137.83,17.79h128.29v76.93h-128.29V17.79Zm7.15,7.15h113.98v62.64h-113.98V24.94Z"/>
  <rect class="cls-26" x="130.7" y="10.66" width="142.56" height="91.21"/>
  <polygon points="157.78 53.48 163.49 53.48 163.49 54.1 158.46 54.1 158.46 56.4 157.78 56.4 157.78 53.48"/>
  <g class="cls-34">
    <path d="m160.13,57.98v1.59l1.58-.49c.48-.15.88-.26,1.18-.33-.37-.06-.73-.15-1.09-.26l-1.67-.52Zm-2.34-1.34l5.71,1.8v.66l-5.71,1.92v-.71l1.73-.54v-1.97l-1.73-.51v-.65Z"/>
    <path d="m160.78,62.13v1.21c0,.38.09.66.26.84.17.18.43.26.78.26.23,0,.42-.04.58-.13s.27-.19.33-.32c.06-.12.09-.35.09-.67v-1.2h-2.04Zm-2.99-.62h5.71v1.76c0,.42-.04.72-.11.92-.1.27-.28.49-.55.65-.27.16-.6.24-.98.24-.51,0-.93-.13-1.26-.39-.32-.26-.49-.71-.49-1.36v-1.2h-2.32v-.62Z"/>
    <path d="m160.78,68.31v1.21c0,.38.09.66.26.84.17.18.43.26.78.26.23,0,.42-.04.58-.13s.27-.19.33-.32c.06-.12.09-.35.09-.67v-1.2h-2.04Zm-2.99-.62h5.71v1.76c0,.41-.04.72-.11.92-.1.27-.28.49-.55.65-.27.16-.6.24-.98.24-.51,0-.93-.13-1.26-.39-.32-.26-.49-.72-.49-1.36v-1.2h-2.32v-.62Z"/>
    <path d="m160.55,72.51c-.7,0-1.25.16-1.64.47-.39.31-.58.69-.58,1.13s.2.84.59,1.14c.39.31.97.46,1.73.46.49,0,.93-.08,1.32-.24.3-.12.53-.3.71-.55.18-.24.27-.51.27-.8,0-.47-.19-.85-.58-1.15s-.99-.45-1.81-.45m.01-.64c.97,0,1.72.21,2.24.64.52.43.78.96.78,1.6,0,.41-.12.79-.35,1.13s-.57.61-1.02.81c-.44.2-.97.3-1.59.3-.85,0-1.54-.19-2.07-.58-.59-.42-.88-.98-.88-1.66s.3-1.24.9-1.67c.54-.38,1.2-.57,1.97-.57"/>
    <path d="m160.55,77.6c-.7,0-1.25.16-1.64.47-.39.31-.58.69-.58,1.13s.2.84.59,1.14c.39.31.97.46,1.73.46.49,0,.93-.08,1.32-.24.3-.12.53-.3.71-.55.18-.24.27-.51.27-.8,0-.47-.19-.85-.58-1.15s-.99-.45-1.81-.45m.01-.64c.97,0,1.72.21,2.24.64.52.43.78.96.78,1.6,0,.41-.12.79-.35,1.13s-.57.61-1.02.81c-.44.2-.97.3-1.59.3-.85,0-1.54-.19-2.07-.58-.59-.42-.88-.98-.88-1.66s.3-1.24.9-1.67c.54-.38,1.2-.57,1.97-.57"/>
  </g>
  <polygon points="157.78 82.19 163.49 82.19 163.49 82.81 158.46 82.81 158.46 85.11 157.78 85.11 157.78 82.19"/>
  <path class="cls-35" d="m266.13,94.73l7.15,7.15m-7.15-84.1l7.15-7.15m-135.45,7.15l-7.15-7.15m7.15,84.1l-7.15,7.15m81.92-35.67l-.07-.15-.15-.22-.07-.22-.15-.15-.07-.15-.15-.22-.15-.07-.15-.15-.07-.07-.15-.15.07.15.07.07v.15l.07.15-.07.15.07.15v.07l.15.15h.22l.15.07.07.07.15.07.07.15.15.15Zm-.44.44v.22l.15.07.07.07h.22v-.22l-.15-.07-.15-.07-.07-.07-.07.07Zm2.21,4.42l.07-.07.07-.15.07-.15v-.37l-.29-.89-.15-.52v-.29l.07-.15.15-.22.07-.44.07-.52-.07-.96-.15-.96-.07-.22-.07-.15-.15-.22-.15-.22-.15-.22-.07-.22v-.44l-.07-.22-.07-.22-.07-.22-.15-.29-.96-1.4-.74-1.1-.81-.96-1.11-1.11-.96-.88-1.18-.88-1.4-.88-1.18-.74-.3-.22-.29-.15-.3-.37-.3-.29-.22-.37-.44-.96-.59-1.4-.3-.59-.29-.44-.37-.44-.22-.29-.29-.29-.15-.07-.15-.07h-.3l-.07.07v.29l.22,1.18v.74l-.07.37-.15.3-.15.29-.15.22-.22.22-.37.15-.59.15-1.33.22-1.62.22-1.7.37-1.7.44-1.99.74-1.25.52-1.92.96-.52.44-.66.44-.66.66-.52.74-.74,1.03-.15.22-.15.07-.22.15h-.44l-.37.07-.37.07-.52.22-.44.15-.37.22-.44.22-.44.29-.44.37-.22.22-.07.15-.07.07v.07h.07l.07.07.37-.15.66-.07h.22l.37.07.29.15.37.15.29.15.37.15.07-.07h.07l.22.15.15.07h.07l.15-.07h.22l.15-.07.15.07.15.07.07.15v.59l.07.07h.15l.15-.07.15-.07.22-.22.22-.22.22-.37.15-.22.07-.3.15-.44.15-.44.07-.22.07-.15.15-.07.15-.15.3-.07.37-.07.52-.07,1.47-.37.74-.22.81-.22.74-.22.89-.15.74-.07h.74l.74.07.74.15.66.22.59.22.52.22,1.47.66,1.25.66,1.33.66,1.7.74.44.29.15.15v.15l-.15.07-.37-.22-.37-.22-.15-.15h-.15l-.07.07-.07.15.07.15.07.22.15.22.3.37.29.29.37.3.37.22.52.3.66.15.59.22.52.07h.44l.44.07.59-.15h.29l.22.07h.15l.22.15.59.52.74.66.66.52.52.44.37.22.29.37.59.59.66.88.59.74.29.3.22.22.22.15.22.07h.15l.07-.15.07-.07v-.15Zm11.58-23.07l-.3-.22-.22-.22-.3-.29-.3-.22-.22-.15-.3-.22-.29-.07-.22-.07-.22-.15-.3-.07.3.15.15.15.07.07.07.29.07.22.07.15.15.15.22.07h.74l.3.15.22.15.3.15Zm-.52.88v.15l.15.15.22.07.22.07.15-.07.15-.07v-.15l-.15-.15-.22-.07-.22-.07-.22.07-.07.07Zm5.6,5.53l.07-.22.07-.22-.07-.22v-.29l-.22-.3-.89-1.18-.44-.66-.07-.22v-.22l.07-.29v-.37l-.07-.66-.22-.88-.52-1.4-.66-1.33-.29-.3-.22-.22-.29-.22-.37-.3-.22-.22-.22-.37-.29-.66-.22-.29-.15-.22-.37-.37-.37-.37-2.06-1.62-1.7-1.18-1.7-1.11-2.21-1.1-1.92-.81-2.14-.74-2.66-.66-2.06-.44-.66-.15-.44-.22-.66-.29-.52-.37-.52-.37-1.25-1.25-1.62-1.77-.74-.74-.66-.59-.66-.52-.59-.3-.52-.22-.3-.07-.29-.07-.22.07-.15.07-.07.22v.15l.07.29.96,1.55.29.66.07.52.07.66v.52l-.07.37-.15.44-.22.44-.44.44-.81.52-1.92,1.03-2.29,1.18-2.43,1.33-2.29,1.62-2.65,2.06-1.62,1.4-2.36,2.51-.66.81-.66,1.1-.66,1.33-.44,1.25-.52,1.92-.15.44-.22.22-.3.3-.59.29-.52.29-.59.29-.66.52-.52.52-.52.52-.52.59-.44.66-.52.81-.22.37-.07.22v.3h.22l.52-.37.89-.44.37-.15.66-.07h.52l.59.15.44.07h.59l.15-.07.15-.15.37.15h.22l.22-.07.15-.07.3-.15.22-.15h.44l.22.22.15.22.07.44v.15l.07.15.15.07.15-.07.15-.07.15-.15.22-.22.22-.44.15-.44.15-.59.15-.44v-1.25l-.07-.81v-.29l.07-.29.15-.15.22-.29.37-.22.52-.29.74-.44,1.99-1.25.96-.74,1.11-.74,1.11-.66,1.18-.66,1.18-.52,1.03-.37,1.18-.22,1.18-.22h2.07l.96.07,2.51.29,2.14.29,2.43.37,2.88.29.89.15.22.15.07.22-.15.22-.66-.07-.66-.22-.3-.07h-.22l-.15.15.07.22.15.22.22.29.29.29.66.44.59.22.74.3.66.15.89.07h1.03l1.03-.07.81-.07.66-.22.66-.15.96-.44.37-.22h.59l.37.07,1.18.44,1.47.59,1.25.52,1.03.29.59.3.66.37,1.18.59,1.47.88,1.25.89.52.29.52.22.44.15h.3l.22-.15.07-.15v-.44Z"/>
  <path class="cls-38" d="m301.7,423.64H75.14M324.54,15v-4.28"/>
  <g class="cls-39">
    <path class="cls-35" d="m147.03,128.68s.08.03.12.03m.18,0h-.15m.15.39c.05-.1.07-.2.07-.31m0,.35h-22.9m-.07-1.88v.29m-.07-.36h.07m-.07.36v-.29m-.07,0v.29m-.07,0v-.29m-.15,0v.29m-.07-.36h.07m-.07.36v-.29m-.07,0v.29m-.07,0v-.29m-.15,0v.29m-.07-.36h.07m-.07.36v-.29m-.07,0v.29m-.07,0v-.29m-.15,0v.29m-.07-.36h.07m-.07.36v-.29m-.07,0v.29m-.07,0v-.29m-.15,0v.29m-.07-.36h.07m-.07.36v-.29m-.07,0v.29m-.07,0v-.29m-.15,0v.29m-.07-.36h.07m-.07.36v-.29m-.07,0v.29m-.07,0v-.29m-.15,0v.29m-.07-.36h.07m-.07.36v-.29m-.07,0v.29m-.07,0v-.29m-.15,0v.29m-.07-.36h.07m-.07.36v-.29m-.07,0v.29m-.07,0v-.29m-.15,0v.29m-.07-.36h.07m-.07.36v-.29m-.07,0v.29m-.07,0v-.29m-.15,0v.29m-.07-.36h.07m-.07.36v-.29m-.07,0v.29m-.07,0v-.29m-.15,0v.29m-.07-.36h.07m-.07.36v-.29m-.07,0v.29m-.07,0v-.29m-.15,0v.29m-.07-.36h.07m-.07.36v-.29m-.07,0v.29m-.07,0v-.29m-.15,0v.29m-.07-.36h.07m-.07.36v-.29m-.07,0v.29m-.07,0v-.29m-.15,0v.29m-.07-.36h.07m-.07.36v-.29m-.07,0v.29m-.07,0v-.29m-.15,0v.29m-.07-.36h.07m-.07.36v-.29m-.07,0v.29m-.07,0v-.29m-.15,0v.29m-.07-.36h.07m-.07.36v-.29m-.07,0v.29m-.07,0v-.29m-.15,0v.29m-.07-.36h.07m-.07.36v-.29m-.07,0v.29m-.07,0v-.29m-.15,0v.29m-.07-.36h.07m-.07.36v-.29m-.07,0v.29m-.07,0v-.29m-.15,0v.29m-.07-.36h.07m-.07.36v-.29m-.07,0v.29m-.07,0v-.29m-.15,0v.29m-.07-.36h.07m-.07.36v-.29m-.07,0v.29m-.07,0v-.29m-.59-.07h7.88m-10.09,3.55l1.91-1.6m-2.14,1.59c.07.01.15,0,.2-.05m-.49.05l.37.07m-.41-.26s-.04.06-.03.1m1.62-1.5l-1.55,1.45m10.16-2.28c0-.06-.05-.11-.11-.11m.11.29v-.15m-.11.22c.06,0,.11-.05.11-.11m-6-.25c-.06,0-.11.05-.11.11m.07.18v-.15m-.07.11c0,.06.05.11.11.11m-.77-.25c0-.06-.05-.11-.11-.11m.11.29v-.15m-.11.22c.06,0,.11-.05.11-.11m-14.07-.03s-.05.04-.06.07m.29-.15l-.22.07m.48-.15c-.08,0-.17.02-.24.05m14.64-.05h5.89m-20.25,0h13.47m.88.29h5.89m-20.76,0h13.99m-15.46.14h22.75m-7.95-1.74h.07m-.1,0c-.17.11-.34.23-.48.37m8.43-.51c-2.61,0-5.22.04-7.83.13m-1.19-1.15l.59,1.52m-.61-1.72s-.06.08-.04.13m.41-.27c-.14.03-.27.08-.38.16m.47-.11s-.07-.08-.12-.07m.79,1.59l-.66-1.45m.69,1.3s-.04,0-.05.02m.03.03c-.24.14-.46.32-.65.52m-.17.08h8.76m-8.79-.07s-.06,0-.09.03m-.11.55l.15-.51m-7.8.29l5.38-.43h2.87m-8.3.4c-.43.03-.87.08-1.3.14m-.64.11l.66-.07m-3.17.07h21.13m-21.11-.07c-.1,0-.2.03-.28.07m-1.21.66l1.18-.58m-1.36.58s.08,0,.12-.03m-.23.03h.15m-.22.07h.07m-.15,0c0,.11.02.21.07.31m.08.04h22.9"/>
    <path class="cls-35" d="m171.55,244.53v-.52l12.38.52-.07.52-12.31-.52Zm12.31-6.93v.59l-12.23,1.11-.07-.59,12.31-1.11Zm-12.31,2.88v-.52l12.38.52-.07.52-12.31-.52Zm12.31,39.97h-12.31v.59h12.31v-.59Zm-12.31-44.02v-.59l12.38.52-.07.59-12.31-.52Zm12.31-2.88v.59l-12.23,1.03-.07-.52,12.31-1.11Zm0-1.33h-12.31v-.59h12.31v.59Zm0-1.92h-12.31v-.59h12.31v.59Zm-6.49-2.88v55.89m.59-55.89v55.89m7.74,0h-15.99v-55.89h15.99v55.89Zm.52.59h-17.1v-57.07h17.1v57.07Zm-87.41-149.84h51.3v-8.55h-51.3v8.55Zm25.8-6.78v.29m.07,0v-.29m.07,0v.29m.07-.37h-.07m.07.37v-.29m.15,0v.29m.07,0v-.29m.07,0v.29m.07-.37h-.07m.07.37v-.29m.15,0v.29m.07,0v-.29m.07,0v.29m.07-.37h-.07m.07.37v-.29m.15,0v.29m.07,0v-.29m.07,0v.29m.07-.37h-.07m.07.37v-.29m.15,0v.29m.07,0v-.29m.07,0v.29m.07-.37h-.07m.07.37v-.29m.15,0v.29m.07,0v-.29m.07,0v.29m.07-.37h-.07m.07.37v-.29m.15,0v.29m.07,0v-.29m.07,0v.29m.07-.37h-.07m.07.37v-.29m.15,0v.29m.07,0v-.29m.07,0v.29m.07-.37h-.07m.07.37v-.29m.15,0v.29m.07,0v-.29m.07,0v.29m.07-.37h-.07m.07.37v-.29m.15,0v.29m.07,0v-.29m.07,0v.29m.07-.37h-.07m.07.37v-.29m.15,0v.29m.07,0v-.29m.07,0v.29m.07-.37h-.07m.07.37v-.29m.15,0v.29m.07,0v-.29m.07,0v.29m.07-.37h-.07m.07.37v-.29m.15,0v.29m.07,0v-.29m.07,0v.29m.07-.37h-.07m.07.37v-.29m.15,0v.29m.07,0v-.29m.07,0v.29m.07-.37h-.07m.07.37v-.29m.15,0v.29m.07,0v-.29m.07,0v.29m.07-.37h-.07m.07.37v-.29m.15,0v.29m.07,0v-.29m.07,0v.29m.07-.37h-.07m.07.37v-.29m.15,0v.29m.07,0v-.29m.07,0v.29m.07-.37h-.07m.07.37v-.29m.15,0v.29m.07,0v-.29m.07,0v.29m.07-.37h-.07m.07.37v-.29m.15,0v.29m.07,0v-.29m.07,0v.29m.07-.37h-.07m.07.37v-.29m.15,0v.29m.07,0v-.29m.07,0v.29m.07-.37h-.07m.07.37v-.29m.52-.07h-7.81m10.02,3.61l-1.84-1.62m1.87,1.57c.06.04.13.06.2.05m.36,0l-.37.07m.37-.16s0-.07-.03-.1m-1.59-1.43l1.62,1.48m-10.13-2.43c-.06,0-.11.05-.11.11m0,.18v-.15m0,.11c0,.06.05.11.11.11m5.93-.26c0-.06-.05-.11-.11-.11m.18.3v-.15m-.18.22c.06,0,.11-.05.11-.11m.85-.26c-.06,0-.11.05-.11.11m0,.18v-.15m0,.11c0,.06.05.11.11.11m14.04-.07s-.03-.06-.06-.07m-.23-.08l.29.07m-.31-.1c-.08-.03-.16-.05-.24-.05m-14.41,0h-5.82m20.27,0h-13.49m-.96.29h-5.82m20.78,0h-14m15.4.15h-22.7m7.96-1.77h-.15m.59.38c-.15-.14-.31-.27-.49-.38m-.11,0c-2.61-.09-5.23-.14-7.84-.14m9.1-1.03l-.59,1.55m.58-1.62s0-.1-.04-.13m.02.01c-.11-.08-.24-.13-.38-.16m-.04-.02c-.05-.01-.1.02-.12.07m-.52,1.55l.59-1.47m-.72,1.34s-.03-.01-.05-.02m.74.58c-.19-.21-.41-.39-.65-.53m.89.61h-8.77m8.81-.04s-.05-.03-.09-.03m.27.59l-.15-.52m6.41.22l-6.85-.37m8.2.37c-.47-.03-.94-.05-1.41-.06m2.74.25c-.43-.07-.86-.11-1.3-.15m2.01.26l-.66-.07m3.09.07h-21.08m21.35,0c-.09-.04-.19-.07-.28-.07m1.56.74l-1.25-.59"/>
  </g>
  <path class="cls-35" d="m183.85,278.24v.52l-12.15,1.1-.07-.52,12.23-1.1Zm-12.23,2.87v-.59l12.3.51-.07.59-12.23-.52Zm12.23-6.92v.52l-12.15,1.1-.07-.52,12.23-1.1Zm-12.23,2.87v-.59l12.3.52-.07.59-12.23-.51Zm12.23-6.92v.51l-12.15,1.1-.07-.59,12.23-1.03Zm-12.23,2.87v-.59l12.3.52-.07.59-12.23-.51Zm12.23-6.99v.59l-12.15,1.1-.07-.59,12.23-1.1Zm-12.23,2.94v-.59l12.3.51-.07.59-12.23-.52Zm12.23-6.99v.59l-12.15,1.1-.07-.59,12.23-1.1Zm-12.23,2.94v-.59l12.3.51-.07.59-12.23-.52Zm12.23-6.99v.59l-12.15,1.1-.07-.59,12.23-1.1Zm-12.23,2.94v-.59l12.3.52-.07.59-12.23-.52Zm12.23-6.99v.59l-12.15,1.1-.07-.59,12.23-1.1Zm-12.23,2.94v-.59l12.3.52-.07.59-12.23-.52Zm12.23-6.99v.59l-12.15,1.1-.07-.59,12.23-1.1Zm-12.23,2.87v-.51l12.3.51-.07.59-12.23-.59Zm12.23-6.92v.59l-12.15,1.1-.07-.59,12.23-1.1Zm-12.23,2.87v-.51l12.3.51-.07.52-12.23-.52Zm12.23-6.92v.59l-12.15,1.1-.07-.59,12.23-1.1Z"/>
  <path class="cls-30" d="m186.26,292.34v-1.76m0,7.13v-3.53m0,8.9v-3.6m0,8.9v-3.53m0,8.9v-3.6m0,7.13v-1.76"/>
  <path class="cls-15" d="m159.53,316.45h26.7v.81h-26.7v-.81Zm26.7.81h2.87v.88h-2.87v-.88Zm0-27.58h2.87v.88h-2.87v-.88Z"/>
  <path class="cls-30" d="m159.9,312.77l-.15.96-.22,2.72m1.84-8.75l-.29.66-.81,2.65m3.45-8.09l-.37.51-1.25,2.43-.07.15m5-7.28l-.37.37-1.77,2.06-.15.29m6.32-6.17l-.29.22-2.13,1.69-.37.29m7.5-4.78l-.22.07-2.43,1.25-.52.29m8.23-3.23h-.07l-2.65.73-.73.29m8.82-1.54l-2.72.15-.96.15"/>
  <path class="cls-15" d="m229.11,323.83h.73v-2.71h-.73v2.71Zm24.92,0h.66v-2.71h-.66v2.71Z"/>
  <path class="cls-30" d="m250.79,321.05h3.23m-8.53,0h3.53m-8.89,0h3.6m-8.89,0h3.53m-8.52,0h3.23"/>
  <rect class="cls-15" x="229.84" y="323.92" width=".79" height="24.18"/>
  <path class="cls-30" d="m231.9,348.03l-2.06.07m7.28-1.1l-2.28.59-1.18.15m8.3-2.94l-.07.07-2.2,1.18-.88.29m7.42-4.7l-.22.29-1.98,1.54-.51.37m6.25-6.25l-.37.59-1.62,1.91-.22.29m4.7-7.5l-.37.88-1.1,2.28-.07.07m2.94-8.3l-.15,1.18-.66,2.28m1.18-7.35l-.15,2.13"/>
  <polygon points="115.68 153.51 115.68 147.8 116.3 147.8 116.3 152.83 118.6 152.83 118.6 153.51 115.68 153.51"/>
  <rect x="119.47" y="147.8" width=".62" height="5.71"/>
  <g class="cls-10">
    <path d="m122.51,153.51l-1.82-5.71h.67l1.22,4.15c.09.32.17.63.24.93.07-.31.16-.62.25-.93l1.27-4.15h.63l-1.83,5.71h-.64Z"/>
  </g>
  <rect x="125.65" y="147.8" width=".62" height="5.71"/>
  <polygon points="127.33 153.51 127.33 147.8 127.96 147.8 130.42 152.29 130.42 147.8 131.01 147.8 131.01 153.51 130.38 153.51 127.92 149.02 127.92 153.51 127.33 153.51"/>
  <g class="cls-44">
    <path d="m134.27,151.27v-.67h1.98s0,2.12,0,2.12c-.3.3-.62.52-.94.67-.32.15-.66.22-1,.22-.46,0-.86-.11-1.22-.34-.36-.23-.64-.56-.85-1-.21-.44-.31-.97-.31-1.58s.1-1.17.31-1.63c.21-.46.48-.8.83-1.02.34-.22.74-.33,1.21-.33.34,0,.64.06.9.19.26.13.47.31.63.54.17.23.29.55.37.96l-.56.19c-.08-.32-.17-.56-.28-.72-.11-.16-.26-.29-.45-.38-.19-.09-.4-.14-.63-.14-.34,0-.63.08-.88.25-.24.17-.44.42-.59.77-.15.35-.22.77-.22,1.27,0,.76.16,1.34.48,1.72.32.38.73.57,1.24.57.24,0,.49-.06.75-.18.26-.12.46-.26.61-.42v-1.06h-1.37Z"/>
  </g>
  <polygon points="261.49 256.21 261.49 250.51 262.11 250.51 262.11 253.34 264.43 250.51 265.27 250.51 263.31 252.82 265.36 256.21 264.54 256.21 262.88 253.33 262.11 254.24 262.11 256.21 261.49 256.21"/>
  <rect x="265.99" y="250.51" width=".62" height="5.71"/>
  <polygon points="268.89 256.21 268.89 251.18 267.35 251.18 267.35 250.51 271.06 250.51 271.06 251.18 269.51 251.18 269.51 256.21 268.89 256.21"/>
  <g class="cls-21">
    <path d="m275,254.21l.62.19c-.14.64-.38,1.12-.72,1.43-.34.32-.76.47-1.25.47-.43,0-.8-.11-1.11-.32-.31-.21-.56-.55-.76-1.02-.2-.47-.29-1.02-.29-1.65s.1-1.16.29-1.6c.2-.43.46-.76.8-.99.33-.22.71-.33,1.12-.33.45,0,.84.14,1.16.42.33.28.55.69.68,1.24l-.61.18c-.21-.79-.62-1.19-1.25-1.19-.31,0-.58.08-.81.24-.23.16-.41.41-.55.75-.14.34-.2.77-.2,1.28,0,.78.14,1.37.41,1.76.28.39.64.59,1.1.59.34,0,.63-.12.87-.36s.41-.6.49-1.09"/>
  </g>
  <polygon points="276.4 256.21 276.4 250.51 277.02 250.51 277.02 252.85 279.45 252.85 279.45 250.51 280.07 250.51 280.07 256.21 279.45 256.21 279.45 253.52 277.02 253.52 277.02 256.21 276.4 256.21"/>
  <polygon points="281.13 256.21 281.13 250.51 284.51 250.51 284.51 251.18 281.75 251.18 281.75 252.93 284.34 252.93 284.34 253.6 281.75 253.6 281.75 255.54 284.62 255.54 284.62 256.21 281.13 256.21"/>
  <polygon points="285.46 256.21 285.46 250.51 286.09 250.51 288.55 255 288.55 250.51 289.14 250.51 289.14 256.21 288.51 256.21 286.05 251.72 286.05 256.21 285.46 256.21"/>
  <g class="cls-8">
    <path d="m264.33,163.75h1c.4,0,.71-.07.91-.2.21-.13.37-.34.48-.63.15-.39.22-.85.22-1.39,0-.58-.08-1.03-.23-1.36-.16-.33-.36-.55-.61-.66-.17-.08-.43-.11-.79-.11h-.98v4.36Zm-.62.67v-5.71h1.61c.4,0,.7.04.91.11.27.09.51.26.71.5.2.24.35.55.47.91.11.37.17.8.17,1.3,0,.65-.09,1.2-.28,1.64-.19.45-.43.77-.73.96s-.69.28-1.17.28h-1.69Z"/>
  </g>
  <rect x="268.56" y="158.72" width=".62" height="5.71"/>
  <polygon points="270.24 164.43 270.24 158.72 270.88 158.72 273.34 163.21 273.34 158.72 273.93 158.72 273.93 164.43 273.29 164.43 270.84 159.94 270.84 164.43 270.24 164.43"/>
  <rect x="275.1" y="158.72" width=".62" height="5.71"/>
  <polygon points="276.78 164.43 276.78 158.72 277.41 158.72 279.87 163.21 279.87 158.72 280.46 158.72 280.46 164.43 279.83 164.43 277.37 159.94 277.37 164.43 276.78 164.43"/>
  <g class="cls-22">
    <path d="m283.72,162.19v-.67h1.98s0,2.12,0,2.12c-.3.3-.62.52-.94.67-.32.15-.66.22-1,.22-.46,0-.86-.11-1.22-.34-.36-.23-.64-.56-.85-1-.21-.44-.31-.97-.31-1.58s.1-1.17.31-1.63c.21-.46.48-.8.83-1.02.34-.22.74-.33,1.21-.33.34,0,.64.06.9.19.26.13.47.31.63.54.17.23.29.55.37.96l-.56.19c-.08-.32-.17-.56-.28-.72-.11-.16-.26-.29-.45-.38-.19-.09-.4-.14-.63-.14-.34,0-.63.08-.88.25-.24.17-.44.42-.59.77-.15.35-.22.77-.22,1.27,0,.76.16,1.34.48,1.72.32.38.73.57,1.25.57.24,0,.49-.06.75-.18.26-.12.46-.26.61-.42v-1.06h-1.37Z"/>
    <path d="m108.64,286.63h1.01c.27,0,.45-.02.57-.05.16-.05.29-.15.37-.27.09-.13.13-.3.13-.52,0-.21-.04-.38-.12-.51-.08-.14-.18-.23-.32-.28-.13-.05-.37-.08-.71-.08h-.94v1.72Zm0,2.64h1.17c.26,0,.45-.02.57-.07.18-.07.31-.18.4-.33.09-.15.14-.35.14-.58,0-.21-.04-.4-.13-.55-.09-.15-.21-.26-.36-.33-.15-.07-.39-.1-.7-.1h-1.08v1.96Zm-.62.67v-5.71h1.76c.35,0,.64.06.84.17s.38.28.51.52c.13.23.2.49.2.77,0,.26-.06.5-.17.71-.11.21-.28.38-.48.51.27.1.48.27.64.5.16.24.23.53.23.88s-.07.65-.21.91c-.14.26-.33.45-.57.57-.24.12-.56.18-.97.18h-1.78Z"/>
  </g>
  <polygon points="112.41 289.93 112.41 284.23 115.8 284.23 115.8 284.9 113.03 284.9 113.03 286.65 115.62 286.65 115.62 287.32 113.03 287.32 113.03 289.26 115.91 289.26 115.91 289.93 112.41 289.93"/>
  <g class="cls-4">
    <path d="m117.36,289.26h1c.4,0,.71-.07.91-.2.21-.13.37-.34.48-.63.15-.39.22-.85.22-1.39,0-.58-.08-1.03-.23-1.36-.16-.33-.36-.55-.61-.66-.17-.08-.43-.11-.79-.11h-.98v4.36Zm-.62.67v-5.71h1.61c.4,0,.7.04.91.11.27.09.51.26.71.5.2.24.36.55.47.91.11.37.17.8.17,1.31,0,.65-.09,1.19-.28,1.64-.19.45-.43.77-.73.96s-.69.28-1.17.28h-1.69Z"/>
    <path d="m123.91,286.75h1.33c.29,0,.51-.04.66-.11.15-.07.27-.18.36-.33.09-.15.13-.33.13-.52,0-.29-.08-.51-.25-.68-.17-.16-.42-.25-.75-.25h-1.48v1.89Zm-.62,3.19v-5.71h2.07c.43,0,.75.05.96.16.21.11.38.28.51.53.13.25.2.54.2.86,0,.43-.11.78-.34,1.05-.22.27-.55.44-.98.51.17.1.31.21.4.32.18.22.35.46.49.73l.82,1.55h-.78l-.62-1.19c-.24-.46-.43-.78-.55-.94-.12-.16-.24-.27-.36-.33-.12-.06-.28-.08-.48-.08h-.72v2.53h-.62Z"/>
    <path d="m128.48,287.17c0,.7.16,1.25.47,1.64.31.39.69.58,1.13.58s.84-.2,1.14-.59c.31-.39.46-.97.46-1.73,0-.49-.08-.93-.24-1.32-.12-.3-.31-.53-.55-.71-.25-.18-.51-.27-.8-.27-.47,0-.85.2-1.15.58-.3.39-.45.99-.45,1.81m-.64-.01c0-.97.21-1.72.64-2.24s.96-.78,1.6-.78c.41,0,.79.12,1.13.35.34.23.61.57.81,1.02.2.44.3.97.3,1.59,0,.85-.19,1.54-.58,2.07-.42.59-.98.88-1.66.88s-1.25-.3-1.67-.9c-.38-.54-.57-1.2-.57-1.97"/>
    <path d="m133.56,287.17c0,.7.16,1.25.47,1.64.31.39.69.58,1.13.58s.84-.2,1.14-.59c.31-.39.46-.97.46-1.73,0-.49-.08-.93-.24-1.32-.12-.3-.31-.53-.55-.71-.25-.18-.51-.27-.8-.27-.47,0-.85.2-1.15.58-.3.39-.45.99-.45,1.81m-.64-.01c0-.97.21-1.72.64-2.24s.96-.78,1.6-.78c.41,0,.79.12,1.13.35.34.23.61.57.81,1.02.2.44.3.97.3,1.59,0,.85-.19,1.54-.58,2.07-.42.59-.98.88-1.66.88s-1.24-.3-1.67-.9c-.38-.54-.57-1.2-.57-1.97"/>
    <path d="m138.17,289.93v-5.71h.93l1.11,4.04.22.85c.06-.21.14-.52.25-.92l1.12-3.97h.83v5.71h-.59v-4.77l-1.36,4.77h-.56l-1.36-4.85v4.85h-.59Z"/>
  </g>
  <rect class="cls-35" x="263.19" y="321.12" width="17.02" height="2.71"/>
  <polygon class="cls-49" points="267.41 321.74 267.41 323.32 267.95 323.32 267.95 323.53 266.67 323.53 266.67 323.32 267.2 323.32 267.2 321.74 267.41 321.74"/>
  <polygon class="cls-49" points="269.38 321.74 269.38 321.95 268.39 321.95 268.39 322.56 269.28 322.56 269.28 322.77 268.39 322.77 268.39 323.32 269.34 323.32 269.34 323.53 268.17 323.53 268.17 321.74 269.38 321.74"/>
  <polygon class="cls-49" points="270.68 321.74 270.68 321.95 269.88 321.95 269.88 323.53 269.66 323.53 269.66 321.74 270.68 321.74"/>
  <rect class="cls-49" x="270.96" y="321.74" width=".23" height=".25"/>
  <g class="cls-12">
    <path class="cls-49" d="m272.39,322.57h.37c.1,0,.18-.01.24-.03.06-.02.1-.05.13-.1.03-.05.05-.11.05-.17,0-.06-.01-.11-.03-.15-.02-.04-.05-.08-.08-.1s-.07-.04-.12-.05c-.03,0-.08,0-.15,0h-.4v.62Zm0,.76h.32c.12,0,.2,0,.24-.03.05-.02.09-.05.11-.09.03-.04.04-.1.04-.16,0-.06-.01-.12-.04-.16-.03-.04-.07-.07-.12-.09-.04-.01-.11-.02-.2-.02h-.35v.54Zm.4-1.59c.1,0,.19.01.26.03.07.02.13.05.18.09s.09.1.12.17c.03.07.05.15.05.24,0,.1-.03.19-.08.27-.05.08-.13.13-.23.16.08.04.13.1.17.16.04.07.06.14.06.22,0,.08-.02.16-.06.24-.04.08-.1.13-.17.17-.08.04-.17.05-.3.05h-.61v-1.8h.62Z"/>
    <path class="cls-49" d="m274.01,323.19c.11.12.24.17.39.17.11,0,.2-.03.29-.09.09-.06.15-.14.19-.25.05-.11.07-.24.07-.38,0-.23-.05-.41-.16-.54-.1-.13-.24-.19-.4-.19s-.29.06-.39.19-.16.3-.16.51c0,.27.05.46.16.58m-.29-1.02c.06-.14.15-.25.27-.33.12-.08.26-.12.41-.12.14,0,.27.04.39.11.12.07.21.18.28.33.07.14.1.31.1.49s-.03.34-.1.48c-.06.14-.15.25-.27.33-.12.08-.25.12-.4.12-.23,0-.41-.08-.56-.25-.14-.17-.22-.4-.22-.7,0-.16.03-.31.09-.45"/>
    <path class="cls-49" d="m275.54,321.74l.41.63s.04.07.08.13c.02-.04.05-.08.07-.12l.41-.64h.26l-.61.95.57.85h-.23l-.33-.48c-.05-.07-.09-.14-.13-.2-.03.05-.07.12-.13.22l-.29.46h-.25l.55-.86-.62-.94h.26Z"/>
  </g>
  <path class="cls-35" d="m282.6,323.83v-2.71h12.74v2.71m0,0h-12.74"/>
  <g class="cls-7">
    <path class="cls-49" d="m290.94,321.55h-.4c-.15,0-.26.01-.33.04-.09.04-.18.12-.24.24-.07.12-.1.29-.1.52,0,.16.02.3.05.41.03.11.08.2.14.27.04.05.1.08.17.11.07.03.17.04.3.04h.41v-1.64Zm-.44,1.89c-.12,0-.22-.01-.31-.04-.09-.02-.17-.06-.23-.11-.06-.05-.12-.11-.18-.19-.05-.08-.1-.19-.13-.31-.03-.12-.05-.27-.05-.43,0-.19.03-.36.08-.51.05-.15.13-.27.23-.37.08-.07.17-.12.28-.15.08-.02.19-.03.34-.03h.66v2.14h-.69Z"/>
    <path class="cls-49" d="m289.01,321.55h-.38c-.14,0-.24.01-.29.03-.06.02-.1.06-.13.11-.03.05-.04.12-.04.19,0,.08.02.14.05.19.03.05.08.08.15.11.05.02.13.02.24.02h.42v-.65Zm0,.9h-.44c-.12,0-.22.01-.28.04-.07.02-.12.07-.15.12-.04.06-.06.13-.06.21,0,.07.01.13.04.18.03.05.06.09.1.12.04.03.09.05.15.06.03,0,.09.01.17.01h.48v-.74Zm-.48.99c-.12,0-.23-.01-.31-.04-.08-.02-.16-.06-.21-.11-.06-.05-.1-.11-.14-.2-.04-.09-.06-.18-.06-.28,0-.12.03-.23.09-.32.06-.09.15-.16.27-.19-.09-.05-.16-.12-.2-.2-.04-.08-.07-.17-.07-.26,0-.1.03-.19.08-.28.05-.09.12-.16.21-.2s.21-.07.35-.07h.72v2.14h-.73Z"/>
    <path d="m117.98,350.14v-5.71h.93l1.11,4.04.22.85c.06-.21.14-.52.25-.92l1.12-3.97h.83v5.71h-.59v-4.77l-1.36,4.77h-.56l-1.36-4.85v4.85h-.59Z"/>
  </g>
  <rect x="123.54" y="349.34" width=".65" height=".8"/>
  <g class="cls-17">
    <path d="m125.86,346.83h1.01c.27,0,.45-.02.57-.05.16-.05.29-.15.37-.27.09-.13.13-.3.13-.52,0-.21-.04-.38-.12-.51-.08-.14-.18-.23-.32-.28-.13-.05-.37-.08-.71-.08h-.94v1.72Zm0,2.64h1.17c.26,0,.45-.02.57-.07.18-.07.31-.18.4-.33.09-.15.14-.35.14-.58,0-.21-.04-.4-.13-.55-.09-.15-.21-.26-.36-.33-.15-.07-.39-.1-.7-.1h-1.08v1.96Zm-.62.67v-5.71h1.76c.35,0,.64.06.84.17s.38.28.51.52c.13.23.2.49.2.77,0,.26-.06.5-.17.71-.11.21-.28.38-.48.51.27.1.48.27.64.5.16.24.23.53.23.88s-.07.65-.21.91c-.14.26-.33.45-.57.57-.24.12-.56.18-.97.18h-1.78Z"/>
  </g>
  <polygon points="129.64 350.14 129.64 344.44 133.02 344.44 133.02 345.11 130.26 345.11 130.26 346.85 132.84 346.85 132.84 347.53 130.26 347.53 130.26 349.47 133.13 349.47 133.13 350.14 129.64 350.14"/>
  <g class="cls-46">
    <path d="m134.59,349.47h1c.4,0,.71-.07.91-.2.21-.13.37-.34.48-.63.15-.39.22-.85.22-1.39,0-.58-.08-1.03-.23-1.36-.16-.33-.36-.55-.61-.66-.17-.08-.43-.11-.79-.11h-.98v4.36Zm-.62.67v-5.71h1.61c.4,0,.7.04.91.11.27.09.51.26.71.5.2.24.36.55.47.91.11.37.17.8.17,1.31,0,.65-.09,1.19-.28,1.64-.19.45-.43.77-.73.96s-.69.28-1.17.28h-1.69Z"/>
    <path d="m141.14,346.95h1.33c.29,0,.51-.04.66-.11.15-.07.27-.18.36-.33.09-.15.13-.32.13-.52,0-.29-.08-.51-.25-.68-.17-.16-.42-.25-.75-.25h-1.48v1.89Zm-.62,3.19v-5.71h2.07c.43,0,.75.05.96.16.21.11.38.28.51.53.13.25.2.54.2.86,0,.43-.11.78-.34,1.05-.22.27-.55.44-.98.51.17.1.31.21.4.32.19.22.35.46.49.73l.82,1.55h-.78l-.62-1.19c-.24-.46-.42-.78-.55-.94-.12-.16-.24-.27-.36-.33-.12-.06-.28-.08-.48-.08h-.72v2.53h-.62Z"/>
    <path d="m145.7,347.37c0,.7.16,1.25.47,1.64.31.39.69.58,1.13.58s.84-.2,1.14-.59c.31-.39.46-.97.46-1.73,0-.49-.08-.93-.24-1.32-.12-.3-.31-.53-.55-.71-.25-.18-.51-.27-.8-.27-.47,0-.85.2-1.15.58-.3.39-.45.99-.45,1.81m-.64-.01c0-.97.21-1.72.64-2.24s.96-.78,1.6-.78c.41,0,.79.12,1.13.35.34.23.61.57.81,1.02.2.44.3.97.3,1.59,0,.85-.19,1.54-.58,2.07-.42.59-.98.88-1.66.88s-1.24-.3-1.67-.9c-.38-.55-.57-1.2-.57-1.97"/>
    <path d="m150.79,347.37c0,.7.16,1.25.47,1.64.31.39.69.58,1.13.58s.84-.2,1.14-.59c.31-.39.46-.97.46-1.73,0-.49-.08-.93-.24-1.32-.12-.3-.31-.53-.55-.71-.25-.18-.51-.27-.8-.27-.47,0-.85.2-1.15.58-.3.39-.45.99-.45,1.81m-.64-.01c0-.97.21-1.72.64-2.24s.96-.78,1.6-.78c.41,0,.79.12,1.13.35.34.23.61.57.81,1.02.2.44.3.97.3,1.59,0,.85-.19,1.54-.58,2.07-.42.59-.98.88-1.66.88s-1.24-.3-1.67-.9c-.38-.55-.57-1.2-.57-1.97"/>
    <path d="m155.39,350.14v-5.71h.93l1.11,4.04.22.85c.05-.21.14-.52.25-.92l1.12-3.97h.83v5.71h-.6v-4.77l-1.36,4.77h-.56l-1.36-4.85v4.85h-.59Z"/>
  </g>
  <path class="cls-38" d="m75.14,226.98h111.13m2.87-2.8h-114.01m226.54,95.28h-4.27m-111.13,1.47h-31.32m37.07,0h-2.87m39.87,0h-8.55m76.94,0h-42.74m42.74-38.4h-74.06"/>
  <g class="cls-20">
    <path d="m244.63,299.01h-2.64v-.6c.19-.18.37-.35.54-.52.17-.17.33-.34.49-.52.33-.36.55-.64.67-.86.12-.22.18-.44.18-.67,0-.12-.02-.22-.06-.31s-.09-.17-.15-.22c-.07-.06-.14-.1-.23-.13-.09-.03-.19-.04-.29-.04s-.2.01-.31.04c-.1.03-.2.06-.3.1-.08.03-.16.07-.23.12-.07.05-.14.09-.18.12h-.03v-.61c.12-.06.28-.12.5-.17.21-.06.41-.08.6-.08.4,0,.71.11.94.32.23.21.34.5.34.86,0,.17-.02.32-.06.46-.04.14-.09.27-.16.39-.07.12-.16.25-.26.37-.1.12-.21.24-.32.36-.18.2-.38.4-.6.61-.22.21-.4.38-.53.5h2.1v.49Z"/>
  </g>
  <rect x="245.15" y="296.88" width="1.62" height=".52"/>
  <g class="cls-18">
    <path d="m249.57,295.78c0-.1-.02-.19-.05-.27-.03-.07-.09-.13-.17-.18-.09-.05-.19-.08-.31-.1-.11-.01-.27-.02-.47-.02h-.54v1.25h.65c.18,0,.31,0,.39-.03.08-.02.17-.06.26-.11.09-.06.15-.13.18-.22.04-.09.05-.2.05-.33m.2,1.94c0-.16-.02-.29-.07-.4-.05-.1-.14-.19-.28-.27-.09-.05-.19-.08-.29-.09-.11-.01-.26-.02-.45-.02h-.65v1.58h.46c.25,0,.45-.01.59-.03.14-.02.27-.07.38-.15.11-.07.19-.16.23-.25.05-.09.08-.22.08-.37m.59-.02c0,.21-.04.4-.12.56-.08.16-.19.3-.32.4-.16.13-.33.22-.52.27-.18.05-.42.08-.71.08h-1.23v-4.28h1.14c.3,0,.53,0,.69.03.15.02.3.07.44.14.15.08.27.19.34.32.07.13.11.29.11.47,0,.2-.05.38-.16.54-.11.16-.25.28-.44.37v.02c.25.07.45.19.59.38.14.18.21.41.21.68"/>
  </g>
  <polygon points="250.93 299.01 250.93 294.73 253.61 294.73 253.61 295.24 251.5 295.24 251.5 296.41 253.46 296.41 253.46 296.91 251.5 296.91 251.5 298.5 253.61 298.5 253.61 299.01 250.93 299.01"/>
  <g class="cls-19">
    <path d="m257.01,296.86c0-.33-.06-.61-.16-.84-.11-.23-.27-.42-.49-.54-.15-.09-.31-.16-.49-.2-.17-.04-.39-.06-.64-.06h-.43v3.3h.43c.25,0,.47-.02.66-.06.19-.04.36-.11.52-.22.2-.13.35-.31.45-.54.1-.22.15-.5.15-.83m.59,0c0,.39-.08.74-.24,1.06-.16.31-.37.56-.64.74-.22.14-.44.23-.66.27-.22.05-.51.07-.85.07h-.99v-4.28h.97c.4,0,.72.03.95.09.23.06.42.14.58.25.28.18.49.42.64.73.15.3.23.66.23,1.08"/>
  </g>
  <path class="cls-35" d="m229.46,261.72v.29m11.96-.51v.22h-11.96v-.22m11.89.22v.29m.07-.51h-11.96m14.67,15.34v2.2m0-7.63v3.67m0-9.02v3.6m0-7.63v2.2m-17.02,12.62v2.2m0-7.63v3.67m0-9.02v3.6m0-7.63v2.2m14.82-2.2h2.2m-7.63,0h3.59m-8.95,0h3.59m-7.63,0h2.2m0,17.02h-2.2m7.63,0h-3.59m8.95,0h-3.59m7.63,0h-2.2"/>
  <g class="cls-29">
    <path d="m234.15,272.13l2.17-.5c.1-.02.21-.05.33-.07l-.33-.07-2.17-.49v-.3l2.85-.64v.31l-1.83.37c-.23.05-.44.08-.62.11.32.04.66.1,1.01.18l1.44.33v.38l-1.93.45-.53.1c.2.03.39.06.58.1l1.87.36v.32l-2.85-.62v-.31Z"/>
  </g>
  <rect x="234.15" y="269.4" width=".4" height=".33"/>
  <g class="cls-33">
    <path d="m234.15,268.58h2.43l-2.43-.68v-.28l2.39-.68h-2.39v-.3h2.85v.42l-1.98.56c-.2.06-.35.1-.46.12l.42.11,2.02.55v.47h-2.85v-.3Z"/>
    <path class="cls-35" d="m285.93,215.5h-4.48m2.24-.59c-.3,0-.55.25-.55.55s.25.55.55.55.55-.25.55-.55-.25-.55-.55-.55m.04-1.61v4.46m-7.93,3.95v-9m-.07,8.97c0,.46.38.84.84.84m14.27.07h-14.23m14.2-.07c.47,0,.84-.38.84-.84m0-8.97v9m0-9.04c0-.46-.38-.84-.84-.84m-14.2,0h14.23m-14.27,0c-.47,0-.84.38-.84.84m-.51,9.04v-9m-.07,8.97c0,.79.64,1.43,1.43,1.43m14.27.07h-14.23m14.2-.07c.79,0,1.43-.64,1.43-1.43m0-8.97v9m0-9.04c0-.79-.64-1.43-1.43-1.43m-14.2,0h14.23m-14.27,0c-.79,0-1.43.64-1.43,1.43"/>
  </g>
  <polyline class="cls-38" points="186.12 286.7 169.28 286.7 169.28 284.1 186.12 284.1"/>
  <path class="cls-15" d="m297.49,318.15h4.27v1.4h-4.27v-1.4Zm0-31.27h4.27v1.4h-4.27v-1.4Zm0,30.09h-29.8l-.07,1.18h29.87v-1.18Z"/>
  <path class="cls-30" d="m294.26,288.51l.44-.07,2.8-.15m-8.46,1.25l.07-.07,2.72-.66.66-.07m-8.39,2.72l2.28-1.03.96-.29m-7.8,4.19l1.77-1.25,1.25-.74m-6.92,5.52l1.18-1.25,1.4-1.18m-5.81,6.69l.74-1.18,1.32-1.76m-4.56,7.65l.37-.96,1.18-2.28m-3.09,8.31l.07-.66.81-2.72v-.07m-1.54,8.46l.22-2.87.07-.37m33.77-21.99v-3.38m0,8.68v-3.53m0,8.9v-3.6m0,8.9v-3.53m0,8.9v-3.53m0,8.68v-3.38"/>
  <path class="cls-38" d="m220.56,361.13h2.87v14.17h39.81v45.46h-71.09v-59.63h2.8m103.91,59.63h-32.75"/>
  <polyline class="cls-27" points="220.51 361.62 222.79 361.62 222.79 375.84 262.73 375.84 262.73 420.26 192.58 420.26 192.58 361.62 194.87 361.62"/>
  <path class="cls-38" d="m189.14,318.2h-2.87m74.14,7.15h36.99m-76.94-1.47h2.87m-68.39,0h37.07m-116.88-96.89v-2.8m222.26,102.57v-1.4m0-4.27v-1.47m1.47,101.16v-45.61m2.8,48.48v-104.04m-112.53,101.16h-34.19"/>
  <g class="cls-2">
    <path class="cls-15" d="m281.48,174.54c.47-1.78.69-3.65.65-5.52"/>
    <path class="cls-35" d="m280.41,174.77c.36-.06.67-.37.77-.79m0-.03c.44-1.58.66-3.23.65-4.89"/>
    <path class="cls-15" d="m270.87,169.01c-.05,1.88.17,3.75.65,5.53"/>
    <path class="cls-35" d="m271.09,169.06c0,1.66.19,3.31.6,4.88"/>
    <path class="cls-15" d="m272.15,175.19c2.86.34,5.77.34,8.64,0"/>
    <path class="cls-35" d="m271.87,174.06c.11.39.43.68.81.73m-.05-.05c2.54.34,5.11.34,7.64,0"/>
    <path class="cls-15" d="m301.14,168.98c.55,0,.99-.51.99-1.14m-50.23,1.14h49.27m-50.3-1.14c0,.63.44,1.14.99,1.14m-.99-21.62v20.52m.99-21.7c-.55,0-.99.51-.99,1.14m50.3-1.07h-49.27m50.23,1.07c0-.63-.45-1.14-.99-1.14m.99,21.7v-20.52m-20.84,27.42c.11.36.29.7.52.99m-.26,1.05c.34-.21.48-.65.34-1.05m-10.79,0c-.14.39,0,.83.33,1.04m-.02-.03c3.33.69,6.75.69,10.09,0m.21-.45c.14-.13.2-.33.15-.51m-10.75-.05c.23-.29.41-.63.52-.99m-.58,1.04c-.04.19.02.38.15.51m.03.03c3.45.66,6.98.66,10.43,0m-.83-1.21c.29-.05.53-.27.62-.57m-9.94,0c.09.3.33.52.62.57"/>
  </g>
  <polygon class="cls-35" points="301.24 166.6 301.24 148.61 299.99 147.21 253.01 147.21 251.76 148.61 251.76 166.6 253.01 167.99 299.99 167.99 301.24 166.6"/>
  <g class="cls-24">
    <path class="cls-15" d="m264.36,174.54c.47-1.78.69-3.65.65-5.52"/>
    <path class="cls-35" d="m263.29,174.77c.36-.06.67-.37.77-.79m0-.03c.44-1.58.66-3.23.65-4.89"/>
    <path class="cls-15" d="m253.76,169.01c-.05,1.88.17,3.75.65,5.53"/>
    <path class="cls-35" d="m253.97,169.06c0,1.66.19,3.31.6,4.88"/>
    <path class="cls-15" d="m255.03,175.19c2.86.34,5.77.34,8.64,0"/>
    <path class="cls-35" d="m254.75,174.06c.11.39.43.68.81.73m-.05-.05c2.54.34,5.11.34,7.64,0"/>
    <path class="cls-15" d="m298.5,174.57c.54-1.79.79-3.67.74-5.56m-35.04,5.78c.11.36.29.7.52.98m-.26,1.04c.34-.21.48-.65.34-1.04m-10.79,0c-.14.38,0,.82.33,1.03m-.02-.03c3.33.68,6.75.68,10.09,0m.21-.45c.14-.13.19-.32.15-.51m-10.74-.05c.23-.29.41-.62.52-.98m-.57,1.03c-.04.19.02.38.15.51m.03.03c3.45.65,6.97.65,10.42,0m-.83-1.2c.29-.05.53-.26.62-.56m-10.01,0c.09.3.33.52.62.56"/>
    <path class="cls-35" d="m297.52,174.77c.36-.06.67-.37.77-.79m0-.03c.44-1.58.66-3.23.65-4.89"/>
    <path class="cls-15" d="m287.99,169.01c-.05,1.88.17,3.75.65,5.53"/>
    <path class="cls-35" d="m288.21,169.06c0,1.66.19,3.31.6,4.88"/>
    <path class="cls-15" d="m289.26,175.19c2.86.34,5.77.34,8.64,0"/>
    <path class="cls-35" d="m288.99,174.06c.11.39.43.68.81.73m-.05-.05c2.54.34,5.11.34,7.64,0"/>
    <path class="cls-15" d="m282.22,146.2c.05-1.9-.19-3.8-.74-5.61m16.89,34.18c.11.36.29.7.52.99m-.25,1.05c.34-.21.48-.66.34-1.05m-10.75,0c-.14.39,0,.83.33,1.04m-.02-.03c3.32.69,6.73.69,10.05,0m.21-.45c.14-.13.19-.33.15-.51m-10.71-.05c.23-.29.41-.63.52-.99m-.57,1.04c-.04.19.02.38.15.51m.03.03c3.44.66,6.95.66,10.39,0m-.83-1.21c.29-.05.53-.27.62-.57m-9.9,0c.09.3.33.52.62.57"/>
    <path class="cls-35" d="m281.18,141.15c-.11-.42-.41-.73-.77-.79m1.43,5.72c0-1.66-.21-3.31-.66-4.89"/>
    <path class="cls-15" d="m271.52,140.59c-.48,1.78-.69,3.65-.65,5.53"/>
    <path class="cls-35" d="m271.69,141.2c-.41,1.58-.61,3.22-.6,4.88"/>
    <path class="cls-15" d="m280.78,139.94c-2.86-.34-5.77-.34-8.64,0"/>
    <path class="cls-35" d="m272.68,140.34c-.38.05-.7.34-.82.73m8.41-.68c-2.54-.34-5.11-.34-7.64,0"/>
    <path class="cls-15" d="m265.1,146.12c.05-1.89-.2-3.77-.74-5.56m17.41-1.21c-.23.29-.41.62-.52.98m.6-.98c.14-.39,0-.83-.34-1.04m-10.09,0c-.33.21-.46.65-.32,1.03m10.36-1c-3.32-.68-6.73-.68-10.05,0m10.41.95c.04-.18-.02-.38-.15-.51m-10.04,1.54c-.11-.36-.29-.69-.52-.98m.1-.55c-.14.13-.19.32-.15.51m10.57-.54c-3.44-.65-6.95-.65-10.39,0m10.18,1.76c-.09-.3-.33-.52-.62-.56m-8.66,0c-.29.05-.53.26-.62.56"/>
    <path class="cls-35" d="m264.06,141.15c-.11-.42-.41-.73-.77-.79m1.43,5.72c0-1.66-.21-3.31-.66-4.89"/>
    <path class="cls-15" d="m254.4,140.59c-.48,1.78-.69,3.65-.65,5.53"/>
    <path class="cls-35" d="m254.57,141.2c-.41,1.58-.61,3.22-.6,4.88"/>
    <path class="cls-15" d="m263.66,139.94c-2.86-.34-5.77-.34-8.64,0"/>
    <path class="cls-35" d="m255.57,140.34c-.38.05-.7.34-.82.73m8.41-.68c-2.54-.34-5.11-.34-7.64,0"/>
    <path class="cls-15" d="m299.25,146.12c.05-1.89-.2-3.77-.74-5.56m-33.78-1.21c-.23.29-.41.62-.52.98m.61-.98c.14-.39,0-.83-.34-1.04m-10.12,0c-.33.21-.46.65-.33,1.03m10.39-1c-3.33-.68-6.75-.68-10.09,0m10.45.95c.04-.18-.02-.38-.15-.51m-10.07,1.54c-.11-.36-.29-.69-.52-.98m.1-.55c-.14.13-.19.32-.15.51m10.61-.54c-3.45-.65-6.97-.65-10.42,0m10.22,1.76c-.09-.3-.33-.52-.62-.56m-8.76,0c-.29.05-.53.26-.62.56"/>
    <path class="cls-35" d="m298.3,141.15c-.11-.42-.41-.73-.77-.79m1.43,5.72c0-1.66-.21-3.31-.66-4.89"/>
    <path class="cls-15" d="m288.64,140.59c-.48,1.78-.69,3.65-.65,5.53"/>
    <path class="cls-35" d="m288.81,141.2c-.41,1.58-.61,3.22-.6,4.88"/>
    <path class="cls-15" d="m297.9,139.94c-2.86-.34-5.77-.34-8.64,0"/>
    <path class="cls-35" d="m289.8,140.34c-.38.05-.7.34-.82.73m8.41-.68c-2.54-.34-5.11-.34-7.64,0"/>
    <path class="cls-15" d="m298.89,139.32c-.23.28-.4.61-.52.96m.6-.96c.14-.38,0-.82-.34-1.02m-10.05,0c-.33.2-.46.63-.33,1m10.32-.97c-3.31-.67-6.71-.67-10.02,0m10.38.93c.04-.18-.02-.37-.15-.5m-10,1.5c-.11-.35-.29-.68-.52-.96m.1-.54c-.14.13-.19.32-.15.5m10.54-.53c-3.43-.64-6.93-.64-10.35,0m10.15,1.72c-.09-.29-.33-.5-.62-.55m-8.63,0c-.29.05-.52.26-.62.55"/>
    <path class="cls-35" d="m114.98,159.38h18.86v19.08h-18.86v-19.08Zm21.14,46.24c0-.75-.61-1.36-1.36-1.36m-1.55,0c-.75,0-1.36.61-1.36,1.36m3.39-1.36v-.22m0-.04c0-.75-.61-1.36-1.36-1.36m.92,1.62h-1.55m-29.91,1.36c0-.75-.61-1.36-1.36-1.36m-.66-1.62c-.75,0-1.36.61-1.36,1.36m.07.26v-.22m.44.22h1.55m-1.58,0c-.75,0-1.36.61-1.36,1.36m2.28-2.91h32.56m.11,19.38c.75,0,1.36-.61,1.36-1.36m-.63-3.35c.75,0,1.36-.61,1.36-1.36m-4.27,0c0,.75.61,1.36,1.36,1.36m2.17,3.39v-3.46m-35.43,3.43c0,.75.61,1.36,1.36,1.36m.66-4.71c.75,0,1.36-.61,1.36-1.36m-4.27,0c0,.75.61,1.36,1.36,1.36m-.41,0v3.39m0-1.99h35.36m-35.36-1.4h34.77m-33.44,4.71h32.7m-30.64-16.43v10.39m-4.27,0v-10.39m18.49-2.95v14.66m18.49-1.33v-10.39m-4.27,0v10.39m-31.82-11.79v.07m-2.87-50.07c0-.75-.61-1.36-1.36-1.36m0,4.27c.75,0,1.36-.61,1.36-1.36m0-1.95h.22m1.33,1.29c0-.75-.61-1.36-1.36-1.36m-.18.52v1.55m0,31.2c0-.75-.61-1.36-1.36-1.36m1.55,3.39c.75,0,1.36-.61,1.36-1.36m-1.55,1.36h.22m-.22-.44v-1.55m-1.36,2.87c.75,0,1.36-.61,1.36-1.36m1.62-.85v-32.57m-18.08-1.55c-.75,0-1.36.61-1.36,1.36m6-2.1c-.75,0-1.36.61-1.36,1.36m0,1.55c0,.75.61,1.36,1.36,1.36m-4.6-3.46h3.39m-4.79,34c0,.75.61,1.36,1.36,1.36m4.64-3.39c-.75,0-1.36.61-1.36,1.36m0,1.55c0,.75.61,1.36,1.36,1.36m-1.29-.88h-3.31m1.99,0v-35.37m1.33,35.37v-34.78m-4.71,33.45v-32.71m16.5,30.65h-10.46m0,4.27h10.46m2.95-18.49h-14.73m1.33-18.57h10.46m0,4.27h-10.46m11.79,31.9h-.07"/>
  </g>
  <path class="cls-38" d="m189.14,289.69h-2.87m2.87,71.25v59.83m-2.87-102.57v2.87m0-34.19v2.8m0-62.7v57.03m2.87,34.19v2.87m0-96.89v65.5m-114,131.08v2.87h226.54m-72.66-102.57v2.8m25.65-2.8v2.8"/>
  <path class="cls-30" d="m217.8,323.85h1.84m-7.13,0h3.53m-8.9,0h3.53m-8.82,0h3.53m-8.9,0h3.53m-7.13,0h1.84"/>
  <path class="cls-15" d="m219.64,350.68h-.88v-26.77h.88v26.77Zm.81-26.77h-.81v-2.8h.81v2.8Zm-27.57,0h-.81v-2.8h.81v2.8Z"/>
  <path class="cls-30" d="m193.17,327.6l-.15-.88-.15-2.79m1.54,8.82l-.29-.73-.66-2.65m3.23,8.23l-.37-.51-1.25-2.5v-.15m4.78,7.43l-.37-.37-1.69-2.13-.15-.29m6.1,6.4l-.22-.22-2.13-1.77-.37-.37m7.28,5.07l-.15-.07-2.43-1.32-.51-.37m8.16,3.53h-.07l-2.57-.81-.73-.29m8.75,1.84l-2.72-.22-.96-.22"/>
  <path class="cls-38" d="m320.28,279.78v-7.12h4.27m2.87,7.12h-4.34v-4.26h4.34m-98.23,45.43v2.79m25.61-2.79v2.79"/>
  <g class="cls-6">
    <path class="cls-35" d="m119.78,409.06l23.65-20.2m-20.41,26.46c-.01.39.14.76.41,1.04.27.28.64.43,1.03.43m-23.39-1.25c0,.39.14.76.41,1.04.27.28.64.43,1.03.43m21.92-10.02h14.37m-37.72,2.06l.15.96.3.89.44.88.52.81m15.62,3.02l-.07-.81-.07-.44-.07-.44-.22-.59-.22-.59-.22-.66-.37-.74m23.36-3.1v.96l-.07.96-.15.44-.22.44-.3.44-.29.37m1.02-3.67c-.08-.72-.7-1.27-1.43-1.27m4.68,13.93v-11.42h11.42v11.42m-57.1,0v-11.42m-11.42,11.42h57.1m-45.68-21.67h17.39m3.17,9.88l-.07.81-.15.81-.37.74-.52.66m-2.14-31.32l.15,28.3m-17.46,0h22.03m17.61-28.3h-22.32m9.32,26.17c-.39,0-.76.15-1.03.43-.27.27-.42.65-.41,1.03m-20.41,8.71h14.15m6.26-8.7l.15,1.1.29,1.03.44.88.59.96m15.62,3.02l-.07-.81-.07-.44-.07-.52-.22-.52-.22-.66-.22-.66-.37-.74m4.64-22.19l-6.04-8.11m-12.89,36.04h14.15m-21.99.22c.38,0,.75-.15,1.02-.43.27-.27.42-.64.41-1.03m20.52,1.24c.38,0,.75-.15,1.02-.43.27-.27.42-.64.41-1.03m-42.29-51.46h45.68v56.97h-45.68v-56.97Zm0,45.55h-11.42m36.77,5.97l.07-.96.15-.96.3-.88.44-.81m-22.92,3.83l.07-.96.15-.89.3-.88.44-.88m-15.77-2.58v11.42m68.52,0h-11.42m-9.28-87.85h-14.81v.74h14.81v-.74Zm-27.48-.52h27.93v10.02h-27.93v-10.02Zm5.73,15.23s-.07.11-.05.17m7.66,0c.01-.06-.01-.12-.06-.17m-7.51.01c2.45.8,5.1.8,7.55,0m-.7,0c.26-.09.51-.2.76-.31m-.42.43c-2.26-.42-4.58-.42-6.84,0m-.47-.02c-.22.17-.32.47-.24.74m8.22,0c.04-.26-.05-.53-.24-.72m-7.89.72c2.63.86,5.47.86,8.1,0m-7.87-.7c2.48.81,5.16.81,7.64,0m-8.06-5.36l.44,4.94m8.03-4.94l-.37,4.94m-7.71-.04c.25.12.5.22.76.31"/>
    <path class="cls-26" d="m115.02,382.02c.72,0,1.3-.58,1.3-1.3s-.58-1.29-1.3-1.29-1.3.58-1.3,1.29.58,1.3,1.3,1.3"/>
  </g>
  <rect class="cls-38" x="75.14" y="318.33" width="79.63" height="13.96"/>
  <g class="cls-14">
    <path class="cls-35" d="m119.78,238.76l23.65,20.2m-18.97-28.01c-.39,0-.76.16-1.03.43-.27.28-.42.65-.41,1.04m-20.52-1.77c-.39,0-.76.16-1.03.43-.27.28-.42.65-.41,1.04m23.36,8.7h14.37m-37.73-2.06l.15-.96.29-.96.44-.81.52-.81m15.62-3.1l-.07.81-.07.44-.07.52-.22.52-.22.66-.22.66-.37.74m23.36,3.1v-.96l-.07-1.03-.15-.44-.22-.44-.3-.37-.3-.37m-.4,4.86c.73,0,1.34-.55,1.43-1.27m3.25-12.66v11.42h11.42v-11.42m-57.1,0v11.42m-11.42-11.42h57.1m-45.68,21.67h17.39m3.17-9.8l-.07-.88-.15-.81-.37-.74-.52-.66m-2.14,31.33l.15-28.23m-17.46,0h22.03m17.61,28.23h-22.33m7.88-27.63c0,.39.14.76.41,1.03.27.28.64.43,1.03.43m-21.85-10.1h14.15m6.26,8.7l.15-1.11.3-1.03.44-.96.59-.88m15.62-3.02l-.07.81-.07.44-.07.52-.22.52-.22.59-.22.66-.37.74m4.64,22.26l-6.04,8.03m-12.89-35.97h14.15m-20.56,1.09c0-.38-.14-.76-.41-1.03-.27-.27-.64-.43-1.02-.43m23.39,1.75c0-.39-.14-.76-.41-1.03-.27-.27-.64-.43-1.02-.43m-40.86,52.99h45.68v-57.05h-45.68v57.05Zm0-45.62h-11.42m36.77-5.9l.07.96.15.88.29.89.44.88m-22.91-3.83l.07.89.15.96.3.89.44.88m-15.77,2.51v-11.42m68.52,0h-11.42m-9.28,90.73h-14.81v-.74h14.81v.74Zm-27.48.52h27.92v-9.95h-27.92v9.95Zm5.68-15.47c-.01.06,0,.12.05.17m7.55,0s.07-.11.05-.17m-.02.23c-2.45-.8-5.1-.8-7.55,0m7.62.25c-.25-.12-.51-.22-.76-.32m-6.5-.11c2.26.42,4.58.42,6.84,0m-7.56-.72c-.08.27.02.57.24.74m7.74-.03c.19-.19.28-.46.24-.72m-.03.07c-2.63-.86-5.47-.86-8.1,0m7.87.7c-2.48-.81-5.16-.81-7.64,0m-.42,5.43l.44-5.01m8.03,5.01l-.37-5.01m-6.95-.35c-.26.09-.51.2-.76.31"/>
    <path class="cls-26" d="m115.02,265.65c-.72,0-1.3.58-1.3,1.3s.58,1.29,1.3,1.29,1.3-.58,1.3-1.29-.58-1.3-1.3-1.3"/>
  </g>
  <path class="cls-47" d="m247.06,361.87v9.96l-20.29-9.96h20.29Zm0,9.96l-20.29-9.96v9.96h20.29Z"/>
  <path class="cls-35" d="m226.82,361.92h20.19v9.86h-20.19v-9.86Zm19.02.36l1.17,1.17m-.44,1.61l.44.36m-2.2-2.12l1.25,1.24m-2.64-2.63l.88.88m1.25,3.21l1.32,1.24m-3.01-3l1.25,1.32m-3.01-3l1.25,1.24m-1.91-1.9l.15.15m4.77,6.72l.66.66m-2.42-2.41l1.25,1.24m-3.01-3l1.25,1.24m-3.01-2.99l1.25,1.24m-2.94-2.85l1.18,1.1m4.77,6.8l1.25,1.24m-3.01-3l1.25,1.24m-3.01-3l1.25,1.24m-3.01-3l1.25,1.24m-3.01-3l1.25,1.24m-2.13-2.12l.44.36m6.46,8.48l1.03,1.02m-2.79-2.78l1.32,1.24m-3.01-3l1.25,1.32m-3.01-3l1.25,1.24m-3.01-3l1.25,1.24m-3.01-3l1.25,1.24m4.77,6.72l1.25,1.24m-3.01-3l1.25,1.24m-3.01-3l1.25,1.24m-3.01-3l1.25,1.24m-3.01-3l1.25,1.24m-2.42-2.34l.66.66m6.54,8.48l.73.73m-2.5-2.48l1.25,1.24m-3.01-3l1.25,1.24m-3.01-3l1.25,1.24m-3.01-3l1.32,1.24m-3.01-3l1.25,1.24m4.77,6.72l1.25,1.31m-3.01-3l1.25,1.24m-3.01-3l1.25,1.24m-3.01-3l1.25,1.24m-3.01-3l1.25,1.24m-2.64-2.63l.88.88m6.54,8.48l.51.51m-2.28-2.27l1.25,1.24m-3.01-3l1.25,1.24m-3.01-3l1.25,1.24m-3.01-3l1.25,1.32m-3.01-3l1.25,1.24m-1.91-1.9l.15.15m6.54,8.48l1.25,1.24m-3.01-3l1.25,1.24m-3.01-3l1.32,1.24m-3.08-3l1.32,1.24m-3.01-2.99l1.25,1.24m4.77,6.79l.22.22m-1.98-1.97l1.25,1.24m-3.01-3l1.25,1.24m-3.01-3l1.25,1.24m-2.2-2.19l.44.44m3.01,4.97l1.03,1.02m-2.79-2.78l1.25,1.24m-2.94-2.85l1.18,1.17m-.51,1.46l1.25,1.24m-1.91-1.9l.22.15m-.22,1.83l.44.44m19.17-9.86l.59.51m-2.57-.51l2.57,2.56m-4.63-2.56l4.63,4.53m-6.61-4.53l6.61,6.5m-8.59-6.5l8.59,8.55m-10.65-8.55l9.99,9.86m-11.97-9.86l9.91,9.86m-11.9-9.86l9.91,9.86m-11.97-9.86l9.99,9.86m-11.97-9.86l9.91,9.86m-11.46-9.43l9.47,9.43m-9.47-7.38l7.49,7.38m-7.49-5.41l5.43,5.41m-5.43-3.43l3.45,3.43m-3.45-1.39l1.47,1.39m-1.47,0h20.19v-9.86h-20.19v9.86Z"/>
  <path class="cls-47" d="m230.24,357.74v12.25l.37-12.69-.37.44Zm0,12.25l.37-12.69.07,13.13-.44-.44Zm.37-12.69l.07,13.13,12.25-13.21-12.32.07Zm.07,13.13l12.25-13.21v13.21h-12.25Zm12.25-13.21v13.21l.37-12.76-.37-.44Zm0,13.21l.37-12.76.07,12.32-.44.44Z"/>
  <g class="cls-45">
    <path class="cls-35" d="m252.15,369.95l-1.25-1.25m3.02,3.01l-1.33-1.25m-2.58-3.67l-.74-.66m2.5,2.42l-1.32-1.25m3.02,3.01l-1.25-1.25m2.72,2.72l-.96-.95m-2.65-3.67l-1.03-1.03m2.8,2.79l-1.25-1.25m3.02,3.01l-1.25-1.25m2.36,2.35l-.59-.59m-2.65-3.67l-1.25-1.25m3.02,3.01l-1.25-1.25m3.02,3.01l-1.25-1.25m1.99,1.98l-.22-.22m-4.42-5.36l-.07-.07m1.84,1.84l-1.25-1.32m3.02,3.01l-1.25-1.25m3.02,3.01l-1.25-1.25m-2.65-3.6l-.44-.44m2.21,2.2l-1.25-1.25m3.02,3.01l-1.25-1.32m2.94,3.01l-1.18-1.25m-2.65-3.6l-.88-.81m2.65,2.57l-1.32-1.25m3.09,3.01l-1.33-1.25m2.65,2.57l-.88-.81m-2.65-3.67l-1.18-1.18m2.94,2.94l-1.25-1.25m3.02,3.01l-1.25-1.25m2.21,2.2l-.44-.44m-2.65-3.67l-1.25-1.25m3.02,3.01l-1.25-1.25m3.02,3.01l-1.25-1.25m1.84,1.84l-.07-.07m-4.42-5.43l-.22-.15m1.99,1.91l-1.25-1.25m3.02,3.01l-1.25-1.25m3.02,3.01l-1.25-1.25m-2.65-3.67l-.59-.52m2.36,2.28l-1.25-1.25m3.02,3.01l-1.25-1.25m2.8,2.86l-1.03-1.1m-2.65-3.6l-.96-.96m2.72,2.64l-1.25-1.25m3.02,3.01l-1.32-1.25m2.5,2.5l-.74-.73m-2.58-3.6l-1.32-1.25m3.02,3.01l-1.25-1.25m3.02,3.01l-1.25-1.32m2.14,2.13l-.37-.37m-2.65-3.6l-1.25-1.25m3.02,3.01l-1.25-1.25m3.02,3.01l-1.25-1.25m-2.65-3.67l-.29-.29m2.06,2.06l-1.25-1.25m3.02,3.01l-1.25-1.25m3.02,3.01l-1.25-1.25m-2.65-3.67l-.74-.66m2.5,2.42l-1.25-1.25m3.02,3.01l-1.25-1.25m2.72,2.72l-.96-.95m-2.65-3.67l-1.1-1.03m2.87,2.79l-1.25-1.25m3.02,3.01l-1.25-1.25m2.36,2.35l-.66-.59m-2.58-3.67l-1.32-1.25m3.09,3.01l-1.33-1.25m3.02,3.01l-1.25-1.25m1.99,1.98l-.22-.22m-4.42-5.36v-.07m1.77,1.84l-1.25-1.32m3.02,3.01l-1.25-1.25m3.02,3.01l-1.25-1.25m-2.65-3.6l-.44-.44m2.21,2.2l-1.25-1.25m3.02,3.01l-1.25-1.32m2.58,2.57l-.81-.81m-2.65-3.6l-.81-.81m2.58,2.57l-1.25-1.25m2.94,2.94l-1.18-1.17m-.88-1.91l-1.18-1.18m2.95,2.94l-1.25-1.25m.88-.15l-1.25-1.25m1.91,1.91l-.22-.15m-.81-1.91l-.22-.15m1.25,1.25l-.59-.59m.59-.44l-.22-.22m-9.79-1.51c0-.18-.15-.33-.33-.33s-.33.15-.33.33.15.33.33.33.33-.15.33-.33m-5.01,0c0-.18-.15-.33-.33-.33s-.33.15-.33.33.15.33.33.33.33-.15.33-.33m1.56-7.06c-.62.42-.98,1.13-.97,1.88m1.69-1.91h-.74m1.69,1.91c.01-.75-.35-1.46-.97-1.88m.05,2.97c.55-.08.94-.55.92-1.1m-1.77,1.11h.88m-1.84-1.11c-.03.55.37,1.03.92,1.1m3.87-7.04v9.18m-.07-9.22c0-.06-.05-.11-.11-.11m-5.93,0h5.96m-6,0c-.06,0-.11.05-.11.11m6.26,9.22h-6.26v-9.18m6.85,0v9.77m-.07-9.8c0-.38-.31-.7-.7-.7m-5.93,0h5.96m-6,0c-.39,0-.7.31-.7.7m7.44,9.8h-7.36v-9.77m8.76-.73v13.36m0-13.4c0-.79-.64-1.43-1.44-1.43m-7.32.07h7.36m-7.4-.07c-.79,0-1.44.64-1.44,1.43m10.23,13.4h-10.23v-13.36m-11.78,4.48l-12.29.07m12.66.33c0-.11-.04-.21-.12-.29-.08-.08-.18-.12-.29-.12m.48,12.7l-.07-12.26m-.4,12.63c.22,0,.4-.18.4-.4m-12.59.48h12.22m-12.66-.48c0,.22.18.4.41.4m-.41-12.56v12.19m.33-12.63c-.22,0-.4.18-.4.4m6.63,6.57v-.81m5.45-5.14h-10.97v8.59h10.97v-8.59Zm-5.45,10.5v.37m.29-.62c0-.18-.15-.33-.33-.33s-.33.15-.33.33.15.33.33.33.33-.15.33-.33m-.29-.11v-.37m-.22.51h-.29m1.03,0h-.29m-.22-3.3v.81m.44-1.36c0-.26-.21-.48-.48-.48s-.48.21-.48.48.21.48.48.48.48-.21.48-.48m.37,0c0-.47-.38-.85-.85-.85s-.85.38-.85.85.38.84.85.84.85-.38.85-.84m-1.33.04h-.81m2.58,0h-.74m5.96-7.12l.07,12.26-.44.44h-12.22l-.44-.44v-12.19l.37-.44,12.29-.07.37.44Z"/>
    <path class="cls-35" d="m252.18,359.63h-2.87v2.78h2.87v-2.78Zm-1.43,2.78c.79,0,1.43-.64,1.43-1.43s-.64-1.43-1.43-1.43-1.43.64-1.43,1.43.64,1.43,1.43,1.43m21.94,3.73h-25.58v5.64h25.58v-5.64Zm-25.29,5.05l-.29-.29m.88.88l-.07-.07m.81-.15l-1.25-1.24m.88-.15l-1.25-1.24m2.87,2.86l-1.1-1.1m-.88-1.9l-.88-.88m2.65,2.64l-1.25-1.24m2.5,2.49l-.73-.73m-2.65-3.59l-.51-.58m2.28,2.34l-1.25-1.24m3.01,3l-1.25-1.32m2.06,2.12l-.29-.37m-2.65-3.59l-1.25-1.24m3.01,3l-1.25-1.24m3.01,3l-1.25-1.24m-2.65-3.66l-.37-.29m2.13,2.05l-1.25-1.24"/>
  </g>
  <path class="cls-47" d="m258.5,368.15h2.8l-2.8,1.7v-1.7Zm2.8,0l-2.8,1.7h2.8v-1.7Z"/>
  <g class="cls-36">
    <path class="cls-35" d="m252.56,365.15v-.15m-.95.15h-1.03m1.98,0h-.29m-.66-.15h-1.03m1.98,0h-.29m-.66,1.16h.66v-1.45h-.66v1.45Zm16.82-1.82l.22-.22.29-.22.29-.15.44-.07.37.07.22.07.15.14.07.22.07.22-.15.44-.29.36-.15.07-.22.07h-.51l-.07.07v.07l-.07.29-.07.36m-.44-1.45l.37-.44.22-.22.29-.07h.37l.29.07.15.22v.36l-.22.29-.22.14h-.66l-.15.14-.15.22-.07.73m-.99-.8c.39,0,.7-.31.7-.69s-.31-.69-.7-.69-.7.31-.7.69.31.69.7.69m.55-.15v.94h-.96v-.94m-6.61,3.67c0-.14-.11-.25-.26-.25s-.26.11-.26.25.11.26.26.26.26-.11.26-.26m-.88,0c0-.3-.25-.54-.55-.54s-.55.24-.55.54.25.55.55.55.55-.24.55-.55m-1.4.91h2.79v-1.67h-2.79v1.67Zm0-1.67h2.79v1.67h-2.79v-1.67Z"/>
  </g>
  <path class="cls-48" d="m273.18,371.83h.52l-.52-18.82v18.82Zm0-18.82l.52,18.82.07-18.82h-.59Z"/>
  <path class="cls-35" d="m274.09,371.79v-41.59m-1.31,41.59v-41.59m.89,41.59h-.48v-18.77h.55l-.07,18.77Z"/>
  <g class="cls-32">
    <path d="m248.16,347.35h1.01c.27,0,.45-.02.57-.05.16-.05.29-.15.37-.27.09-.13.13-.3.13-.52,0-.21-.04-.38-.12-.51-.08-.14-.18-.23-.32-.28-.13-.05-.37-.08-.71-.08h-.94v1.73Zm0,2.64h1.17c.26,0,.45-.02.57-.07.18-.07.31-.18.4-.33.09-.15.14-.35.14-.58,0-.21-.04-.4-.13-.55-.09-.15-.21-.26-.36-.33-.15-.07-.39-.1-.7-.1h-1.08v1.96Zm-.62.67v-5.71h1.76c.36,0,.64.06.84.17s.38.28.51.52c.13.23.2.49.2.77,0,.26-.06.5-.17.71-.11.21-.28.38-.48.51.27.1.48.27.64.5.16.24.23.53.23.88s-.07.65-.21.91c-.14.26-.33.45-.57.57-.24.12-.56.18-.97.18h-1.78Z"/>
    <path d="m252.76,348.32h1.59l-.49-1.58c-.15-.49-.26-.88-.33-1.18-.06.37-.15.73-.26,1.09l-.52,1.67Zm-1.34,2.34l1.8-5.71h.66l1.92,5.71h-.71l-.54-1.73h-1.97l-.51,1.73h-.65Z"/>
  </g>
  <polygon points="257.49 350.66 257.49 345.63 255.94 345.63 255.94 344.95 259.65 344.95 259.65 345.63 258.1 345.63 258.1 350.66 257.49 350.66"/>
  <polygon points="260.28 350.66 260.28 344.95 260.9 344.95 260.9 347.3 263.33 347.3 263.33 344.95 263.95 344.95 263.95 350.66 263.33 350.66 263.33 347.97 260.9 347.97 260.9 350.66 260.28 350.66"/>
  <path class="cls-38" d="m226.39,258.27h-2.87m2.87-28.52h-2.87m0,94.02v34.19m0-99.7v24.24m0-78.4v25.64m101.03,42.74v-125.34m-98.16,111.12v21.37h93.89m-93.89-75.53v25.64m75.35,52.76v4.27h-4.27v-4.27"/>
  <g class="cls-40">
    <path class="cls-35" d="m306.66,242.37h.29m-.52.66h.22v-.66h-.22m.22.59h.29m-.52.07v-.66m.22,2.87h.29m-.52.66h.22v-.66h-.22m.22.59h.29m-.52.07v-.66m.22,2.95h.29m-.52.59h.22v-.66h-.22m.22.59h.29m-.52.07v-.66m9.5-3.5c0-.55-.44-.99-.99-.99s-.99.44-.99.99.45.99.99.99.99-.44.99-.99m.22,0c0-.67-.54-1.21-1.21-1.21s-1.22.54-1.22,1.21.55,1.21,1.22,1.21,1.21-.54,1.21-1.21m.95-2.36c-1.22-1.12-3.1-1.12-4.33,0m4.12.21c-1.11-1.01-2.8-1.01-3.91,0m0,4.31c1.11,1.01,2.8,1.01,3.91,0m-4.12.21c1.23,1.12,3.1,1.12,4.33,0m-4.53-4.52c-1.12,1.22-1.12,3.1,0,4.32m.21-4.12c-1.01,1.11-1.01,2.8,0,3.91m.35-.3l-.96.96m1.18-.74l-.88.96m.63-1.19c.06.07.13.14.2.2m-1.14.74c.07.07.13.14.2.2m.99-4.58l-.88-.96m.66,1.18l-.96-.96m.18-.24c-.07.07-.14.13-.2.2m1.14.74c-.07.06-.14.13-.2.2m4.21,3.8c1.12-1.22,1.12-3.1,0-4.32m-.21,4.11c1.01-1.11,1.01-2.8,0-3.91m-.42,3.83l.88.96m-.66-1.18l.81.96m-.18.17c.07-.07.14-.13.2-.2m-1.14-.74c.07-.06.14-.13.2-.2m.11-3.22l.81-.96m-1.03.74l.88-.96m.17.18c-.07-.07-.13-.14-.2-.2m-.74,1.14c-.06-.07-.13-.14-.2-.2m-9.85-2.83v-2.06m17.31-6.26v25.62m-17.09,0v-25.62m11.8,6.39c.89.81,2.24.81,3.13,0m-2.98-.16c.8.73,2.02.73,2.82,0m-2.55-.19l-.74.66m.52-.81l-.66.66m3.39-.66l.66.66m-.81-.52l.66.66m-9.58-1.73c0-.47-.38-.85-.85-.85s-.85.38-.85.85.38.85.85.85.85-.38.85-.85m.22,0c0-.59-.48-1.07-1.07-1.07s-1.07.48-1.07,1.07.48,1.07,1.07,1.07,1.07-.48,1.07-1.07m-2.9-1.66c-.85.94-.85,2.37,0,3.31m-.16-3.47c-.94,1.03-.94,2.6,0,3.63m3.81-.16c.85-.94.85-2.37,0-3.31m.16,3.47c.94-1.03.94-2.6,0-3.63m-1.02,16.83c-.8-.73-2.02-.73-2.82,0m2.98-.16c-.89-.81-2.24-.81-3.13,0m0,3.42c.89.81,2.24.81,3.13,0m-2.98-.16c.8.73,2.02.73,2.82,0m-.49-1.55c0-.51-.41-.92-.92-.92s-.92.41-.92.92.41.92.92.92.92-.41.92-.92m-2.29-14.58c1.03.94,2.6.94,3.63,0m-3.47-.16c.94.85,2.37.85,3.32,0m-6.48,18.83h17.09m-17.31-3.31v-2.36m5.3,1.58c0-.39-.31-.7-.7-.7s-.7.31-.7.7.31.7.7.7.7-.31.7-.7m-2.26-1.41c-.72.8-.72,2.02,0,2.82m-.16-2.97c-.81.89-.81,2.24,0,3.13m-3.19-.2v-.66m.22.59h.29m-.52-.59h.22v.66h-.22m.22-.59h.29m0,2.72h-.22v-2.21m2.58.59c.05.05.1.1.15.15m.53-.82c.05.05.09.1.15.15m-.02.09l-.66.59m.52-.74l-.59.66m-2.65-4.05v-10.53m-.07,10.53h.29m-.52.59h.22v-.66h-.22m.22.59h.29m-.52.07v-.66m.22-11.04h.29m-.52.66h.22v-.74h-.22m.22.66h.29m-.52.07v-.74m3.7,11.95c-.05.05-.1.09-.15.15m-.53-.83c-.05.05-.1.1-.15.15m.66.74l-.59-.74m.74.52l-.66-.59m-.03-12.44c.06.06.11.12.17.17m.61-.95c.05.06.11.12.17.17m.04.09l-.81.74m.59-.96l-.74.81m10.98,13.81c0-.55-.45-.99-.99-.99s-.99.44-.99.99.45.99.99.99.99-.44.99-.99m.22,0c0-.67-.55-1.21-1.22-1.21s-1.21.54-1.21,1.21.54,1.21,1.21,1.21,1.22-.54,1.22-1.21m.95-2.36c-1.23-1.12-3.1-1.12-4.33,0m4.12.21c-1.11-1.01-2.8-1.01-3.91,0m0,4.31c1.11,1.01,2.8,1.01,3.91,0m-4.12.21c1.22,1.12,3.1,1.12,4.33,0m-8.71-.44c.72-.8.72-2.02,0-2.82m.16,2.98c.81-.89.81-2.24,0-3.13m4.03-1.11c-1.12,1.22-1.12,3.1,0,4.32m.21-4.12c-1.01,1.11-1.01,2.8,0,3.91m-4.75-.09c.05-.05.1-.1.15-.15m.53.82c.05-.05.1-.1.15-.15m-.59-.59l.59.66m-.81-.52l.66.59m4.35-.88l-.88.96m1.1-.74l-.88.96m.7-1.19c.06.07.13.14.2.2m-1.14.74c.07.07.13.14.2.2m-4.18-3.47c-.05-.05-.09-.1-.15-.15m.82-.53c-.05-.05-.1-.1-.15-.15m-.66.66l.66-.59m-.44.81l.59-.74m-.19-13.12c.06-.05.12-.11.17-.17m.61.95c.06-.05.12-.11.17-.17m-.77-.74l.81.81m-.96-.59l.74.74m4.35-.81c.05.05.1.1.15.15m-.66,12.52l-.88-.88m.66,1.1l-.88-.96m.18-.24c-.07.07-.14.13-.2.2m1.14.74c-.07.06-.14.13-.2.2m4.21,3.8c1.12-1.22,1.12-3.1,0-4.32m-.21,4.12c1.01-1.11,1.01-2.8,0-3.91m-.5,3.83l.88.96m-.66-1.18l.88.96m-.18.17c.07-.07.14-.13.2-.2m-1.14-.74c.07-.06.14-.13.2-.2m.92-15.96c.05-.05.1-.1.15-.15m-1.03,12.89l.88-.96m-1.11.74l.88-.88m.24.11c-.06-.07-.13-.14-.2-.2m-.74,1.14c-.06-.07-.13-.14-.2-.2m-7.65-16.04c-.94-.85-2.38-.85-3.32,0m3.47-.16c-1.03-.94-2.6-.94-3.63,0m-3.01-2.99h17.09m-17.31,5.74v-2.36m-.07,2.87h.29m-.52-.59h.22v.66h-.22m.22-.59h.29m-.52-.07v.66m.52-5.74h-.22v2.21-2.21m-.3,2.21v.66m.22-.66h.29m-.52.66h.22v-.66h-.22m.22.59h.29m3.43.02c-.06.05-.12.11-.17.17m-.61-.95c-.06.05-.12.11-.17.17m.77.82l-.74-.74m.96.59l-.81-.81m12.28.31c-.89-.81-2.24-.81-3.13,0m.2.5l-.66-.66m.88.52l-.74-.66m-5.1.92c-.05-.06-.11-.12-.17-.17m.95-.61c-.06-.06-.11-.12-.17-.17m-.6.99l.81-.74m-.96.59l.74-.81m4.49,0c-.05.05-.1.1-.15.15m.47.47c-.73.8-.73,2.02,0,2.82m-.16-2.97c-.81.89-.81,2.24,0,3.13m3.74-3.44c-.05-.05-.1-.1-.15-.15m-.52.81l.66-.66m-.47,3.29c.73-.8.73-2.02,0-2.82m.16,2.97c.81-.89.81-2.24,0-3.13m-.3,0c-.8-.72-2.02-.72-2.82,0m.21.21c-.05.05-.1.1-.15.15m2.69,0c-.05-.05-.1-.1-.15-.15m.01-.01l.66-.66m-1.18,2.03c0-.39-.31-.7-.7-.7s-.7.31-.7.7.31.7.7.7.7-.31.7-.7m-2.05,1.2c.05.05.1.1.15.15m2.4,0c.05-.05.1-.1.15-.15m-.43-1.2c0-.51-.41-.92-.92-.92s-.92.41-.92.92.41.92.92.92.92-.41.92-.92m-35.73,24.7h.44v-.74h-.44v.74Zm-18.86,18.04h20.18v-17.08h-20.18v17.08Zm-.15-17.45h20.18v-.59h-20.18v.59Zm.15,15.02h20.18m-18.93,1.84h17.6v-1.25h-17.6v1.25Z"/>
  </g>
  <path class="cls-38" d="m307.7,124v-4.52h12.56m-12.56,4.52h12.56"/>
  <g class="cls-9">
    <path class="cls-35" d="m181.49,205.67c0-.75-.61-1.36-1.36-1.36m-1.55,0c-.75,0-1.36.61-1.36,1.36m3.38-1.36v-.22m0-.04c0-.75-.61-1.36-1.36-1.36m.92,1.61h-1.55m-29.88,1.36c0-.75-.61-1.36-1.36-1.36m-.66-1.61c-.75,0-1.36.61-1.36,1.36m.07.26v-.22m.44.22h1.55m-1.58,0c-.75,0-1.36.61-1.36,1.36m2.28-2.9h32.53m.11,19.31c.75,0,1.36-.61,1.36-1.36m-.63-3.34c.75,0,1.36-.61,1.36-1.36m-4.27,0c0,.75.61,1.36,1.36,1.36m2.17,3.38v-3.45m-35.4,3.41c0,.75.61,1.36,1.36,1.36m.66-4.7c.75,0,1.36-.61,1.36-1.36m-4.27,0c0,.75.61,1.36,1.36,1.36m-.4,0v3.38m0-1.98h35.32m-35.32-1.4h34.74m-33.41,4.7h32.68m-30.62-16.37v10.35m-4.27,0v-10.35m18.47-2.94v14.61m18.54-1.32v-10.35m-4.27,0v10.35m-31.87-11.75v.07"/>
  </g>
  <path class="cls-38" d="m254.69,324.01h2.87v5.72h39.83v42.56h-71.12v-48.29h2.8m-39.83,36.91h-17.08m126.71,14.16h-32.76"/>
  <polyline class="cls-27" points="254.74 324.51 257.03 324.51 257.03 330.18 296.97 330.18 296.97 371.79 226.82 371.79 226.82 324.51 229.1 324.51"/>
  <path class="cls-38" d="m266.03,375.29v45.47m-71.14-62.51h-22.73v2.87m51.2-2.87h-2.87"/>
  <path class="cls-15" d="m194.87,360.94h.73v-2.78h-.73v2.78Zm24.92,0h.66v-2.78h-.66v2.78Z"/>
  <path class="cls-30" d="m216.55,358.08h3.23m-8.53,0h3.53m-8.89,0h3.6m-8.89,0h3.53m-8.52,0h3.23"/>
  <rect class="cls-15" x="195.61" y="361.04" width=".79" height="24.18"/>
  <path class="cls-30" d="m197.67,385.07l-2.06.15m7.28-1.18l-2.28.66-1.18.15m8.3-2.94l-.07.07-2.2,1.1-.88.37m7.42-4.7l-.22.22-1.98,1.62-.51.37m6.25-6.25l-.37.52-1.62,1.98-.22.29m4.7-7.5l-.37.88-1.1,2.2-.07.15m2.94-8.3l-.15,1.1-.66,2.35m1.18-7.35l-.15,2.13"/>
  <path class="cls-38" d="m220.36,321.21v2.78m-28.2-2.78v2.78m2.78,34v2.86m25.43-2.86v2.86m-25.43-2.86v2.86m25.43-2.86v2.86"/>
  <path class="cls-35" d="m186.67,416.36l.07.59-12.25,1.1v-.59l12.18-1.11Zm-12.18,2.95v-.59l12.25.51v.59l-12.25-.52Zm12.18-7l.07.59-12.25,1.1v-.59l12.18-1.1Zm-12.18,2.95v-.59l12.25.52v.59l-12.25-.52Zm12.18-7l.07.59-12.25,1.1v-.59l12.18-1.1Zm-12.18,2.87v-.52l12.25.52v.59l-12.25-.59Zm12.18-6.92l.07.59-12.25,1.1v-.59l12.18-1.1Zm-12.18,2.87v-.51l12.25.51v.52l-12.25-.52Zm12.18-6.92l.07.59-12.25,1.1v-.59l12.18-1.1Zm-12.18,2.87v-.52l12.25.52v.52l-12.25-.52Zm12.18-6.93l.07.59-12.25,1.11v-.59l12.18-1.1Zm-12.18,2.87v-.51l12.25.51v.52l-12.25-.52Zm12.18-6.92l.07.59-12.25,1.03v-.51l12.18-1.11Zm-12.18,2.87v-.59l12.25.52v.59l-12.25-.51Zm12.18-6.93l.07.52-12.25,1.1v-.52l12.18-1.11Zm-12.18,2.87v-.59l12.25.51v.59l-12.25-.52Zm12.18-6.92l.07.52-12.25,1.1v-.51l12.18-1.11Zm-12.18,2.87v-.59l12.25.52v.59l-12.25-.52Zm12.18-6.92l.07.52-12.25,1.1v-.52l12.18-1.11Zm-12.18,2.87v-.59l12.25.52v.59l-12.25-.52Zm12.18-6.93l.07.52-12.25,1.1v-.59l12.18-1.03Zm-12.18,2.87v-.59l12.25.52v.59l-12.25-.52Zm12.18-7l.07.59-12.25,1.1v-.59l12.18-1.11Zm-12.18,2.95v-.59l12.25.52v.59l-12.25-.51Zm12.25,42.8h-12.33v.52h12.33v-.52Zm-12.25-46.85v-.59l12.25.52v.59l-12.25-.52Zm12.18-2.95l.07.59-12.25,1.1v-.59l12.18-1.11Zm.07-1.33h-12.33v-.52h12.33v.52Zm0-1.92h-12.33v-.52h12.33v.52Zm-6.46-2.8v58.64m.59-58.64v58.64m7.63,0h-15.85v-58.64h15.85v58.64Zm.59.59h-17.02v-59.82h17.02v59.82Z"/>
  <g class="cls-1">
    <path d="m215.85,393.98h1.01c.27,0,.45-.02.57-.05.16-.05.28-.15.37-.27.09-.13.13-.3.13-.52,0-.2-.04-.38-.12-.51-.08-.14-.18-.23-.32-.28-.13-.05-.37-.08-.71-.08h-.94v1.72Zm0,2.64h1.17c.26,0,.45-.02.57-.07.18-.07.31-.18.4-.33.09-.15.14-.35.14-.58,0-.21-.04-.4-.13-.55-.09-.15-.21-.26-.36-.33-.15-.07-.39-.1-.7-.1h-1.08v1.96Zm-.62.67v-5.71h1.76c.36,0,.64.05.85.17.21.11.38.28.51.51.13.23.2.49.2.77,0,.26-.06.5-.17.71-.11.21-.28.38-.48.51.27.1.48.27.64.5.16.24.23.53.23.88s-.07.65-.21.91-.33.45-.57.57c-.24.12-.56.18-.97.18h-1.78Z"/>
    <path d="m220.44,394.95h1.59l-.49-1.58c-.15-.48-.26-.88-.33-1.18-.06.37-.15.73-.26,1.09l-.52,1.67Zm-1.34,2.34l1.8-5.71h.66l1.92,5.71h-.71l-.54-1.73h-1.97l-.51,1.73h-.65Z"/>
  </g>
  <polygon points="225.17 397.29 225.17 392.26 223.63 392.26 223.63 391.58 227.34 391.58 227.34 392.26 225.79 392.26 225.79 397.29 225.17 397.29"/>
  <polygon points="227.96 397.29 227.96 391.58 228.58 391.58 228.58 393.93 231.01 393.93 231.01 391.58 231.63 391.58 231.63 397.29 231.01 397.29 231.01 394.6 228.58 394.6 228.58 397.29 227.96 397.29"/>
  <polyline class="cls-38" points="297.39 326.61 260.63 326.61 260.63 325.49"/>
  <path class="cls-15" d="m297.34,418.64l1.62,2.21m-4.78-6.63l2.13,2.95m-5.3-7.36l2.13,2.94m-5.3-7.36l2.13,2.94m-5.3-7.29l2.13,2.95m-5.3-7.36l2.13,2.95m-5.3-7.36l2.13,2.94m-5.3-7.36l2.13,2.95m-5.3-7.36l2.13,2.95m-5.3-7.29l2.13,2.87m-4.78-6.63l1.62,2.28m29.5,0l1.62-2.28m-4.78,6.63l2.13-2.87m-5.3,7.29l2.13-2.95m-5.3,7.36l2.13-2.95m-5.3,7.36l2.13-2.94m-5.3,7.36l2.13-2.95m-5.3,7.36l2.13-2.95m-5.3,7.29l2.13-2.94m-5.3,7.36l2.13-2.94m-5.3,7.36l2.13-2.95m-4.78,6.63l1.62-2.21"/>
  <path class="cls-35" d="m277.95,368.18h17.02v2.09h-17.02v-2.09Zm8.07,3.18v-1.95m-.59,1.95v-1.95m1.17,2.17v.22h-1.76v-.22m0,0h1.76l-.59-.22h-.59m-.59.22l.59-.22m-.59-3.9h1.76m-1.76.36h1.76m0-.36v.36l-.44.87v.72h-.88v-.72l-.44-.87v-.36m1.32,1.23h-.88"/>
  <path class="cls-47" d="m212.83,410.35v9.96l-20.29-9.96h20.29Zm0,9.96l-20.29-9.96v9.96h20.29Z"/>
  <path class="cls-35" d="m192.58,410.4h20.19v9.87h-20.19v-9.87Zm19.02.44l1.17,1.1m-.44,1.61l.44.44m-2.2-2.19l1.25,1.24m-2.64-2.63l.88.88m1.25,3.29l1.32,1.24m-3.01-3l1.25,1.24m-3.01-3l1.25,1.24m-1.91-1.9l.15.15m4.77,6.72l.66.66m-2.42-2.41l1.25,1.32m-3.01-3l1.25,1.24m-3.01-3l1.25,1.24m-2.94-2.92l1.17,1.17m4.77,6.72l1.25,1.24m-3.01-3l1.25,1.24m-3.01-3l1.25,1.24m-3.01-3l1.25,1.24m-3.01-3l1.25,1.24m-2.13-2.12l.44.44m6.46,8.48l1.03.95m-2.79-2.7l1.32,1.24m-3.01-3l1.25,1.24m-3.01-3l1.25,1.24m-3.01-3l1.25,1.24m-3.01-3l1.25,1.24m4.77,6.72l1.25,1.32m-3.01-3l1.25,1.24m-3.01-3l1.25,1.24m-3.01-3l1.25,1.24m-3.01-3l1.25,1.24m-2.42-2.41l.66.66m6.53,8.48l.73.73m-2.5-2.49l1.25,1.24m-3.01-3l1.25,1.24m-3.01-3l1.25,1.24m-3.01-3l1.25,1.32m-3.01-2.99l1.32,1.24m4.77,6.72l1.25,1.24m-3.01-2.99l1.25,1.24m-3.01-3l1.25,1.24m-3.01-3l1.25,1.24m-3.01-3l1.25,1.24m-2.64-2.63l.88.88m6.53,8.55l.51.44m-2.28-2.19l1.25,1.24m-3.01-3l1.25,1.24m-3.01-3l1.25,1.24m-3.01-3l1.25,1.24m-3.01-3l1.25,1.24m-1.91-1.9l.15.15m6.54,8.48l1.25,1.24m-3.01-3l1.25,1.24m-3.01-3l1.25,1.32m-3.01-3l1.32,1.24m-3.01-3l1.25,1.24m4.77,6.72l.22.22m-1.98-1.97l1.25,1.24m-3.01-3l1.25,1.24m-3.01-3l1.25,1.24m-2.2-2.12l.44.37m3.01,5.04l1.03.95m-2.79-2.7l1.25,1.24m-2.94-2.92l1.17,1.17m-.51,1.46l1.25,1.32m-1.91-1.97l.22.22m-.22,1.83l.44.37m19.17-9.87l.59.59m-2.57-.59l2.57,2.56m-4.63-2.56l4.63,4.53m-6.61-4.53l6.61,6.58m-8.59-6.58l8.59,8.55m-10.65-8.55l9.99,9.87m-11.97-9.87l9.91,9.87m-11.9-9.87l9.91,9.87m-11.97-9.87l9.99,9.87m-11.97-9.87l9.91,9.87m-11.46-9.35l9.47,9.35m-9.47-7.38l7.49,7.38m-7.49-5.41l5.43,5.41m-5.43-3.36l3.45,3.36m-3.45-1.39l1.47,1.39m-1.47,0h20.19v-9.87h-20.19v9.87Z"/>
  <path class="cls-47" d="m196,406.22v12.25l.37-12.69-.37.44Zm0,12.25l.37-12.69.07,13.13-.44-.44Zm.37-12.69l.07,13.13,12.25-13.13h-12.32Zm.07,13.13l12.25-13.13v13.13h-12.25Zm12.25-13.13v13.13l.37-12.69-.37-.44Zm0,13.13l.37-12.69.07,12.25-.44.44Z"/>
  <g class="cls-42">
    <path class="cls-35" d="m217.92,418.43l-1.25-1.25m3.02,3.01l-1.33-1.25m-2.58-3.6l-.74-.73m2.43,2.42l-1.25-1.25m3.02,3.01l-1.25-1.25m2.72,2.72l-.96-.96m-2.65-3.6l-1.03-1.1m2.8,2.86l-1.25-1.25m3.02,3.01l-1.25-1.32m2.36,2.35l-.59-.59m-2.65-3.6l-1.25-1.25m3.02,3.01l-1.25-1.25m3.02,3.01l-1.25-1.25m1.99,1.91l-.22-.22m-4.42-5.36l-.07-.07m1.84,1.84l-1.25-1.25m3.02,3.01l-1.25-1.25m3.02,3.01l-1.25-1.25m-2.65-3.67l-.44-.44m2.21,2.2l-1.25-1.25m3.02,3.01l-1.25-1.25m2.94,2.94l-1.18-1.18m-2.65-3.67l-.88-.81m2.65,2.57l-1.32-1.25m3.02,3.01l-1.25-1.25m2.65,2.57l-.88-.81m-2.65-3.67l-1.18-1.18m2.94,2.94l-1.25-1.25m3.02,3.01l-1.25-1.25m2.21,2.2l-.44-.44m-2.65-3.6l-1.25-1.32m3.02,3.01l-1.25-1.25m3.02,3.01l-1.25-1.25m1.84,1.84l-.07-.07m-4.42-5.36l-.22-.22m1.99,1.98l-1.25-1.25m3.02,3.01l-1.25-1.32m3.02,3.01l-1.25-1.25m-2.65-3.6l-.59-.59m2.36,2.35l-1.25-1.25m3.02,3.01l-1.25-1.25m2.8,2.79l-1.03-1.03m-2.65-3.67l-.96-.96m2.72,2.72l-1.25-1.25m3.02,3.01l-1.32-1.25m2.5,2.42l-.74-.66m-2.65-3.67l-1.25-1.25m3.02,3.01l-1.25-1.25m3.02,3.01l-1.25-1.25m2.14,2.06l-.37-.29m-2.65-3.67l-1.25-1.25m3.02,3.01l-1.25-1.25m3.02,3.01l-1.25-1.25m-2.65-3.67l-.29-.29m2.06,2.06l-1.25-1.25m3.02,3.01l-1.25-1.25m3.02,3.01l-1.25-1.25m-2.65-3.6l-.74-.73m2.5,2.42l-1.25-1.25m3.02,3.01l-1.25-1.25m2.72,2.72l-.96-.96m-2.65-3.6l-1.1-1.1m2.87,2.86l-1.25-1.25m3.02,3.01l-1.25-1.32m2.28,2.35l-.59-.59m-2.58-3.6l-1.33-1.25m3.02,3.01l-1.25-1.25m3.02,3.01l-1.25-1.25m1.99,1.91l-.22-.22m-4.42-5.36l-.07-.07m1.84,1.84l-1.25-1.25m3.02,3.01l-1.25-1.25m3.02,3.01l-1.25-1.25m-2.65-3.67l-.44-.44m2.21,2.2l-1.25-1.25m3.02,3.01l-1.25-1.25m2.58,2.57l-.81-.81m-2.65-3.67l-.81-.81m2.58,2.57l-1.25-1.25m2.94,2.94l-1.18-1.18m-.88-1.91l-1.25-1.18m3.02,2.94l-1.25-1.25m.88-.07l-1.25-1.32m1.91,1.98l-.22-.22m-.88-1.84l-.15-.22m1.25,1.25l-.59-.51m.59-.51l-.22-.22m-9.79-1.43c0-.18-.15-.33-.33-.33s-.33.15-.33.33.15.33.33.33.33-.15.33-.33m-5.08,0c0-.18-.15-.33-.33-.33s-.33.15-.33.33.15.33.33.33.33-.15.33-.33m1.63-7.13c-.62.43-.98,1.13-.97,1.88m1.69-1.84h-.74m1.62,1.84c.01-.75-.35-1.46-.97-1.88m.12,2.97c.55-.08.94-.55.92-1.1m-1.77,1.19h.88m-1.84-1.19c-.03.55.37,1.03.92,1.1m3.87-7.04v9.25m-.07-9.29c0-.06-.05-.11-.11-.11m-5.93,0h5.96m-6,0c-.06,0-.11.05-.11.11m6.26,9.29h-6.26v-9.25m6.85,0v9.77m-.07-9.8c0-.39-.31-.7-.7-.7m-5.93,0h5.96m-6,0c-.39,0-.7.31-.7.7m7.44,9.8h-7.36v-9.77m8.76-.74v13.37m0-13.4c0-.79-.64-1.43-1.44-1.43m-7.32.07h7.36m-7.4-.07c-.79,0-1.44.64-1.44,1.43m10.23,13.4h-10.23v-13.37m-11.78,4.55h-12.29m12.66.4c0-.11-.04-.21-.12-.29-.08-.08-.18-.12-.29-.12m.48,12.63l-.07-12.19m-.4,12.56c.22,0,.4-.18.4-.41m-12.59.48h12.22m-12.66-.48c0,.22.18.4.41.4m-.41-12.56v12.19m.33-12.63c-.22,0-.4.18-.4.4m6.63,6.65v-.81m5.45,3.45v-8.66l-10.97.07v8.59h10.97Zm-5.45,1.91v.29m.29-.55c0-.18-.15-.33-.33-.33s-.33.15-.33.33.15.33.33.33.33-.15.33-.33m-.29-.18v-.29m-.22.51h-.29m1.03,0h-.37m-.15-3.3v.81m.44-1.36c0-.26-.21-.48-.48-.48s-.48.21-.48.48.21.48.48.48.48-.21.48-.48m.37,0c0-.47-.38-.85-.85-.85s-.85.38-.85.85.38.84.85.84.85-.38.85-.84m-1.33.04h-.81m2.58,0h-.74m5.96-7.12l.07,12.19-.44.44h-12.22l-.44-.44v-12.19l.37-.44h12.29l.37.44Z"/>
    <path class="cls-35" d="m217.95,408.11h-2.87v2.85h2.87v-2.85Zm-1.43,2.78c.79,0,1.43-.64,1.43-1.43s-.64-1.43-1.43-1.43-1.43.64-1.43,1.43.64,1.43,1.43,1.43m21.94,3.73h-25.58v5.64h25.58v-5.64Zm-25.29,5.05l-.29-.22m.88.8l-.07-.07m.81-.15l-1.25-1.25m.88-.07l-1.25-1.24m2.87,2.78l-1.1-1.02m-.88-1.9l-.88-.88m2.65,2.63l-1.25-1.24m2.5,2.42l-.73-.66m-2.65-3.66l-.51-.51m2.28,2.27l-1.25-1.24m3.01,3l-1.25-1.24m2.06,2.05l-.29-.29m-2.65-3.66l-1.25-1.24m3.01,3l-1.25-1.24m3.01,3l-1.25-1.24m-2.65-3.66l-.37-.29m2.13,2.05l-1.25-1.24"/>
  </g>
  <path class="cls-47" d="m224.26,416.62h2.8l-2.8,1.7v-1.7Zm2.8,0l-2.8,1.7h2.8v-1.7Z"/>
  <g class="cls-31">
    <path class="cls-35" d="m218.32,413.69v-.15m-.95.15h-1.03m1.98,0h-.29m-.66-.15h-1.03m1.98,0h-.29m-.66,1.09h.66v-1.38h-.66v1.38Zm16.81-1.74l.22-.29.29-.22.29-.14.44-.07.37.07.22.14.15.15.07.15.07.22-.15.44-.29.36-.15.15h-.22l-.37.07h-.22v.15l-.07.29-.07.29m-.44-1.38l.37-.51.22-.15.29-.07.37-.07.29.15.15.22v.29l-.22.29-.22.14-.66.07-.15.07-.15.22-.07.73m-.99-.73c.38,0,.7-.31.7-.69s-.31-.69-.7-.69-.7.31-.7.69.31.69.7.69m.55-.15v.87h-.95v-.87m-6.61,3.67c0-.14-.11-.25-.26-.25s-.26.11-.26.25.11.25.26.25.26-.11.26-.25m-.88,0c0-.3-.25-.54-.55-.54s-.55.24-.55.54.25.54.55.54.55-.24.55-.54m-1.4.84h2.79v-1.67h-2.79v1.67Zm0-1.67h2.79v1.67h-2.79v-1.67Z"/>
  </g>
  <path class="cls-48" d="m238.95,420.31h.52l-.52-21.69v21.69Zm0-21.69l.52,21.69.07-21.69h-.59Z"/>
  <path class="cls-35" d="m243.69,416.58h17.04v2.14h-17.04v-2.14Zm8.08,3.31v-1.99m-.59,1.99v-1.99m1.18,2.13v.22h-1.76v-.22m0,0h1.76l-.59-.15h-.59m-.59.15l.59-.15m-.59-4.05h1.76m-1.76.37h1.76m0-.37v.37l-.44.96v.74h-.88v-.74l-.44-.96v-.37m1.32,1.32h-.88m-11.09,3.09v-44.4m-1.4,44.4v-44.4m.96,44.4h-.51v-21.65h.59l-.07,21.65Z"/>
  <path class="cls-30" d="m223.36,232.42v-1.76m0,7.13v-3.53m0,8.82v-3.53m0,8.9v-3.53m0,8.82v-3.53m0,7.13v-1.76"/>
  <path class="cls-15" d="m252.99,256.54h-26.7v.81h26.7v-.81Zm-26.7.81h-2.87v.88h2.87v-.88Zm0-27.58h-2.87v.88h2.87v-.88Z"/>
  <path class="cls-30" d="m229.9,230.95l-.88-.15-2.72-.15m8.82,1.54l-.73-.29-2.65-.74h-.07m8.23,3.23l-.52-.29-2.43-1.25-.22-.07m7.43,4.78l-.29-.37-2.13-1.69-.29-.15m6.32,6.18l-.15-.29-1.76-2.13-.37-.29m5,7.28l-.07-.15-1.25-2.42-.37-.51m3.45,8.09l-.81-2.65-.29-.73m1.84,8.82l-.22-2.79-.15-.88"/>
  <path class="cls-27" d="m288,279.63v-17.69h18.94v-35.08h-49.31v-19.9h67.01m-98.34,54.97h38.92v17.69m-38.92-.59h93.47v-7.15h4.28v-64.92"/>
  <line class="cls-38" x1="223.52" y1="204.06" x2="226.12" y2="204.06"/>
  <path class="cls-26" d="m229.12,206.86h-2.8m8.18,0h-3.54m8.84,0h-3.54m8.92,0h-3.54m8.84,0h-3.54m8.92,0h-3.54m8.84,0h-3.54m8.92,0h-3.54m8.84,0h-3.54m8.92,0h-3.54m8.84,0h-3.54m8.91,0h-3.54m8.84,0h-3.54m8.92,0h-3.54m8.84,0h-3.54m8.92,0h-3.54m8.84,0h-3.54m8.91,0h-3.54m8.18,0h-2.87m-92.62-.75h-2.8m8.18,0h-3.54m8.84,0h-3.54m8.92,0h-3.54m8.84,0h-3.54m8.92,0h-3.54m8.84,0h-3.54m8.92,0h-3.54m8.84,0h-3.54m8.92,0h-3.54m8.84,0h-3.54m8.91,0h-3.54m8.84,0h-3.54m8.92,0h-3.54m8.84,0h-3.54m8.92,0h-3.54m8.84,0h-3.54m8.91,0h-3.54m8.18,0h-2.87"/>
  <g class="cls-37">
    <path d="m248.45,198.87l.26-.03c.02.14.05.25.1.33.05.08.12.14.21.19s.2.07.31.07c.17,0,.29-.04.39-.12.09-.08.14-.19.14-.32,0-.08-.02-.14-.05-.2-.03-.06-.08-.1-.15-.14-.07-.04-.21-.09-.44-.15-.2-.06-.34-.12-.42-.18s-.15-.14-.2-.23c-.05-.09-.07-.2-.07-.31,0-.21.07-.38.2-.51.14-.13.32-.2.54-.2.16,0,.29.03.41.09.12.06.21.15.27.27.07.11.1.25.1.41l-.27.02c-.01-.17-.06-.29-.15-.37-.08-.08-.21-.12-.36-.12s-.28.04-.36.11c-.08.07-.12.16-.12.27,0,.1.03.18.09.24.06.06.2.11.41.17.21.06.35.11.44.15.13.07.22.15.29.26.07.11.1.23.1.38s-.03.28-.1.4c-.07.12-.16.21-.28.27-.12.06-.26.1-.43.1-.26,0-.47-.08-.62-.23-.16-.16-.24-.37-.24-.64"/>
    <path d="m250.5,199.7v-2.57h.42l.5,1.82.1.38c.03-.09.06-.23.11-.41l.51-1.79h.37v2.57h-.27v-2.15l-.61,2.15h-.25l-.61-2.18v2.18h-.27Z"/>
    <path d="m253.33,198.64h.72l-.22-.71c-.07-.22-.12-.4-.15-.53-.03.16-.07.33-.12.49l-.23.75Zm-.6,1.05l.81-2.57h.3l.86,2.57h-.32l-.24-.78h-.89l-.23.78h-.29Z"/>
    <path d="m255.19,198.26h.6c.13,0,.23-.01.3-.05.07-.03.12-.08.16-.15.04-.07.06-.15.06-.24,0-.13-.04-.23-.11-.31-.08-.07-.19-.11-.34-.11h-.67v.85Zm-.28,1.43v-2.57h.93c.19,0,.34.02.43.07.09.05.17.13.23.24.06.11.09.24.09.39,0,.19-.05.35-.15.47-.1.12-.25.2-.44.23.08.05.14.09.18.14.08.1.16.21.22.33l.37.7h-.35l-.28-.53c-.11-.21-.19-.35-.25-.42-.05-.07-.11-.12-.16-.15-.05-.03-.12-.04-.22-.04h-.32v1.14h-.28Z"/>
  </g>
  <polygon points="257.58 199.7 257.58 197.43 256.89 197.43 256.89 197.13 258.56 197.13 258.56 197.43 257.86 197.43 257.86 199.7 257.58 199.7"/>
  <g class="cls-3">
    <path d="m261.15,198.8l.28.09c-.06.29-.17.5-.32.64s-.34.21-.56.21c-.2,0-.36-.05-.5-.14-.14-.1-.25-.25-.34-.46-.09-.21-.13-.46-.13-.74s.04-.52.13-.72c.09-.2.21-.34.36-.44.15-.1.32-.15.51-.15.2,0,.38.06.52.19.15.13.25.31.31.56l-.27.08c-.09-.36-.28-.53-.56-.53-.14,0-.26.04-.36.11-.1.07-.19.18-.25.34-.06.15-.09.34-.09.58,0,.35.06.61.19.79.12.18.29.26.49.26.15,0,.28-.05.39-.16.11-.11.18-.27.22-.49"/>
    <path d="m263.15,197.13h.28v1.48c0,.25-.02.45-.07.61-.05.16-.14.29-.26.38-.13.09-.29.14-.49.14-.28,0-.48-.08-.62-.25-.14-.17-.21-.46-.21-.88v-1.48h.28v1.48c0,.23.02.4.05.51.04.1.09.18.18.24.08.05.18.08.3.08.2,0,.34-.06.43-.17.09-.11.13-.33.13-.65v-1.48Z"/>
    <path d="m264.18,198.26h.6c.13,0,.23-.01.3-.05.07-.03.12-.08.16-.15.04-.07.06-.15.06-.24,0-.13-.04-.23-.11-.31-.08-.07-.19-.11-.34-.11h-.67v.85Zm-.28,1.43v-2.57h.93c.19,0,.34.02.43.07.09.05.17.13.23.24.06.11.09.24.09.39,0,.19-.05.35-.15.47-.1.12-.25.2-.44.23.08.05.14.09.18.14.08.1.16.21.22.33l.37.7h-.35l-.28-.53c-.11-.21-.19-.35-.25-.42-.05-.07-.11-.12-.16-.15-.05-.03-.12-.04-.22-.04h-.32v1.14h-.28Z"/>
  </g>
  <polygon points="266.56 199.7 266.56 197.43 265.87 197.43 265.87 197.13 267.54 197.13 267.54 197.43 266.84 197.43 266.84 199.7 266.56 199.7"/>
  <g class="cls-16">
    <path d="m268.19,198.64h.72l-.22-.71c-.07-.22-.12-.4-.15-.53-.03.16-.07.33-.12.49l-.23.75Zm-.6,1.05l.81-2.57h.3l.86,2.57h-.32l-.24-.78h-.89l-.23.78h-.29Z"/>
  </g>
  <rect x="269.84" y="197.13" width=".28" height="2.57"/>
  <polygon points="270.59 199.7 270.59 197.13 270.88 197.13 271.98 199.15 271.98 197.13 272.25 197.13 272.25 199.7 271.97 199.7 270.86 197.68 270.86 199.7 270.59 199.7"/>
  <polyline class="cls-26" points="277.46 205.97 272.77 200.5 251.78 200.5"/>
  <path class="cls-38" d="m301.95,282.42h28.28v-135.26m-2.78,128.12h-4.31v4.27h4.31"/>
  <path class="cls-26" d="m302.03,72.05h22.59m-21.19,1.26h21.19"/>
  <line class="cls-41" x1="75.05" y1="423.69" x2="75.05" y2="124.23"/>
  <path class="cls-15" d="m71.55,120.79v302.94m-1.38-304.34v304.34"/>
  <polygon class="cls-41" points="306 124.05 307.47 124.05 307.47 119.44 306 119.44 75.09 124.05 306 124.05"/>
  <path class="cls-15" d="m306.04,120.7H71.65m234.39-1.31H70.18"/>
  <path class="cls-38" d="m324.82,52.07v57.86m2.74,165.33v4.27m2.67-132.53V5.04"/>
  <line class="cls-41" x1="154.81" y1="423.69" x2="70.22" y2="423.69"/>
  <polyline class="cls-26" points="70.13 413.67 10.28 413.67 10.28 19.22"/>
  <path class="cls-15" d="m70.15,410.89H13.14V19.2m57.02,393.1H11.74V19.2"/>
  <g class="cls-25">
    <path d="m37.73,275.48h1.01c.26,0,.45-.02.57-.05.16-.05.29-.15.37-.27.09-.13.13-.3.13-.52,0-.21-.04-.38-.12-.51-.08-.14-.18-.23-.32-.28-.13-.05-.37-.08-.71-.08h-.94v1.73Zm0,2.64h1.17c.26,0,.45-.02.57-.07.18-.07.31-.18.4-.33.09-.15.14-.35.14-.58,0-.21-.04-.4-.13-.55-.09-.15-.21-.26-.36-.33-.15-.07-.39-.1-.7-.1h-1.08v1.96Zm-.62.67v-5.71h1.76c.35,0,.64.06.84.17s.38.28.51.52c.13.23.2.49.2.77,0,.26-.06.5-.17.71-.11.21-.28.38-.48.51.27.1.48.27.64.5.16.24.23.53.23.88s-.07.65-.21.91c-.14.26-.33.45-.57.57-.24.12-.56.18-.97.18h-1.78Z"/>
    <path d="m42.32,276.45h1.59l-.49-1.58c-.15-.49-.26-.88-.33-1.18-.06.37-.15.73-.26,1.09l-.52,1.67Zm-1.34,2.34l1.8-5.71h.66l1.92,5.71h-.71l-.54-1.73h-1.97l-.51,1.73h-.65Z"/>
  </g>
  <polygon points="45.82 278.79 45.82 273.09 46.43 273.09 46.43 278.12 48.74 278.12 48.74 278.79 45.82 278.79"/>
  <g class="cls-28">
    <path d="m52.81,276.79l.62.19c-.14.64-.38,1.12-.72,1.43-.34.32-.76.47-1.26.47-.43,0-.8-.11-1.11-.32-.31-.21-.56-.55-.76-1.02-.2-.47-.29-1.02-.29-1.65s.1-1.16.29-1.6.46-.76.8-.99c.33-.22.71-.33,1.12-.33.45,0,.84.14,1.16.42.33.28.55.69.68,1.24l-.61.18c-.21-.79-.62-1.19-1.25-1.19-.31,0-.58.08-.81.24-.23.16-.41.41-.55.75-.14.34-.2.77-.2,1.28,0,.78.14,1.37.41,1.76.28.39.64.59,1.1.59.34,0,.63-.12.87-.36.25-.24.41-.6.49-1.09"/>
    <path d="m54.67,276.02c0,.7.16,1.25.47,1.64.31.39.69.58,1.13.58s.84-.2,1.14-.59c.31-.39.46-.97.46-1.73,0-.49-.08-.93-.24-1.32-.12-.3-.31-.53-.55-.71-.25-.18-.51-.27-.8-.27-.47,0-.85.2-1.15.58-.3.39-.45.99-.45,1.81m-.64-.01c0-.97.21-1.72.64-2.24s.96-.78,1.6-.78c.41,0,.79.12,1.13.35.34.23.61.57.81,1.02.2.44.3.97.3,1.59,0,.85-.19,1.54-.58,2.07-.42.59-.98.88-1.66.88s-1.24-.3-1.67-.9c-.38-.54-.57-1.2-.57-1.97"/>
  </g>
  <polygon points="59.28 278.79 59.28 273.09 59.91 273.09 62.37 277.58 62.37 273.09 62.96 273.09 62.96 278.79 62.33 278.79 59.87 274.3 59.87 278.79 59.28 278.79"/>
  <g class="cls-43">
    <path d="m65.33,278.79v-2.42l-1.8-3.29h.76l.92,1.72c.18.34.34.66.48.97.14-.3.31-.64.51-1.01l.91-1.68h.71l-1.87,3.29v2.42h-.62Z"/>
  </g>
  <path class="cls-38" d="m330.23,5.04H8.14v13.96h66.94v-4.2h22.85v-4.2h232.29m-260.82,2.82H13.82v-2.82h55.59v2.82Z"/>
  <path class="cls-49" d="m97.8,124.07h-22.87l22.87,22.87v-22.87Zm-22.87,0l22.87,22.87h-22.87v-22.87Z"/>
  <path class="cls-49" d="m97.8,14.79h-22.87l22.87,22.87V14.79Zm-22.87,0l22.87,22.87h-22.87V14.79Z"/>
  <polygon class="cls-49" points="320.33 14.87 330.36 14.87 320.33 14.79 320.33 14.87"/>
  <path class="cls-49" d="m320.33,14.87v37.04h10.03l-10.03-37.04Zm0,37.04h10.03v.07l-10.03-.07Z"/>
  <polygon class="cls-49" points="320.33 14.87 330.36 14.87 330.36 51.91 320.33 14.87"/>
  <path class="cls-49" d="m330.36,109.83h-10.03l10.03,37.11v-37.11Zm-10.03,0l10.03,37.11h-10.03v-37.11Z"/>
  <path class="cls-49" d="m154.9,420.9h-79.91l79.91,2.88v-2.88Zm-79.91,0l79.91,2.88h-79.91v-2.88Z"/>
  <path class="cls-49" d="m154.83,321h-79.91l79.91,14.24v-14.24Zm-79.91,0l79.91,14.24h-79.91v-14.24Z"/>
  <path class="cls-26" d="m75.07,423.71h79.86v-2.88h-79.86v2.88Zm79.87-102.67h-79.86v14.24h79.86v-14.24Zm175.36-174h-9.96v-37.1h9.96v37.1Zm0-95h-9.96V14.94h9.96v37.1Zm-255.23-14.23h22.86V14.94h-22.86v22.86Zm22.86,109.24h-22.86v-22.86h22.86v22.86Z"/>
  <path class="cls-35" d="m8.05,14.77l4.28,4.32m1.84-5.64l5.75,5.64M8.05,7.3l5.68,5.64m8.04.51l5.68,5.64M13.21,4.95l5.68,5.64m10.47,2.86l5.68,5.64m-14.24-14.14l5.68,5.64m10.4,2.86l5.68,5.64m-14.24-14.14l5.68,5.64m10.48,2.86l5.68,5.64m-14.24-14.14l5.68,5.64m10.4,2.86l5.75,5.64m-14.31-14.14l5.75,5.64m10.4,2.86l5.68,5.64m-14.24-14.14l5.68,5.64m10.4,2.86l5.75,5.64m-14.31-14.14l5.75,5.64m1.84-5.64l9.96,9.89m-2.43-9.89l10.03,9.89m-2.43-9.89l9.96,9.89m-2.43-9.89l9.07,8.94m-1.47-8.94l5.68,5.64m1.84-5.64l5.75,5.64m1.84-5.64l5.68,5.64m1.92-5.64l5.68,5.64m1.84-5.64l5.68,5.64m1.92-5.64l5.68,5.64m1.84-5.64l5.68,5.64m1.92-5.64l5.68,5.64m1.84-5.64l5.75,5.64m1.84-5.64l5.68,5.64m1.84-5.64l5.75,5.64m1.84-5.64l5.68,5.64m1.84-5.64l5.75,5.64m1.84-5.64l5.68,5.64m1.84-5.64l5.75,5.64m1.84-5.64l5.68,5.64m1.92-5.64l5.68,5.64m1.84-5.64l5.68,5.64m1.92-5.64l5.68,5.64m1.84-5.64l5.68,5.64m1.92-5.64l5.68,5.64m1.84-5.64l5.75,5.64m1.84-5.64l5.68,5.64m1.84-5.64l5.75,5.64m1.84-5.64l5.68,5.64m1.84-5.64l5.75,5.64m1.84-5.64l5.68,5.64m1.84-5.64l5.75,5.64m1.84-5.64l5.68,5.64m1.92-5.64l5.68,5.64m1.84-5.64l5.68,5.64M8.05,12.28l6.79,6.82m1.92-5.64l5.68,5.64M8.2,4.95l5.68,5.64m10.4,2.86l5.75,5.64M15.72,4.95l5.75,5.64m10.4,2.86l5.68,5.64m-14.24-14.14l5.68,5.64m10.4,2.86l5.75,5.64m-14.31-14.14l5.75,5.64m10.4,2.86l5.68,5.64m-14.24-14.14l5.68,5.64m10.4,2.86l5.75,5.64m-14.31-14.14l5.75,5.64m10.4,2.86l5.68,5.64m-14.24-14.14l5.68,5.64m10.1,2.49l5.68,5.72m-13.94-13.85l5.75,5.64m1.84-5.64l9.96,9.89m-2.43-9.89l10.03,9.89m-2.43-9.89l9.96,9.89m-2.36-9.89l6.49,6.45m1.03-6.45l5.68,5.64m1.92-5.64l5.68,5.64m1.84-5.64l5.75,5.64m1.84-5.64l5.68,5.64m1.84-5.64l5.75,5.64m1.84-5.64l5.68,5.64m1.84-5.64l5.75,5.64m1.84-5.64l5.68,5.64m1.84-5.64l5.75,5.64m1.84-5.64l5.68,5.64m1.84-5.64l5.75,5.64m1.84-5.64l5.68,5.64m1.92-5.64l5.68,5.64m1.84-5.64l5.68,5.64m1.92-5.64l5.68,5.64m1.84-5.64l5.75,5.64m1.84-5.64l5.68,5.64m1.84-5.64l5.75,5.64m1.84-5.64l5.68,5.64m1.85-5.64l5.75,5.64m1.84-5.64l5.68,5.64m1.84-5.64l5.75,5.64m1.84-5.64l5.68,5.64m1.84-5.64l5.75,5.64m1.84-5.64l5.68,5.64m1.92-5.64l5.68,5.64m1.84-5.64l5.68,5.64m1.92-5.64l5.68,5.64m1.84-5.64l5.68,5.64m1.92-5.64l5.68,5.64m1.84-5.64l4.5,4.47"/>
</svg>