<?xml version="1.0" encoding="UTF-8"?>
<svg id="Layer_1" data-name="Layer 1" xmlns="http://www.w3.org/2000/svg" viewBox="0 0 371.68 499.4">
  <defs>
    <style>
      .cls-1, .cls-2 {
        fill: #fff;
      }

      .cls-3 {
        fill: #e0e0e0;
      }

      .cls-3, .cls-4, .cls-5, .cls-6, .cls-7, .cls-2, .cls-8, .cls-9 {
        stroke: #fff;
      }

      .cls-3, .cls-7, .cls-2, .cls-9 {
        stroke-miterlimit: 0;
        stroke-width: 0px;
      }

      .cls-4 {
        stroke-width: .38px;
      }

      .cls-4, .cls-5, .cls-6, .cls-8 {
        fill: none;
        stroke-linecap: round;
        stroke-linejoin: round;
      }

      .cls-5 {
        stroke-width: .58px;
      }

      .cls-6 {
        stroke-width: .29px;
      }

      .cls-7 {
        fill: gray;
      }

      .cls-8 {
        stroke-width: .2px;
      }

      .cls-9 {
        fill: #757575;
      }
    </style>
  </defs>
  <path class="cls-4" d="m37.06,393.06h-2.31v7.98h2.31l309.47-7.98H37.06Zm311.78,0h-2.31v7.98h2.31v-7.98Z"/>
  <path class="cls-8" d="m37.06,398.64h309.47m-309.47,2.4h309.47"/>
  <path class="cls-5" d="m23.01,21.64h-4.62v240.59m341.03,0V21.64h-4.71"/>
  <path class="cls-1" d="m20.22,48.33v-.27h.99s0,.86,0,.86c-.15.12-.31.21-.47.27-.16.06-.33.09-.5.09-.23,0-.44-.05-.62-.15-.19-.1-.33-.24-.43-.43-.09-.19-.14-.39-.14-.62s.05-.44.14-.64c.1-.2.23-.34.41-.44.18-.1.38-.14.62-.14.17,0,.32.03.46.08.14.05.24.13.32.23.08.1.14.23.18.38l-.28.08c-.03-.12-.08-.21-.13-.28-.05-.07-.13-.12-.22-.16s-.2-.06-.32-.06c-.14,0-.26.02-.37.07-.1.04-.19.1-.25.17-.06.07-.11.15-.15.23-.06.14-.09.3-.09.47,0,.21.03.38.11.52.07.14.18.24.31.31.14.07.28.1.44.1.13,0,.26-.03.39-.08.13-.05.22-.11.29-.17v-.43h-.69Z"/>
  <path class="cls-1" d="m22.08,48.29h.79l-.24-.65c-.07-.2-.13-.36-.17-.48-.03.15-.07.3-.13.45l-.26.68Zm-.67.96l.9-2.34h.33l.96,2.34h-.35l-.27-.71h-.98l-.26.71h-.33Z"/>
  <path class="cls-1" d="m23.74,48.5l.29-.02c.01.12.05.21.1.29.05.08.13.14.24.18.11.05.23.07.36.07.12,0,.22-.02.31-.05.09-.04.16-.08.2-.15.04-.06.07-.13.07-.2s-.02-.14-.06-.19c-.04-.05-.11-.1-.21-.14-.06-.03-.2-.06-.42-.11-.21-.05-.36-.1-.45-.15-.11-.06-.19-.13-.25-.22-.05-.09-.08-.18-.08-.29,0-.12.03-.23.1-.33.07-.1.16-.18.29-.23.13-.05.27-.08.43-.08.17,0,.33.03.46.08.13.06.23.14.31.25.07.11.11.23.11.37l-.3.02c-.02-.15-.07-.26-.16-.33-.09-.08-.23-.11-.41-.11s-.32.03-.41.1c-.09.07-.13.15-.13.25,0,.08.03.15.09.21s.21.11.47.17c.25.06.42.11.52.15.14.06.24.14.3.24.07.1.1.21.1.33s-.04.24-.11.35c-.07.11-.17.2-.31.26-.13.06-.28.09-.45.09-.21,0-.39-.03-.53-.09-.14-.06-.25-.15-.34-.28-.08-.12-.12-.26-.13-.42"/>
  <line class="cls-8" x1="18.01" y1="30.97" x2="23.01" y2="26.35"/>
  <path class="cls-5" d="m23.01,26.35h-4.62m4.62,14.04h-4.62"/>
  <rect class="cls-8" x="18.4" y="210.86" width="4.62" height="28.09"/>
  <polygon class="cls-7" points="21.86 232.32 19.26 232.32 19.26 233.19 18.92 233.19 18.92 231.09 19.26 231.09 19.26 231.97 21.86 231.97 21.86 232.32"/>
  <polygon class="cls-7" points="21.86 230.72 18.92 230.72 18.92 228.81 19.26 228.81 19.26 230.37 20.16 230.37 20.16 228.91 20.51 228.91 20.51 230.37 21.51 230.37 21.51 228.75 21.86 228.75 21.86 230.72"/>
  <polygon class="cls-7" points="21.86 228.28 18.92 228.28 18.92 227.93 21.51 227.93 21.51 226.63 21.86 226.63 21.86 228.28"/>
  <rect class="cls-7" x="21.45" y="225.79" width=".41" height=".37"/>
  <path class="cls-7" d="m21.51,223.82v-.66c0-.11,0-.19-.01-.24-.02-.08-.04-.15-.08-.2-.04-.05-.09-.1-.16-.13-.07-.04-.15-.05-.25-.05-.11,0-.21.02-.29.08-.08.05-.14.12-.17.21-.03.09-.05.22-.05.39v.61h1.01Zm-1.36,0v-.57c0-.15-.01-.27-.03-.33-.03-.09-.08-.16-.15-.2-.07-.05-.15-.07-.26-.07s-.18.02-.26.06c-.08.04-.12.1-.15.18-.03.08-.04.21-.04.4v.53h.89Zm1.71.35h-2.94v-.99c0-.2.03-.36.09-.49.06-.12.15-.22.27-.29.12-.07.25-.1.39-.1.13,0,.24.03.35.09.11.06.2.15.27.28.05-.16.14-.28.27-.37.13-.09.28-.13.45-.13.14,0,.27.03.38.08.12.05.21.12.27.19.07.08.11.17.15.29.03.12.05.26.05.43v1.01Z"/>
  <path class="cls-7" d="m20.43,221.43c.35,0,.63-.09.84-.26.2-.17.31-.39.31-.65s-.1-.48-.31-.65c-.21-.17-.5-.26-.88-.26-.24,0-.45.04-.63.11-.18.07-.32.18-.42.32-.1.14-.15.3-.15.47,0,.25.1.46.28.64.19.18.51.27.95.27m0,.36c-.49,0-.87-.12-1.15-.35-.28-.24-.41-.54-.41-.91,0-.24.06-.46.19-.66.13-.2.31-.35.54-.45.23-.1.5-.15.79-.15s.56.05.8.16.41.26.53.46c.12.2.18.41.18.64,0,.25-.07.47-.2.67-.13.2-.32.35-.55.45-.23.1-.48.15-.73.15"/>
  <path class="cls-7" d="m21.86,219.08l-1.53-1.02-1.41.9v-.42l.75-.48c.16-.1.28-.17.36-.21-.11-.06-.22-.13-.33-.21l-.78-.53v-.38l1.39.93,1.56-1v.43l-1.05.67c-.06.04-.13.08-.2.12.11.06.18.1.22.13l1.03.67v.42Z"/>
  <rect class="cls-5" x="18.4" y="45.01" width="9.33" height="7.02"/>
  <path class="cls-8" d="m21.86,49.44l-3.46,2.6m9.33-7.02l-3.56,2.6m-2.31,0l-3.46-2.6m9.33,7.02l-3.56-2.6"/>
  <path class="cls-2" d="m241.67,128.23v16.35l-44.83-16.35h44.83Zm0,16.35l-44.83-16.35v16.35h44.83Z"/>
  <path class="cls-8" d="m196.85,128.23h44.83v16.35h-44.83v-16.35Zm42.9.67l1.92,1.92m-.67,2.6l.67.67m-3.56-3.56l2.02,2.02m-4.33-4.33l1.44,1.44m2.12,5.39l2.02,2.02m-4.91-4.91l2.02,2.02m-4.91-4.91l2.02,2.02m-3.17-3.08l.29.19m7.79,11.16l1.15,1.15m-4.04-4.04l2.12,2.12m-5-5l2.12,2.02m-5-4.91l2.12,2.02m-4.81-4.71l1.92,1.83m7.79,11.16l2.12,2.12m-5-5l2.12,2.12m-5-5l2.12,2.12m-5-5l2.12,2.12m-5-5l2.12,2.12m-3.56-3.56l.67.67m10.68,13.95l1.64,1.73m-4.52-4.62l2.12,2.12m-5-5l2.12,2.12m-5-5l2.02,2.12m-4.91-5l2.02,2.12m-4.91-5l2.02,2.12m7.89,11.16l2.02,2.02m-4.91-4.91l2.02,2.02m-4.91-5l2.02,2.12m-4.91-5l2.02,2.12m-4.91-5l2.02,2.12m-3.94-3.95l1.06,1.06m10.77,14.04l1.25,1.25m-4.14-4.14l2.02,2.02m-4.91-4.91l2.02,2.02m-4.91-4.91l2.02,2.02m-4.91-4.91l2.02,2.02m-4.91-4.91l2.02,2.02m7.89,11.16l2.02,2.02m-5-4.91l2.12,2.02m-5-4.91l2.12,2.02m-5-4.91l2.12,2.02m-5-4.91l2.12,2.02m-4.43-4.33l1.54,1.44m10.68,14.04l.86.87m-3.75-3.75l2.12,2.02m-5-4.91l2.12,2.02m-5-4.91l2.12,2.02m-5-4.91l2.12,2.02m-5-4.91l2.12,2.02m-3.17-3.08l.29.19m10.68,14.04l2.12,2.12m-5-5l2.12,2.12m-5-5l2.12,2.12m-5-5l2.02,2.02m-4.91-4.91l2.02,2.02m-4.71-4.71l1.83,1.83m10.77,14.04l.39.48m-3.27-3.37l2.02,2.12m-4.91-5l2.02,2.12m-4.91-5l2.02,2.12m-4.91-5l2.02,2.12m-4.91-5l2.02,2.12m-3.56-3.56l.67.67m10.78,13.95l1.63,1.73m-4.52-4.62l2.02,2.12m-4.91-5l2.02,2.12m-4.91-5l2.02,2.12m-4.91-5l2.02,2.12m-4.91-5l2.02,2.12m7.89,11.16l2.02,2.02m-5-4.91l2.12,2.02m-5-5l2.12,2.12m-5-5l2.12,2.12m-5-5l2.12,2.12m-3.27-3.27l.38.39m10.68,14.04l1.25,1.25m-4.14-4.14l2.12,2.02m-5-4.91l2.12,2.02m-5-4.91l2.12,2.02m-4.52-4.52l1.64,1.64m4.91,8.27l2.12,2.02m-5-4.91l2.12,2.02m-5-4.91l2.12,2.02m2.02,5.39l.87.87m-3.75-3.75l2.02,2.02m-4.04-4.04l1.15,1.16m-.77,2.5l2.02,2.12m41.46-16.35l.96.87m-4.23-.87l4.23,4.23m-7.5-4.23l7.5,7.5m-10.87-7.5l10.87,10.77m-14.14-10.77l14.14,14.14m-17.41-14.14l16.26,16.35m-19.62-16.35l16.35,16.35m-19.62-16.35l16.35,16.35m-19.72-16.35l16.35,16.35m-19.62-16.35l16.35,16.35m-19.62-16.35l16.35,16.35m-19.72-16.35l16.35,16.35m-19.62-16.35l16.35,16.35m-19.62-16.35l16.35,16.35m-17.32-14.04l13.95,14.04m-13.95-10.77l10.68,10.77m-10.68-7.41l7.41,7.41m-7.41-4.14l4.04,4.14m-4.04-.87l.77.87m-.77,0h44.83v-16.35h-44.83v16.35Z"/>
  <path class="cls-2" d="m208.49,121.49v20.01l.67-20.78-.67.77Zm0,20.01l.67-20.78.1,21.45-.77-.67Zm.67-20.78l.1,21.45,20.01-21.45h-20.11Zm.1,21.45l20.01-21.45v21.45h-20.01Zm20.01-21.45v21.45l.67-20.78-.67-.67Zm0,21.45l.67-20.78.1,20.11-.77.67Z"/>
  <path class="cls-8" d="m264.57,105.04l-2.02,2.02m4.91-4.91l-2.02,2.02m4.23-4.23l-1.35,1.35m-5.96,4.33l-2.02,2.02m4.91-4.91l-2.12,2.12m5-5l-2.12,2.12m3.65-3.66l-.77.77m-5.97,4.33l-2.02,2.02m4.91-4.91l-2.02,2.02m4.91-4.91l-2.02,2.02m2.98-2.98l-.1.1m-8.85,7.21l-.39.39m3.27-3.27l-2.12,2.12m5-5l-2.12,2.12m5-5l-2.12,2.12m-5.96,4.33l-.96.87m3.85-3.75l-2.02,2.02m4.91-5l-2.02,2.12m4.62-4.71l-1.73,1.83m-6.06,4.33l-1.54,1.54m4.42-4.42l-2.02,2.02m5-4.91l-2.12,2.02m4.04-4.04l-1.15,1.15m-5.96,4.33l-2.12,2.12m5-5l-2.12,2.12m5-5l-2.12,2.12m3.46-3.46l-.48.58m-6.06,4.33l-2.02,2.02m4.91-4.91l-2.02,2.02m4.91-4.91l-2.02,2.02m-5.96,4.33l-.58.58m3.46-3.46l-2.12,2.12m5-5l-2.12,2.12m5-5l-2.12,2.12m-5.96,4.33l-1.15,1.15m4.04-4.04l-2.02,2.02m4.91-4.91l-2.02,2.02m4.42-4.52l-1.54,1.64m-5.96,4.33l-1.83,1.73m4.71-4.62l-2.12,2.02m5-4.91l-2.12,2.02m3.85-3.85l-.96.96m-5.96,4.33l-2.02,2.12m4.91-5l-2.02,2.12m4.91-5l-2.02,2.12m3.17-3.27l-.29.39m-8.95,7.21l-.1.1m2.98-2.98l-2.02,2.02m4.91-4.91l-2.02,2.02m5-4.91l-2.12,2.02m-5.96,4.33l-.77.77m3.66-3.65l-2.12,2.12m5-5l-2.12,2.12m4.91-4.91l-1.92,2.02m-6.06,4.33l-1.35,1.35m4.23-4.23l-2.02,2.02m4.91-4.91l-2.02,2.02m4.23-4.23l-1.35,1.35m-5.96,4.33l-2.02,2.02m4.91-4.91l-2.12,2.02m5-4.91l-2.12,2.02m3.65-3.66l-.77.77m-5.97,4.33l-2.02,2.12m4.91-5l-2.02,2.12m4.91-5l-2.02,2.12m2.98-3.08l-.1.19m-8.85,7.21l-.39.29m3.27-3.17l-2.12,2.02m5-4.91l-2.12,2.02m5-4.91l-2.12,2.02m-5.96,4.33l-.96.96m3.85-3.85l-2.02,2.12m4.91-5l-2.02,2.12m4.62-4.71l-1.73,1.83m-6.06,4.33l-1.54,1.54m4.42-4.42l-2.02,2.02m5-4.91l-2.12,2.02m3.27-3.27l-.39.38m-5.96,4.33l-2.12,2.02m5-4.91l-2.12,2.02m3.94-3.85l-1.06.96m-3.08,1.44l-2.02,2.12m4.52-4.52l-1.63,1.64m-3.08,1.44l-.58.48m3.46-3.37l-2.12,2.02m-.19-1.44l-1.15,1.15m.29-1.92l-.29.29m-2.36,20.88c-.29,0-.53.24-.53.53s.24.53.53.53.53-.24.53-.53-.24-.53-.53-.53m0,8.27c-.29,0-.53.24-.53.53s.24.53.53.53.53-.24.53-.53-.24-.53-.53-.53m-11.71-2.56c.7,1.02,1.87,1.62,3.11,1.6m-3.1-2.69v1.15m3.1-2.79c-1.24-.02-2.41.58-3.11,1.6m4.91-.15c-.12-.86-.88-1.49-1.74-1.45m1.76,2.98v-1.44m-1.76,2.79c.87.04,1.62-.59,1.74-1.45m-11.62-6.25h15.2m-15.25-.1c-.13,0-.24.11-.24.24m.1,9.86v-9.81m-.1,9.76c0,.13.11.24.24.24m15.25-10.2v10.29h-15.2m0-11.26h16.16m-16.21-.1c-.66,0-1.2.54-1.2,1.2m.1,9.86v-9.81m-.1,9.76c0,.66.54,1.2,1.2,1.2m16.21-12.12v12.12h-16.16m-1.15-14.43h21.93m-21.98-.1c-1.3,0-2.36,1.05-2.36,2.36m.1,12.17v-12.12m-.1,12.07c0,1.3,1.06,2.36,2.36,2.36m21.98-16.74v16.83h-21.93m-9.14,17.03h-20.11m20.78.62c0-.19-.08-.38-.21-.51-.14-.13-.32-.21-.51-.21m.82,20.88l-.1-20.11m-.72,20.78c.4,0,.72-.32.72-.72m-20.68.72h20.01m-20.78-.72c0,.4.32.72.72.72m-.72-20.68v20.01m.62-20.78c-.4,0-.72.33-.72.72m10.87,10.82v-1.35m8.95-8.47h-17.99v14.14h17.99v-14.14Zm-8.95,17.32v.48m.48-.91c0-.29-.24-.53-.53-.53s-.53.24-.53.53.24.53.53.53.53-.24.53-.53m-.48-.24v-.58m-.39.87h-.48m1.73,0h-.58m-.29-5.48v1.35m.77-2.16c0-.45-.37-.82-.82-.82s-.82.37-.82.82.37.82.82.82.82-.37.82-.82m.58,0c0-.77-.62-1.4-1.39-1.4s-1.39.62-1.39,1.4.62,1.39,1.39,1.39,1.39-.62,1.39-1.39m-2.21.05h-1.35m4.33,0h-1.35m9.91-11.74l.1,20.11-.77.67h-20.01l-.77-.67v-20.01l.67-.77h20.11l.67.67Z"/>
  <path class="cls-8" d="m244.56,109.37h4.62v4.71h-4.62v-4.71Zm4.62,2.36c0-1.3-1.05-2.36-2.36-2.36s-2.36,1.06-2.36,2.36,1.06,2.36,2.36,2.36,2.36-1.06,2.36-2.36m11.16,9.47h9.33v-51.85h-9.33v51.85Zm8.37-.48l-.48.48m1.44-1.44l-.1.1m-.19-1.44l-2.12,2.12m-.19-1.44l-2.02,2.02m4.62-4.62l-1.73,1.73m-3.17,1.44l-1.44,1.54m4.43-4.42l-2.12,2.12m4.04-4.14l-1.15,1.25m-5.96,4.33l-.87.86m3.75-3.75l-2.12,2.02m5-4.91l-2.12,2.02m3.46-3.46l-.48.58m-6.06,4.33l-2.02,2.12m4.91-5l-2.02,2.12m4.91-5l-2.02,2.12m-5.96,4.33l-.58.48m3.46-3.37l-2.12,2.02m5-5l-2.12,2.12m5-5l-2.12,2.12m-5.96,4.33l-1.15,1.15m4.04-4.04l-2.02,2.02m4.91-4.91l-2.02,2.02m4.43-4.43l-1.54,1.54m-5.96,4.33l-1.83,1.83m4.71-4.71l-2.12,2.12m5-5l-2.12,2.12m3.85-3.85l-.96.96m-5.96,4.33l-2.02,2.02m4.91-4.91l-2.02,2.02m4.91-4.91l-2.02,2.02m3.18-3.27l-.29.39m-8.95,7.21l-.1.1m2.98-2.98l-2.02,2.12m4.91-5l-2.02,2.12m5-5l-2.12,2.12m-5.96,4.33l-.77.67m3.66-3.56l-2.12,2.02m5-5l-2.12,2.12m4.91-4.91l-1.92,2.02m-6.06,4.33l-1.35,1.35"/>
  <path class="cls-2" d="m263.61,97.64v-4.71l2.79,4.71h-2.79Zm0-4.71l2.79,4.71v-4.71h-2.79Z"/>
  <path class="cls-8" d="m258.7,83.21h-.19m.19-3.32c0-.08-.07-.14-.14-.14s-.14.07-.14.14m.29,1.68v-1.64m0,3.27v-.48m-.19-1.15v-1.64m0,3.27v-.48m-.48-1.15h2.31v1.15h-2.31v-1.15Zm-.58,27.8l-.48.29-.29.48-.29.48-.1.67.1.67.19.29.19.29.39.19h.38l.67-.1.58-.48.19-.39.1-.29v-.87l.1-.1.19-.1.48-.1h.48m-2.31-.86l-.77.67-.29.39-.19.48v.58l.19.48.39.19h.48l.48-.29.29-.39v-1.06l.19-.29.39-.19,1.15-.19m-1.25-1.59c0-.61-.5-1.11-1.11-1.11s-1.11.49-1.11,1.11.49,1.11,1.11,1.11,1.11-.5,1.11-1.11m-.19.82h1.44v-1.54h-1.44m6.11-13.95c-.24,0-.43.19-.43.43s.19.43.43.43.43-.19.43-.43-.19-.43-.43-.43m0,1.54c-.51,0-.91.41-.91.91s.41.91.91.91.91-.41.91-.91-.41-.91-.91-.91m1.39,2.5h-2.79v-4.71h2.79-2.79v4.71h2.79Z"/>
  <path class="cls-1" d="m224.02,268.1v-9.34h1.52l1.82,6.62.36,1.38c.09-.34.23-.84.41-1.5l1.84-6.5h1.36v9.34h-.98v-7.81l-2.23,7.81h-.91l-2.22-7.95v7.95h-.97Z"/>
  <rect class="cls-1" x="233.13" y="266.79" width="1.07" height="1.31"/>
  <path class="cls-1" d="m236.89,262.68h1.66c.43,0,.74-.03.93-.09.26-.09.47-.24.61-.45.14-.21.21-.5.21-.86,0-.34-.07-.61-.19-.84-.13-.22-.3-.38-.52-.46-.22-.08-.6-.13-1.16-.13h-1.54v2.82Zm0,4.31h1.91c.42,0,.73-.04.93-.11.29-.11.51-.29.66-.55.15-.25.23-.57.23-.95,0-.35-.07-.65-.22-.9-.14-.24-.34-.42-.58-.54-.24-.11-.63-.17-1.15-.17h-1.78v3.21Zm-1.01,1.1v-9.34h2.88c.58,0,1.04.09,1.38.27.34.18.62.46.84.84.22.38.33.8.33,1.27,0,.43-.09.82-.28,1.16-.19.34-.45.62-.79.83.44.16.79.44,1.05.83.26.39.38.87.38,1.44s-.12,1.06-.35,1.49c-.23.43-.54.74-.93.93-.39.19-.92.29-1.59.29h-2.92Z"/>
  <polygon class="cls-1" points="243.08 268.1 243.08 258.76 248.62 258.76 248.62 259.86 244.09 259.86 244.09 262.71 248.33 262.71 248.33 263.82 244.09 263.82 244.09 267 248.79 267 248.79 268.1 243.08 268.1"/>
  <path class="cls-1" d="m251.18,267h1.63c.66,0,1.16-.11,1.5-.32.34-.21.6-.56.78-1.04.24-.63.36-1.39.36-2.28,0-.95-.13-1.69-.39-2.23-.26-.54-.59-.9-.99-1.09-.27-.12-.7-.18-1.29-.18h-1.61v7.14Zm-1.01,1.1v-9.34h2.64c.65,0,1.15.06,1.49.17.45.15.83.42,1.16.82s.58.89.76,1.49c.18.6.27,1.31.27,2.14,0,1.06-.15,1.96-.46,2.69s-.71,1.26-1.2,1.57c-.49.31-1.12.46-1.91.46h-2.77Z"/>
  <path class="cls-1" d="m261.9,262.88h2.18c.48,0,.84-.06,1.08-.17.25-.11.44-.29.59-.54.14-.25.22-.53.22-.86,0-.47-.14-.84-.41-1.11-.28-.27-.69-.4-1.23-.4h-2.42v3.09Zm-1.01,5.22v-9.34h3.4c.71,0,1.23.09,1.57.26.34.17.61.46.83.87.22.4.33.88.33,1.41,0,.7-.18,1.28-.55,1.71-.37.44-.9.72-1.6.83.29.17.5.34.65.52.3.36.57.75.8,1.19l1.34,2.54h-1.27l-1.02-1.94c-.4-.76-.7-1.27-.9-1.54-.2-.26-.4-.44-.59-.53-.19-.09-.45-.14-.79-.14h-1.17v4.15h-1.01Z"/>
  <path class="cls-1" d="m269.38,263.57c0,1.15.25,2.05.76,2.68.51.64,1.12.95,1.85.95s1.37-.32,1.87-.96.76-1.59.76-2.83c0-.8-.13-1.52-.39-2.16-.2-.49-.5-.87-.9-1.16-.4-.29-.84-.44-1.32-.44-.76,0-1.39.32-1.89.96-.49.64-.74,1.62-.74,2.96m-1.04-.02c0-1.59.35-2.82,1.05-3.67.7-.86,1.57-1.28,2.62-1.28.68,0,1.29.19,1.85.57.56.38,1,.94,1.32,1.67.33.73.49,1.6.49,2.6,0,1.39-.31,2.51-.94,3.39-.69.96-1.6,1.44-2.72,1.44s-2.04-.49-2.73-1.48c-.62-.89-.94-1.97-.94-3.23"/>
  <path class="cls-1" d="m277.71,263.57c0,1.15.25,2.05.76,2.68.51.64,1.12.95,1.85.95s1.37-.32,1.87-.96.76-1.59.76-2.83c0-.8-.13-1.52-.39-2.16-.2-.49-.5-.87-.9-1.16-.4-.29-.84-.44-1.32-.44-.76,0-1.39.32-1.89.96-.49.64-.74,1.62-.74,2.96m-1.04-.02c0-1.59.35-2.82,1.05-3.67.7-.86,1.57-1.28,2.62-1.28.67,0,1.29.19,1.85.57.56.38,1,.94,1.32,1.67.33.73.49,1.6.49,2.6,0,1.39-.31,2.51-.94,3.39-.69.96-1.6,1.44-2.72,1.44s-2.04-.49-2.73-1.48c-.62-.89-.94-1.97-.94-3.23"/>
  <path class="cls-1" d="m285.25,268.1v-9.34h1.52l1.82,6.62.36,1.38c.09-.34.23-.84.41-1.5l1.84-6.5h1.36v9.34h-.98v-7.81l-2.23,7.81h-.91l-2.22-7.95v7.95h-.97Z"/>
  <polygon class="cls-1" points="96.7 323.03 96.7 313.69 97.71 313.69 97.71 321.93 101.48 321.93 101.48 323.03 96.7 323.03"/>
  <rect class="cls-1" x="102.91" y="313.69" width="1.01" height="9.34"/>
  <path class="cls-1" d="m107.89,323.03l-2.97-9.34h1.1l2,6.79c.15.53.29,1.04.4,1.53.12-.51.26-1.02.41-1.53l2.07-6.79h1.03l-2.99,9.34h-1.04Z"/>
  <rect class="cls-1" x="113.02" y="313.69" width="1.01" height="9.34"/>
  <polygon class="cls-1" points="115.77 323.03 115.77 313.69 116.81 313.69 120.84 321.04 120.84 313.69 121.81 313.69 121.81 323.03 120.77 323.03 116.75 315.68 116.75 323.03 115.77 323.03"/>
  <path class="cls-1" d="m127.14,319.37v-1.1h3.24s0,3.47,0,3.47c-.5.49-1.01.85-1.54,1.09-.53.24-1.08.37-1.64.37-.75,0-1.41-.19-2-.56-.59-.37-1.05-.92-1.39-1.64-.34-.72-.51-1.58-.51-2.59s.17-1.91.52-2.67c.34-.76.79-1.32,1.35-1.67.56-.36,1.22-.54,1.98-.54.56,0,1.05.1,1.47.31.42.21.77.5,1.04.89.27.38.48.91.61,1.57l-.91.31c-.12-.53-.28-.92-.47-1.18-.19-.26-.43-.47-.74-.62-.31-.15-.65-.22-1.03-.22-.56,0-1.04.14-1.44.4-.4.27-.72.69-.97,1.26-.24.57-.37,1.26-.37,2.09,0,1.25.26,2.19.78,2.81.52.62,1.2.93,2.04.93.4,0,.81-.1,1.23-.29.42-.19.75-.42,1-.68v-1.74h-2.25Z"/>
  <polygon class="cls-1" points="78.44 77.53 78.44 68.19 79.46 68.19 79.46 72.82 83.26 68.19 84.64 68.19 81.42 71.98 84.78 77.53 83.44 77.53 80.72 72.81 79.46 74.29 79.46 77.53 78.44 77.53"/>
  <rect class="cls-1" x="85.81" y="68.19" width="1.01" height="9.34"/>
  <polygon class="cls-1" points="90.56 77.53 90.56 69.29 88.04 69.29 88.04 68.19 94.11 68.19 94.11 69.29 91.57 69.29 91.57 77.53 90.56 77.53"/>
  <path class="cls-1" d="m100.57,74.25l1.02.31c-.23,1.05-.62,1.83-1.18,2.35-.56.52-1.25.78-2.05.78-.71,0-1.32-.17-1.82-.52-.5-.35-.92-.9-1.24-1.67-.32-.77-.48-1.67-.48-2.71s.16-1.9.48-2.61.76-1.25,1.3-1.61c.55-.36,1.16-.54,1.84-.54.74,0,1.38.23,1.91.69.53.46.9,1.14,1.12,2.03l-.99.29c-.34-1.3-1.02-1.94-2.05-1.94-.51,0-.95.13-1.33.39-.38.26-.67.67-.9,1.22-.22.55-.34,1.25-.34,2.1,0,1.28.23,2.24.68,2.88.45.64,1.05.96,1.8.96.55,0,1.03-.2,1.43-.59.4-.39.67-.99.81-1.79"/>
  <polygon class="cls-1" points="102.86 77.53 102.86 68.19 103.87 68.19 103.87 72.02 107.85 72.02 107.85 68.19 108.87 68.19 108.87 77.53 107.85 77.53 107.85 73.13 103.87 73.13 103.87 77.53 102.86 77.53"/>
  <polygon class="cls-1" points="110.61 77.53 110.61 68.19 116.14 68.19 116.14 69.29 111.62 69.29 111.62 72.15 115.86 72.15 115.86 73.25 111.62 73.25 111.62 76.43 116.32 76.43 116.32 77.53 110.61 77.53"/>
  <polygon class="cls-1" points="117.69 77.53 117.69 68.19 118.73 68.19 122.76 75.54 122.76 68.19 123.73 68.19 123.73 77.53 122.69 77.53 118.67 70.18 118.67 77.53 117.69 77.53"/>
  <path class="cls-1" d="m84.86,230.06h1.63c.66,0,1.16-.11,1.5-.32.34-.21.6-.56.78-1.04.24-.63.36-1.39.36-2.28,0-.95-.13-1.69-.39-2.23-.26-.54-.59-.9-.99-1.09-.27-.12-.7-.18-1.29-.18h-1.61v7.14Zm-1.01,1.1v-9.34h2.64c.65,0,1.15.06,1.49.17.45.15.83.42,1.16.82.33.39.58.89.76,1.49.18.6.27,1.31.27,2.14,0,1.06-.16,1.96-.47,2.69s-.71,1.26-1.19,1.57c-.49.31-1.12.46-1.91.46h-2.77Z"/>
  <rect class="cls-1" x="91.79" y="221.82" width="1.01" height="9.34"/>
  <polygon class="cls-1" points="94.54 231.16 94.54 221.82 95.58 221.82 99.61 229.17 99.61 221.82 100.58 221.82 100.58 231.16 99.54 231.16 95.51 223.81 95.51 231.16 94.54 231.16"/>
  <rect class="cls-1" x="102.49" y="221.82" width="1.01" height="9.34"/>
  <polygon class="cls-1" points="105.24 231.16 105.24 221.82 106.28 221.82 110.31 229.17 110.31 221.82 111.28 221.82 111.28 231.16 110.24 231.16 106.22 223.81 106.22 231.16 105.24 231.16"/>
  <path class="cls-1" d="m116.61,227.5v-1.1h3.24s0,3.47,0,3.47c-.5.49-1.01.85-1.54,1.09-.53.24-1.08.37-1.64.37-.75,0-1.41-.19-2-.56-.59-.37-1.05-.92-1.39-1.64-.34-.72-.51-1.58-.51-2.59s.17-1.91.52-2.67c.34-.76.79-1.32,1.35-1.67.56-.36,1.22-.54,1.98-.54.56,0,1.05.1,1.47.31.42.21.77.5,1.04.89.27.38.48.91.61,1.57l-.91.31c-.12-.53-.28-.92-.47-1.18-.19-.26-.43-.47-.74-.62-.31-.15-.65-.22-1.03-.22-.56,0-1.04.14-1.44.4-.4.27-.72.69-.97,1.26-.24.57-.37,1.26-.37,2.09,0,1.25.26,2.19.78,2.81.52.62,1.2.93,2.04.93.4,0,.81-.1,1.23-.29.42-.19.75-.42,1-.68v-1.74h-2.25Z"/>
  <polyline class="cls-8" points="87.56 28.66 87.56 57.71 56.68 57.71 56.68 77.53 28.59 77.53"/>
  <path class="cls-8" d="m196.75,320.63h1.15v-24.34h-1.15v24.34Zm-.86-25.11h16.35v45.79h-16.35v-45.79Zm24.91,36.35c.08.08.19.12.3.1m0-12.59c-.11-.02-.23.02-.3.1m-.02,12.38c1.32-4.02,1.32-8.36,0-12.38m.02,1.16c-.15-.42-.32-.84-.51-1.25m.75.67c-.69,3.71-.69,7.51,0,11.22m0,.65c.28.35.74.51,1.17.39m0-13.32c-.44-.07-.88.08-1.19.39m1.22,12.95c1.42-4.33,1.42-9,0-13.34m-1.19,12.95c1.34-4.08,1.34-8.48,0-12.55m-8.81,13.25l8.18-.67m-8.18-13.18l8.18.67m-.14,12.48c.19-.41.36-.82.51-1.24m119.97-120.52l.87-.1,1.83,20.11-.96.1-1.73-20.11Zm4.71,20.11h-.96l.86-20.3.96.1-.87,20.2Zm-11.35-20.11l.87-.1,1.83,20.11-.96.1-1.73-20.11Zm4.71,20.11h-.96l.87-20.3.96.1-.87,20.2Zm-11.45-20.11l.96-.1,1.83,20.11-.96.1-1.83-20.11Zm4.81,20.11h-.96l.87-20.3.96.1-.87,20.2Zm-11.45-20.11l.96-.1,1.83,20.11-.96.1-1.83-20.11Zm4.81,20.11h-.96l.87-20.3.87.1-.77,20.2Zm-11.45-20.11l.96-.1,1.73,20.11-.87.1-1.83-20.11Zm4.71,20.11h-.87l.87-20.3.87.1-.87,20.2Zm-11.35-20.11l.96-.1,1.73,20.11-.86.1-1.83-20.11Zm4.71,20.11h-.87l.77-20.3.96.1-.86,20.2Zm-11.35-20.11l.87-.1,1.83,20.11-.96.1-1.73-20.11Zm4.71,20.11h-.96l.87-20.3.96.1-.87,20.2Zm-11.35-20.11l.87-.1,1.83,20.11-.96.1-1.73-20.11Zm4.71,20.11h-.96l.87-20.3.96.1-.87,20.2Zm-11.45-20.11l.96-.1,1.83,20.11-.96.1-1.83-20.11Zm4.81,20.11h-.96l.87-20.3.96.1-.87,20.2Zm-11.45-20.11l.96-.1,1.83,20.11-.96.1-1.83-20.11Zm4.81,20.11h-.96l.86-20.3.87.1-.77,20.2Zm-11.45-20.11l.96-.1,1.73,20.11-.87.1-1.83-20.11Zm4.71,20.11h-.87l.87-20.3.86.1-.86,20.2Zm66.47-20.2h-.96v20.3h.96v-20.3Zm-73.11,20.2h-.87l.77-20.3.96.1-.87,20.2Zm-4.71-20.11l.96-.1,1.73,20.11-.87.1-1.83-20.11Zm-3.08-.1h.87v20.3h-.87v-20.3Zm-3.17,0h.96v20.3h-.96v-20.3Zm-3.75,10.58h91.58m-91.58-.96h91.58m-91.58-12.6h91.58v26.17h-91.58v-26.17Zm-.96-.87h93.51v27.99h-93.51v-27.99Z"/>
  <path class="cls-8" d="m256.58,196.91h.96v3.65h91.58v-114.86h-72.92v65.42h-18.66v3.65h-.96v42.14ZM28.59,57.62h28.09v-27.99h30.88"/>
  <path class="cls-8" d="m191.17,54.34h4.71v-20.97h-4.71m0,0v20.97"/>
  <path class="cls-1" d="m192.35,40.67v.67c0,.21.02.37.07.49s.1.21.18.28c.11.1.26.17.44.23.19.05.41.08.68.08.37,0,.65-.05.84-.16.2-.11.33-.24.4-.39.05-.11.07-.29.07-.54v-.66h-2.68Zm-.41-.42h3.5v1.09c0,.25-.02.43-.05.56-.05.18-.13.33-.25.46-.16.17-.36.29-.6.37-.24.08-.52.12-.83.12-.27,0-.5-.03-.71-.08-.21-.06-.38-.13-.51-.22-.13-.09-.24-.18-.32-.29-.08-.1-.14-.23-.17-.38-.04-.15-.06-.32-.06-.51v-1.14Z"/>
  <path class="cls-1" d="m193.97,43.83v.68c0,.18.01.32.04.4.04.11.09.19.17.24.08.05.18.08.31.08.12,0,.22-.03.31-.08.09-.05.15-.12.18-.22.03-.09.05-.25.05-.48v-.63h-1.06Zm-1.62,0v.78c0,.13,0,.23.02.28.02.1.05.18.1.24.04.06.11.12.2.16.09.04.18.06.29.06.13,0,.24-.03.34-.09.1-.06.16-.14.2-.25.04-.11.06-.26.06-.46v-.73h-1.21Zm-.41-.42h3.5v1.18c0,.24-.04.43-.11.58-.07.15-.18.26-.33.34-.15.08-.3.12-.46.12-.15,0-.29-.04-.42-.11-.13-.07-.24-.18-.32-.33-.06.19-.17.34-.32.44-.15.1-.33.15-.53.15-.16,0-.32-.03-.46-.09-.14-.06-.25-.14-.33-.23-.08-.09-.14-.21-.17-.35-.04-.14-.06-.31-.06-.51v-1.2Z"/>
  <path class="cls-1" d="m285.81,160.52h1.66c.43,0,.74-.03.93-.09.26-.09.47-.24.61-.45.14-.21.21-.5.21-.86,0-.34-.07-.62-.19-.84-.13-.22-.3-.38-.52-.46-.22-.08-.6-.13-1.16-.13h-1.54v2.82Zm0,4.32h1.91c.42,0,.73-.04.93-.11.29-.11.51-.29.66-.54s.23-.57.23-.95c0-.35-.07-.65-.22-.9-.14-.24-.34-.42-.58-.54-.24-.11-.63-.17-1.15-.17h-1.78v3.21Zm-1.01,1.1v-9.34h2.88c.58,0,1.04.09,1.38.27.34.18.62.46.84.84.22.38.33.8.33,1.27,0,.43-.09.82-.28,1.16-.19.35-.45.62-.79.83.44.16.79.44,1.05.83.26.39.38.87.38,1.44s-.12,1.06-.35,1.49c-.23.43-.54.74-.93.93-.39.19-.92.29-1.59.29h-2.92Z"/>
  <path class="cls-1" d="m293.33,162.1h2.61l-.8-2.59c-.24-.8-.43-1.44-.54-1.94-.1.6-.24,1.19-.42,1.78l-.85,2.74Zm-2.2,3.84l2.95-9.34h1.08l3.14,9.34h-1.16l-.89-2.83h-3.22l-.83,2.83h-1.07Z"/>
  <polygon class="cls-1" points="301.07 165.94 301.07 157.7 298.55 157.7 298.55 156.59 304.62 156.59 304.62 157.7 302.08 157.7 302.08 165.94 301.07 165.94"/>
  <polygon class="cls-1" points="305.64 165.94 305.64 156.59 306.65 156.59 306.65 160.43 310.64 160.43 310.64 156.59 311.65 156.59 311.65 165.94 310.64 165.94 310.64 161.53 306.65 161.53 306.65 165.94 305.64 165.94"/>
  <path class="cls-1" d="m222.97,112.16l-1.31-5.98h.66l.75,3.92c.08.4.15.81.21,1.22l.22-1.11.93-4.04h.79l.7,3.03c.17.74.3,1.44.38,2.12.06-.39.14-.82.24-1.3l.77-3.84h.65l-1.35,5.98h-.62l-1.04-4.56-.15-.7c-.05.26-.09.5-.14.7l-1.04,4.56h-.66Z"/>
  <rect class="cls-1" x="228.67" y="111.33" width=".69" height=".84"/>
  <path class="cls-1" d="m233.95,110.06l.65.2c-.14.67-.4,1.17-.76,1.5-.36.33-.8.5-1.32.5-.46,0-.84-.11-1.17-.33-.32-.22-.59-.58-.79-1.07-.21-.49-.31-1.07-.31-1.73s.1-1.22.31-1.67c.2-.46.48-.8.83-1.03.35-.23.74-.35,1.17-.35.47,0,.88.15,1.22.44.34.29.58.73.71,1.3l-.64.18c-.22-.83-.65-1.24-1.31-1.24-.33,0-.61.08-.85.25-.24.17-.43.43-.57.78s-.21.8-.21,1.34c0,.82.14,1.43.43,1.84.29.41.67.61,1.15.61.35,0,.66-.12.92-.38.26-.25.43-.63.52-1.14"/>
  <path class="cls-8" d="m186.55,203.84h4.62m-13.47,0h5.96m-14.91,0h5.96m-14.81,0h5.96m-14.91,0h5.96m-14.82,0h5.87m-14.82,0h5.96m-14.82,0h5.87m-14.81,0h5.96m-14.82,0h5.87m-14.81,0h5.96m-14.82,0h5.87m-14.81,0h5.96m-14.81,0h5.87m-14.81,0h5.96m-14.81,0h5.87m-14.82,0h5.96m-14.81,0h5.87m-13.47,0h4.62"/>
  <path class="cls-8" d="m342.59,164.78l-2.12,2.02m5-4.91l-2.12,2.02m5-4.91l-2.02,2.02m-6.06,4.33l-.48.58m3.37-3.46l-2.02,2.12m4.91-5l-2.02,2.12m4.91-5l-2.02,2.12m-5.96,4.33l-1.15,1.06m4.04-3.94l-2.12,2.02m5-5l-2.12,2.12m4.52-4.52l-1.63,1.64m-5.96,4.33l-1.73,1.73m4.62-4.62l-2.02,2.02m4.91-4.91l-2.02,2.02m3.85-3.85l-.96.96m-5.96,4.33l-2.12,2.12m5-5l-2.12,2.12m5-5l-2.12,2.12m3.27-3.27l-.38.38m-8.85,7.22l-.1.1m2.98-2.98l-2.02,2.02m4.91-4.91l-2.02,2.02m4.91-4.91l-2.02,2.02m-6.06,4.33l-.67.77m3.56-3.66l-2.02,2.12m5-5l-2.12,2.12m4.91-4.91l-2.02,2.02m-5.96,4.33l-1.35,1.35m4.23-4.23l-2.12,2.02m5-5l-2.12,2.12m4.33-4.23l-1.35,1.35m-6.06,4.33l-1.92,1.92m4.81-4.81l-2.02,2.02m4.91-4.91l-2.02,2.02m3.65-3.66l-.77.77m-5.96,4.33l-2.12,2.12m5-5l-2.12,2.12m5-5l-2.12,2.12m3.08-3.08l-.19.19m-8.85,7.21l-.29.29m3.17-3.17l-2.02,2.02m4.91-4.91l-2.02,2.02m4.91-4.91l-2.02,2.02m-5.96,4.33l-.96.96m3.85-3.85l-2.12,2.12m5-5l-2.12,2.12m4.71-4.71l-1.83,1.83m-5.96,4.33l-1.54,1.54m4.43-4.42l-2.02,2.02m4.91-4.91l-2.02,2.02m4.04-4.04l-1.15,1.15m-6.06,4.33l-2.02,2.02m4.91-4.91l-2.02,2.02m5-4.91l-2.12,2.02m3.46-3.37l-.58.48m-5.96,4.33l-2.12,2.12m5-5l-2.12,2.12m5-5l-2.02,2.12m-6.06,4.33l-.48.48m3.37-3.37l-2.02,2.02m4.91-4.91l-2.02,2.02m4.91-4.91l-2.02,2.02m-5.96,4.33l-1.15,1.15m4.04-4.04l-2.12,2.12m5-5l-2.12,2.12m4.52-4.52l-1.63,1.64m-5.96,4.33l-1.73,1.73m4.62-4.62l-2.02,2.02m4.91-4.91l-2.02,2.02m3.85-3.85l-.96.96m-5.96,4.33l-2.12,2.02m5-4.91l-2.12,2.02m5-4.91l-2.12,2.02m3.27-3.17l-.38.29m-8.85,7.21l-.1.19m2.98-3.08l-2.02,2.12m4.91-5l-2.02,2.12m4.91-5l-2.02,2.12m-6.06,4.33l-.67.67m3.56-3.56l-2.02,2.02m5-4.91l-2.12,2.02m4.23-4.23l-1.35,1.35m-5.96,4.33l-1.35,1.35m4.23-4.23l-2.12,2.12m4.91-4.91l-2.02,2.02m-3.08,1.44l-1.92,1.92m4.81-4.81l-2.02,2.02m-.19-1.44l-2.12,2.02m3.17-3.18l-.29.29m-3.08,1.44l-.29.39m2.02-2.12l-.87.96m-.77-.96l-.39.48m-2.36,15.87c-.29,0-.53.24-.53.53s.24.53.53.53.53-.24.53-.53-.24-.53-.53-.53m0,8.27c-.29,0-.53.24-.53.53s.24.53.53.53.53-.24.53-.53-.24-.53-.53-.53m-11.71-2.56c.71,1.02,1.87,1.62,3.12,1.6m-3.1-2.79v1.25m3.1-2.89c-1.24-.02-2.41.58-3.12,1.6m4.81-.06c-.12-.86-.88-1.49-1.74-1.45m1.86,2.88v-1.44m-1.86,2.89c.87.04,1.62-.59,1.74-1.45m-11.53-6.34h15.2m-15.25,0c-.13,0-.24.11-.24.24m0,9.86v-9.81m0,9.76c0,.13.11.24.24.24m15.25-10.29v10.29h-15.2m0-11.16h16.07m-16.11-.1c-.66,0-1.2.54-1.2,1.2m.1,9.86v-9.81m-.1,9.76c0,.66.54,1.2,1.2,1.2m16.11-12.12v12.12h-16.07m-1.15-14.43h21.93m-21.98-.1c-1.3,0-2.36,1.05-2.36,2.36m0,12.17v-12.12m0,12.07c0,1.3,1.06,2.36,2.36,2.36m21.98-16.74v16.74h-21.93m22.8-65.8h3.56v27.99h-3.56v-27.99Zm7.79,14.72h-3.27m3.27.86h-3.27m3.56-1.83h.38v2.79h-.38m0,0v-2.79l-.29.96v.86m.29.96l-.29-.96m-6.64.96v-2.79m.67,2.79v-2.79m-.67,0h.67l1.44.67h1.25v1.44h-1.25l-1.44.67h-.67m2.12-2.12v1.44M42.73,182.87h-15.01v79.36h15.01v-79.36Z"/>
  <path class="cls-8" d="m326.71,134.29h4.62v-4.71h-4.62v4.71Zm4.62-2.36c0-1.3-1.05-2.36-2.36-2.36s-2.36,1.05-2.36,2.36,1.05,2.36,2.36,2.36,2.36-1.06,2.36-2.36m8.47,35.93h9.33v-42.04h-9.33v42.04Zm8.37-.39l-.48.39m1.44-1.35l-.19.1m-.19-1.44l-2.02,2.12m-.19-1.54l-2.12,2.12m4.71-4.71l-1.83,1.83m-3.08,1.44l-1.44,1.44m4.33-4.33l-2.02,2.02m4.04-4.04l-1.16,1.15m-6.06,4.33l-.87.87m3.75-3.75l-2.02,2.12m5-5l-2.12,2.12m3.46-3.46l-.58.58"/>
  <path class="cls-2" d="m343.07,149.2v-4.62l2.79,4.62h-2.79Zm0-4.62l2.79,4.62v-4.62h-2.79Z"/>
  <path class="cls-8" d="m338.16,158.91h-.29m0,3.22c0,.08.06.14.14.14s.14-.07.14-.14m0-1.59v1.64m0-3.27v.48m-.29,1.15v1.64m0-3.27v.48m-.39,1.15h2.31v-1.15h-2.31v1.15Zm-.67-27.71l-.39-.39-.38-.39-.19-.58-.19-.67.19-.67.1-.29.29-.29.29-.1.39-.1.77.19.58.48.19.29v.29l.1.58v.38l.19.1.48.1h.58m-2.4.87l-.77-.67-.29-.39-.1-.48v-.58l.1-.48.38-.19h.48l.58.29.19.48.1.96.19.39.38.19,1.15.1m-1.35,1.49c0-.61-.49-1.11-1.11-1.11s-1.11.5-1.11,1.11.5,1.11,1.11,1.11,1.11-.49,1.11-1.11m-.19-.72h1.54v1.54h-1.54m6.11,10.68c-.24,0-.43.19-.43.43s.19.43.43.43.43-.19.43-.43-.19-.43-.43-.43m0,1.54c-.5,0-.91.41-.91.91s.41.91.91.91.91-.41.91-.91-.41-.91-.91-.91m1.49,2.4h-2.79v-4.62h2.79-2.79v4.62h2.79Z"/>
  <path class="cls-3" d="m313.63,124.19v.96l35.5-.96h-35.5Zm35.5,0l-35.5.96h35.5v-.96Z"/>
  <path class="cls-8" d="m349.13,123.51h-72.92m72.92,2.31h-72.92m72.92-.67h-35.5v-.96h35.5v.96Z"/>
  <path class="cls-2" d="m332.77,167.86h16.35l-16.35,32.71v-32.71Zm16.35,0l-16.35,32.71h16.35v-32.71Z"/>
  <path class="cls-8" d="m332.77,167.86h16.35v32.71h-16.35v-32.71Zm.67,1.92l1.92-1.92m2.6.77l.67-.77m-3.56,3.66l2.02-2.12m-4.33,4.42l1.44-1.54m5.39-2.02l2.12-2.12m-5,5l2.12-2.12m-5,5l2.12-2.12m-3.17,3.18l.29-.29m11.06-7.79l1.15-1.16m-4.04,4.04l2.12-2.12m-5,5l2.12-2.02m-5,4.91l2.12-2.02m-4.81,4.71l1.92-1.83m11.16-7.89l2.02-2.02m-4.91,4.91l2.02-2.02m-5,4.91l2.12-2.02m-5,4.91l2.12-2.02m-5,4.91l2.12-2.02m-3.56,3.56l.67-.67m14.05-10.77l1.63-1.64m-4.52,4.52l2.02-2.02m-4.91,4.91l2.02-2.02m-4.91,4.91l2.02-2.02m-4.91,4.91l2.02-2.02m-4.91,4.91l2.02-2.02m11.16-7.89l2.02-2.02m-4.91,5l2.02-2.12m-4.91,5l2.02-2.12m-4.91,5l2.02-2.12m-4.91,5l2.02-2.12m-3.94,3.94l1.06-1.06m14.05-10.68l1.25-1.25m-4.14,4.14l2.02-2.12m-4.91,5l2.02-2.12m-4.91,5l2.02-2.12m-4.91,5l2.02-2.12m-4.91,5l2.02-2.12m11.16-7.79l2.12-2.12m-5,5l2.12-2.12m-5,5l2.12-2.12m-5,5l2.02-2.02m-4.91,4.91l2.02-2.02m-4.33,4.33l1.44-1.44m14.04-10.77l.87-.86m-3.75,3.75l2.12-2.02m-5,4.91l2.12-2.02m-5,4.91l2.12-2.02m-5,4.91l2.12-2.02m-5,4.91l2.12-2.02m-3.17,3.08l.29-.19m13.95-10.77l2.12-2.02m-5,4.91l2.12-2.02m-5,4.91l2.12-2.02m-5,4.91l2.12-2.02m-4.81,4.71l1.92-1.83m11.16-7.89l.38-.38m-3.27,3.27l2.02-2.02m-4.91,4.91l2.02-2.02m-5,5l2.12-2.12m-3.08,3.08l.19-.19m8.27-4.91l1.63-1.73m-4.52,4.62l2.02-2.12m-4.33,4.33l1.44-1.44m2.5.87l2.02-2.12m.67,2.69l.19-.19m-16.35-31.55l.96-.96m-.96,4.33l4.23-4.33m-4.23,7.6l7.5-7.6m-7.5,10.87l10.87-10.87m-10.87,14.24l14.14-14.24m-14.14,17.51l16.35-16.35m-16.35,19.62l16.35-16.35m-16.35,19.72l16.35-16.35m-16.35,19.62l16.35-16.35m-16.35,19.62l16.35-16.35m-15.1,18.37l15.1-15.01m-11.83,15.01l11.83-11.74m-8.46,11.74l8.46-8.46m-5.19,8.46l5.19-5.1m-1.92,5.1l1.92-1.83m-16.35,1.83h16.35v-32.71h-16.35v32.71Z"/>
  <path class="cls-2" d="m326.04,194.99h20.01l-20.68-.67.67.67Zm20.01,0l-20.68-.67h21.45l-.77.67Zm-20.68-.67h21.45l-21.55-20.11.1,20.11Zm21.45,0l-21.55-20.11h21.55v20.11Zm-21.55-20.11h21.55l-20.88-.67-.67.67Zm21.55,0l-20.88-.67h20.1l.77.67Z"/>
  <path class="cls-8" d="m325.27,174.21l.1,20.11m.53-20.87c-.19,0-.38.08-.51.21-.13.14-.21.32-.21.51m20.88-.63h-20.11m20.78.62c0-.4-.32-.72-.72-.72m.82,20.87v-20.11m-.82,20.78c.4,0,.72-.32.72-.72m-20.68.72h20.01m-20.78-.72c0,.4.32.72.72.72m10.82-10.68h-1.25m5.58-9.04h-14.14l.1,17.99h14.04v-17.99Zm3.18,8.95h.48m-.82-.58c-.29,0-.53.24-.53.53s.24.53.53.53.53-.24.53-.53-.24-.53-.53-.53m-.34.58h-.48m.87.39v.48m-.1-1.63v.48m-5.39.38h1.25m-2.17-.86c-.45,0-.82.37-.82.82s.37.82.82.82.82-.37.82-.82-.37-.82-.82-.82m0-.58c-.77,0-1.39.62-1.39,1.39s.62,1.39,1.39,1.39,1.39-.62,1.39-1.39-.62-1.39-1.39-1.39m.05,2.21v1.35m0-4.33v1.35m-11.74-9.91h20.11l.77.67v20.11l-.77.67h-20.01l-.67-.67-.1-20.11.67-.67Z"/>
  <path class="cls-8" d="m28.59,164.2V57.62m241.07,63.59v-51.85h-72.82v3.75h-.96v42.04h.96v29.44h44.83v-23.38h27.99Z"/>
  <path class="cls-5" d="m135.18,28.66h-4.71v30.4h-4.62v-30.4H55.72v28.09m140.16,336.31v-191.53h-4.71v191.53M354.71,21.64h-165.85v7.02h2.31v44.44m0,42.04v39.64h4.71m2.31-128.43h72.44m-74.75,42.04v4.71m154.21,128.43v-116.79m-93.51,121.5h93.51m0-4.71h-93.51v-4.62m0-42.13v-4.62m18.76,0v-65.41m-23.38,70.03v-4.62m18.66-86.39V26.35m-14.05,170.56h-4.62m23.38-112.17h74.75m-154.21,30.4h-4.71m4.71-42.04h-4.71m4.71,77.06h56.08m4.62,0h18.76M135.18,28.66v-7.02m63.01,42.14h72.44m-74.75,4.62h74.75m-14.05,86.39h-4.62m4.62,51.47v27.99h-4.62v-37.32m-56.08-81.77v30.3m0,4.71v4.62"/>
  <path class="cls-1" d="m176.8,106.36c0-.54-.1-1-.28-1.38-.18-.38-.45-.67-.81-.88-.25-.15-.52-.25-.8-.32-.28-.06-.63-.09-1.05-.09h-.71s.06,5.41.06,5.41h.71c.41-.01.78-.05,1.09-.12.31-.07.59-.2.85-.38.32-.22.56-.52.72-.89.16-.37.24-.82.23-1.37m.97,0c0,.64-.12,1.22-.37,1.74-.25.52-.6.92-1.03,1.22-.35.23-.71.38-1.08.46-.36.08-.83.12-1.4.13l-1.61.02-.08-7.01,1.6-.02c.66,0,1.18.04,1.55.13.38.1.7.23.96.4.45.29.81.69,1.06,1.18.25.49.38,1.08.39,1.76"/>
  <polygon class="cls-1" points="166.88 109.98 166.8 102.97 171.18 102.92 171.19 103.75 167.74 103.79 167.76 105.71 170.98 105.67 170.98 106.5 167.77 106.53 167.8 109.14 171.25 109.1 171.26 109.93 166.88 109.98"/>
  <path class="cls-1" d="m164.6,104.7c0-.17-.03-.32-.09-.44s-.15-.22-.28-.29c-.15-.08-.32-.13-.5-.15-.19-.02-.44-.02-.77-.02h-.89s.02,2.06.02,2.06h1.06c.29-.02.51-.03.64-.06.14-.03.28-.09.43-.19.14-.09.24-.21.3-.36.06-.15.09-.33.08-.55m.37,3.18c0-.26-.04-.48-.12-.65-.08-.17-.23-.31-.46-.43-.15-.08-.31-.13-.48-.15-.18-.02-.42-.03-.74-.02h-1.06s.03,2.6.03,2.6h.76c.41-.01.73-.03.96-.08.24-.04.44-.12.62-.25.17-.12.3-.26.38-.42s.12-.36.12-.61m.97-.05c0,.35-.06.66-.19.92s-.3.49-.52.67c-.26.21-.54.36-.84.45-.3.09-.69.14-1.17.14l-2.01.02-.08-7.01,1.86-.02c.5,0,.87,0,1.12.04.25.03.49.1.72.22.25.13.44.31.56.52.12.22.18.47.18.77,0,.33-.08.62-.25.89-.17.26-.41.47-.72.62v.04c.42.11.74.31.98.61.23.3.35.67.36,1.12"/>
  <rect class="cls-1" x="157.38" y="106.57" width="2.66" height=".85" transform="translate(-1.12 1.68) rotate(-.61)"/>
  <path class="cls-1" d="m156.21,110.09l-3.42.04v-.72s1.26-.01,1.26-.01l-.05-4.7h-1.27s0-.63,0-.63c.48,0,.83-.08,1.06-.21.23-.14.35-.4.38-.78h.73s.07,6.31.07,6.31h1.24s0,.7,0,.7Z"/>
  <path class="cls-8" d="m57.07,92.34v-3.37m-28.47-10.29v27.99m28.09,0v-27.99m-24.55,10.36c1.45,1.33,3.68,1.33,5.13,0m-4.92-.2c1.34,1.21,3.38,1.21,4.72,0m-.39-.24l1.15,1.06m-.87-1.35l1.06,1.15m-5.58-1.15l-1.06,1.15m1.35-.86l-1.15,1.06m17.99-1.98c-.06-.93-.85-1.64-1.78-1.58-.93.06-1.64.85-1.58,1.78.06.93.85,1.64,1.78,1.58.93-.06,1.63-.85,1.58-1.78m.29-.02c-.07-1.09-1-1.91-2.09-1.85-1.09.07-1.92,1-1.85,2.09.07,1.09,1,1.91,2.09,1.85,1.09-.07,1.92-1,1.85-2.09m1.56,3.32c1.65-1.81,1.65-4.58,0-6.4m.34,6.74c1.83-2,1.83-5.07,0-7.08m-7.4.34c-1.64,1.82-1.64,4.58,0,6.4m-.34-6.74c-1.83,2-1.83,5.07,0,7.08m7.77,6.08c-1.34-1.21-3.38-1.21-4.72,0m4.92-.2c-1.45-1.33-3.68-1.33-5.13,0m0,5.61c1.45,1.33,3.68,1.33,5.13,0m-4.92-.2c1.34,1.21,3.38,1.21,4.72,0m-.87-2.69c-.05-.82-.76-1.45-1.58-1.4-.82.05-1.45.76-1.4,1.58.05.82.76,1.45,1.58,1.4.82-.05,1.45-.76,1.4-1.58m-6.57-8.26c2,1.83,5.07,1.83,7.08,0m-6.74-.34c1.82,1.64,4.58,1.64,6.4,0m5.6,15.38h-28.09m28.47-5.48v-3.75m-6.45,2.48c-.04-.66-.61-1.17-1.27-1.13-.66.04-1.17.61-1.13,1.27.04.66.61,1.17,1.27,1.13.66-.04,1.17-.61,1.13-1.27m1.4,2.43c1.21-1.34,1.21-3.38,0-4.72m.2,4.92c1.33-1.45,1.33-3.68,0-5.13m5.32,4.83v-1.15m-.38,1.06h-.48m.87-1.06h-.38v1.15h.38m-.38-1.06h-.48m0,4.52h.39v-3.56m-4.54,1.19c.08-.08.17-.16.24-.24m-1.33-.84c.09-.08.17-.16.25-.24m-.29.24l1.15,1.06m-.86-1.25l1.06,1.06m4.33-6.64v-3.17m.1,3.17h-.48m.87,1.06h-.38v-1.15h.38m-.38,1.06h-.48m.87.1v-1.15m-.38-4.04h-.48m.87,1.06h-.38v-1.15h.38m-.38,1.06h-.48m.87.1v-1.15m-5.87,5.73c-.08-.09-.16-.17-.25-.25m1.33-.85c-.08-.08-.16-.17-.24-.24m-.85,1.38l1.06-1.06m-1.35.87l1.15-1.15m-.45-4.35c.11-.11.22-.22.33-.33m-1.83-1.17c.12-.1.23-.22.33-.33m-.31.41l1.44,1.44m-1.06-1.83l1.44,1.44m-14.62,7.07c-.06-.93-.85-1.64-1.78-1.58-.93.06-1.64.85-1.58,1.78s.85,1.64,1.78,1.58c.93-.06,1.63-.85,1.58-1.78m.29-.02c-.07-1.09-1-1.92-2.09-1.85-1.09.07-1.92,1-1.85,2.09.07,1.09,1,1.91,2.09,1.85,1.09-.07,1.92-1,1.85-2.09m1.57-3.75c-2-1.83-5.07-1.83-7.08,0m6.74.34c-1.82-1.65-4.58-1.65-6.4,0m0,7.06c1.82,1.65,4.58,1.65,6.4,0m-6.74.34c2,1.83,5.07,1.83,7.08,0m7.14-5.36c-1.21,1.34-1.21,3.38,0,4.72m-.2-4.92c-1.33,1.45-1.33,3.68,0,5.13m-6.6.11c1.83-2,1.83-5.07,0-7.08m-.34,6.74c1.65-1.82,1.65-4.58,0-6.4m7.49,6.08c.08.09.16.17.25.24m-1.33.84c.08.08.16.17.24.24m.85-1.28l-1.06,1.06m1.35-.87l-1.15,1.06m-7.02-1.44l1.44,1.54m-1.83-1.15l1.44,1.44m-1.46-1.52c.12-.1.23-.21.33-.33m1.17,1.83c.11-.11.23-.22.33-.33m6.71-5.61c-.09.08-.17.16-.25.25m-.85-1.33c-.08.08-.17.16-.24.24m1.38.94l-1.15-1.15m.86,1.35l-1.06-1.06m-1.27-6.47c.1.12.21.23.33.33m-1.83,1.17c.11.11.22.23.33.33m1.19-1.81l-1.54,1.44m1.83-1.06l-1.44,1.44m-5.89-2.76c.08-.08.17-.16.25-.24m.83,6.85l1.44-1.54m-1.06,1.83l1.44-1.54m-.02-.03c-.11-.11-.22-.23-.33-.33m-1.17,1.83c-.1-.12-.21-.23-.33-.33m-6.59-.49c-1.83,2-1.83,5.07,0,7.08m.34-6.74c-1.65,1.82-1.65,4.58,0,6.4m.79-.07l-1.44,1.44m1.15-1.83l-1.44,1.54m-.08-.06c.11.11.22.22.33.33m1.17-1.83c.1.12.21.23.33.33m-2.07-12.84c.08.08.16.17.24.24m1.52,6.89l-1.44-1.54m1.73,1.25l-1.44-1.54m-.03-.08c-.12.11-.23.22-.33.33m1.83,1.17c-.12.1-.23.21-.33.33m17.99-12.16c-1.82-1.64-4.58-1.64-6.4,0m6.74-.34c-2-1.83-5.07-1.83-7.08,0m12.34-5.22h-28.09m28.47,9.33v-3.75m.1,4.71h-.48m.87-1.06h-.38v1.16h.38m-.38-1.06h-.48m.87-.1v1.16m-.87-9.43h.39v3.66-3.66m.48,3.56v1.16m-.38-1.06h-.48m.87,1.06h-.38v-1.16h.38m-.38,1.06h-.48m-5.75.79c-.1-.12-.21-.23-.33-.33m1.83-1.17c-.11-.11-.22-.22-.33-.33m-1.09,1.81l1.44-1.44m-1.83,1.16l1.44-1.44m-14.8.13c-1.45-1.33-3.68-1.33-5.13,0m4.82.93l1.06-1.06m-1.35.77l1.15-1.06m7.33,1.71c-.12.1-.23.22-.33.33m-1.17-1.83c-.12.11-.23.22-.33.33m1.52,1.48l-1.54-1.44m1.83,1.16l-1.44-1.44m-5.64-.17c-.08-.09-.16-.17-.24-.24m-.5,5.71c1.21-1.34,1.21-3.38,0-4.72m.2,4.92c1.33-1.45,1.33-3.68,0-5.13m-5.91-.79c-.08.08-.17.16-.25.24m1.09,1.23l-1.06-1.06m.72.58c-1.21,1.34-1.21,3.38,0,4.72m-.2-4.92c-1.33,1.45-1.33,3.68,0,5.13m5.16-5.17c-1.34-1.21-3.38-1.21-4.72,0m4.62.59c-.08-.09-.16-.17-.25-.25m-4.03,0c-.09.08-.17.16-.24.25m.29-.15l-1.15-1.06m4.33,3.15c-.04-.66-.61-1.17-1.27-1.13s-1.17.61-1.13,1.27c.04.66.61,1.17,1.27,1.13.66-.04,1.17-.61,1.13-1.27m.82,2.34c.09-.08.17-.16.25-.25m-4.52,0c.08.09.16.17.24.25m3.51-2.35c-.05-.82-.76-1.45-1.58-1.4-.82.05-1.45.76-1.4,1.58.05.82.76,1.45,1.58,1.4.82-.05,1.45-.76,1.4-1.58"/>
  <path class="cls-8" d="m82.27,58.19v-.58m-19.62.58h19.72v.39m-19.72,0v-.96m0,.96h19.72m-24.24-25.3v-3.65m0,12.51v-5.87m0,14.82v-5.96m0,12.51v-3.56m27.99-20.78v-3.65m0,12.51v-5.87m0,14.82v-5.96m0,12.51v-3.56m-24.43,3.56h-3.56m12.51,0h-5.96m14.91,0h-5.96m12.51,0h-3.65m0-27.99h3.65m-12.51,0h5.96m-14.91,0h5.96m-12.51,0h3.56m32.03,86.48h-4.71v4.71h4.71v-4.71Zm-2.45,4.71c1.3,0,2.36-1.06,2.36-2.36s-1.06-2.36-2.36-2.36-2.36,1.05-2.36,2.36,1.05,2.36,2.36,2.36m8.32,21.93h-7.41m3.7.87c.5,0,.91-.41.91-.91s-.41-.91-.91-.91-.91.41-.91.91.41.91.91.91m.05,2.79v-7.41m-9.81-6.16v14.53m1.3-15.97c-.77,0-1.4.62-1.4,1.4m18.37-1.3h-16.93m18.28,1.3c0-.77-.62-1.4-1.39-1.4m1.39,15.97v-14.53m-1.39,15.87c.77,0,1.39-.62,1.39-1.39m-18.28,1.49h16.93m-18.37-1.49c0,.77.62,1.39,1.4,1.39m-2.26-15.87v14.53m2.26-16.93c-1.3,0-2.36,1.05-2.36,2.36m19.34-2.26h-16.93m19.24,2.26c0-1.3-1.06-2.36-2.36-2.36m2.36,16.93v-14.53m-2.36,16.83c1.3,0,2.36-1.05,2.36-2.36m-19.24,2.45h16.93m-19.34-2.45c0,1.3,1.06,2.36,2.36,2.36m4.47-90.43h-.77v1.15h.77v-1.15Zm30.88-29.63h-33.19v27.99h33.19v-27.99Zm.29,28.67h-33.09v.96h33.09v-.96Zm-.29-24.63h-33.19m31.17-3.08h-28.96v2.02h28.96v-2.02Zm14.33,98.08c0-.51-.41-.91-.91-.91m-106.44,36.46h106.49m-.05-.1c.51,0,.91-.41.91-.91m.1-34.49v34.54"/>
  <path class="cls-1" d="m74.48,40.95l-3.56.81c-.16.04-.34.07-.55.11l.55.12,3.56.81v.49l-4.67,1.05v-.51l3-.6c.37-.08.71-.14,1.02-.19-.53-.07-1.08-.16-1.65-.3l-2.36-.55v-.62l3.15-.73.86-.17c-.32-.05-.64-.1-.96-.16l-3.06-.58v-.52l4.67,1.02v.51Z"/>
  <rect class="cls-9" x="73.83" y="44.88" width=".65" height=".53"/>
  <path class="cls-1" d="m74.48,46.76h-3.97l3.97,1.11v.46l-3.91,1.12h3.91v.49h-4.67v-.68l3.25-.92c.33-.09.58-.16.75-.2l-.69-.18-3.31-.91v-.76h4.67v.49Z"/>
  <path class="cls-8" d="m188.86,28.66h-2.31v-7.02h2.31v7.02Zm-51.37,0h-2.31v-7.02h2.31v7.02Zm47.14,49.06h1.92V28.66h-1.92v49.06Z"/>
  <path class="cls-8" d="m137.88,34.05l-.19-1.16-.19-4.23m2.12,13.95l-.48-1.54-.96-4.04v-.1m4.62,13.76l-.96-1.83-1.35-3.46m6.93,12.79l-1.44-2.02-1.83-2.89m9.14,11.35l-2.12-2.02-1.92-2.21m10.97,9.62l-2.79-1.92-1.92-1.54m12.41,7.5l-3.37-1.54-1.83-1.06m13.56,5.19l-4.04-1.06-1.54-.58m13.85,2.69l-4.14-.39-1.25-.19m-36.07-55.51h-5.58m14.33,0h-5.87m14.62,0h-5.87m14.62,0h-5.87m14.62,0h-5.87m14.33,0h-5.58"/>
  <path class="cls-8" d="m195.88,74.26h-4.71v-1.15h4.71v1.15Zm0,40.88h-4.71v-1.15h4.71v1.15Z"/>
  <path class="cls-8" d="m191.17,79.45v-5.19m0,13.95v-5.77m0,14.62v-5.87m0,14.62v-5.87m0,14.04v-5.29"/>
  <rect class="cls-8" x="195.88" y="74.26" width="39.73" height="1.35"/>
  <path class="cls-8" d="m191.17,197.2v2.98m0-11.74v5.77m0-14.62v5.87m0-14.62v5.87m0-14.62v5.87m0-11.74v2.98m8.18-45.41l-3.46.19m12.03-1.92l-.48.19-3.75.96-1.44.19m13.66-4.91l-1.25.77-3.56,1.64-.48.19m12.31-7.79l-1.83,1.64-2.79,2.02m10.29-10.29l-2.02,2.79-1.63,1.83m7.79-12.31l-.19.48-1.64,3.46-.77,1.35m4.91-13.66l-.19,1.35-.96,3.85-.19.48m1.92-12.03l-.19,3.46"/>
  <path class="cls-8" d="m239.85,157.66h-43.96v-1.44h43.96v1.44Zm-43.96-1.44h-4.71v-1.44h4.71v1.44Zm0,45.31h-4.71v-1.35h4.71v1.35Z"/>
  <path class="cls-8" d="m201.85,199.7l-2.02.29-3.94.19m14.53-2.5l-2.79.87-2.89.67m13.56-5.29l-3.17,1.83-2.02.77m12.22-7.79l-.38.38-3.08,2.5-1.06.77m10.39-10.1l-.77,1.06-2.6,2.98-.38.38m8.18-11.93l-.86,1.92-1.83,3.17m5.58-13.37l-.67,2.79-1.06,2.79m2.98-14.43l-.29,3.94-.38,2.02"/>
  <path class="cls-8" d="m256.58,195.66h-4.62v1.25h4.62v-1.25Zm0-40.89h-4.62v1.25h4.62v-1.25Z"/>
  <path class="cls-8" d="m251.97,161.22v-5.2m0,13.95v-5.77m0,14.53v-5.77m0,14.53v-5.77m0,13.95v-5.19"/>
  <rect class="cls-8" x="256.59" y="194.32" width="39.73" height="1.35"/>
  <path class="cls-8" d="m296.12,192.29l.19,3.37m-1.83-11.93l.1.48.96,3.75.19,1.44m-4.81-13.66l.67,1.25,1.73,3.46.1.48m-7.7-12.22l1.54,1.83,2.12,2.69m-10.29-10.29l2.69,2.02,1.83,1.64m-12.22-7.79l.38.19,3.56,1.64,1.25.77m-13.66-4.91l1.44.29,3.75.86.48.19m-12.02-1.83l3.46.1"/>
  <path class="cls-5" d="m27.73,262.23V56.75h27.99M23.01,21.64h112.17m214.91,4.71h-74.75v53.68h74.75V26.35Z"/>
  <path class="cls-8" d="m47.83,30.78l3.27-4.43m-8.47,11.64l3.46-4.81m-8.75,12.03l3.46-4.81m-8.47,11.64l3.27-4.42m-9.52-18.47l-3.08-2.79m9.62,8.85l-4.33-4.04m10.97,10l-4.43-3.94m10.97,10l-4.43-4.04m9.72,8.85l-3.08-2.79"/>
  <path class="cls-5" d="m23.01,26.35h28.09m-28.09,14.05h9.33m18.76-14.05v25.68h-18.76m0,0v-11.64"/>
  <line class="cls-5" x1="198.19" y1="26.35" x2="198.19" y2="63.77"/>
  <path class="cls-1" d="m314.27,31.63h1.01v5.4c0,.9-.09,1.65-.26,2.23s-.5,1.04-.96,1.37c-.46.34-1.06.5-1.77.5-1.01,0-1.77-.3-2.27-.91-.5-.6-.76-1.67-.76-3.2v-5.4h1.01v5.39c0,.85.07,1.46.2,1.84.13.38.35.67.65.86.3.2.66.3,1.09.3.72,0,1.24-.2,1.57-.61.33-.41.49-1.2.49-2.38v-5.39Z"/>
  <polygon class="cls-1" points="318.95 40.97 318.95 32.73 316.43 32.73 316.43 31.63 322.5 31.63 322.5 32.73 319.97 32.73 319.97 40.97 318.95 40.97"/>
  <rect class="cls-1" x="323.69" y="39.67" width="1.07" height="1.31"/>
  <path class="cls-8" d="m128.83,241.26v14.53h-18.66v-18.66h18.66v4.14Zm-31.17,0v-4.14h-18.66v18.66h18.66v-14.53Zm12.51-37.42v4.23h18.66v-18.76h-18.66v14.53Zm24.92,0h-62.34v37.42h62.34v-37.42Zm-56.08,0v-14.53h18.66v18.76h-18.66v-4.23Z"/>
  <path class="cls-5" d="m27.73,262.23h7.02v138.82m315.34-194.8v55.99h-7.02v130.83h11.64"/>
  <rect class="cls-8" x="23.01" y="210.86" width="4.71" height="28.09"/>
  <polygon class="cls-7" points="24.17 231.97 26.76 231.97 26.76 231.09 27.11 231.09 27.11 233.19 26.76 233.19 26.76 232.32 24.17 232.32 24.17 231.97"/>
  <polygon class="cls-7" points="24.17 228.75 24.51 228.75 24.51 230.37 25.52 230.37 25.52 228.91 25.86 228.91 25.86 230.37 26.76 230.37 26.76 228.81 27.11 228.81 27.11 230.73 24.17 230.73 24.17 228.75"/>
  <polygon class="cls-7" points="24.17 226.63 24.51 226.63 24.51 227.93 27.11 227.93 27.11 228.28 24.17 228.28 24.17 226.63"/>
  <rect class="cls-7" x="24.17" y="225.79" width=".41" height=".37"/>
  <path class="cls-7" d="m26.76,223.82v-.53c0-.19-.01-.32-.04-.4-.03-.08-.08-.14-.15-.18-.07-.04-.16-.06-.26-.06-.1,0-.19.02-.26.07-.07.04-.12.11-.15.2-.02.07-.03.18-.03.33v.57h.89Zm-1.24,0v-.61c0-.17-.02-.3-.05-.39-.03-.09-.09-.16-.17-.21-.08-.05-.18-.07-.29-.07-.09,0-.18.02-.25.05s-.13.08-.16.13c-.04.05-.06.12-.08.2,0,.04-.01.12-.01.24v.66h1.01Zm-1.36-.66c0-.17.02-.31.05-.43.03-.12.08-.21.15-.29.06-.08.15-.14.27-.19.12-.05.25-.08.38-.08.17,0,.32.04.45.13.13.09.22.21.27.37.07-.12.16-.22.27-.28.11-.06.23-.09.35-.09.14,0,.26.03.39.1.12.07.22.17.28.29.06.12.09.28.09.49v.99h-2.94v-1.01Z"/>
  <path class="cls-7" d="m26.54,221.16c.19-.18.29-.39.29-.64,0-.18-.05-.33-.15-.47-.1-.14-.24-.25-.42-.32-.18-.07-.39-.11-.63-.11-.38,0-.67.08-.88.26-.21.17-.31.39-.31.65s.1.47.31.65c.2.17.48.26.84.26.44,0,.76-.09.95-.27m-1.68.48c-.23-.1-.41-.25-.55-.45-.13-.2-.2-.42-.2-.67,0-.23.06-.44.18-.64.12-.2.3-.35.53-.46.24-.11.5-.16.8-.16s.56.05.79.15c.23.1.41.25.54.45.13.2.19.42.19.66,0,.37-.14.68-.42.91-.28.24-.66.35-1.15.35-.26,0-.5-.05-.73-.15"/>
  <path class="cls-7" d="m24.17,218.66l1.03-.66s.11-.07.22-.13c-.07-.04-.14-.08-.2-.12l-1.05-.67v-.43l1.56,1,1.39-.93v.38l-.78.53c-.12.08-.23.15-.33.21.08.04.21.11.36.21l.75.48v.42l-1.41-.9-1.53,1.02v-.42Z"/>
  <path class="cls-8" d="m109.3,308.79h-27.99v27.99h27.99v-27.99Zm-48.39,18.76h-26.26m27.99,1.68c0-.98-.8-1.78-1.78-1.78m1.78,26.26v-24.43m-1.78,26.17c.98,0,1.78-.8,1.78-1.78m-27.99-26.12v27.9m1.78-27.99c-.98,0-1.78.8-1.78,1.78m4.43-1.68h-2.6m4.33,1.68c0-.98-.8-1.78-1.78-1.78m1.78,26.26v-24.43m-1.78,26.17c.98,0,1.78-.8,1.78-1.78m-6.16,0c0,.98.8,1.78,1.78,1.78m-1.78-26.17v24.43m26.26-54.06h-26.17m27.9,1.68c0-.98-.8-1.78-1.78-1.78m1.78,26.26v-24.43m-1.78,26.17c.98,0,1.78-.8,1.78-1.78m-27.9-26.12l-.1,27.9h26.26m-24.48-27.99c-.98,0-1.78.8-1.78,1.78m4.43-1.68h-2.6m4.33,1.68c0-.98-.8-1.78-1.78-1.78m1.78,26.26v-24.43m-1.78,26.17c.98,0,1.78-.8,1.78-1.78m-4.33,1.78h2.6m-4.43-1.78c0,.98.8,1.78,1.78,1.78m-1.68-26.17v24.43m26.17,29.63h-26.26m27.99,1.73v26.17h-27.99m27.99-26.21c0-.98-.8-1.78-1.78-1.78m-26.21,27.99v-27.9h26.26m29.63,1.73v26.17m0-26.21c0-.98-.8-1.78-1.78-1.78m-24.39.1h24.43m-24.48-.1c-.98,0-1.78.8-1.78,1.78m27.99,26.21h-27.9v-26.17m26.12,26.17c.98,0,1.78-.8,1.78-1.78m0-2.55v2.6m0-2.65c0-.98-.8-1.78-1.78-1.78m-24.39.1h24.43m-24.48-.1c-.98,0-1.78.8-1.78,1.78m.1,2.64v-2.6m-.1,2.55c0,.98.8,1.78,1.78,1.78m24.48,0h-24.43m54.06-26.17v26.17m0-26.21c0-.98-.8-1.78-1.78-1.78m-24.39.1h24.43m-24.48-.1c-.98,0-1.78.8-1.78,1.78m27.99,26.21h-27.9v-26.17m26.12,26.17c.98,0,1.78-.8,1.78-1.78m0-2.55v2.6m0-2.65c0-.98-.8-1.78-1.78-1.78m-24.39.1h24.43m-24.48-.1c-.98,0-1.78.8-1.78,1.78m.1,2.64v-2.6m-.1,2.55c0,.98.8,1.78,1.78,1.78m24.48,0h-24.43m98.89-33v-63.88m-7.99,20.59h-3.37v22.8h3.37m2.31,0h3.46v-22.8h-3.46m-1.15-13.76v50.22m-1.15-50.22v50.22h1.15l1.15-1.92v-46.94l-1.15-1.35h-1.15Zm7.99,57.05h-13.66v-63.88h13.66"/>
  <polyline class="cls-8" points="134.22 127.75 56.68 127.75 56.68 107.83 28.69 107.83"/>
  <path class="cls-8" d="m323.64,319.76l-33-38.77m43.38,33.28c.61.02,1.2-.22,1.63-.64.44-.42.68-1.01.68-1.62m-1.93,38.24c.61.02,1.2-.22,1.63-.64.44-.43.68-1.01.68-1.62m-16.45-35.74v-23.67m3.37,61.86l1.63-.19,1.54-.58,1.35-.67,1.35-.87m5-25.59l-1.35.1-.77.1-.77.19-.87.29-1.06.38-1.06.48-1.25.48m-5.1-38.29h1.64l1.64.19.77.29.67.29.67.48.58.48m-5.98-1.72c-1.14.13-2,1.1-2,2.25m22.8-7.55h-18.66v-18.76h18.66m0,93.7h-18.66m18.66,18.66v-93.6m-35.5,74.94v-28.57m16.07-5.1h1.44l1.35.39,1.15.48,1.06.87m-51.27,3.56l46.27-.29m0,28.67v-36.17m-46.27-28.76v36.55m42.9-15.34c0,.61.24,1.19.68,1.61.43.42,1.02.66,1.63.65m14.24,33.57v-23.18m-14.24-10.29l1.83-.19,1.64-.48,1.54-.87,1.54-.87m4.91-25.59l-1.25.1-.77.1-.77.19-.96.29-.96.38-1.06.38-1.25.58m-36.36-7.6l-13.27,10.01m59.07,21.07v-23.18m.29,35.93c0-.6-.24-1.18-.67-1.61-.43-.42-1.01-.66-1.62-.65m1.91-33.72c0-.61-.24-1.18-.67-1.61-.43-.43-1.01-.66-1.62-.65m-84.48-5.58h93.51v74.94h-93.51v-74.94Zm74.84,74.94v18.66m9.62-60.32l-1.54-.1-1.54-.19-1.44-.48-1.35-.77m6.25,37.61l-1.54-.1-1.44-.29-1.54-.48-1.35-.77m-4.14,25.88h18.66m0-112.36v18.76"/>
  <path class="cls-6" d="m279.58,327.5c0-1.25-1.01-2.26-2.26-2.26s-2.26,1.01-2.26,2.26,1.01,2.26,2.26,2.26,2.26-1.01,2.26-2.26"/>
  <path class="cls-8" d="m267.36,62.04l3.27,1.73m-11.16-5.77l5.29,2.69m-13.18-6.83l5.29,2.69m-13.18-6.73l5.2,2.69m-13.18-6.83l5.29,2.79m-13.18-6.83l5.29,2.69m-13.18-6.83l5.29,2.79m-13.18-6.83l5.29,2.69m-13.18-6.73l5.2,2.69m-11.16-5.77l3.27,1.64m65.9,0l3.27-1.64m-11.16,5.77l5.29-2.69m-13.18,6.73l5.29-2.69m-13.18,6.83l5.2-2.79m-13.18,6.83l5.29-2.69m-13.18,6.83l5.29-2.79m-13.18,6.83l5.29-2.69m-13.18,6.73l5.29-2.69m-13.18,6.83l5.2-2.69m-11.16,5.77l3.27-1.73"/>
  <path class="cls-2" d="m222.85,38.57v-9.34h1.52l1.82,6.62.36,1.38c.09-.34.23-.84.41-1.5l1.84-6.5h1.36v9.34h-.98v-7.81l-2.23,7.81h-.91l-2.22-7.95v7.95h-.97Z"/>
  <rect class="cls-2" x="231.95" y="37.26" width="1.07" height="1.31"/>
  <path class="cls-2" d="m235.76,37.47h1.63c.66,0,1.16-.11,1.5-.32.34-.21.6-.56.78-1.04.24-.63.36-1.39.36-2.27,0-.95-.13-1.69-.39-2.23-.26-.54-.59-.9-.99-1.09-.27-.12-.7-.18-1.29-.18h-1.61v7.14Zm-1.01,1.1v-9.34h2.64c.65,0,1.15.06,1.49.17.45.15.83.42,1.16.82.33.4.58.89.76,1.49.18.6.27,1.31.27,2.14,0,1.06-.15,1.96-.46,2.69s-.71,1.26-1.2,1.57c-.49.31-1.12.46-1.91.46h-2.77Z"/>
  <path class="cls-5" d="m195.88,145.45h46.75v-23.28h27.99v-53.78m0,77.06h-23.38v-18.66h23.38v18.66Z"/>
  <path class="cls-8" d="m267.07,142.66l3.56,2.79m-10.48-8.37l4.62,3.65m-11.64-9.23l4.71,3.75m-10.58-8.47l3.56,2.89m16.26,0l3.56-2.89m-10.48,8.47l4.62-3.75m-11.64,9.23l4.71-3.65m-10.58,8.37l3.56-2.79"/>
  <path class="cls-1" d="m254.87,144.58v-4.67h.76l.91,3.31.18.69c.04-.17.11-.42.2-.75l.92-3.25h.68v4.67h-.49v-3.91l-1.12,3.91h-.46l-1.11-3.97v3.97h-.49Z"/>
  <rect class="cls-1" x="259.42" y="143.93" width=".54" height=".65"/>
  <path class="cls-1" d="m261.32,144.03h.82c.33,0,.58-.05.75-.16.17-.11.3-.28.39-.52.12-.32.18-.7.18-1.14,0-.48-.06-.85-.19-1.12-.13-.27-.29-.45-.5-.54-.14-.06-.35-.09-.65-.09h-.8v3.57Zm-.51.55v-4.67h1.32c.33,0,.58.03.75.08.22.07.42.21.58.41.16.2.29.45.38.75.09.3.14.66.14,1.07,0,.53-.08.98-.23,1.35-.15.37-.36.63-.6.78-.24.15-.56.23-.95.23h-1.38Z"/>
  <rect class="cls-5" x="18.4" y="45.01" width="9.33" height="7.02"/>
  <path class="cls-8" d="m24.17,49.44l3.56,2.6m-9.33-7.02l3.46,2.6m2.31,0l3.56-2.6m-9.33,7.02l3.46-2.6"/>
  <polyline class="cls-5" points="18.4 393.06 18.4 401.05 34.75 401.05"/>
  <polyline class="cls-6" points="48.7 401.05 48.7 485.13 360.58 485.13"/>
  <rect class="cls-4" x="348.84" y="393.06" width="11.74" height="92.06"/>
  <path class="cls-8" d="m348.84,480.41H53.41v-79.36m295.43,81.77H51.1v-81.77"/>
  <path class="cls-2" d="m177.39,434.98h1.66c.43,0,.74-.03.93-.09.26-.09.47-.24.61-.45.14-.21.21-.5.21-.86,0-.34-.07-.62-.19-.84-.13-.22-.3-.38-.52-.46-.22-.08-.6-.13-1.16-.13h-1.54v2.82Zm0,4.31h1.91c.42,0,.73-.04.93-.11.29-.11.51-.29.66-.54.15-.25.23-.57.23-.95,0-.35-.07-.65-.22-.9-.15-.24-.34-.42-.58-.54-.24-.11-.63-.17-1.15-.17h-1.78v3.21Zm-1.01,1.1v-9.34h2.88c.58,0,1.04.09,1.38.27.34.18.62.46.84.84.22.38.33.8.33,1.27,0,.43-.09.82-.28,1.16-.19.35-.45.62-.79.83.44.16.79.44,1.05.83.26.39.38.87.38,1.44s-.11,1.06-.35,1.49c-.23.43-.54.74-.93.93-.39.19-.92.29-1.59.29h-2.92Z"/>
  <path class="cls-2" d="m184.91,436.56h2.61l-.8-2.59c-.25-.79-.43-1.44-.54-1.94-.1.6-.24,1.19-.42,1.79l-.85,2.74Zm-2.2,3.84l2.95-9.34h1.08l3.14,9.34h-1.16l-.89-2.83h-3.22l-.83,2.83h-1.07Z"/>
  <polygon class="cls-2" points="190.63 440.39 190.63 431.05 191.64 431.05 191.64 439.29 195.41 439.29 195.41 440.39 190.63 440.39"/>
  <path class="cls-2" d="m202.08,437.12l1.02.31c-.23,1.05-.62,1.83-1.18,2.35-.56.52-1.25.77-2.05.77-.71,0-1.32-.17-1.82-.52-.5-.35-.92-.9-1.24-1.67-.32-.77-.48-1.67-.48-2.71s.16-1.9.48-2.61c.32-.71.76-1.25,1.3-1.61.55-.36,1.16-.54,1.84-.54.74,0,1.38.23,1.91.69.53.46.9,1.14,1.12,2.03l-.99.29c-.34-1.3-1.02-1.95-2.05-1.95-.51,0-.95.13-1.33.39-.38.26-.67.67-.9,1.22-.22.55-.34,1.25-.34,2.1,0,1.28.23,2.24.68,2.88.45.64,1.05.96,1.8.96.55,0,1.03-.2,1.43-.59.4-.39.67-.99.81-1.79"/>
  <path class="cls-2" d="m205.13,435.86c0,1.15.25,2.05.76,2.68.51.64,1.12.95,1.85.95s1.37-.32,1.87-.96.76-1.59.76-2.83c0-.8-.13-1.52-.39-2.16-.2-.49-.5-.87-.9-1.16-.4-.29-.84-.44-1.32-.44-.76,0-1.4.32-1.89.96-.49.64-.74,1.62-.74,2.96m-1.04-.02c0-1.59.35-2.82,1.05-3.67.7-.86,1.57-1.28,2.62-1.28.68,0,1.29.19,1.85.57.56.38,1,.94,1.32,1.67.32.73.49,1.6.49,2.6,0,1.39-.31,2.51-.94,3.38-.69.96-1.6,1.44-2.72,1.44s-2.04-.49-2.73-1.48c-.62-.89-.94-1.97-.94-3.23"/>
  <polygon class="cls-2" points="212.67 440.39 212.67 431.05 213.71 431.05 217.73 438.4 217.73 431.05 218.7 431.05 218.7 440.39 217.66 440.39 213.64 433.04 213.64 440.39 212.67 440.39"/>
  <path class="cls-2" d="m222.58,440.39v-3.96l-2.95-5.39h1.24l1.5,2.82c.3.56.56,1.08.78,1.58.23-.49.51-1.04.84-1.65l1.49-2.75h1.17l-3.06,5.39v3.96h-1.01Z"/>
  <path class="cls-5" d="m34.75,262.23h-16.35l16.35,130.83v-130.83Zm-16.35,0l16.35,130.83h-16.35v-130.83Z"/>
  <rect class="cls-6" x="18.4" y="262.23" width="16.35" height="130.83"/>
  <path class="cls-5" d="m359.42,262.23h-16.35l16.35,130.83v-130.83Zm-16.35,0l16.35,130.83h-16.35v-130.83Z"/>
  <rect class="cls-6" x="343.07" y="262.23" width="16.35" height="130.83"/>
  <path class="cls-8" d="m356.73,485.13l3.85-3.85m-7.98,3.85l7.98-7.98m-11.74,7.6l11.74-11.74m-11.74,7.6l11.74-11.74m-11.74,7.6l11.74-11.74m-11.74,7.6l11.74-11.74m-11.74,7.6l11.74-11.64m-11.74,7.5l11.74-11.64m-11.74,7.5l11.74-11.64m-11.74,7.5l11.74-11.64m-11.74,7.5l11.74-11.64m-11.74,7.5l11.74-11.64m-11.74,7.5l11.74-11.64m-11.74,7.5l11.74-11.64m-11.74,7.6l11.74-11.74m-11.74,7.6l11.74-11.74m-11.74,7.6l11.74-11.74m-11.74,7.6l11.74-11.74m-11.74,7.6l11.74-11.74m-11.74,7.6l11.74-11.64m-11.74,7.5l11.74-11.64m-11.74,7.5l11.74-11.64m-11.74,7.5l9.04-9.04m-9.04,4.91l5-4.91m-5,.77l.87-.77"/>
</svg>