<?xml version="1.0" encoding="utf-8"?>
<!-- Generator: Adobe Illustrator 27.7.0, SVG Export Plug-In . SVG Version: 6.00 Build 0)  -->
<svg version="1.1" id="Layer_1" xmlns="http://www.w3.org/2000/svg" xmlns:xlink="http://www.w3.org/1999/xlink" x="0px" y="0px"
	 viewBox="0 0 1059.33 492.93" style="enable-background:new 0 0 1059.33 492.93;" xml:space="preserve">
<style type="text/css">
	.st0{fill:none;stroke:#FFFFFF;stroke-width:0.25;stroke-linecap:round;stroke-linejoin:round;stroke-miterlimit:10;}
	.st1{fill:none;stroke:#FFFFFF;stroke-width:0.36;stroke-linecap:round;stroke-linejoin:round;stroke-miterlimit:10;}
	.st2{fill:none;stroke:#FFFFFF;stroke-width:0.72;stroke-linecap:round;stroke-linejoin:round;stroke-miterlimit:10;}
	.st3{fill:#FFFFFF;}
	.st4{fill:#E0E0E0;stroke:#FFFFFF;stroke-miterlimit:10;}
	.st5{fill:#FFFFFF;stroke:#FFFFFF;stroke-miterlimit:10;}
	.st6{fill:none;stroke:#FFFFFF;stroke-miterlimit:10;}
	.st7{fill:#606060;stroke:#FFFFFF;stroke-miterlimit:10;}
	.st8{stroke:#FFFFFF;stroke-miterlimit:10;}
	.st9{fill:none;stroke:#FFFFFF;stroke-width:0.48;stroke-linecap:round;stroke-linejoin:round;stroke-miterlimit:10;}
	.st10{fill:#808080;stroke:#FFFFFF;stroke-miterlimit:10;}
	.st11{clip-path:url(#SVGID_00000028298054949074761350000002321403324347092926_);fill:#FFFFFF;}
	.st12{clip-path:url(#SVGID_00000104666988930779328560000001325198859311976600_);fill:#FFFFFF;}
	.st13{clip-path:url(#SVGID_00000049201590123118591850000015215261908490326462_);fill:#FFFFFF;}
	
		.st14{clip-path:url(#SVGID_00000049201590123118591850000015215261908490326462_);fill:none;stroke:#FFFFFF;stroke-width:0.25;stroke-linecap:round;stroke-linejoin:round;stroke-miterlimit:10;}
	
		.st15{clip-path:url(#SVGID_00000049201590123118591850000015215261908490326462_);fill:none;stroke:#FFFFFF;stroke-width:0.36;stroke-linecap:round;stroke-linejoin:round;stroke-miterlimit:10;}
	.st16{fill:none;stroke:#FFFFFF;stroke-width:0.24;stroke-linecap:round;stroke-linejoin:round;stroke-miterlimit:10;}
	
		.st17{clip-path:url(#SVGID_00000116956804696158602590000006719928699540723852_);fill:none;stroke:#FFFFFF;stroke-width:0.25;stroke-linecap:round;stroke-linejoin:round;stroke-miterlimit:10;}
	
		.st18{clip-path:url(#SVGID_00000018925588324932121660000014045539550900651193_);fill:none;stroke:#FFFFFF;stroke-width:0.25;stroke-linecap:round;stroke-linejoin:round;stroke-miterlimit:10;}
	.st19{clip-path:url(#SVGID_00000018925588324932121660000014045539550900651193_);stroke:#FFFFFF;stroke-miterlimit:10;}
	.st20{clip-path:url(#SVGID_00000146497466283280370400000000496993050166853288_);stroke:#FFFFFF;stroke-miterlimit:10;}
	.st21{clip-path:url(#SVGID_00000127012077575061224960000013839840541272159105_);fill:#FFFFFF;}
	
		.st22{clip-path:url(#SVGID_00000080197841577499737950000006502341079864536202_);fill:none;stroke:#FFFFFF;stroke-width:0.25;stroke-linecap:round;stroke-linejoin:round;stroke-miterlimit:10;}
	
		.st23{clip-path:url(#SVGID_00000079450916744487325790000016176084197786115770_);fill:none;stroke:#FFFFFF;stroke-width:0.25;stroke-linecap:round;stroke-linejoin:round;stroke-miterlimit:10;}
	
		.st24{clip-path:url(#SVGID_00000028288292170241710780000014502931561590398871_);fill:none;stroke:#FFFFFF;stroke-width:0.25;stroke-linecap:round;stroke-linejoin:round;stroke-miterlimit:10;}
	.st25{clip-path:url(#SVGID_00000086658034700766004070000012055002718319219860_);fill:#FFFFFF;}
	.st26{clip-path:url(#SVGID_00000110451775845138346080000018424217858256259719_);fill:#FFFFFF;}
	.st27{clip-path:url(#SVGID_00000075848082586898262550000016980021429825259966_);fill:#FFFFFF;}
</style>
<g>
	<defs>
		<polyline id="SVGID_1_" points="-2151.25,1906.25 1176.73,1906.25 1176.73,-190.93 -2151.25,-190.93 		"/>
	</defs>
	<clipPath id="SVGID_00000101061642049070361440000013548095022430153397_">
		<use xlink:href="#SVGID_1_"  style="overflow:visible;"/>
	</clipPath>
</g>
<g>
	<defs>
		<polyline id="SVGID_00000144337736900603134380000000670263700567132603_" points="-2151.25,1906.25 1176.73,1906.25 
			1176.73,-190.93 -2151.25,-190.93 		"/>
	</defs>
	<clipPath id="SVGID_00000180327833512026179610000017464838054967362955_">
		<use xlink:href="#SVGID_00000144337736900603134380000000670263700567132603_"  style="overflow:visible;"/>
	</clipPath>
</g>
<g>
	<defs>
		<polyline id="SVGID_00000090288015698062032620000008722362887945555627_" points="-2151.25,1906.25 1176.73,1906.25 
			1176.73,-190.93 -2151.25,-190.93 		"/>
	</defs>
	<clipPath id="SVGID_00000089550836050705067720000012197452257621208480_">
		<use xlink:href="#SVGID_00000090288015698062032620000008722362887945555627_"  style="overflow:visible;"/>
	</clipPath>
</g>
<g>
	<defs>
		<polyline id="SVGID_00000059284028212976108800000009520929705748096433_" points="-2151.25,1906.25 1176.73,1906.25 
			1176.73,-190.93 -2151.25,-190.93 		"/>
	</defs>
	<clipPath id="SVGID_00000029020938750576876620000007502825903597867193_">
		<use xlink:href="#SVGID_00000059284028212976108800000009520929705748096433_"  style="overflow:visible;"/>
	</clipPath>
</g>
<g>
	<defs>
		<polyline id="SVGID_00000106131028336606471130000003791773758321364887_" points="-2151.25,1906.25 1176.73,1906.25 
			1176.73,-190.93 -2151.25,-190.93 		"/>
	</defs>
	<clipPath id="SVGID_00000183966687810023260600000001127507277595283344_">
		<use xlink:href="#SVGID_00000106131028336606471130000003791773758321364887_"  style="overflow:visible;"/>
	</clipPath>
</g>
<g>
	<defs>
		<polyline id="SVGID_00000065064062452010406140000002669704431871664050_" points="-2151.25,1906.25 1176.73,1906.25 
			1176.73,-190.93 -2151.25,-190.93 		"/>
	</defs>
	<clipPath id="SVGID_00000088094135674464552680000007933214977030602123_">
		<use xlink:href="#SVGID_00000065064062452010406140000002669704431871664050_"  style="overflow:visible;"/>
	</clipPath>
</g>
<g>
	<defs>
		<polyline id="SVGID_00000121983517041320874860000015936221776765004160_" points="-2154.81,1905.56 1173.18,1905.56 
			1173.18,-191.62 -2154.81,-191.62 		"/>
	</defs>
	<clipPath id="SVGID_00000070840234970333490390000015071056018308988329_">
		<use xlink:href="#SVGID_00000121983517041320874860000015936221776765004160_"  style="overflow:visible;"/>
	</clipPath>
</g>
<g>
	<defs>
		<polyline id="SVGID_00000080920468504843070230000011177250124751984311_" points="-2151.25,1906.25 1176.73,1906.25 
			1176.73,-190.93 -2151.25,-190.93 		"/>
	</defs>
	<clipPath id="SVGID_00000043450597599547838660000011546905646256867716_">
		<use xlink:href="#SVGID_00000080920468504843070230000011177250124751984311_"  style="overflow:visible;"/>
	</clipPath>
</g>
<g>
	<defs>
		<polyline id="SVGID_00000086680964355935423330000012235570654298149285_" points="-2151.25,1906.25 1176.73,1906.25 
			1176.73,-190.93 -2151.25,-190.93 		"/>
	</defs>
	<clipPath id="SVGID_00000104682850375328591100000018311779543990213306_">
		<use xlink:href="#SVGID_00000086680964355935423330000012235570654298149285_"  style="overflow:visible;"/>
	</clipPath>
</g>
<g>
	<defs>
		<polyline id="SVGID_00000010296731592867760210000008370582332737078191_" points="-2151.25,1906.25 1176.73,1906.25 
			1176.73,-190.93 -2151.25,-190.93 		"/>
	</defs>
	<clipPath id="SVGID_00000163031085085227646170000013510981404882954384_">
		<use xlink:href="#SVGID_00000010296731592867760210000008370582332737078191_"  style="overflow:visible;"/>
	</clipPath>
</g>
<g>
	<defs>
		<polyline id="SVGID_00000179623795929505007320000005578829858932348301_" points="-2151.25,1906.25 1176.73,1906.25 
			1176.73,-190.93 -2151.25,-190.93 		"/>
	</defs>
	<clipPath id="SVGID_00000168077541732623566850000009825027819363676054_">
		<use xlink:href="#SVGID_00000179623795929505007320000005578829858932348301_"  style="overflow:visible;"/>
	</clipPath>
</g>
<g>
	<defs>
		<polyline id="SVGID_00000032639738917280932120000008747055489224722063_" points="-2151.25,1906.25 1176.73,1906.25 
			1176.73,-190.93 -2151.25,-190.93 		"/>
	</defs>
	<clipPath id="SVGID_00000120560005423538477230000000340425009603268006_">
		<use xlink:href="#SVGID_00000032639738917280932120000008747055489224722063_"  style="overflow:visible;"/>
	</clipPath>
</g>
<g>
	<defs>
		<polyline id="SVGID_00000071525360528101576750000011604985487138874504_" points="-2151.25,1906.25 1176.73,1906.25 
			1176.73,-190.93 -2151.25,-190.93 		"/>
	</defs>
	<clipPath id="SVGID_00000086677751742788107440000007285689500614146741_">
		<use xlink:href="#SVGID_00000071525360528101576750000011604985487138874504_"  style="overflow:visible;"/>
	</clipPath>
</g>
<g>
	<defs>
		<polyline id="SVGID_00000004531680002348074540000008080975236688021132_" points="-2145.88,1789.03 1182.11,1789.03 
			1182.11,-308.15 -2145.88,-308.15 		"/>
	</defs>
	<clipPath id="SVGID_00000003077813248307553480000008131259339909181587_">
		<use xlink:href="#SVGID_00000004531680002348074540000008080975236688021132_"  style="overflow:visible;"/>
	</clipPath>
</g>
<g>
	<defs>
		<polyline id="SVGID_00000038405019047730295480000016076969923795703434_" points="-2145.88,1789.03 1182.11,1789.03 
			1182.11,-308.15 -2145.88,-308.15 		"/>
	</defs>
	<clipPath id="SVGID_00000078046718938603685130000015240751471615851429_">
		<use xlink:href="#SVGID_00000038405019047730295480000016076969923795703434_"  style="overflow:visible;"/>
	</clipPath>
</g>
<g>
	<defs>
		<polyline id="SVGID_00000020388497588946423240000013693340387239641235_" points="-2145.88,1789.03 1182.11,1789.03 
			1182.11,-308.15 -2145.88,-308.15 		"/>
	</defs>
	<clipPath id="SVGID_00000155121607803534373440000001953381982634258588_">
		<use xlink:href="#SVGID_00000020388497588946423240000013693340387239641235_"  style="overflow:visible;"/>
	</clipPath>
</g>
<g>
	<defs>
		<polyline id="SVGID_00000147928502694035605930000009124627256743774875_" points="-2145.88,1789.03 1182.11,1789.03 
			1182.11,-308.15 -2145.88,-308.15 		"/>
	</defs>
	<clipPath id="SVGID_00000152239449376095784130000009739490065674554556_">
		<use xlink:href="#SVGID_00000147928502694035605930000009124627256743774875_"  style="overflow:visible;"/>
	</clipPath>
</g>
<g>
	<defs>
		<polyline id="SVGID_00000016062183651086103260000009427682102237401746_" points="-2145.88,1789.03 1182.11,1789.03 
			1182.11,-308.15 -2145.88,-308.15 		"/>
	</defs>
	<clipPath id="SVGID_00000140721043452442199820000015732860150948044436_">
		<use xlink:href="#SVGID_00000016062183651086103260000009427682102237401746_"  style="overflow:visible;"/>
	</clipPath>
</g>
<g>
	<defs>
		<polyline id="SVGID_00000141439376512579990410000007088640327262946697_" points="-2145.88,1789.03 1182.11,1789.03 
			1182.11,-308.15 -2145.88,-308.15 		"/>
	</defs>
	<clipPath id="SVGID_00000137830956793374514930000001397919931073584555_">
		<use xlink:href="#SVGID_00000141439376512579990410000007088640327262946697_"  style="overflow:visible;"/>
	</clipPath>
</g>
<g>
	<defs>
		<polyline id="SVGID_00000173151863533154590940000008720044137487165872_" points="-2145.88,1789.03 1182.11,1789.03 
			1182.11,-308.15 -2145.88,-308.15 		"/>
	</defs>
	<clipPath id="SVGID_00000071540400320379679940000000023600703445854141_">
		<use xlink:href="#SVGID_00000173151863533154590940000008720044137487165872_"  style="overflow:visible;"/>
	</clipPath>
</g>
<g>
	<defs>
		<polyline id="SVGID_00000151512353862168488470000004998061511398293921_" points="-2145.88,1789.03 1182.11,1789.03 
			1182.11,-308.15 -2145.88,-308.15 		"/>
	</defs>
	<clipPath id="SVGID_00000129920106296299587820000012828283240849238144_">
		<use xlink:href="#SVGID_00000151512353862168488470000004998061511398293921_"  style="overflow:visible;"/>
	</clipPath>
</g>
<g>
	<defs>
		<polyline id="SVGID_00000178167668478669507130000004464258766578903208_" points="-2145.88,1789.03 1182.11,1789.03 
			1182.11,-308.15 -2145.88,-308.15 		"/>
	</defs>
	<clipPath id="SVGID_00000161625412961056765710000008774517439345285249_">
		<use xlink:href="#SVGID_00000178167668478669507130000004464258766578903208_"  style="overflow:visible;"/>
	</clipPath>
</g>
<g>
	<defs>
		<polyline id="SVGID_00000178162658990721945780000005996287275267542419_" points="-2145.88,1789.03 1182.11,1789.03 
			1182.11,-308.15 -2145.88,-308.15 		"/>
	</defs>
	<clipPath id="SVGID_00000127004749239753513330000007924486487402718854_">
		<use xlink:href="#SVGID_00000178162658990721945780000005996287275267542419_"  style="overflow:visible;"/>
	</clipPath>
</g>
<g>
	<defs>
		<polyline id="SVGID_00000025420313703512751370000006068921158298973841_" points="-2145.88,1789.03 1182.11,1789.03 
			1182.11,-308.15 -2145.88,-308.15 		"/>
	</defs>
	<clipPath id="SVGID_00000005955139059998516890000010658569910054891670_">
		<use xlink:href="#SVGID_00000025420313703512751370000006068921158298973841_"  style="overflow:visible;"/>
	</clipPath>
</g>
<g>
	<defs>
		<polyline id="SVGID_00000136380681888897352620000006094095979560973750_" points="-2145.88,1789.03 1182.11,1789.03 
			1182.11,-308.15 -2145.88,-308.15 		"/>
	</defs>
	<clipPath id="SVGID_00000125598892872016285010000010738845860755944849_">
		<use xlink:href="#SVGID_00000136380681888897352620000006094095979560973750_"  style="overflow:visible;"/>
	</clipPath>
</g>
<g>
	<defs>
		<polyline id="SVGID_00000036231852113907765540000011818884084300786307_" points="-2145.88,1789.03 1182.11,1789.03 
			1182.11,-308.15 -2145.88,-308.15 		"/>
	</defs>
	<clipPath id="SVGID_00000074413939642931655870000016678825560754383745_">
		<use xlink:href="#SVGID_00000036231852113907765540000011818884084300786307_"  style="overflow:visible;"/>
	</clipPath>
</g>
<g>
	<defs>
		<polyline id="SVGID_00000057135914802909048760000006305785374674949054_" points="-2151.25,1287.36 1176.73,1287.36 
			1176.73,-809.82 -2151.25,-809.82 		"/>
	</defs>
	<clipPath id="SVGID_00000101064458379006785480000013044677873878703237_">
		<use xlink:href="#SVGID_00000057135914802909048760000006305785374674949054_"  style="overflow:visible;"/>
	</clipPath>
	<path style="clip-path:url(#SVGID_00000101064458379006785480000013044677873878703237_);fill:#FFFFFF;" d="M493.69,152.89
		c-1.02,0-1.88-0.1-2.59-0.32c-0.71-0.21-1.38-0.47-2-0.77v-2.33h0.13c0.61,0.58,1.31,1.02,2.09,1.34c0.78,0.32,1.53,0.48,2.24,0.48
		c1.03,0,1.8-0.22,2.33-0.64c0.53-0.43,0.79-1,0.79-1.7c0-0.56-0.14-1.01-0.41-1.36c-0.28-0.35-0.71-0.61-1.31-0.78
		c-0.43-0.12-0.83-0.23-1.18-0.31c-0.36-0.08-0.81-0.19-1.34-0.33c-0.48-0.13-0.91-0.28-1.3-0.48c-0.38-0.19-0.72-0.45-1.01-0.76
		c-0.29-0.31-0.51-0.67-0.67-1.08c-0.16-0.41-0.24-0.9-0.24-1.44c0-1.13,0.44-2.08,1.33-2.85c0.88-0.77,2.01-1.15,3.38-1.15
		c0.78,0,1.52,0.08,2.22,0.24c0.7,0.16,1.34,0.38,1.94,0.66v2.23h-0.14c-0.45-0.41-1.01-0.76-1.71-1.06
		c-0.7-0.3-1.43-0.46-2.19-0.46c-0.86,0-1.56,0.2-2.1,0.61c-0.53,0.41-0.8,0.93-0.8,1.59c0,0.6,0.16,1.07,0.47,1.42
		c0.31,0.35,0.77,0.61,1.36,0.77c0.39,0.11,0.88,0.23,1.45,0.36c0.57,0.13,1.04,0.26,1.42,0.37c0.96,0.29,1.67,0.74,2.11,1.33
		c0.44,0.59,0.67,1.33,0.67,2.2c0,0.55-0.11,1.08-0.33,1.62c-0.22,0.53-0.53,0.98-0.94,1.35c-0.45,0.41-0.96,0.72-1.53,0.94
		C495.25,152.79,494.54,152.89,493.69,152.89"/>
</g>
<polygon class="st3" points="503.78,152.64 503.78,140.3 499.08,140.3 499.08,138.65 510.33,138.65 510.33,140.3 505.64,140.3 
	505.64,152.64 "/>
<g>
	<defs>
		<polyline id="SVGID_00000147195490210808476110000011594490278981146757_" points="-2151.25,1287.36 1176.73,1287.36 
			1176.73,-809.82 -2151.25,-809.82 		"/>
	</defs>
	<clipPath id="SVGID_00000079444223812346874960000016503787928415218863_">
		<use xlink:href="#SVGID_00000147195490210808476110000011594490278981146757_"  style="overflow:visible;"/>
	</clipPath>
	<path style="clip-path:url(#SVGID_00000079444223812346874960000016503787928415218863_);fill:#FFFFFF;" d="M516.63,152.93
		c-0.82,0-1.54-0.11-2.15-0.32c-0.61-0.22-1.14-0.54-1.57-0.96c-0.49-0.49-0.83-1.07-1.03-1.75c-0.2-0.68-0.3-1.52-0.3-2.51v-8.73
		h1.86v8.73c0,0.65,0.04,1.19,0.12,1.63c0.08,0.44,0.24,0.84,0.48,1.19c0.25,0.38,0.59,0.66,1.02,0.86
		c0.43,0.19,0.95,0.29,1.57,0.29c0.58,0,1.1-0.1,1.55-0.29c0.45-0.19,0.8-0.48,1.05-0.86c0.23-0.36,0.39-0.75,0.48-1.18
		c0.08-0.43,0.13-0.96,0.13-1.59v-8.78h1.86v8.73c0,0.97-0.1,1.8-0.3,2.5c-0.2,0.69-0.54,1.28-1.04,1.77
		c-0.44,0.43-0.96,0.75-1.55,0.97C518.21,152.83,517.49,152.93,516.63,152.93"/>
	<path style="clip-path:url(#SVGID_00000079444223812346874960000016503787928415218863_);fill:#FFFFFF;" d="M533.46,145.63
		c0-1.07-0.18-1.99-0.54-2.76c-0.36-0.76-0.89-1.36-1.59-1.78c-0.49-0.3-1.02-0.52-1.59-0.65c-0.56-0.13-1.26-0.2-2.1-0.2h-1.42
		v10.8h1.42c0.83,0,1.55-0.07,2.17-0.2c0.62-0.13,1.19-0.38,1.7-0.73c0.64-0.44,1.13-1.02,1.46-1.75
		C533.29,147.63,533.46,146.72,533.46,145.63 M535.39,145.66c0,1.28-0.26,2.43-0.78,3.46c-0.51,1.03-1.21,1.83-2.08,2.41
		c-0.71,0.44-1.43,0.74-2.16,0.89c-0.73,0.15-1.66,0.23-2.8,0.23h-3.22v-13.99h3.19c1.31,0,2.35,0.1,3.1,0.3
		c0.75,0.2,1.38,0.47,1.91,0.81c0.9,0.59,1.6,1.39,2.1,2.37C535.14,143.12,535.39,144.3,535.39,145.66"/>
</g>
<polygon class="st3" points="542.3,152.64 536.87,152.64 536.87,151.21 538.65,151.21 538.65,140.08 536.87,140.08 536.87,138.65 
	542.3,138.65 542.3,140.08 540.51,140.08 540.51,151.21 542.3,151.21 "/>
<g>
	<defs>
		<polyline id="SVGID_00000163783167395925868750000015869558659412274091_" points="-2151.25,1287.36 1176.73,1287.36 
			1176.73,-809.82 -2151.25,-809.82 		"/>
	</defs>
	<clipPath id="SVGID_00000126292850285198764470000017086464502874659490_">
		<use xlink:href="#SVGID_00000163783167395925868750000015869558659412274091_"  style="overflow:visible;"/>
	</clipPath>
	<path style="clip-path:url(#SVGID_00000126292850285198764470000017086464502874659490_);fill:#FFFFFF;" d="M554.23,145.65
		c0-0.93-0.1-1.75-0.3-2.46c-0.2-0.71-0.48-1.31-0.84-1.78c-0.37-0.48-0.82-0.84-1.34-1.08c-0.52-0.24-1.11-0.36-1.76-0.36
		c-0.67,0-1.27,0.12-1.77,0.35c-0.5,0.24-0.95,0.6-1.34,1.09c-0.37,0.48-0.65,1.07-0.85,1.79c-0.2,0.72-0.3,1.54-0.3,2.44
		c0,1.84,0.39,3.24,1.16,4.22c0.77,0.97,1.8,1.46,3.1,1.46c1.3,0,2.33-0.49,3.1-1.46C553.85,148.89,554.23,147.49,554.23,145.65
		 M554.48,140.26c0.53,0.61,0.95,1.37,1.24,2.28c0.3,0.91,0.44,1.95,0.44,3.11c0,1.14-0.14,2.16-0.43,3.07
		c-0.29,0.91-0.7,1.68-1.25,2.3c-0.57,0.65-1.24,1.13-2,1.44c-0.76,0.31-1.6,0.47-2.51,0.47c-0.95,0-1.8-0.16-2.56-0.48
		c-0.76-0.32-1.41-0.8-1.95-1.43c-0.54-0.62-0.95-1.39-1.24-2.29c-0.29-0.91-0.43-1.94-0.43-3.08c0-1.18,0.15-2.21,0.44-3.1
		c0.29-0.89,0.71-1.65,1.25-2.29c0.54-0.62,1.19-1.09,1.95-1.41c0.76-0.32,1.61-0.49,2.55-0.49c0.95,0,1.81,0.17,2.57,0.5
		C553.31,139.19,553.96,139.66,554.48,140.26"/>
	
		<path style="clip-path:url(#SVGID_00000126292850285198764470000017086464502874659490_);fill:none;stroke:#FFFFFF;stroke-width:0.25;stroke-linecap:round;stroke-linejoin:round;stroke-miterlimit:10;" d="
		M487.79,372.48l67.34-65.99 M497.19,392.99c-0.02,1.22,0.38,2.39,1.12,3.26c0.74,0.87,1.75,1.36,2.81,1.36 M434.46,393.95
		c-0.03,1.21,0.38,2.39,1.12,3.26c0.74,0.87,1.76,1.36,2.82,1.36 M500.84,365.76h41.06 M434.27,372.48l0.39,3.26l0.96,2.88
		l1.34,2.88l1.34,2.69 M482.8,393.96l-0.19-2.49l-0.19-1.53l-0.38-1.54l-0.39-1.92l-0.57-1.92l-0.77-2.11l-0.96-2.49 M545.92,369.79
		v3.26l-0.38,3.07l-0.38,1.54l-0.57,1.54l-0.77,1.15l-0.96,1.34 M545.71,369.75c-0.23-2.28-1.91-3.99-3.91-3.99 M555.13,411.04
		v-37.22h32.61v37.22 M424.87,411.04v-37.22 M392.25,411.04h162.88 M424.87,340.25h49.69 M483.38,372.48l-0.19,2.69l-0.38,2.69
		l-0.96,2.49l-1.54,2.11 M474.17,280.01l0.57,92.47 M424.87,372.48h62.93 M537.87,280.01h-63.69 M500.74,365.76
		c-1.06,0-2.07,0.49-2.81,1.35c-0.74,0.87-1.15,2.04-1.12,3.25 M438.49,398.76h40.29 M496.81,370.37l0.38,3.45l0.77,3.45l1.34,3.07
		l1.72,2.88 M545.54,393.2l-0.19-2.69l-0.38-1.34l-0.19-1.73l-0.57-1.72l-0.58-1.92l-0.77-2.3l-0.96-2.3 M555.13,306.48
		l-17.27-26.47 M501.22,397.8h40.29 M478.68,398.57c1.05,0,2.06-0.48,2.8-1.34c0.74-0.86,1.15-2.02,1.13-3.23 M541.41,397.61
		c1.05,0,2.06-0.48,2.8-1.34c0.74-0.86,1.15-2.02,1.13-3.23 M424.87,224.76h130.27v186.27H424.87V224.76z M424.87,373.82h-32.61
		 M497.19,393.2l0.19-3.07l0.38-3.07l0.77-2.88l1.34-2.88 M434.46,393.96l0.19-3.07l0.57-3.07l0.77-2.88l1.34-2.69 M392.25,373.82
		v37.22 M587.75,411.04h-32.61"/>
	
		<path style="clip-path:url(#SVGID_00000126292850285198764470000017086464502874659490_);fill:none;stroke:#FFFFFF;stroke-width:0.36;stroke-linecap:round;stroke-linejoin:round;stroke-miterlimit:10;" d="
		M474.06,284.24c2.09,0,3.79-1.96,3.79-4.36c0-2.41-1.7-4.37-3.79-4.37c-2.09,0-3.79,1.96-3.79,4.37
		C470.27,282.28,471.97,284.24,474.06,284.24"/>
</g>
<path class="st2" d="M86.47,19.85h265.59h450.2 M95.69,94.25v-55.8 M86.47,85.04v-65.2 M53.85,94.25h41.84 M361.47,220.04v-9.4
	h-65.25 M361.47,220.04h-56.04 M53.85,220.04v181.6h163.12v9.2 M39.84,201.51h13.43 M53.27,103.74H39.84V85.04h46.63 M53.27,201.51
	v9.2"/>
<path class="st16" d="M52.49,197.11H39.65v4.22h12.84V197.11z M52.49,103.58H39.65v4.22h12.84V103.58z M52.49,193.47h89.13v3.64
	H52.49V193.47z"/>
<path class="st0" d="M65.28,108.66l-4.99-0.58l-7.87-0.38 M82.18,112.89l-5.95-1.92l-5.19-1.15 M97.93,120.38l-6.72-3.84L87.56,115
	 M112.14,130.55l-0.96-0.57l-6.14-5.19l-2.11-1.34 M123.86,143.61l-1.54-2.11l-5.19-5.95l-0.96-0.96 M132.88,158.4l-1.73-3.46
	l-4.03-6.72 M138.83,174.92l-1.34-5.18l-2.3-5.96 M141.72,193.36l-0.77-7.87l-0.77-4.99"/>
<path class="st2" d="M165.73,271.25h130.49 M147.12,210.66h18.61 M53.85,210.66h9.21 M156.33,280.65h139.9 M147.12,220.06h9.21
	 M53.85,220.06h9.21 M352.06,103.67h9.4 M361.47,38.48h440.8 M305.43,410.84h496.83 M216.97,410.84h79.25 M53.85,201.46H39.84
	L39.43,462.1"/>
<g>
	<defs>
		<polyline id="SVGID_00000052084749511380567450000012172540511728978606_" points="-2151.25,1287.36 1176.73,1287.36 
			1176.73,-809.82 -2151.25,-809.82 		"/>
	</defs>
	<clipPath id="SVGID_00000160174298673416741570000013447363563134182308_">
		<use xlink:href="#SVGID_00000052084749511380567450000012172540511728978606_"  style="overflow:visible;"/>
	</clipPath>
	
		<path style="clip-path:url(#SVGID_00000160174298673416741570000013447363563134182308_);fill:none;stroke:#FFFFFF;stroke-width:0.25;stroke-linecap:round;stroke-linejoin:round;stroke-miterlimit:10;" d="
		M154.1,99.13h1.54v2.5h-1.54V99.13z M102.07,40.2h56.06v55.86h-56.06V40.2z M102.07,97.21h55.87v1.92h-55.87V97.21z M102.07,48.27
		h56.06 M106.1,42.12h47.61v4.03H106.1V42.12z M505.82,88.19h-28.99V50.95h28.99h8.25v37.24H505.82z M580.5,50.95h-8.26v37.24h8.26
		h28.99V50.95H580.5z M580.5,38.28h-74.68v62.38h74.68V38.28z M757.33,351.25c0-2.49-2.02-4.51-4.51-4.51 M747.63,346.74
		c-2.49,0-4.51,2.02-4.51,4.51 M754.45,346.93v-0.77 M754.25,346.06c0-2.49-2.02-4.51-4.51-4.51 M752.91,346.93h-5.19 M650,351.25
		c0-2.49-2.02-4.51-4.51-4.51 M643.38,341.55c-2.49,0-4.51,2.02-4.51,4.51 M639.06,346.93v-0.77 M640.6,346.93h4.99 M640.5,346.74
		c-2.49,0-4.51,2.02-4.51,4.51 M643.48,341.75h106.36 M750.32,405.09c2.49,0,4.51-2.02,4.51-4.51 M752.81,389.73
		c2.49,0,4.51-2.02,4.51-4.51 M743.12,385.22c0,2.49,2.02,4.51,4.51,4.51 M754.83,400.67v-11.13 M638.87,400.58
		c0,2.49,2.02,4.51,4.51,4.51 M645.49,389.73c2.49,0,4.51-2.02,4.51-4.51 M635.99,385.22c0,2.49,2.02,4.51,4.51,4.51 M639.06,389.73
		v10.94 M639.06,394.15h115.77 M639.06,389.73h113.85 M643.48,405.28h106.94 M650,351.34v33.97 M636.18,385.32v-33.97
		 M696.66,341.75v47.99 M757.33,385.32v-33.97 M743.31,351.34v33.97 M639.06,346.93v0.19 M665.55,248.84h62.4v61.81h-62.4V248.84z
		 M451.1,40.01h-48.38v2.3h48.38V40.01z M361.44,38.28h91.19v32.63h-91.19V38.28z M380.09,87.99c-0.17,0.16-0.24,0.39-0.2,0.61
		 M404.82,88.6c0.04-0.22-0.04-0.45-0.2-0.61 M380.1,87.94c8.02,2.63,16.68,2.63,24.7,0 M402.48,87.98c0.84-0.3,1.68-0.65,2.49-1.02
		 M403.64,88.26c-7.4-1.38-14.99-1.38-22.38,0 M379.76,88.46c-0.71,0.55-1.01,1.47-0.77,2.33 M405.76,90.81
		c0.13-0.87-0.16-1.75-0.78-2.37 M379.14,90.86c8.65,2.83,17.97,2.83,26.61,0 M379.92,88.49c8.14,2.67,16.92,2.67,25.06,0
		 M378.72,70.91l1.15,16.32 M406.37,70.91l-1.34,16.32 M379.93,86.95c0.81,0.38,1.64,0.72,2.48,1.02 M313.25,243.28l-0.19-1.92
		l40.32-3.45l0.19,1.73L313.25,243.28z M353.57,233.87l-0.19,1.73l-40.32-1.54v-1.92L353.57,233.87z M313.25,256.52l-0.19-1.73
		l40.32-3.65l0.19,1.92L313.25,256.52z M353.57,247.12l-0.19,1.92l-40.32-1.73v-1.92L353.57,247.12z M313.25,269.77l-0.19-1.73
		l40.32-3.65l0.19,1.92L313.25,269.77z M353.57,260.36l-0.19,1.92l-40.32-1.73v-1.92L353.57,260.36z M313.25,283.2l-0.19-1.92
		l40.32-3.65l0.19,1.92L313.25,283.2z M353.57,273.61l-0.19,1.92l-40.32-1.73v-1.92L353.57,273.61z M313.25,296.45l-0.19-1.92
		l40.32-3.65l0.19,1.92L313.25,296.45z M353.57,286.85l-0.19,1.92l-40.32-1.73v-1.73L353.57,286.85z M313.25,309.69l-0.19-1.92
		l40.32-3.45l0.19,1.73L313.25,309.69z M353.57,300.29l-0.19,1.73l-40.32-1.73v-1.73L353.57,300.29z M313.25,322.93l-0.19-1.92
		l40.32-3.45l0.19,1.73L313.25,322.93z M353.57,313.53l-0.19,1.73l-40.32-1.54v-1.92L353.57,313.53z M313.25,336.18l-0.19-1.73
		l40.32-3.65l0.19,1.92L313.25,336.18z M353.57,326.77l-0.19,1.92l-40.32-1.73v-1.92L353.57,326.77z M313.25,349.42l-0.19-1.73
		l40.32-3.65l0.19,1.92L313.25,349.42z M353.57,340.02l-0.19,1.92l-40.32-1.73v-1.92L353.57,340.02z M313.25,362.86l-0.19-1.92
		l40.32-3.65l0.19,1.92L313.25,362.86z M353.57,353.26l-0.19,1.92l-40.32-1.73v-1.92L353.57,353.26z M313.25,376.1l-0.19-1.92
		l40.32-3.65l0.19,1.92L313.25,376.1z M353.57,366.51l-0.19,1.92l-40.32-1.73v-1.73L353.57,366.51z M313.25,231.19h40.32v-1.92
		h-40.32V231.19z M353.57,379.94l-0.19,1.73l-40.32-1.73v-1.73L353.57,379.94z M313.25,389.35l-0.19-1.92l40.32-3.46l0.19,1.73
		L313.25,389.35z M313.25,393.57h40.32v1.92h-40.32V393.57z M313.25,399.9h40.32v1.92h-40.32V399.9z M334.37,409.31V221.97
		 M332.45,409.31V221.97 M307.3,221.97h52.22v187.34H307.3V221.97z M305.38,220.05h56.06v190.98h-56.06V220.05z"/>
</g>
<path class="st16" d="M62.88,219.95h2.49v-9.21h-2.49V219.95z M144.31,219.95h2.49v-9.21h-2.49V219.95z"/>
<rect x="65.38" y="220.15" class="st16" width="2.49" height="79.12"/>
<polygon class="st3" points="205.52,162.63 205.52,143.97 207.54,143.97 207.54,153.23 215.14,143.97 217.89,143.97 211.47,151.54 
	218.17,162.63 215.49,162.63 210.06,153.2 207.54,156.16 207.54,162.63 "/>
<rect x="220.23" y="143.97" class="st3" width="2.02" height="18.65"/>
<polygon class="st3" points="229.71,162.63 229.71,146.17 224.67,146.17 224.67,143.97 236.79,143.97 236.79,146.17 231.73,146.17 
	231.73,162.63 "/>
<rect x="239.16" y="160.02" class="st3" width="2.14" height="2.61"/>
<g>
	<defs>
		<polyline id="SVGID_00000178198097047678805850000007783890903391942563_" points="-2151.25,1287.36 1176.73,1287.36 
			1176.73,-809.82 -2151.25,-809.82 		"/>
	</defs>
	<clipPath id="SVGID_00000108997388771577872320000018089703408458638004_">
		<use xlink:href="#SVGID_00000178198097047678805850000007783890903391942563_"  style="overflow:visible;"/>
	</clipPath>
	
		<path style="clip-path:url(#SVGID_00000108997388771577872320000018089703408458638004_);fill:none;stroke:#FFFFFF;stroke-width:0.25;stroke-linecap:round;stroke-linejoin:round;stroke-miterlimit:10;" d="
		M210.5,212.89v0.96 M249.62,212.89h-39.31v-0.77 M249.62,212.12v0.77v0.96 M249.62,212.12h-39.31 M258.64,262.59v7.29
		 M258.64,244.75v11.9 M258.64,227.09v11.71 M258.64,213.85v7.29 M202.83,262.59v7.29 M202.83,244.75v11.9 M202.83,227.09v11.71
		 M202.83,213.85v7.29 M251.54,213.85h7.1 M233.71,213.85h11.89 M216.07,213.85h11.7 M202.83,213.85h7.29 M210.12,269.88h-7.29
		 M227.76,269.88h-11.7 M245.6,269.88h-11.89 M258.64,269.88h-7.1 M292.2,62.46h-14.77 M284.63,60.54c-1.01,0-1.82,0.82-1.82,1.82
		s0.82,1.82,1.82,1.82s1.82-0.82,1.82-1.82S285.63,60.54,284.63,60.54 M284.72,54.98v14.77 M265.16,82.03V53.06 M265.16,81.94
		c0,1.54,1.25,2.78,2.78,2.78 M301.6,84.91h-33.56 M301.5,84.72c1.54,0,2.78-1.25,2.78-2.78 M304.47,53.06v28.97 M304.28,52.96
		c0-1.54-1.25-2.78-2.78-2.78 M268.04,50.37h33.56 M267.94,50.18c-1.54,0-2.78,1.25-2.78,2.78 M263.24,82.03V53.06 M263.24,81.94
		c0,2.6,2.1,4.7,4.7,4.7 M301.6,86.83h-33.56 M301.5,86.64c2.6,0,4.7-2.11,4.7-4.7 M306.2,53.06v28.97 M306.2,52.96
		c0-2.6-2.1-4.7-4.7-4.7 M268.04,48.45h33.56 M267.94,48.26c-2.6,0-4.7,2.11-4.7,4.7 M187.87,96.81h-6.71 M160.64,40.2h56
		 M216.64,96.04h-56 M181.48,57.31c2.65-2.9,2.65-7.34,0-10.23 M181.07,56.9c2.42-2.67,2.42-6.74,0-9.41 M180.39,56.13l2.11,2.3
		 M179.82,56.71l2.3,2.11 M179.82,47.69l2.3-2.11 M180.39,48.26l2.11-2.11 M175.41,78.48c0,1.85,1.5,3.36,3.35,3.36
		c1.85,0,3.36-1.5,3.36-3.36c0-1.86-1.5-3.36-3.36-3.36C176.91,75.13,175.41,76.63,175.41,78.48 M174.83,78.48
		c0,2.17,1.76,3.93,3.93,3.93c2.17,0,3.93-1.76,3.93-3.93s-1.76-3.93-3.93-3.93C176.59,74.55,174.83,76.31,174.83,78.48
		 M172.39,85.52c3.62,3.28,9.13,3.28,12.75,0 M171.71,86.2c4,3.66,10.12,3.66,14.11,0 M185.14,71.45c-3.62-3.28-9.14-3.28-12.75,0
		 M185.82,70.77c-3.99-3.66-10.11-3.66-14.11,0 M197.93,76.85c-2.42,2.67-2.42,6.74,0,9.41 M197.53,76.44
		c-2.65,2.9-2.65,7.33,0,10.23 M208.71,86.67c2.65-2.9,2.65-7.33,0-10.23 M208.31,86.26c2.42-2.67,2.42-6.74,0-9.41 M200.15,81.55
		c0,1.64,1.33,2.97,2.97,2.97c1.64,0,2.97-1.33,2.97-2.97c0-1.64-1.33-2.97-2.97-2.97C201.48,78.58,200.15,79.91,200.15,81.55
		 M186.48,85.54c3.65-4,3.65-10.12,0-14.12 M185.8,84.86c3.28-3.62,3.28-9.14,0-12.76 M216.64,96.04V40.2 M205.52,96.81h-7.48
		 M200.72,81.55c0,1.32,1.07,2.4,2.4,2.4c1.32,0,2.4-1.07,2.4-2.4c0-1.32-1.07-2.4-2.4-2.4C201.79,79.16,200.72,80.23,200.72,81.55
		 M198.42,86.74c2.67,2.42,6.74,2.42,9.4,0 M198.01,87.15c2.9,2.65,7.33,2.65,10.23,0 M207.63,97.77h-2.3 M207.43,97v-0.96
		 M205.32,97.77V97h2.3v0.77 M205.52,97v-0.96 M214.72,96.04v0.77h-7.29 M209.31,88.24c0.17-0.16,0.33-0.32,0.49-0.49 M207.14,86.07
		c0.17-0.16,0.34-0.32,0.49-0.49 M207.82,85.68l2.11,2.11 M207.24,86.06l2.11,2.11 M196.12,96.81h-6.33 M196.12,97v-0.96
		 M198.23,97.77V97h-2.3v0.77 M198.04,97v-0.96 M198.23,97.77h-2.3 M187.87,97v-0.96 M189.98,97.77V97h-2.3v0.77 M189.79,97v-0.96
		 M189.98,97.77h-2.3 M198.61,85.58c0.15,0.17,0.32,0.33,0.49,0.49 M196.44,87.75c0.16,0.17,0.32,0.33,0.49,0.49 M199.38,86.06
		l-2.3,2.11 M198.8,85.68l-2.11,2.11 M187.17,87.56c0.23-0.21,0.45-0.43,0.66-0.66 M184.19,84.57c0.23-0.21,0.45-0.43,0.66-0.66
		 M185,83.95l2.88,2.88 M184.23,84.72l3.07,2.88 M198.04,55.08c0,1.85,1.5,3.36,3.36,3.36c1.85,0,3.35-1.5,3.35-3.36
		c0-1.86-1.5-3.36-3.35-3.36C199.54,51.72,198.04,53.22,198.04,55.08 M197.46,55.08c0,2.17,1.76,3.93,3.93,3.93
		c2.17,0,3.93-1.76,3.93-3.93c0-2.17-1.76-3.93-3.93-3.93C199.22,51.14,197.46,52.9,197.46,55.08 M193.68,48.02
		c-3.65,4-3.65,10.12,0,14.12 M194.36,48.69c-3.28,3.62-3.28,9.14,0,12.76 M208.43,61.45c3.28-3.62,3.28-9.14,0-12.76 M209.11,62.13
		c3.65-4,3.65-10.12,0-14.12 M207.82,76.37c-2.67-2.42-6.73-2.42-9.4,0 M208.23,75.96c-2.9-2.65-7.33-2.65-10.23,0 M194.34,62.79
		c3.99,3.65,10.11,3.65,14.11,0 M195.02,62.11c3.62,3.28,9.14,3.28,12.75,0 M207.63,77.53c-0.15-0.17-0.32-0.34-0.49-0.49
		 M209.8,75.36c-0.16-0.17-0.32-0.33-0.49-0.49 M207.24,77.04l2.11-2.11 M207.82,77.62l2.11-2.11 M207.05,61.31l2.88,2.88
		 M207.63,60.54l3.07,3.07 M206.82,61.16c0.23-0.21,0.45-0.43,0.66-0.66 M209.8,64.15c0.23-0.21,0.45-0.43,0.66-0.66 M199.1,77.04
		c-0.17,0.15-0.34,0.32-0.49,0.49 M196.93,74.87c-0.17,0.16-0.33,0.32-0.49,0.49 M198.8,77.62l-2.11-2.11 M199.38,77.04l-2.3-2.11
		 M184.85,73.06c-0.21-0.23-0.43-0.45-0.66-0.66 M187.83,70.07c-0.21-0.23-0.43-0.45-0.66-0.66 M184.23,72.44l3.07-2.88 M185,73.21
		l2.88-3.07 M182.08,58.88c0.17-0.16,0.33-0.32,0.49-0.49 M195.54,60.54l-3.07,3.07 M196.12,61.31l-2.88,2.88 M192.32,63.49
		c0.21,0.23,0.43,0.45,0.66,0.66 M195.31,60.5c0.21,0.23,0.43,0.45,0.66,0.66 M208.45,47.36c-3.99-3.65-10.11-3.65-14.11,0
		 M207.77,48.04c-3.62-3.28-9.14-3.28-12.75,0 M207.63,49.8l3.07-2.88 M207.05,49.03l2.88-2.88 M210.46,46.66
		c-0.21-0.23-0.43-0.45-0.66-0.66 M207.48,49.65c-0.21-0.23-0.43-0.45-0.66-0.66 M182.57,46c-0.16-0.17-0.32-0.33-0.49-0.49
		 M196.12,49.03l-2.88-2.88 M195.54,49.8l-3.07-2.88 M192.98,46c-0.23,0.21-0.45,0.43-0.66,0.66 M195.97,48.99
		c-0.23,0.21-0.45,0.43-0.66,0.66 M171.73,72.1c-3.28,3.62-3.28,9.14,0,12.76 M171.05,71.42c-3.65,4-3.65,10.12,0,14.12
		 M160.64,96.04V40.2 M179.24,96.81h-7.48 M181.16,97v-0.96 M179.05,97.77V97h2.3v0.77 M179.24,97v-0.96 M179.05,97.77h2.3
		 M162.75,96.04v0.77h7.1h-7.1 M169.65,97.77h2.3 M169.85,97v-0.96 M171.96,97.77V97h-2.3v0.77 M171.76,97v-0.96 M172.68,83.91
		c0.21,0.23,0.43,0.45,0.66,0.66 M169.69,86.9c0.21,0.23,0.43,0.45,0.66,0.66 M173.49,84.72l-2.88,2.88 M172.72,83.95l-2.88,2.88
		 M170.3,47.08c-2.65,2.9-2.65,7.34,0,10.23 M171.96,56.71l-2.11,2.11 M171.57,56.13l-2.3,2.3 M173.34,72.4
		c-0.23,0.21-0.45,0.43-0.66,0.66 M170.35,69.41c-0.23,0.21-0.45,0.43-0.66,0.66 M173.49,72.44l-2.88-2.88 M172.72,73.21l-2.88-3.07
		 M169.21,58.39c0.16,0.17,0.32,0.33,0.49,0.49 M171.18,57.38c2.67,2.42,6.74,2.42,9.4,0 M170.77,57.79c2.89,2.65,7.33,2.65,10.22,0
		 M169.69,45.51c-0.17,0.16-0.33,0.32-0.49,0.49 M171.96,47.69l-2.11-2.11 M180.59,47.01c-2.67-2.42-6.74-2.42-9.4,0 M181,46.6
		c-2.89-2.65-7.33-2.65-10.22,0 M170.7,47.49c-2.42,2.67-2.42,6.74,0,9.41 M171.38,56.22c0.16,0.17,0.32,0.34,0.49,0.49
		 M171.87,47.68c-0.17,0.15-0.33,0.32-0.49,0.49 M171.57,48.26l-2.3-2.11 M173.49,52.2c0,1.32,1.07,2.4,2.4,2.4
		c1.32,0,2.4-1.07,2.4-2.4c0-1.32-1.07-2.4-2.4-2.4C174.56,49.8,173.49,50.87,173.49,52.2 M179.91,56.71
		c0.17-0.15,0.33-0.32,0.49-0.49 M180.4,48.17c-0.15-0.17-0.32-0.34-0.49-0.49 M172.91,52.2c0,1.64,1.33,2.97,2.97,2.97
		c1.64,0,2.97-1.33,2.97-2.97c0-1.64-1.33-2.97-2.97-2.97C174.25,49.22,172.91,50.55,172.91,52.2"/>
	
		<path style="clip-path:url(#SVGID_00000108997388771577872320000018089703408458638004_);stroke:#FFFFFF;stroke-miterlimit:10;" d="
		M226.03,247.18l7.11-1.62c0.32-0.08,0.69-0.15,1.09-0.22l-1.09-0.24l-7.11-1.62v-0.97l9.33-2.1v1.02l-5.99,1.2
		c-0.74,0.15-1.42,0.28-2.03,0.38c1.05,0.13,2.15,0.33,3.3,0.6l4.72,1.09v1.23l-6.3,1.46l-1.72,0.34c0.64,0.09,1.28,0.2,1.91,0.33
		l6.12,1.17v1.04l-9.33-2.04V247.18z"/>
</g>
<rect x="226.03" y="238.26" class="st8" width="1.31" height="1.07"/>
<g>
	<defs>
		<polyline id="SVGID_00000121241551468893548920000000686924569706203536_" points="-2151.25,1287.36 1176.73,1287.36 
			1176.73,-809.82 -2151.25,-809.82 		"/>
	</defs>
	<clipPath id="SVGID_00000033327452281360584260000014519412220103820720_">
		<use xlink:href="#SVGID_00000121241551468893548920000000686924569706203536_"  style="overflow:visible;"/>
	</clipPath>
	
		<path style="clip-path:url(#SVGID_00000033327452281360584260000014519412220103820720_);stroke:#FFFFFF;stroke-miterlimit:10;" d="
		M226.03,235.57h7.93l-7.93-2.22v-0.91l7.8-2.23h-7.8v-0.97h9.33v1.36l-6.49,1.83c-0.65,0.18-1.15,0.32-1.5,0.41l1.38,0.36
		l6.61,1.82v1.52h-9.33V235.57z"/>
</g>
<path class="st0" d="M630.39,38.28h139.8 M725.13,55.64v7.44h-49.86v-7.44 M675.27,50.68v-7.44h49.86v7.44 M755.24,53.16H645.35
	 M755.24,55.64H645.35v-2.48l4.22-2.48h102.79l2.88,2.48V55.64z M630.39,38.28v29.75h139.8V38.28"/>
<path class="st2" d="M305.04,220.32v190.52 M296.42,280.83v130.02 M296.42,210.94v60.51"/>
<polyline class="st0" points="62.88,222.07 55.59,222.07 55.59,399.91 218.69,399.91 218.69,409.31 294.1,409.31 294.1,282.5 
	154.22,282.5 154.22,222.07 146.93,222.07 "/>
<path class="st2" d="M63.08,210.94v8.82 M146.6,210.94v8.82"/>
<path class="st0" d="M284.69,397.19h-55.68v7.01h55.68V397.19z M255.99,407.79v-6.25 M257.9,407.79v-6.25 M254.08,408.55v0.76h5.55
	v-0.76 M259.62,408.55h-5.55l1.91-0.76h1.91 M259.62,408.55l-1.72-0.76 M259.62,394.92h-5.55 M259.62,396.24h-5.55 M254.08,394.92
	v1.32l1.34,2.84v2.46h2.87v-2.46l1.34-2.84v-1.32 M255.42,399.09h2.87"/>
<g>
	<defs>
		<polyline id="SVGID_00000133519049000136031430000009857444359230320293_" points="-2154.81,1286.66 1173.18,1286.66 
			1173.18,-810.52 -2154.81,-810.52 		"/>
	</defs>
	<clipPath id="SVGID_00000073701307673799662920000002068268456784426896_">
		<use xlink:href="#SVGID_00000133519049000136031430000009857444359230320293_"  style="overflow:visible;"/>
	</clipPath>
	<path style="clip-path:url(#SVGID_00000073701307673799662920000002068268456784426896_);fill:#FFFFFF;" d="M84.05,305.05h2.87
		c0.75,0,1.28-0.05,1.6-0.16c0.46-0.16,0.81-0.41,1.06-0.78c0.25-0.37,0.37-0.86,0.37-1.48c0-0.58-0.11-1.06-0.34-1.45
		c-0.22-0.39-0.52-0.65-0.89-0.8c-0.37-0.15-1.04-0.22-2.01-0.22h-2.66V305.05z M84.05,312.52h3.3c0.73,0,1.27-0.07,1.61-0.2
		c0.5-0.19,0.88-0.5,1.14-0.94c0.26-0.44,0.39-0.99,0.39-1.65c0-0.61-0.13-1.13-0.38-1.55c-0.25-0.42-0.59-0.73-1.01-0.92
		c-0.42-0.2-1.09-0.29-1.99-0.29h-3.07V312.52z M82.3,314.42v-16.16h4.98c1.01,0,1.81,0.16,2.4,0.47c0.59,0.31,1.07,0.8,1.45,1.46
		c0.37,0.66,0.56,1.39,0.56,2.19c0,0.74-0.16,1.41-0.49,2.01c-0.32,0.59-0.78,1.07-1.37,1.43c0.77,0.28,1.38,0.76,1.82,1.43
		c0.44,0.67,0.66,1.5,0.66,2.49c0,0.98-0.2,1.84-0.6,2.58c-0.4,0.74-0.93,1.28-1.6,1.61s-1.59,0.5-2.76,0.5H82.3z"/>
	<path style="clip-path:url(#SVGID_00000073701307673799662920000002068268456784426896_);fill:#FFFFFF;" d="M97.06,307.79h4.51
		l-1.38-4.48c-0.43-1.37-0.74-2.49-0.94-3.35c-0.17,1.04-0.41,2.06-0.73,3.09L97.06,307.79z M93.26,314.42l5.11-16.16h1.87
		l5.43,16.16h-2.01l-1.54-4.9h-5.58l-1.44,4.9H93.26z"/>
</g>
<polygon class="st3" points="110.46,314.42 110.46,300.17 106.09,300.17 106.09,298.26 116.6,298.26 116.6,300.17 112.21,300.17 
	112.21,314.42 "/>
<polygon class="st3" points="118.36,314.42 118.36,298.26 120.12,298.26 120.12,304.9 127.01,304.9 127.01,298.26 128.76,298.26 
	128.76,314.42 127.01,314.42 127.01,306.8 120.12,306.8 120.12,314.42 "/>
<path class="st4" d="M215.27,357.18l0.19,42.83l1.73-42.83H215.27z M217.19,357.18L215.46,400h1.73V357.18z"/>
<g>
	<defs>
		<polyline id="SVGID_00000122718364727227636050000013300970498724070049_" points="-2151.25,1287.36 1176.73,1287.36 
			1176.73,-809.82 -2151.25,-809.82 		"/>
	</defs>
	<clipPath id="SVGID_00000127751636799825595140000001956441671276942238_">
		<use xlink:href="#SVGID_00000122718364727227636050000013300970498724070049_"  style="overflow:visible;"/>
	</clipPath>
	
		<path style="clip-path:url(#SVGID_00000127751636799825595140000001956441671276942238_);fill:none;stroke:#FFFFFF;stroke-width:0.25;stroke-linecap:round;stroke-linejoin:round;stroke-miterlimit:10;" d="
		M212.11,385.71l1.72-1.72 M206.36,391.46l4.21-4.22 M200.61,397.21l4.22-4.22 M197.93,399.9l0.96-1.15 M207.7,386.86l4.02-4.03
		 M201.76,392.61l4.22-4.03 M196.02,398.37l4.22-4.03 M208.85,382.26l0.96-0.96 M203.11,388.2l4.02-4.22 M197.36,393.96l4.02-4.22
		 M191.61,399.71l4.02-4.22 M204.26,383.6l2.3-2.3 M198.51,389.35l4.22-4.22 M192.76,395.11l4.22-4.03 M187.97,399.9l3.26-3.07
		 M199.85,384.75l3.45-3.45 M194.1,390.5l4.02-4.02 M188.35,396.26l4.02-4.02 M184.71,399.9l1.92-1.92 M195.25,386.1l4.22-4.22
		 M189.5,391.85l4.21-4.22 M183.75,397.6l4.22-4.22 M181.45,399.9l0.57-0.77 M196.59,381.49l0.19-0.19 M190.84,387.25l4.02-4.03
		 M184.9,393l4.22-4.03 M179.15,398.75l4.22-4.03 M191.99,382.84l1.53-1.53 M186.24,388.59l4.02-4.22 M180.5,394.34l4.02-4.22
		 M174.75,399.9l4.02-4.03 M187.39,383.99l2.68-2.68 M181.65,389.74l4.22-4.03 M175.9,395.49l4.22-4.03 M171.49,399.9l2.87-2.69
		 M182.99,385.14l3.83-3.83 M177.24,391.08l4.02-4.22 M171.49,396.83l4.02-4.22 M168.23,399.9l1.53-1.53 M178.39,386.48l4.22-4.22
		 M172.64,392.23l4.22-4.03 M166.89,397.98l4.22-4.03 M164.98,399.9l0.19-0.19 M179.73,381.88l0.57-0.57 M173.98,387.63l4.02-4.03
		 M168.04,393.38l4.22-4.03 M162.29,399.13l4.22-4.03 M175.13,383.22l1.92-1.92 M169.38,388.97l4.02-4.22 M163.63,394.72l4.02-4.22
		 M158.46,399.9l3.45-3.64 M170.53,384.37l3.26-3.07 M164.78,390.12l4.22-4.02 M159.04,395.87l4.22-4.02 M155.01,399.9l2.49-2.3
		 M166.13,385.71l4.02-4.22 M160.38,391.46l4.02-4.22 M154.63,397.21l4.02-4.22 M151.76,399.9l1.15-1.15 M161.53,386.86l4.22-4.03
		 M155.78,392.61l4.21-4.03 M150.03,398.37l4.22-4.03 M162.87,382.26l0.96-0.96 M157.12,388.2l4.02-4.22 M151.37,393.96l4.02-4.22
		 M145.43,399.71l4.22-4.22 M158.27,383.6l2.3-2.3 M152.52,389.35l4.02-4.22 M146.77,395.11l4.02-4.03 M141.98,399.9l3.07-3.07
		 M153.67,384.75l3.64-3.45 M147.92,390.5l4.22-4.02 M142.17,396.26l4.22-4.02 M138.73,399.9l1.91-1.92 M149.27,386.1l4.02-4.22
		 M143.52,391.85l4.02-4.22 M137.77,397.6l4.02-4.22 M135.28,399.9l0.77-0.77 M150.41,381.49l0.19-0.19 M144.67,387.25l4.22-4.03
		 M138.92,393l4.21-4.03 M133.17,398.75l4.22-4.03 M146.01,382.84l1.34-1.53 M140.26,388.59l4.02-4.22 M134.51,394.34l4.02-4.22
		 M130.1,398.56l2.68-2.69 M141.41,383.99l2.68-2.68 M135.66,389.74l4.02-4.03 M130.1,395.3l3.83-3.84 M136.81,385.14l4.02-3.83
		 M131.06,391.08l4.22-4.22 M132.4,386.48l4.02-4.22 M130.1,388.78l0.57-0.57 M133.55,381.88l0.77-0.57 M130.1,385.33l1.92-1.72
		 M130.1,382.07l0.77-0.77 M162.68,376.6c0,0.58,0.47,1.06,1.06,1.06c0.58,0,1.05-0.47,1.05-1.06c0-0.58-0.47-1.05-1.05-1.05
		C163.15,375.55,162.68,376.02,162.68,376.6 M179.15,376.6c0,0.58,0.47,1.06,1.06,1.06c0.58,0,1.05-0.47,1.05-1.06
		c0-0.58-0.47-1.05-1.05-1.05C179.63,375.55,179.15,376.02,179.15,376.6 M177.24,359.48c0.04-2.47-1.15-4.8-3.19-6.21
		 M171.68,353.31h2.49 M171.62,353.27c-2.04,1.4-3.23,3.73-3.19,6.21 M168.43,359.39c-0.08,1.73,1.17,3.23,2.88,3.47 M174.36,363.09
		h-1.53h-1.34 M174.35,362.87c1.71-0.24,2.96-1.74,2.88-3.47 M161.72,339.89v30.29 M162.2,339.32c-0.26,0-0.48,0.22-0.48,0.48
		 M181.84,339.32h-19.54 M182.22,339.8c0-0.26-0.21-0.48-0.48-0.48 M161.72,370.18h20.5v-30.29 M159.99,339.89v32.02 M162.2,337.4
		c-1.32,0-2.4,1.07-2.4,2.4 M181.84,337.59h-19.54 M184.14,339.8c0-1.32-1.07-2.4-2.39-2.4 M159.99,371.91h24.14v-32.02
		 M155.21,337.59v43.71 M159.9,332.8c-2.59,0-4.69,2.1-4.69,4.7 M184.14,332.8h-24.14 M188.74,337.5c0-2.59-2.1-4.7-4.7-4.7
		 M155.21,381.3h33.53v-43.71 M213.83,399.9V282.57 M218.63,399.9l-0.19-117.33 M215.37,399.9h1.72v-42.75h-1.92L215.37,399.9z"/>
	
		<path style="clip-path:url(#SVGID_00000127751636799825595140000001956441671276942238_);fill:none;stroke:#FFFFFF;stroke-width:0.25;stroke-linecap:round;stroke-linejoin:round;stroke-miterlimit:10;" d="
		M140.07,355.36h9.39v9.37h-9.39V355.36z M144.57,364.53c2.59,0,4.69-2.1,4.69-4.68c0-2.59-2.1-4.68-4.69-4.68
		c-2.59,0-4.69,2.1-4.69,4.68C139.88,362.44,141.98,364.53,144.57,364.53 M130.1,381.35h83.72v18.54H130.1V381.35z M212.87,397.99
		l0.96-0.96 M210.95,399.9l0.38-0.19 M208.46,399.13l4.02-4.01 M209.61,394.74l4.22-4.21 M204.44,399.9l3.64-3.63 M210.95,390.15
		l2.87-2.87 M205.2,395.88l4.02-4.01 M201.18,399.9l2.3-2.29"/>
</g>
<path class="st5" d="M176.67,387.9h-9.41l9.41,5.57V387.9z M167.26,387.9l9.41,5.57h-9.41V387.9z"/>
<g>
	<defs>
		<polyline id="SVGID_00000075885019520603703680000015982610981938254243_" points="-2151.25,1287.36 1176.73,1287.36 
			1176.73,-809.82 -2151.25,-809.82 		"/>
	</defs>
	<clipPath id="SVGID_00000143601099087951010640000015958868823402472872_">
		<use xlink:href="#SVGID_00000075885019520603703680000015982610981938254243_"  style="overflow:visible;"/>
	</clipPath>
	
		<path style="clip-path:url(#SVGID_00000143601099087951010640000015958868823402472872_);fill:none;stroke:#FFFFFF;stroke-width:0.25;stroke-linecap:round;stroke-linejoin:round;stroke-miterlimit:10;" d="
		M195.98,378.16v-0.38 M202.4,378.16c0.16,0,0.29-0.13,0.29-0.29s-0.13-0.28-0.29-0.28 M199.24,378.16h3.25 M195.98,378.16h0.96
		 M199.24,377.78h3.25 M195.98,377.78h0.96 M199.24,381.39h-2.3v-4.56h2.3V381.39z M143.91,375.5l-0.57-0.76l-0.96-0.76l-0.96-0.38
		l-1.34-0.19l-1.34,0.19l-0.58,0.19l-0.57,0.57l-0.38,0.76v0.57l0.19,1.52l0.96,1.14l0.77,0.38l0.57,0.19h1.15h0.57h0.19l0.19,0.57
		l0.19,0.76v1.14 M143.72,376.83l-1.34-1.52l-0.76-0.57l-0.96-0.38h-1.15l-0.96,0.38l-0.38,0.57v1.14l0.58,0.95l0.76,0.57h2.11
		l0.57,0.38l0.38,0.76l0.38,2.28 M145.92,378.92c1.22,0,2.2-0.98,2.2-2.19c0-1.21-0.98-2.19-2.2-2.19c-1.22,0-2.2,0.98-2.2,2.19
		C143.72,377.94,144.71,378.92,145.92,378.92 M144.48,378.35v3.04h3.06v-3.04 M168.8,390.61c0,0.47,0.39,0.86,0.86,0.86
		s0.86-0.38,0.86-0.86c0-0.47-0.39-0.85-0.86-0.85S168.8,390.14,168.8,390.61 M171.67,390.61c0,1,0.81,1.81,1.82,1.81
		s1.82-0.81,1.82-1.81c0-1-0.82-1.8-1.82-1.8S171.67,389.61,171.67,390.61 M176.65,393.37h-9.38v-5.51h9.38V393.37z M176.65,387.86
		h-9.38v5.51h9.38V387.86z"/>
</g>
<path class="st6" d="M55.49,367.35V400L130,367.35H55.49z M55.49,400L130,367.35V400H55.49z"/>
<path class="st6" d="M114.25,355.45v39.95l-1.34-41.29L114.25,355.45z M114.25,395.39l-1.34-41.29l-0.19,42.83L114.25,395.39z
	 M112.91,354.1l-0.19,42.83l-39.95-43.02L112.91,354.1z M112.72,396.93l-39.95-43.02v43.02H112.72z M72.77,353.91v43.02l-1.34-41.68
	L72.77,353.91z M72.77,396.93l-1.34-41.68l-0.19,40.14L72.77,396.93z"/>
<g>
	<defs>
		<polyline id="SVGID_00000126304160941783068850000010191089828316201347_" points="-2151.25,1287.36 1176.73,1287.36 
			1176.73,-809.82 -2151.25,-809.82 		"/>
	</defs>
	<clipPath id="SVGID_00000118389265750682252920000002369653102266924165_">
		<use xlink:href="#SVGID_00000126304160941783068850000010191089828316201347_"  style="overflow:visible;"/>
	</clipPath>
	
		<path style="clip-path:url(#SVGID_00000118389265750682252920000002369653102266924165_);fill:none;stroke:#FFFFFF;stroke-width:0.25;stroke-linecap:round;stroke-linejoin:round;stroke-miterlimit:10;" d="
		M72.87,354.01l39.94,0.19 M72.78,353.82c-0.38,0-0.75,0.15-1.02,0.41c-0.27,0.27-0.42,0.64-0.42,1.02 M71.34,395.3l0.19-39.95
		 M71.34,395.2c0,0.79,0.64,1.43,1.43,1.44 M112.62,396.83H72.87 M112.52,396.64c0.79,0,1.44-0.64,1.44-1.43 M114.15,355.54v39.75
		 M114.15,355.45c0-0.79-0.64-1.43-1.43-1.44 M92.74,376.95v-2.49 M74.78,385.74l0.19-28.29l35.74,0.19v28.09H74.78z M92.74,391.86
		V393 M91.6,391.19c0,0.58,0.47,1.05,1.05,1.05c0.58,0,1.05-0.47,1.05-1.05c0-0.58-0.47-1.05-1.05-1.05
		C92.07,390.14,91.6,390.61,91.6,391.19 M92.74,390.52v-0.96 M93.32,391.28h1.15 M91.02,391.28h0.96 M92.74,380.39v2.68
		 M91.02,378.57c0,0.9,0.73,1.62,1.63,1.62s1.62-0.73,1.62-1.62c0-0.9-0.73-1.63-1.62-1.63S91.02,377.68,91.02,378.57 M89.88,378.57
		c0,1.53,1.24,2.77,2.77,2.77s2.77-1.24,2.77-2.77c0-1.53-1.24-2.77-2.77-2.77S89.88,377.04,89.88,378.57 M94.46,378.67h2.68
		 M88.54,378.67h2.48 M71.53,355.35l-0.19,39.95l1.53,1.53h39.75l1.53-1.53v-39.75l-1.34-1.34l-39.94-0.19L71.53,355.35z"/>
</g>
<path class="st2" d="M95.65,38.48h256.08v64.7 M53.86,103.18v-9.32 M361.12,38.48v64.7"/>
<polyline class="st0" points="55.59,103.37 55.59,95.91 97.43,95.91 97.43,40.2 349.99,40.2 349.99,95.91 "/>
<path class="st16" d="M352.11,206.52v4.03 M352.11,197.89v5.75 M352.11,189.07v5.75 M352.11,180.45v5.75 M352.11,171.63v5.75
	 M352.11,163v5.75 M352.11,154.18v5.75 M352.11,145.37v5.94 M352.11,136.74v5.75 M352.11,127.92v5.94 M352.11,119.29v5.75
	 M352.11,110.48v5.94 M352.11,103.58v4.03 M361.32,206.52v4.03 M361.32,197.89v5.75 M361.32,189.07v5.75 M361.32,180.45v5.75
	 M361.32,171.63v5.75 M361.32,163v5.75 M361.32,154.18v5.75 M361.32,145.37v5.94 M361.32,136.74v5.75 M361.32,127.92v5.94
	 M361.32,119.29v5.75 M361.32,110.48v5.94 M361.32,103.58v4.03"/>
<line class="st0" x1="296.02" y1="210.65" x2="165.63" y2="210.65"/>
<path class="st2" d="M156.42,220.27v60.17 M165.23,210.94v60.17"/>
<polyline class="st0" points="349.99,38.28 349.99,95.88 219.6,95.88 219.6,40.2 "/>
<path class="st9" d="M802.76,42.98v363.39 M802.76,38.38h15.72v4.6h-15.72V38.38z M802.76,406.37h15.72v4.6h-15.72V406.37z
	 M827.87,410.97v32.62l202.84-202.42l-16.49-16.31L827.87,410.97z"/>
<path class="st16" d="M1004.69,38.28v195.98 M1009.49,38.28v191.37 M813.8,42.89v363.55 M818.4,42.89v363.55"/>
<rect x="802.76" y="15.14" class="st9" width="211.24" height="22.84"/>
<g>
	<defs>
		<polyline id="SVGID_00000083774404574941243840000001199396836988066493_" points="-2151.25,1287.36 1176.73,1287.36 
			1176.73,-809.82 -2151.25,-809.82 		"/>
	</defs>
	<clipPath id="SVGID_00000003800943363863805470000015185574156937013178_">
		<use xlink:href="#SVGID_00000083774404574941243840000001199396836988066493_"  style="overflow:visible;"/>
	</clipPath>
	<path style="clip-path:url(#SVGID_00000003800943363863805470000015185574156937013178_);fill:#FFFFFF;" d="M842.65,120.32h3.31
		c0.87,0,1.48-0.06,1.85-0.18c0.53-0.18,0.93-0.48,1.22-0.9c0.28-0.42,0.43-0.99,0.43-1.71c0-0.67-0.13-1.23-0.39-1.67
		c-0.26-0.44-0.6-0.75-1.03-0.92c-0.43-0.17-1.2-0.25-2.31-0.25h-3.07V120.32z M842.65,128.93h3.81c0.84,0,1.46-0.08,1.86-0.23
		c0.58-0.22,1.02-0.58,1.32-1.09c0.3-0.5,0.45-1.14,0.45-1.9c0-0.71-0.15-1.3-0.43-1.79c-0.29-0.49-0.68-0.84-1.17-1.07
		c-0.49-0.23-1.25-0.34-2.3-0.34h-3.54V128.93z M840.63,131.13v-18.65h5.75c1.16,0,2.08,0.18,2.76,0.54
		c0.68,0.36,1.23,0.92,1.67,1.69c0.43,0.76,0.65,1.6,0.65,2.53c0,0.85-0.19,1.63-0.56,2.31c-0.37,0.69-0.9,1.24-1.58,1.65
		c0.89,0.32,1.58,0.87,2.1,1.65c0.51,0.78,0.77,1.73,0.77,2.87c0,1.13-0.23,2.12-0.69,2.97c-0.46,0.85-1.08,1.47-1.85,1.86
		c-0.77,0.39-1.83,0.58-3.18,0.58H840.63z"/>
	<path style="clip-path:url(#SVGID_00000003800943363863805470000015185574156937013178_);fill:#FFFFFF;" d="M857.66,123.47h5.21
		l-1.59-5.16c-0.49-1.59-0.85-2.88-1.08-3.87c-0.2,1.2-0.48,2.38-0.84,3.56L857.66,123.47z M853.28,131.13l5.9-18.65h2.16
		l6.26,18.65h-2.32l-1.78-5.65h-6.44l-1.66,5.65H853.28z"/>
</g>
<polygon class="st3" points="869.08,131.13 869.08,112.48 871.1,112.48 871.1,128.93 878.63,128.93 878.63,131.13 "/>
<g>
	<defs>
		<polyline id="SVGID_00000004514630604780040050000014821104928796242584_" points="-2151.25,1287.36 1176.73,1287.36 
			1176.73,-809.82 -2151.25,-809.82 		"/>
	</defs>
	<clipPath id="SVGID_00000085227288998339291470000005626247951881042341_">
		<use xlink:href="#SVGID_00000004514630604780040050000014821104928796242584_"  style="overflow:visible;"/>
	</clipPath>
	<path style="clip-path:url(#SVGID_00000085227288998339291470000005626247951881042341_);fill:#FFFFFF;" d="M891.94,124.59
		l2.04,0.62c-0.45,2.1-1.24,3.66-2.36,4.69c-1.12,1.03-2.49,1.55-4.1,1.55c-1.42,0-2.63-0.35-3.63-1.04
		c-1.01-0.69-1.83-1.8-2.47-3.33c-0.64-1.53-0.96-3.33-0.96-5.41c0-2.05,0.32-3.79,0.96-5.21c0.64-1.42,1.51-2.5,2.61-3.22
		c1.1-0.73,2.32-1.09,3.67-1.09c1.48,0,2.75,0.46,3.81,1.38c1.06,0.92,1.8,2.27,2.23,4.04l-1.98,0.57
		c-0.68-2.59-2.04-3.88-4.09-3.88c-1.02,0-1.9,0.26-2.65,0.78s-1.34,1.33-1.79,2.44c-0.45,1.11-0.67,2.5-0.67,4.19
		c0,2.56,0.45,4.47,1.35,5.75c0.9,1.28,2.1,1.92,3.59,1.92c1.1,0,2.06-0.39,2.86-1.18C891.14,127.38,891.67,126.19,891.94,124.59"/>
	<path style="clip-path:url(#SVGID_00000085227288998339291470000005626247951881042341_);fill:#FFFFFF;" d="M898.02,122.08
		c0,2.3,0.51,4.08,1.52,5.35c1.01,1.27,2.25,1.9,3.7,1.9c1.48,0,2.73-0.64,3.74-1.92c1-1.28,1.51-3.17,1.51-5.65
		c0-1.61-0.26-3.04-0.78-4.3c-0.4-0.97-1-1.74-1.8-2.32c-0.8-0.58-1.68-0.87-2.63-0.87c-1.53,0-2.78,0.64-3.77,1.91
		C898.52,117.45,898.02,119.41,898.02,122.08 M895.94,122.05c0-3.18,0.7-5.63,2.1-7.34c1.4-1.71,3.14-2.56,5.23-2.56
		c1.35,0,2.58,0.38,3.69,1.14c1.11,0.76,1.99,1.87,2.64,3.33c0.65,1.46,0.97,3.19,0.97,5.2c0,2.77-0.63,5.02-1.88,6.76
		c-1.38,1.92-3.19,2.88-5.43,2.88c-2.26,0-4.07-0.98-5.45-2.95C896.56,126.72,895.94,124.57,895.94,122.05"/>
</g>
<polygon class="st3" points="913.08,131.13 913.08,112.48 915.15,112.48 923.19,127.15 923.19,112.48 925.13,112.48 925.13,131.13 
	923.05,131.13 915.02,116.45 915.02,131.13 "/>
<g>
	<defs>
		<polyline id="SVGID_00000084526888986235876960000013890566158015909269_" points="-2151.25,1287.36 1176.73,1287.36 
			1176.73,-809.82 -2151.25,-809.82 		"/>
	</defs>
	<clipPath id="SVGID_00000111888991389755295730000002328732670684645565_">
		<use xlink:href="#SVGID_00000084526888986235876960000013890566158015909269_"  style="overflow:visible;"/>
	</clipPath>
	<path style="clip-path:url(#SVGID_00000111888991389755295730000002328732670684645565_);fill:#FFFFFF;" d="M932.86,131.13v-7.9
		l-5.89-10.75h2.47l3,5.63c0.59,1.11,1.12,2.17,1.56,3.16c0.45-0.98,1.01-2.07,1.67-3.3l2.97-5.49h2.34l-6.11,10.75v7.9H932.86z"/>
</g>
<line class="st1" x1="1014.06" y1="38.33" x2="1014.06" y2="224.9"/>
<path class="st0" d="M802.66,30.21l7.87,8.06 M802.66,21.96l16.12,16.32 M803.81,15.04l23.22,23.23 M812.06,15.04l23.22,23.23
	 M820.32,15.04l23.22,23.23 M828.57,15.04l23.22,23.23 M836.82,15.04l23.22,23.23 M845.07,15.04l23.22,23.23 M853.13,15.04
	l23.41,23.23 M861.38,15.04l23.41,23.23 M869.63,15.04l23.41,23.23 M877.88,15.04l23.41,23.23 M886.13,15.04l23.41,23.23
	 M894.38,15.04l23.22,23.23 M902.63,15.04l23.22,23.23 M910.88,15.04l23.22,23.23 M919.13,15.04l23.22,23.23 M927.38,15.04
	l23.22,23.23 M935.63,15.04l23.22,23.23 M943.88,15.04l23.22,23.23 M952.13,15.04l23.22,23.23 M960.19,15.04l23.41,23.23
	 M968.44,15.04l23.41,23.23 M976.69,15.04l23.41,23.23 M984.95,15.04l23.41,23.23 M993.2,15.04l20.91,20.73 M1001.45,15.04
	l12.66,12.48 M1009.7,15.04l4.41,4.22 M827.8,440.04h3.65 M827.8,434.09h9.59 M827.8,428.33h15.35 M827.8,422.57h21.3 M827.8,416.62
	h27.05 M827.99,410.86h32.81 M833.75,405.1h32.81 M839.7,399.15h32.62 M845.45,393.39h32.81 M851.4,387.63h32.62 M857.16,381.68
	h32.81 M862.91,375.92h32.81 M868.86,370.16h32.81 M874.62,364.21h32.81 M880.56,358.46h32.81 M886.32,352.7h32.81 M892.08,346.75
	h32.81 M898.03,340.99h32.81 M903.78,335.23h32.81 M909.73,329.28h32.81 M915.49,323.52h32.81 M921.24,317.76h33 M927.19,311.81H960
	 M932.95,306.05h32.81 M938.89,300.1h32.81 M944.65,294.34h32.81 M950.41,288.58h33 M956.35,282.63h32.81 M962.11,276.87h33
	 M968.06,271.12h32.81 M973.82,265.16h33 M979.57,259.4h33 M985.52,253.65h32.81 M991.28,247.7h33 M997.23,241.94h32.81
	 M1002.98,236.18h22.64 M1008.74,230.23h11.13"/>
<path class="st10" d="M827.72,415.56H39.35l788.36,46.67V415.56z M39.35,415.56l788.36,46.67H39.35V415.56z"/>
<rect x="39.69" y="416.09" class="st1" width="787.87" height="46.18"/>
<path class="st3" d="M128.16,368.72H53.85v32.44h74.31V368.72z M57.68,370.06l-3.83,3.82 M55.19,379.03l-1.34,1.33 M60.94,373.3
	l-4.21,4.2 M65.53,368.72l-3.06,3.05 M58.45,382.27l-4.02,4.2 M64.19,376.55l-4.02,4.2 M69.94,370.82l-4.02,4.2 M72.04,368.72
	l-0.38,0.57 M55.96,391.43l-2.11,2.1 M61.7,385.7l-4.02,4.01 M67.45,379.98l-4.02,4.01 M73.19,374.06l-4.02,4.2 M78.75,368.72
	l-3.83,3.82 M59.21,394.68l-4.02,4.01 M64.96,388.95l-4.02,4.01 M70.71,383.22l-4.02,4.01 M76.45,377.5l-4.02,4.01 M82.2,371.77
	l-4.02,4.01 M85.26,368.72l-1.34,1.34 M62.47,397.92l-3.26,3.25 M68.21,392.19l-4.02,4.01 M74.15,386.47l-4.21,4.01 M79.9,380.74
	l-4.21,4.01 M85.64,375.02l-4.21,4.01 M91.39,369.29l-4.21,4.01 M71.66,395.44l-4.21,4.2 M77.41,389.71l-4.21,4.01 M83.15,383.99
	l-4.21,4.01 M88.9,378.26l-4.21,4.01 M94.64,372.54l-4.21,4.01 M98.47,368.72l-2.3,2.1 M74.92,398.68l-2.49,2.48 M80.66,392.96
	l-4.21,4.2 M86.41,387.23l-4.21,4.2 M92.16,381.51l-4.02,4.2 M97.9,375.78l-4.02,4.2 M103.65,370.06l-4.02,4.01 M83.92,396.2
	l-4.02,4.2 M89.66,390.48l-4.02,4.2 M95.41,384.75l-4.02,4.2 M101.16,379.03l-4.02,4.2 M106.9,373.3l-4.02,4.2 M111.5,368.72
	l-2.87,3.05 M87.18,399.64l-1.53,1.53 M92.92,393.72l-4.02,4.2 M98.67,387.99l-4.02,4.2 M104.41,382.27l-4.02,4.2 M110.16,376.55
	l-4.02,4.2 M115.9,370.82l-4.02,4.2 M118.2,368.72l-0.57,0.57 M96.18,397.15l-4.02,4.01 M101.92,391.43l-4.02,4.01 M107.86,385.7
	l-4.21,4.01 M113.6,379.98l-4.21,4.01 M119.35,374.06l-4.21,4.2 M124.71,368.72l-3.83,3.82 M99.62,400.4l-0.96,0.76 M105.37,394.68
	l-4.21,4.01 M111.12,388.95l-4.21,4.01 M116.86,383.22l-4.21,4.01 M122.61,377.5l-4.21,4.01 M128.16,371.77l-4.02,4.01
	 M108.63,397.92l-3.26,3.25 M114.37,392.19l-4.21,4.01 M120.12,386.47l-4.21,4.01 M125.86,380.74l-4.02,4.01 M128.16,378.45
	l-0.57,0.57 M117.63,395.44l-4.02,4.2 M123.37,389.71l-4.02,4.01 M128.16,384.94l-3.06,3.05 M120.88,398.68l-2.49,2.48
	 M126.63,392.96l-4.02,4.2 M128.16,398.11l-2.3,2.29 M55.57,368.72l-1.72,1.91 M62.28,368.72l-8.43,8.4 M68.79,368.72L53.85,383.8
	 M75.3,368.72l-21.45,21.56 M82,368.72l-28.15,28.05 M88.51,368.72l-32.56,32.44 M95.03,368.72l-32.56,32.44 M101.73,368.72
	l-32.56,32.44 M108.24,368.72l-32.56,32.44 M114.75,368.72L82.2,401.16 M121.46,368.72L88.9,401.16 M127.97,368.72l-32.56,32.44
	 M128.16,375.02l-26.24,26.15 M128.16,381.7l-19.53,19.47 M128.16,388.19l-13.02,12.98 M128.16,394.68l-6.32,6.49 M128.16,401.16
	H53.85v-32.44h74.31V401.16z"/>
</svg>
