<?xml version="1.0" encoding="utf-8"?>
<!-- Generator: Adobe Illustrator 27.7.0, SVG Export Plug-In . SVG Version: 6.00 Build 0)  -->
<svg version="1.1" id="Layer_1" xmlns="http://www.w3.org/2000/svg" xmlns:xlink="http://www.w3.org/1999/xlink" x="0px" y="0px"
	 viewBox="0 0 1059.33 492.93" style="enable-background:new 0 0 1059.33 492.93;" xml:space="preserve">
<style type="text/css">
	.st0{fill:none;stroke:#FFFFFF;stroke-width:0.25;stroke-linecap:round;stroke-linejoin:round;stroke-miterlimit:10;}
	.st1{fill:none;stroke:#FFFFFF;stroke-width:0.36;stroke-linecap:round;stroke-linejoin:round;stroke-miterlimit:10;}
	.st2{fill:none;stroke:#FFFFFF;stroke-width:0.72;stroke-linecap:round;stroke-linejoin:round;stroke-miterlimit:10;}
	.st3{fill:#FFFFFF;}
	.st4{fill:#E0E0E0;stroke:#FFFFFF;stroke-miterlimit:10;}
	.st5{fill:#FFFFFF;stroke:#FFFFFF;stroke-miterlimit:10;}
	.st6{fill:none;stroke:#FFFFFF;stroke-miterlimit:10;}
	.st7{fill:#606060;stroke:#FFFFFF;stroke-miterlimit:10;}
	.st8{stroke:#FFFFFF;stroke-miterlimit:10;}
	.st9{fill:none;stroke:#FFFFFF;stroke-width:0.48;stroke-linecap:round;stroke-linejoin:round;stroke-miterlimit:10;}
	.st10{fill:#808080;stroke:#FFFFFF;stroke-miterlimit:10;}
	.st11{clip-path:url(#SVGID_00000177478047479177252300000013991124696280660144_);fill:#FFFFFF;}
	.st12{clip-path:url(#SVGID_00000166651995699506543800000004247876594583785606_);fill:#FFFFFF;}
	.st13{clip-path:url(#SVGID_00000018937810784153545060000006690208046691258270_);fill:#FFFFFF;}
	
		.st14{clip-path:url(#SVGID_00000018937810784153545060000006690208046691258270_);fill:none;stroke:#FFFFFF;stroke-width:0.25;stroke-linecap:round;stroke-linejoin:round;stroke-miterlimit:10;}
	
		.st15{clip-path:url(#SVGID_00000018937810784153545060000006690208046691258270_);fill:none;stroke:#FFFFFF;stroke-width:0.36;stroke-linecap:round;stroke-linejoin:round;stroke-miterlimit:10;}
	.st16{fill:none;stroke:#FFFFFF;stroke-width:0.24;stroke-linecap:round;stroke-linejoin:round;stroke-miterlimit:10;}
	
		.st17{clip-path:url(#SVGID_00000006679244754996101220000015404974590961835655_);fill:none;stroke:#FFFFFF;stroke-width:0.25;stroke-linecap:round;stroke-linejoin:round;stroke-miterlimit:10;}
	
		.st18{clip-path:url(#SVGID_00000181782272295785468220000016041826244782340538_);fill:none;stroke:#FFFFFF;stroke-width:0.25;stroke-linecap:round;stroke-linejoin:round;stroke-miterlimit:10;}
	.st19{clip-path:url(#SVGID_00000181782272295785468220000016041826244782340538_);stroke:#FFFFFF;stroke-miterlimit:10;}
	.st20{clip-path:url(#SVGID_00000023269561203699080710000006711931066665804683_);stroke:#FFFFFF;stroke-miterlimit:10;}
	.st21{clip-path:url(#SVGID_00000052802647628891901740000001614150730220899968_);fill:#FFFFFF;}
	
		.st22{clip-path:url(#SVGID_00000132791215623876971250000015832399632375665557_);fill:none;stroke:#FFFFFF;stroke-width:0.25;stroke-linecap:round;stroke-linejoin:round;stroke-miterlimit:10;}
	
		.st23{clip-path:url(#SVGID_00000119818416960596397470000002255189999269419910_);fill:none;stroke:#FFFFFF;stroke-width:0.25;stroke-linecap:round;stroke-linejoin:round;stroke-miterlimit:10;}
	
		.st24{clip-path:url(#SVGID_00000094610029332434138100000010920097882408241853_);fill:none;stroke:#FFFFFF;stroke-width:0.25;stroke-linecap:round;stroke-linejoin:round;stroke-miterlimit:10;}
	.st25{clip-path:url(#SVGID_00000100354927320856806430000004968753137407985086_);fill:#FFFFFF;}
	.st26{clip-path:url(#SVGID_00000026151369710001694740000014256117967374230715_);fill:#FFFFFF;}
	.st27{clip-path:url(#SVGID_00000166641669054648599150000017796376416916156860_);fill:#FFFFFF;}
</style>
<g>
	<defs>
		<polyline id="SVGID_1_" points="-2151.25,1287.36 1176.73,1287.36 1176.73,-809.82 -2151.25,-809.82 		"/>
	</defs>
	<clipPath id="SVGID_00000012441393817353413540000011105665366843233444_">
		<use xlink:href="#SVGID_1_"  style="overflow:visible;"/>
	</clipPath>
</g>
<g>
	<defs>
		<polyline id="SVGID_00000144337736900603134380000000670263700567132603_" points="-2151.25,1287.36 1176.73,1287.36 
			1176.73,-809.82 -2151.25,-809.82 		"/>
	</defs>
	<clipPath id="SVGID_00000100343245467682842170000004271061112278329013_">
		<use xlink:href="#SVGID_00000144337736900603134380000000670263700567132603_"  style="overflow:visible;"/>
	</clipPath>
</g>
<g>
	<defs>
		<polyline id="SVGID_00000090288015698062032620000008722362887945555627_" points="-2151.25,1287.36 1176.73,1287.36 
			1176.73,-809.82 -2151.25,-809.82 		"/>
	</defs>
	<clipPath id="SVGID_00000111184700197725311280000000701066173026502806_">
		<use xlink:href="#SVGID_00000090288015698062032620000008722362887945555627_"  style="overflow:visible;"/>
	</clipPath>
</g>
<g>
	<defs>
		<polyline id="SVGID_00000059284028212976108800000009520929705748096433_" points="-2151.25,1287.36 1176.73,1287.36 
			1176.73,-809.82 -2151.25,-809.82 		"/>
	</defs>
	<clipPath id="SVGID_00000120531895807753684460000007832384790405835908_">
		<use xlink:href="#SVGID_00000059284028212976108800000009520929705748096433_"  style="overflow:visible;"/>
	</clipPath>
</g>
<g>
	<defs>
		<polyline id="SVGID_00000106131028336606471130000003791773758321364887_" points="-2151.25,1287.36 1176.73,1287.36 
			1176.73,-809.82 -2151.25,-809.82 		"/>
	</defs>
	<clipPath id="SVGID_00000135654985420592456580000012529805270030474168_">
		<use xlink:href="#SVGID_00000106131028336606471130000003791773758321364887_"  style="overflow:visible;"/>
	</clipPath>
</g>
<g>
	<defs>
		<polyline id="SVGID_00000065064062452010406140000002669704431871664050_" points="-2151.25,1287.36 1176.73,1287.36 
			1176.73,-809.82 -2151.25,-809.82 		"/>
	</defs>
	<clipPath id="SVGID_00000183229043157873215010000007106633090228873103_">
		<use xlink:href="#SVGID_00000065064062452010406140000002669704431871664050_"  style="overflow:visible;"/>
	</clipPath>
</g>
<g>
	<defs>
		<polyline id="SVGID_00000121983517041320874860000015936221776765004160_" points="-2154.81,1286.66 1173.18,1286.66 
			1173.18,-810.52 -2154.81,-810.52 		"/>
	</defs>
	<clipPath id="SVGID_00000095314144448708024810000004843525648044684179_">
		<use xlink:href="#SVGID_00000121983517041320874860000015936221776765004160_"  style="overflow:visible;"/>
	</clipPath>
</g>
<g>
	<defs>
		<polyline id="SVGID_00000080920468504843070230000011177250124751984311_" points="-2151.25,1287.36 1176.73,1287.36 
			1176.73,-809.82 -2151.25,-809.82 		"/>
	</defs>
	<clipPath id="SVGID_00000067949662303323247120000002895061024667922067_">
		<use xlink:href="#SVGID_00000080920468504843070230000011177250124751984311_"  style="overflow:visible;"/>
	</clipPath>
</g>
<g>
	<defs>
		<polyline id="SVGID_00000086680964355935423330000012235570654298149285_" points="-2151.25,1287.36 1176.73,1287.36 
			1176.73,-809.82 -2151.25,-809.82 		"/>
	</defs>
	<clipPath id="SVGID_00000025405204247021241990000016913259616806058683_">
		<use xlink:href="#SVGID_00000086680964355935423330000012235570654298149285_"  style="overflow:visible;"/>
	</clipPath>
</g>
<g>
	<defs>
		<polyline id="SVGID_00000010296731592867760210000008370582332737078191_" points="-2151.25,1287.36 1176.73,1287.36 
			1176.73,-809.82 -2151.25,-809.82 		"/>
	</defs>
	<clipPath id="SVGID_00000091005325540593955470000005150780742793318067_">
		<use xlink:href="#SVGID_00000010296731592867760210000008370582332737078191_"  style="overflow:visible;"/>
	</clipPath>
</g>
<g>
	<defs>
		<polyline id="SVGID_00000179623795929505007320000005578829858932348301_" points="-2151.25,1287.36 1176.73,1287.36 
			1176.73,-809.82 -2151.25,-809.82 		"/>
	</defs>
	<clipPath id="SVGID_00000044139521419917547590000000234089956730254723_">
		<use xlink:href="#SVGID_00000179623795929505007320000005578829858932348301_"  style="overflow:visible;"/>
	</clipPath>
</g>
<g>
	<defs>
		<polyline id="SVGID_00000032639738917280932120000008747055489224722063_" points="-2151.25,1287.36 1176.73,1287.36 
			1176.73,-809.82 -2151.25,-809.82 		"/>
	</defs>
	<clipPath id="SVGID_00000029758427274623646890000017438360040734638721_">
		<use xlink:href="#SVGID_00000032639738917280932120000008747055489224722063_"  style="overflow:visible;"/>
	</clipPath>
</g>
<g>
	<defs>
		<polyline id="SVGID_00000071525360528101576750000011604985487138874504_" points="-2151.25,1287.36 1176.73,1287.36 
			1176.73,-809.82 -2151.25,-809.82 		"/>
	</defs>
	<clipPath id="SVGID_00000089548580759653692910000004310463626564318894_">
		<use xlink:href="#SVGID_00000071525360528101576750000011604985487138874504_"  style="overflow:visible;"/>
	</clipPath>
</g>
<g>
	<defs>
		<polyline id="SVGID_00000004531680002348074540000008080975236688021132_" points="-2145.88,1170.14 1182.11,1170.14 
			1182.11,-927.04 -2145.88,-927.04 		"/>
	</defs>
	<clipPath id="SVGID_00000016069836363028500520000013667970910139166395_">
		<use xlink:href="#SVGID_00000004531680002348074540000008080975236688021132_"  style="overflow:visible;"/>
	</clipPath>
</g>
<g>
	<defs>
		<polyline id="SVGID_00000038405019047730295480000016076969923795703434_" points="-2145.88,1170.14 1182.11,1170.14 
			1182.11,-927.04 -2145.88,-927.04 		"/>
	</defs>
	<clipPath id="SVGID_00000085960457647074964440000018122582072548182149_">
		<use xlink:href="#SVGID_00000038405019047730295480000016076969923795703434_"  style="overflow:visible;"/>
	</clipPath>
</g>
<g>
	<defs>
		<polyline id="SVGID_00000020388497588946423240000013693340387239641235_" points="-2145.88,1170.14 1182.11,1170.14 
			1182.11,-927.04 -2145.88,-927.04 		"/>
	</defs>
	<clipPath id="SVGID_00000098222740805980212730000017761905565003311787_">
		<use xlink:href="#SVGID_00000020388497588946423240000013693340387239641235_"  style="overflow:visible;"/>
	</clipPath>
</g>
<g>
	<defs>
		<polyline id="SVGID_00000147928502694035605930000009124627256743774875_" points="-2145.88,1170.14 1182.11,1170.14 
			1182.11,-927.04 -2145.88,-927.04 		"/>
	</defs>
	<clipPath id="SVGID_00000160187378673332793650000014534723441242455185_">
		<use xlink:href="#SVGID_00000147928502694035605930000009124627256743774875_"  style="overflow:visible;"/>
	</clipPath>
</g>
<g>
	<defs>
		<polyline id="SVGID_00000016062183651086103260000009427682102237401746_" points="-2145.88,1170.14 1182.11,1170.14 
			1182.11,-927.04 -2145.88,-927.04 		"/>
	</defs>
	<clipPath id="SVGID_00000035501844736437081590000007861679828070306229_">
		<use xlink:href="#SVGID_00000016062183651086103260000009427682102237401746_"  style="overflow:visible;"/>
	</clipPath>
</g>
<g>
	<defs>
		<polyline id="SVGID_00000141439376512579990410000007088640327262946697_" points="-2145.88,1170.14 1182.11,1170.14 
			1182.11,-927.04 -2145.88,-927.04 		"/>
	</defs>
	<clipPath id="SVGID_00000021802117046661002980000006018224838485464500_">
		<use xlink:href="#SVGID_00000141439376512579990410000007088640327262946697_"  style="overflow:visible;"/>
	</clipPath>
</g>
<g>
	<defs>
		<polyline id="SVGID_00000173151863533154590940000008720044137487165872_" points="-2145.88,1170.14 1182.11,1170.14 
			1182.11,-927.04 -2145.88,-927.04 		"/>
	</defs>
	<clipPath id="SVGID_00000016051271093762744800000003493748310711433134_">
		<use xlink:href="#SVGID_00000173151863533154590940000008720044137487165872_"  style="overflow:visible;"/>
	</clipPath>
</g>
<g>
	<defs>
		<polyline id="SVGID_00000151512353862168488470000004998061511398293921_" points="-2145.88,1170.14 1182.11,1170.14 
			1182.11,-927.04 -2145.88,-927.04 		"/>
	</defs>
	<clipPath id="SVGID_00000106140563108038672040000011893724060452435634_">
		<use xlink:href="#SVGID_00000151512353862168488470000004998061511398293921_"  style="overflow:visible;"/>
	</clipPath>
</g>
<g>
	<defs>
		<polyline id="SVGID_00000178167668478669507130000004464258766578903208_" points="-2145.88,1170.14 1182.11,1170.14 
			1182.11,-927.04 -2145.88,-927.04 		"/>
	</defs>
	<clipPath id="SVGID_00000165956405209600167960000010823682274134433972_">
		<use xlink:href="#SVGID_00000178167668478669507130000004464258766578903208_"  style="overflow:visible;"/>
	</clipPath>
</g>
<g>
	<defs>
		<polyline id="SVGID_00000178162658990721945780000005996287275267542419_" points="-2145.88,1170.14 1182.11,1170.14 
			1182.11,-927.04 -2145.88,-927.04 		"/>
	</defs>
	<clipPath id="SVGID_00000026143112401048781560000012318853735855646882_">
		<use xlink:href="#SVGID_00000178162658990721945780000005996287275267542419_"  style="overflow:visible;"/>
	</clipPath>
</g>
<g>
	<defs>
		<polyline id="SVGID_00000025420313703512751370000006068921158298973841_" points="-2145.88,1170.14 1182.11,1170.14 
			1182.11,-927.04 -2145.88,-927.04 		"/>
	</defs>
	<clipPath id="SVGID_00000083785399201229109730000003767775406183106467_">
		<use xlink:href="#SVGID_00000025420313703512751370000006068921158298973841_"  style="overflow:visible;"/>
	</clipPath>
</g>
<g>
	<defs>
		<polyline id="SVGID_00000136380681888897352620000006094095979560973750_" points="-2145.88,1170.14 1182.11,1170.14 
			1182.11,-927.04 -2145.88,-927.04 		"/>
	</defs>
	<clipPath id="SVGID_00000048478102396044260140000017050706366707885224_">
		<use xlink:href="#SVGID_00000136380681888897352620000006094095979560973750_"  style="overflow:visible;"/>
	</clipPath>
</g>
<g>
	<defs>
		<polyline id="SVGID_00000036231852113907765540000011818884084300786307_" points="-2145.88,1170.14 1182.11,1170.14 
			1182.11,-927.04 -2145.88,-927.04 		"/>
	</defs>
	<clipPath id="SVGID_00000026884566437257433440000005528992947769151876_">
		<use xlink:href="#SVGID_00000036231852113907765540000011818884084300786307_"  style="overflow:visible;"/>
	</clipPath>
</g>
<path class="st0" d="M489.28,75.52l71.49,70.06 M503.43,48.64c-1.12,0-2.2,0.52-2.99,1.44c-0.79,0.92-1.21,2.17-1.19,3.46
	 M436.83,47.82c-1.13,0-2.2,0.52-2.99,1.44c-0.78,0.92-1.21,2.17-1.18,3.46 M503.12,82.85h43.58 M432.45,75.52l0.41-3.26l1.02-3.26
	l1.43-2.85l1.63-2.85 M483.98,52.71l-0.21,2.85l-0.2,1.43l-0.41,1.83l-0.41,1.84l-0.61,2.04l-0.82,2.45l-1.02,2.44 M550.99,78.58
	v-3.46l-0.41-3.46l-0.41-1.63l-0.61-1.43l-0.82-1.43l-1.02-1.22 M546.61,82.65c2.12,0,3.91-1.82,4.15-4.24 M560.76,34.59v39.51
	h34.62V34.59 M422.47,34.59v39.51 M388.05,34.59h172.71 M422.47,109.73h52.75 M484.59,75.52l-0.2-2.85l-0.41-2.85l-1.02-2.65
	l-1.63-2.24 M474.82,173.68l0.61-98.16 M422.47,75.52h66.8 M542.43,173.68h-67.62 M498.85,77.77c-0.02,1.29,0.41,2.53,1.19,3.44
	c0.78,0.92,1.86,1.44,2.98,1.44 M436.93,47.82h42.97 M498.85,77.76l0.41-3.67l0.82-3.67l1.43-3.26l1.83-3.06 M550.58,53.53
	l-0.2,2.85l-0.21,1.63l-0.41,1.63l-0.61,1.83l-0.61,2.24l-0.82,2.24l-1.02,2.65 M560.76,145.58l-18.33,28.1 M503.53,48.64h42.77
	 M483.98,52.67c0.02-1.28-0.42-2.51-1.2-3.42c-0.78-0.91-1.86-1.43-2.97-1.43 M550.38,53.49c0.02-1.28-0.42-2.52-1.2-3.43
	c-0.78-0.91-1.85-1.42-2.97-1.42 M422.47,232.34h138.29V34.59H422.47V232.34z M422.47,74.09h-34.42 M499.26,53.73l0.2,3.26
	l0.41,3.06l0.82,3.26l1.43,2.85 M432.86,52.71v3.26l0.61,3.26l0.82,3.06l1.43,3.06 M388.05,74.09V34.59 M595.39,34.59h-34.62"/>
<path class="st1" d="M474.7,168.98c-2.22,0-4.03,2.08-4.03,4.64c0,2.56,1.8,4.64,4.03,4.64c2.22,0,4.03-2.08,4.03-4.64
	C478.73,171.06,476.92,168.98,474.7,168.98"/>
<path class="st2" d="M13.74,291.63h14.28 M28.02,395.44H13.74 M13.74,291.63V15.01 M28.02,271.89V64.47 M28.02,291.63v-9.77"/>
<path class="st0" d="M27.17,296.55H13.54v-4.68h13.63V296.55z M27.17,395.64H13.54v-4.48h13.63V395.64z M27.17,300.21h94.62v-3.66
	H27.17V300.21z"/>
<path class="st0" d="M40.81,390.14l-5.29,0.61l-8.34,0.41 M58.71,385.66l-6.31,2.03l-5.49,1.43 M75.4,377.93l-7.12,3.87l-3.87,1.63
	 M90.46,366.95l-1.02,0.81l-6.51,5.29l-2.24,1.42 M102.87,353.32l-1.63,2.04l-5.5,6.51l-1.02,0.81 M112.43,337.45l-1.83,3.66
	l-4.27,7.12 M118.74,320.16l-1.43,5.29l-2.44,6.31 M121.79,300.43l-0.82,8.54l-0.81,5.09 M13.54,384.03v7.12 M13.54,365.52v12.21
	 M13.54,347.01v12.21 M13.54,328.5v12.21 M13.54,309.78v12.41 M13.54,296.56v7.12"/>
<path class="st2" d="M147.38,212.72h138.53 M127.62,281.94h19.76 M28.61,281.94h9.98 M137.39,202.94h148.51 M127.62,271.96h9.78
	 M28.61,271.96h9.98 M345.19,395.54h9.98 M355.17,464.76h467.95 M295.69,34.78h366.09 M201.77,34.78h84.14 M28.61,291.71H13.74"/>
<path class="st0" d="M144.82,400.36h1.63v-2.45h-1.63V400.36z M89.79,463.12h59.31v-59.5H89.79V463.12z M89.79,402.4h59.1v-2.04
	h-59.1V402.4z M89.79,454.56h59.31 M94.07,460.88h50.55v-4.28H94.07V460.88z M508.42,411.97h-30.78v39.53h30.78h8.97v-39.53H508.42z
	 M587.7,451.51h-8.76v-39.53h8.76h30.78v39.53H587.7z M587.7,464.96h-79.28v-66.23h79.28V464.96z M770.62,134.84
	c2.65,0,4.79-2.14,4.79-4.79 M760.32,130.05c0,2.65,2.14,4.79,4.79,4.79 M772.35,134.84v0.82 M767.56,140.34
	c2.65,0,4.79-2.14,4.79-4.79 M770.72,134.84h-5.5 M656.69,134.84c2.65,0,4.79-2.14,4.79-4.79 M649.66,135.56
	c0,2.64,2.14,4.79,4.79,4.79 M649.86,134.84v0.82 M651.49,134.84h5.3 M646.6,130.05c0,2.65,2.15,4.79,4.79,4.79 M654.55,140.34
	h113.11 M772.76,77.68c0-2.65-2.15-4.79-4.79-4.79 M775.41,93.99c0-2.65-2.14-4.79-4.79-4.79 M765.11,89.2
	c-2.65,0-4.79,2.14-4.79,4.79 M772.76,77.79V89.6 M654.44,72.89c-2.65,0-4.79,2.14-4.79,4.79 M661.48,93.99
	c0-2.65-2.14-4.79-4.79-4.79 M651.39,89.2c-2.65,0-4.79,2.14-4.79,4.79 M649.86,89.4V77.79 M649.86,84.51h122.9 M649.86,89.4h120.86
	 M654.55,72.89h113.52 M661.68,130.15V94.09 M646.8,94.09v36.07 M711,140.34V89.4 M775.41,94.09v36.07 M760.53,130.15V94.09
	 M649.86,134.84v-0.21 M677.98,238.97h66.24v-65.61h-66.24V238.97z M450.33,463.33h-51.36v-2.65h51.36V463.33z M355.15,464.96h97.01
	v-34.64h-97.01V464.96z M374.73,411.54c-0.04,0.24,0.04,0.48,0.21,0.65 M401.19,412.19c0.17-0.17,0.26-0.41,0.21-0.65
	 M401.18,412.03c-8.52-2.79-17.7-2.79-26.22,0 M401.36,413.08c-0.86-0.4-1.75-0.76-2.64-1.09 M376.18,411.69
	c7.85,1.46,15.91,1.46,23.76,0 M373.99,409c-0.26,0.91,0.07,1.89,0.82,2.48 M401.37,411.51c0.66-0.66,0.96-1.6,0.83-2.52
	 M402.19,408.93c-9.18-3.01-19.08-3.01-28.25,0 M401.37,411.45c-8.64-2.83-17.96-2.83-26.6,0 M373.49,430.31l1.22-17.12
	 M402.84,430.31l-1.43-17.12 M377.41,412c-0.89,0.32-1.77,0.68-2.64,1.08 M303.99,255.07l-0.2,1.84l42.8,3.87l0.2-2.04
	L303.99,255.07z M346.79,265.05l-0.2-2.04l-42.8,1.84v2.04L346.79,265.05z M303.99,241.01l-0.2,1.83l42.8,3.87l0.2-2.04
	L303.99,241.01z M346.79,250.99l-0.2-2.04l-42.8,1.84v2.04L346.79,250.99z M303.99,226.74l-0.2,2.04l42.8,3.87l0.2-2.04
	L303.99,226.74z M346.79,236.93l-0.2-2.04l-42.8,1.84v2.04L346.79,236.93z M303.99,212.68l-0.2,2.04l42.8,3.87l0.2-2.04
	L303.99,212.68z M346.79,222.87l-0.2-2.04l-42.8,1.83v2.04L346.79,222.87z M303.99,198.62l-0.2,2.04l42.8,3.87l0.2-2.04
	L303.99,198.62z M346.79,208.81l-0.2-2.04l-42.8,1.83v1.84L346.79,208.81z M303.99,184.56l-0.2,2.04l42.8,3.67l0.2-1.84
	L303.99,184.56z M346.79,194.55l-0.2-1.84l-42.8,1.84v1.83L346.79,194.55z M303.99,170.5l-0.2,1.84l42.8,3.87l0.2-1.83L303.99,170.5
	z M346.79,180.49l-0.2-2.04l-42.8,1.83v2.04L346.79,180.49z M303.99,156.44l-0.2,1.84l42.8,3.87l0.2-2.04L303.99,156.44z
	 M346.79,166.43l-0.2-2.04l-42.8,1.83v2.04L346.79,166.43z M303.99,142.18l-0.2,2.04l42.8,3.87l0.2-2.04L303.99,142.18z
	 M346.79,152.37l-0.2-2.04l-42.8,1.84v2.04L346.79,152.37z M303.99,128.12l-0.2,2.04l42.8,3.87l0.2-2.04L303.99,128.12z
	 M346.79,138.31l-0.2-2.04l-42.8,1.84v2.04L346.79,138.31z M303.99,114.06l-0.2,2.04l42.8,3.87l0.2-2.04L303.99,114.06z
	 M346.79,124.25l-0.2-2.04l-42.8,1.83v1.84L346.79,124.25z M303.99,100l-0.2,2.04l42.8,3.67l0.2-1.84L303.99,100z M346.79,109.98
	l-0.2-1.83l-42.8,1.83v1.84L346.79,109.98z M303.99,85.94l-0.2,2.04l42.8,3.67l0.2-1.84L303.99,85.94z M346.79,95.92l-0.2-1.83
	l-42.8,1.63v2.04L346.79,95.92z M303.99,71.88l-0.2,1.83l42.8,3.87l0.2-2.04L303.99,71.88z M346.79,81.86l-0.2-2.04l-42.8,1.83v2.04
	L346.79,81.86z M303.99,260.16h42.8v2.04h-42.8V260.16z M346.79,67.8l-0.2-2.04l-42.8,1.83v2.04L346.79,67.8z M303.99,57.81
	l-0.2,1.84l42.8,3.87l0.2-2.04L303.99,57.81z M303.99,53.13h42.8v-2.04h-42.8V53.13z M303.99,46.4h42.8v-1.83h-42.8V46.4z
	 M326.41,36.62v233.52 M324.37,36.62v233.52 M297.67,270.15h55.44V36.62h-55.44V270.15z M295.64,271.98h59.51V34.58h-59.51V271.98z"
	/>
<path class="st0" d="M38.41,272.1h2.44v9.78h-2.44V272.1z M124.65,272.1h2.65v9.78h-2.65V272.1z"/>
<path class="st0" d="M51.84,281.97H40.86 M70.35,281.97h-12.2 M88.85,281.97h-12.2 M107.56,281.97H95.16 M124.65,281.97h-10.98"/>
<rect x="40.86" y="188.1" class="st0" width="2.65" height="83.79"/>
<path class="st0" d="M124.44,264.77l0.21,7.12 M120.78,246.67l0.41,1.02l2.03,7.93l0.41,3.05 M113.26,229.79l1.63,2.65l3.46,7.53
	l0.41,0.81 M102.28,214.94l3.46,3.87l4.27,5.7 M88.24,202.74l5.9,4.27l3.66,3.66 M71.97,194.2l1.02,0.21l7.32,3.46l2.85,1.63
	 M54.28,189.12l2.85,0.61l8.13,1.83l1.02,0.41 M40.86,188.1l7.32,0.2"/>
<path class="st0" d="M640.49,464.96h148.57 M741.38,446.46v-7.93h-53.19v7.93 M688.18,451.75v7.93h53.19v-7.93 M773.17,449.1H656.39
	 M773.17,446.46H656.39v2.64l4.49,2.64h109.24l3.06-2.64V446.46z M640.49,464.96v-31.7h148.57v31.7 M318.89,436.71h-15.69
	 M311.04,438.54c1.07,0,1.94-0.86,1.94-1.93c0-1.07-0.87-1.93-1.94-1.93c-1.07,0-1.93,0.86-1.93,1.93
	C309.1,437.68,309.97,438.54,311.04,438.54 M311.14,444.43v-15.65 M290.35,415.78v30.68 M293.1,412.73c-1.63,0-2.96,1.32-2.96,2.95
	 M328.87,412.94h-35.67 M331.73,415.68c0-1.63-1.32-2.95-2.96-2.95 M331.93,446.46v-30.68 M328.77,449.31
	c1.63,0,2.96-1.32,2.96-2.95 M293.21,449.51h35.67 M290.15,446.36c0,1.63,1.32,2.95,2.96,2.95 M288.32,415.78v30.68 M293.1,410.7
	c-2.76,0-4.99,2.23-4.99,4.98 M328.87,410.9h-35.67 M333.76,415.68c0-2.75-2.24-4.98-4.99-4.98 M333.97,446.46v-30.68
	 M328.77,451.34c2.76,0,4.99-2.23,4.99-4.98 M293.21,451.54h35.67 M288.11,446.36c0,2.75,2.24,4.98,4.99,4.98 M180.91,402.98h-7.13
	 M151.97,463.13h59.31 M211.28,403.79h-59.31 M174.11,455.64c2.81-3.07,2.81-7.77,0-10.83 M173.68,455.2c2.57-2.83,2.57-7.14,0-9.96
	 M172.96,446.06l2.24-2.24 M172.35,445.45l2.45-2.24 M172.35,455l2.45,2.24 M172.96,454.39l2.24,2.44 M167.66,422.18
	c0,1.96,1.6,3.55,3.57,3.55s3.57-1.59,3.57-3.55c0-1.96-1.6-3.56-3.57-3.56S167.66,420.22,167.66,422.18 M167.05,422.18
	c0,2.3,1.87,4.16,4.18,4.16c2.31,0,4.18-1.87,4.18-4.16c0-2.3-1.87-4.17-4.18-4.17C168.92,418.02,167.05,419.88,167.05,422.18
	 M178.01,414.73c-3.84-3.48-9.71-3.48-13.55,0 M178.72,414.01c-4.24-3.87-10.75-3.87-14.99,0 M164.45,429.63
	c3.84,3.48,9.71,3.48,13.55,0 M163.73,430.35c4.24,3.87,10.75,3.87,14.99,0 M191.6,414.15c-2.57,2.83-2.57,7.14,0,9.97
	 M191.17,413.72c-2.81,3.07-2.81,7.77,0,10.84 M203.05,424.55c2.81-3.07,2.81-7.77,0-10.84 M202.62,424.12
	c2.57-2.83,2.57-7.14,0-9.97 M193.95,419.13c0,1.74,1.41,3.15,3.16,3.15c1.75,0,3.16-1.41,3.16-3.15c0-1.74-1.41-3.15-3.16-3.15
	C195.37,415.98,193.95,417.39,193.95,419.13 M179.43,429.65c3.88-4.23,3.88-10.71,0-14.95 M178.7,428.94
	c3.49-3.83,3.49-9.68,0-13.51 M211.28,403.79v59.34 M199.66,402.98h-7.95 M194.56,419.13c0,1.4,1.14,2.54,2.55,2.54
	c1.41,0,2.55-1.14,2.55-2.54c0-1.4-1.14-2.54-2.55-2.54C195.71,416.59,194.56,417.73,194.56,419.13 M202.11,413.64
	c-2.83-2.56-7.16-2.56-9.99,0 M202.55,413.21c-3.08-2.81-7.79-2.81-10.87,0 M201.9,401.96h-2.45 M201.7,402.78v1.02 M199.45,401.96
	v0.81h2.45v-0.81 M199.66,402.78v1.02 M209.24,403.79v-0.81h-7.54 M204.21,412.57c-0.17-0.18-0.34-0.35-0.52-0.52 M201.91,414.87
	c-0.16-0.18-0.34-0.36-0.52-0.52 M201.9,414.97l2.24-2.24 M201.5,414.36l2.24-2.24 M189.67,402.98h-6.73 M189.67,402.78v1.02
	 M191.91,401.96v0.81h-2.45v-0.81 M191.71,402.78v1.02 M191.91,401.96h-2.45 M180.91,402.78v1.02 M183.15,401.96v0.81h-2.45v-0.81
	 M182.95,402.78v1.02 M183.15,401.96h-2.45 M192.84,414.36c-0.18,0.16-0.36,0.34-0.52,0.52 M190.53,412.06
	c-0.18,0.16-0.35,0.34-0.52,0.52 M192.93,414.36l-2.24-2.24 M192.53,414.97l-2.45-2.24 M180.87,413.27c-0.23-0.24-0.46-0.48-0.7-0.7
	 M177.69,416.43c-0.22-0.25-0.45-0.48-0.7-0.7 M177.85,416.59l3.06-3.05 M177.04,415.98l3.06-3.05 M191.71,446.97
	c0,1.96,1.6,3.55,3.57,3.55s3.57-1.59,3.57-3.55c0-1.96-1.6-3.56-3.57-3.56S191.71,445.01,191.71,446.97 M191.1,446.97
	c0,2.3,1.87,4.16,4.18,4.16c2.31,0,4.18-1.87,4.18-4.16c0-2.3-1.87-4.17-4.18-4.17C192.97,442.81,191.1,444.67,191.1,446.97
	 M187.08,439.5c-3.88,4.23-3.88,10.72,0,14.95 M187.8,440.21c-3.49,3.83-3.49,9.68,0,13.51 M202.75,453.73
	c3.49-3.83,3.49-9.68,0-13.51 M203.47,454.45c3.88-4.23,3.88-10.72,0-14.95 M192.11,424.63c2.83,2.56,7.16,2.56,9.99,0
	 M191.68,425.06c3.08,2.8,7.79,2.8,10.87,0 M202.77,438.8c-4.24-3.87-10.75-3.87-14.99,0 M202.05,439.52
	c-3.84-3.48-9.71-3.48-13.55,0 M201.38,423.91c0.18-0.16,0.36-0.34,0.52-0.52 M203.69,426.21c0.18-0.17,0.35-0.34,0.52-0.52
	 M201.5,423.91l2.24,2.24 M201.9,423.3l2.24,2.44 M201.09,440.57l3.26-3.05 M201.9,441.38l3.06-3.05 M201.74,441.22
	c-0.22-0.25-0.46-0.48-0.7-0.7 M204.92,438.06c-0.23-0.24-0.46-0.48-0.7-0.7 M192.32,423.39c0.16,0.18,0.34,0.36,0.52,0.52
	 M190.01,425.7c0.16,0.18,0.34,0.35,0.52,0.52 M192.53,423.3l-2.45,2.44 M192.93,423.91l-2.24,2.24 M176.99,428.63
	c0.25-0.22,0.48-0.45,0.7-0.7 M180.17,431.79c0.24-0.23,0.48-0.46,0.7-0.7 M177.04,428.79l3.06,3.25 M177.85,428.18l3.06,3.05
	 M175.27,443.66c-0.17-0.18-0.34-0.35-0.52-0.51 M189.06,441.38l-3.26-3.05 M189.67,440.57l-3.26-3.05 M186.34,437.36
	c-0.24,0.22-0.48,0.46-0.7,0.7 M189.51,440.53c-0.25,0.22-0.48,0.45-0.7,0.7 M187.78,455.14c4.24,3.87,10.75,3.87,14.99,0
	 M188.5,454.42c3.84,3.48,9.71,3.48,13.55,0 M201.9,452.97l3.06,3.05 M201.09,453.58l3.26,3.05 M204.22,456.58
	c0.24-0.23,0.48-0.46,0.7-0.7 M201.04,453.42c0.25-0.22,0.48-0.45,0.7-0.7 M174.75,457.3c0.18-0.16,0.35-0.34,0.52-0.51
	 M189.67,453.58l-3.26,3.05 M189.06,452.97l-3.26,3.05 M185.64,455.88c0.23,0.24,0.46,0.48,0.7,0.7 M188.81,452.72
	c0.22,0.25,0.46,0.48,0.7,0.7 M163.75,415.42c-3.49,3.83-3.49,9.68,0,13.51 M163.03,414.71c-3.88,4.23-3.88,10.72,0,14.95
	 M151.97,403.79v59.34 M171.74,402.98h-7.95 M173.78,402.78v1.02 M171.54,401.96v0.81h2.45v-0.81 M171.74,402.78v1.02
	 M171.54,401.96h2.45 M154.01,403.79v-0.81h7.75h-7.75 M161.55,401.96h2.45 M161.75,402.78v1.02 M163.99,401.96v0.81h-2.45v-0.81
	 M163.79,402.78v1.02 M165.47,415.74c-0.25,0.22-0.48,0.45-0.7,0.7 M162.29,412.57c-0.24,0.22-0.48,0.46-0.7,0.7 M165.42,415.98
	l-3.06-3.05 M164.81,416.59l-3.06-3.05 M162.23,444.81c-2.81,3.07-2.81,7.77,0,10.83 M163.99,445.45l-2.24-2.24 M163.38,446.06
	l-2.24-2.24 M164.76,427.93c0.22,0.25,0.46,0.48,0.7,0.7 M161.59,431.09c0.23,0.24,0.46,0.48,0.7,0.7 M165.42,428.79l-3.06,3.25
	 M164.81,428.18l-3.06,3.05 M161.59,443.15c-0.18,0.16-0.35,0.34-0.52,0.51 M173.17,444.73c-2.83-2.56-7.16-2.56-9.99,0
	 M173.6,444.3c-3.08-2.8-7.79-2.8-10.86,0 M161.07,456.79c0.17,0.18,0.34,0.35,0.52,0.51 M163.99,455l-2.24,2.24 M163.18,455.72
	c2.83,2.56,7.16,2.56,9.99,0 M162.74,456.15c3.08,2.8,7.79,2.8,10.86,0 M162.66,445.24c-2.57,2.83-2.57,7.14,0,9.96 M163.9,445.44
	c-0.18,0.16-0.36,0.34-0.52,0.52 M163.38,454.48c0.16,0.18,0.34,0.35,0.52,0.52 M163.38,454.39l-2.24,2.44 M165.63,450.22
	c0,1.4,1.14,2.54,2.55,2.54s2.55-1.14,2.55-2.54c0-1.4-1.14-2.54-2.55-2.54S165.63,448.82,165.63,450.22 M172.96,445.96
	c-0.16-0.18-0.34-0.35-0.52-0.52 M172.44,455c0.18-0.16,0.36-0.34,0.52-0.52 M165.01,450.22c0,1.74,1.41,3.15,3.16,3.15
	c1.74,0,3.16-1.41,3.16-3.15c0-1.74-1.41-3.15-3.16-3.15C166.43,447.07,165.01,448.48,165.01,450.22"/>
<path class="st2" d="M295.29,271.72V34.78 M286.11,202.77V34.78 M286.11,281.68v-69.15"/>
<polyline class="st0" points="38.41,270.05 30.46,270.05 30.46,66.16 203.61,66.16 203.61,36.63 283.67,36.63 283.67,200.8 
	135.17,200.8 135.17,270.05 127.43,270.05 "/>
<path class="st2" d="M38.61,281.68v-9.39 M127.1,281.68v-9.39"/>
<path class="st0" d="M273.68,49.29h-59.12v-7.44h59.12V49.29z M243.2,38.03v6.84 M245.23,38.03v6.84 M241.17,37.23v-0.6h5.89v0.6
	 M247.06,37.23h-5.89l2.03,0.8h2.03 M247.06,37.23l-1.83,0.8 M241.17,50.5h5.89v1.2h-5.89 M242.8,47.48l-1.63,3.02v1.2
	 M245.64,47.28l1.42,3.22 M242.8,47.48v-2.61h2.85v2.61 M242.8,47.48h2.85"/>
<path class="st3" d="M64.45,143.8h3.05c0.8,0,1.36-0.06,1.7-0.16c0.49-0.16,0.86-0.44,1.12-0.83c0.26-0.39,0.39-0.91,0.39-1.57
	c0-0.62-0.12-1.13-0.36-1.54c-0.24-0.41-0.56-0.69-0.95-0.85c-0.39-0.16-1.11-0.23-2.13-0.23h-2.83V143.8z M64.45,151.72h3.51
	c0.77,0,1.34-0.07,1.71-0.21c0.53-0.21,0.93-0.54,1.21-1c0.28-0.47,0.42-1.05,0.42-1.75c0-0.65-0.13-1.19-0.4-1.64
	c-0.27-0.45-0.63-0.78-1.07-0.98c-0.45-0.21-1.15-0.31-2.12-0.31h-3.26V151.72z M62.59,153.75v-17.16h5.29
	c1.07,0,1.92,0.16,2.54,0.5c0.63,0.33,1.14,0.85,1.54,1.55c0.4,0.7,0.6,1.48,0.6,2.33c0,0.79-0.17,1.5-0.51,2.13
	c-0.34,0.63-0.83,1.14-1.45,1.52c0.82,0.3,1.46,0.8,1.93,1.52c0.47,0.72,0.71,1.6,0.71,2.64c0,1.04-0.22,1.95-0.64,2.73
	c-0.43,0.78-0.99,1.35-1.7,1.71c-0.71,0.35-1.69,0.53-2.93,0.53H62.59z"/>
<path class="st3" d="M78.26,146.7h4.79l-1.46-4.75c-0.45-1.46-0.78-2.65-0.99-3.56c-0.18,1.1-0.44,2.19-0.77,3.28L78.26,146.7z
	 M74.23,153.75l5.43-17.16h1.99l5.76,17.16h-2.13l-1.64-5.2h-5.92l-1.53,5.2H74.23z"/>
<polygon class="st3" points="92.48,153.75 92.48,138.61 87.85,138.61 87.85,136.59 99,136.59 99,138.61 94.34,138.61 94.34,153.75 
	"/>
<polygon class="st3" points="100.88,153.75 100.88,136.59 102.74,136.59 102.74,143.63 110.05,143.63 110.05,136.59 111.91,136.59 
	111.91,153.75 110.05,153.75 110.05,145.66 102.74,145.66 102.74,153.75 "/>
<path class="st4" d="M199.98,121.53h2.04l-1.84-55.45L199.98,121.53z M200.18,66.08l1.84,55.45V66.08H200.18z"/>
<path class="st0" d="M190.53,113.82h-9.76v-9.98h9.76V113.82z M185.55,103.64c-2.75,0-4.98,2.23-4.98,4.99
	c0,2.76,2.23,4.99,4.98,4.99c2.75,0,4.98-2.23,4.98-4.99C190.53,105.87,188.3,103.64,185.55,103.64 M117.51,86.13h80.95V66.19
	h-80.95V86.13z M197.44,68.43l1.02,0.81 M195.41,66.19l0.41,0.41 M192.76,67l4.27,4.48 M193.99,71.89l4.47,4.28 M188.49,66.19
	l3.87,3.87 M195.41,76.57l3.05,3.26 M189.31,70.46l4.27,4.48 M185.04,66.19l2.44,2.65 M196.63,81.45l1.83,1.83 M190.53,75.35
	l4.47,4.28 M184.43,69.24l4.48,4.28 M181.58,66.19l1.22,1.22 M191.95,80.03l4.27,4.48 M185.85,73.92l4.27,4.48 M179.55,67.81
	l4.47,4.48 M193.17,84.91l1.22,1.22 M187.07,78.81l4.27,4.28 M180.97,72.7l4.27,4.28 M174.87,66.59l4.27,4.28 M188.29,83.69
	l2.44,2.44 M182.19,77.58l4.48,4.28 M176.09,71.48l4.47,4.28 M171,66.19l3.46,3.46 M183.61,82.27l3.66,3.87 M177.51,76.16l4.27,4.48
	 M171.41,70.05l4.27,4.48 M167.55,66.19l2.04,2.24 M178.73,81.05l4.48,4.27 M172.63,74.94l4.48,4.28 M166.53,68.83l4.48,4.28
	 M164.09,66.19L164.9,67 M180.16,85.73l0.2,0.41 M174.05,79.62l4.27,4.48 M167.95,73.51l4.27,4.48 M161.85,67.41l4.27,4.48
	 M175.27,84.51l1.63,1.63 M169.17,78.4l4.27,4.28 M163.07,72.29l4.27,4.27 M157.17,66.19l4.07,4.28 M170.39,83.08l2.85,3.05
	 M164.29,76.97l4.47,4.48 M158.19,70.87l4.48,4.48 M153.51,66.19l3.05,3.05 M165.72,81.86l4.07,4.28 M159.62,75.75l4.27,4.28
	 M153.51,69.65l4.27,4.28 M150.06,66.19l1.63,1.63 M160.84,80.64l4.47,4.28 M154.73,74.53l4.48,4.28 M148.63,68.43l4.47,4.27
	 M146.6,66.19l0.41,0.41 M162.26,85.32l0.61,0.82 M156.16,79.21l4.27,4.48 M150.06,73.11l4.27,4.48 M143.96,67l4.27,4.48
	 M157.38,84.1l2.03,2.04 M151.28,77.99l4.27,4.28 M145.18,71.89l4.27,4.28 M139.68,66.19l3.66,3.87 M152.5,82.67l3.46,3.46
	 M146.4,76.57l4.48,4.48 M140.29,70.46l4.48,4.48 M136.22,66.19l2.44,2.65 M147.82,81.45l4.27,4.28 M141.72,75.35l4.27,4.28
	 M135.61,69.24l4.27,4.28 M132.56,66.19l1.22,1.22 M142.94,80.03l4.48,4.48 M136.83,73.92l4.48,4.48 M130.73,67.81l4.48,4.48
	 M144.36,84.91l1.02,1.22 M138.26,78.81l4.27,4.28 M132.16,72.7l4.27,4.28 M126.06,66.59l4.27,4.28 M139.48,83.69l2.44,2.44
	 M133.38,77.58l4.27,4.28 M127.28,71.48l4.27,4.28 M122.19,66.19l3.26,3.46 M134.6,82.27l3.86,3.87 M128.5,76.16l4.48,4.48
	 M122.4,70.05l4.47,4.48 M118.73,66.19l2.04,2.24 M129.92,81.05l4.27,4.27 M123.82,74.94l4.27,4.28 M117.72,68.83l4.27,4.28
	 M131.14,85.73l0.2,0.41 M125.04,79.62l4.48,4.48 M118.94,73.51l4.47,4.48 M126.46,84.51l1.42,1.63 M120.36,78.4l4.27,4.28
	 M117.51,75.55l1.02,1.02 M121.58,83.08l2.85,3.05 M117.51,79.01l2.24,2.44 M117.51,82.67l3.46,3.46 M148.02,90.92
	c0,0.62,0.5,1.12,1.12,1.12c0.62,0,1.12-0.5,1.12-1.12c0-0.62-0.5-1.12-1.12-1.12C148.52,89.8,148.02,90.3,148.02,90.92
	 M165.51,90.92c0,0.62,0.5,1.12,1.12,1.12c0.62,0,1.12-0.5,1.12-1.12c0-0.62-0.5-1.12-1.12-1.12
	C166.01,89.8,165.51,90.3,165.51,90.92 M160.09,115.69c2.16-1.49,3.43-3.96,3.39-6.59 M157.78,115.65h2.44 M154.33,109.1
	c-0.05,2.63,1.23,5.1,3.38,6.59 M157.39,105.3c-1.82,0.26-3.15,1.85-3.06,3.69 M160.63,105.27h-1.63h-1.63 M163.48,108.99
	c0.08-1.84-1.24-3.43-3.06-3.69 M147.21,130.1V97.94 M147.01,130c0,0.28,0.23,0.51,0.51,0.51 M168.36,130.51h-20.75 M168.26,130.51
	c0.28,0,0.51-0.23,0.51-0.51 M147.21,97.94h21.76v32.16 M145.18,130.1V95.9 M144.97,130c0,1.41,1.14,2.55,2.54,2.55 M168.36,132.55
	h-20.75 M168.26,132.55c1.4,0,2.54-1.14,2.54-2.55 M145.18,95.9h25.63v34.2 M140.29,132.55V86.13 M140.09,132.44
	c0,2.76,2.23,4.99,4.98,4.99 M170.8,137.43h-25.63 M170.7,137.43c2.75,0,4.98-2.23,4.98-4.99 M140.29,86.13h35.59v46.41
	 M198.46,66.19v134.55 M203.54,66.19l-0.2,134.55 M200.09,66.19h1.83v55.37h-2.03L200.09,66.19z"/>
<path class="st5" d="M162.87,79.13h-9.79l9.79-6.12V79.13z M153.09,79.13l9.79-6.12h-9.79V79.13z"/>
<path class="st0" d="M132.58,89.47v0.4 M125.57,89.27c-0.17,0-0.31,0.13-0.31,0.3c0,0.17,0.14,0.3,0.31,0.3 M129.12,89.47h-3.46
	 M132.58,89.47h-1.02 M129.12,89.88h-3.46 M132.58,89.88h-1.02 M129.12,86.04h2.44v4.84h-2.44V86.04z M187.67,92.1l0.81,0.81
	l1.02,0.81l1.02,0.6l1.42,0.2l1.42-0.2l0.61-0.41l0.61-0.6l0.41-0.6V91.9l-0.41-1.41l-1.02-1.21l-0.61-0.41l-0.61-0.2h-1.22h-0.61
	l-0.2-0.2l-0.21-0.41l-0.2-1.01v-1.21 M188.07,90.89l1.42,1.61l0.82,0.6l1.02,0.41h1.22l1.02-0.41l0.41-0.81v-1.01l-0.61-1.01
	l-0.81-0.61h-2.24l-0.61-0.4l-0.61-0.81l-0.2-2.42 M185.53,88.46c-1.29,0-2.34,1.04-2.34,2.32c0,1.28,1.05,2.32,2.34,2.32
	c1.29,0,2.34-1.04,2.34-2.32C187.87,89.5,186.82,88.46,185.53,88.46 M187.26,89.07v-3.03h-3.25v3.03 M154.53,76.04
	c0,0.5,0.41,0.91,0.92,0.91c0.5,0,0.91-0.41,0.91-0.91c0-0.5-0.41-0.91-0.91-0.91C154.94,75.14,154.53,75.54,154.53,76.04
	 M157.78,76.04c0,1.06,0.87,1.92,1.93,1.92c1.07,0,1.93-0.86,1.93-1.92c0-1.06-0.87-1.92-1.93-1.92
	C158.65,74.13,157.78,74.98,157.78,76.04 M162.87,73.12h-9.76v6.06h9.76V73.12z M162.87,79.17h-9.76v-6.06h9.76V79.17z"/>
<path class="st6" d="M30.36,100.74V66.08l70.33,34.66H30.36z M30.36,66.08l70.33,34.66V66.08H30.36z"/>
<path class="st7" d="M100.59,100.64H30.46V66.19h70.13V100.64z M34.53,99.42l-4.07-4.26 M31.88,89.69l-1.42-1.42 M37.98,95.77
	l-4.47-4.26 M42.86,100.64l-3.05-3.04 M35.34,86.25l-4.27-4.26 M41.44,92.33l-4.27-4.26 M47.53,98.41l-4.27-4.25 M49.77,100.64
	l-0.41-0.41 M32.7,76.72l-2.24-2.43 M38.79,82.8l-4.27-4.26 M44.89,88.88l-4.27-4.26 M50.99,94.96l-4.27-4.25 M56.89,100.64
	l-4.07-3.85 M36.15,73.28l-4.27-4.46 M42.25,79.36l-4.27-4.46 M48.35,85.44l-4.27-4.46 M54.45,91.52l-4.27-4.46 M60.75,97.6
	l-4.47-4.46 M63.8,100.64l-1.42-1.21 M39.81,69.83l-3.66-3.65 M45.91,75.91l-4.47-4.46 M52.01,81.99l-4.47-4.46 M58.11,88.07
	l-4.47-4.46 M64.2,94.15l-4.47-4.46 M70.3,100.23l-4.47-4.46 M49.36,72.27l-4.47-4.26 M55.46,78.55l-4.47-4.46 M61.56,84.63
	l-4.47-4.46 M67.66,90.71l-4.47-4.46 M73.76,96.79l-4.47-4.46 M77.82,100.64l-2.44-2.23 M52.82,68.82l-2.64-2.63 M58.92,74.9
	l-4.47-4.25 M65.02,80.98l-4.27-4.25 M71.12,87.06l-4.27-4.25 M77.21,93.14l-4.27-4.25 M83.31,99.42l-4.27-4.46 M62.38,71.45
	l-4.27-4.25 M68.47,77.53l-4.27-4.25 M74.57,83.61l-4.27-4.25 M80.67,89.69l-4.27-4.25 M86.77,95.77l-4.27-4.26 M91.65,100.64
	L88.6,97.6 M65.83,68.01l-1.63-1.82 M71.93,74.09l-4.27-4.25 M78.03,80.17l-4.27-4.25 M84.12,86.25l-4.27-4.26 M90.22,92.33
	l-4.27-4.26 M96.52,98.41l-4.47-4.25 M98.76,100.64l-0.61-0.41 M75.38,70.64l-4.27-4.46 M81.69,76.72l-4.47-4.46 M87.78,82.8
	l-4.47-4.26 M93.88,88.88l-4.47-4.26 M99.98,94.96l-4.47-4.25 M79.04,67.2l-1.02-1.01 M85.14,73.28l-4.47-4.46 M91.24,79.36
	l-4.47-4.46 M97.34,85.44l-4.47-4.46 M100.59,88.68l-1.63-1.62 M88.6,69.83l-3.46-3.65 M94.69,75.91l-4.47-4.46 M100.59,81.59
	l-4.07-4.05 M98.15,72.27l-4.27-4.26 M100.59,74.7l-0.61-0.61 M100.59,67.81l-1.63-1.62 M32.29,100.64l-1.83-1.83 M39.4,100.64
	l-8.94-8.92 M46.32,100.64L30.46,84.83 M53.23,100.64l-22.77-22.7 M60.34,100.64L30.46,70.85 M67.25,100.64L32.7,66.19
	 M74.16,100.64L39.81,66.19 M81.28,100.64L46.72,66.19 M88.19,100.64L53.64,66.19 M95.1,100.64L60.75,66.19 M100.59,99.02
	L67.66,66.19 M100.59,92.12L74.57,66.19 M100.59,85.03l-18.9-18.84 M100.59,78.14L88.6,66.19 M100.59,71.25l-5.08-5.06
	 M100.59,66.19H30.46v34.45h70.13V66.19z"/>
<path class="st7" d="M88.26,113.38V70.97l-1.43,44.04L88.26,113.38z M88.26,70.97l-1.43,44.04l-0.21-45.46L88.26,70.97z
	 M86.83,115.01l-0.21-45.46l-42.41,45.46H86.83z M86.63,69.55l-42.41,45.46V69.55H86.63z M44.22,115.01V69.55l-1.43,44.04
	L44.22,115.01z M44.22,69.55l-1.43,44.04l-0.2-42.61L44.22,69.55z"/>
<path class="st0" d="M44.32,114.91h42.42 M42.69,113.39c0,0.4,0.16,0.79,0.45,1.08c0.29,0.28,0.68,0.44,1.08,0.44 M42.69,71.07
	l0.2,42.42 M44.21,69.45c-0.84,0-1.52,0.68-1.52,1.52 M86.53,69.65H44.32 M87.95,70.97c0-0.84-0.68-1.52-1.52-1.52 M88.15,113.28
	V71.07 M86.64,114.7c0.84-0.01,1.52-0.69,1.51-1.52 M65.42,90.55v2.84 M46.55,111.25H84.5V81.42H46.55V111.25z M65.42,74.72v-1.02
	 M64.21,75.43c0,0.62,0.5,1.12,1.11,1.12c0.62,0,1.12-0.5,1.12-1.12c0-0.62-0.5-1.12-1.12-1.12C64.71,74.32,64.21,74.82,64.21,75.43
	 M65.42,76.15v1.22 M66.23,75.54h1.02 M63.6,75.54h1.22 M65.42,87.1v-2.84 M63.6,88.62c0,0.95,0.77,1.73,1.72,1.73
	c0.95,0,1.73-0.77,1.73-1.73c0-0.95-0.77-1.72-1.73-1.72C64.37,86.9,63.6,87.67,63.6,88.62 M62.38,88.62c0,1.63,1.32,2.94,2.94,2.94
	c1.63,0,2.94-1.32,2.94-2.94c0-1.63-1.32-2.94-2.94-2.94C63.7,85.68,62.38,87,62.38,88.62 M67.25,88.73h2.84 M60.96,88.73h2.84
	 M42.9,113.49l-0.2-42.42l1.62-1.42h42.21l1.62,1.42v42.21l-1.42,1.62H44.32L42.9,113.49z"/>
<path class="st2" d="M82.95,464.76h261.9v-68.72 M28.62,396.04v9.9 M354.83,464.76v-68.72"/>
<polyline class="st0" points="30.46,395.85 30.46,403.77 84.86,403.77 84.86,463.12 342.99,463.12 342.99,403.77 "/>
<path class="st0" d="M345.24,286.36v-4.27 M345.24,295.72v-6.31 M345.24,304.88v-6.1 M345.24,314.24v-6.31 M345.24,323.4v-6.1
	 M345.24,332.76v-6.11 M345.24,341.91v-6.1 M345.24,351.28v-6.11 M345.24,360.43v-6.1 M345.24,369.8v-6.11 M345.24,378.95v-6.11
	 M345.24,388.31v-6.11 M345.24,395.64v-4.27 M355.02,286.36v-4.27 M355.02,295.72v-6.31 M355.02,304.88v-6.1 M355.02,314.24v-6.31
	 M355.02,323.4v-6.1 M355.02,332.76v-6.11 M355.02,341.91v-6.1 M355.02,351.28v-6.11 M355.02,360.43v-6.1 M355.02,369.8v-6.11
	 M355.02,378.95v-6.11 M355.02,388.31v-6.11 M355.02,395.64v-4.27"/>
<line class="st0" x1="285.71" y1="281.97" x2="147.28" y2="281.97"/>
<path class="st2" d="M137.49,271.77v-68.59 M146.88,281.68v-68.79"/>
<polyline class="st0" points="342.99,464.96 342.99,403.8 214.56,403.8 214.56,464.96 "/>
<path class="st2" d="M13.74,395.56v19.75 M73.22,415.31v69.43h281.95h467.95 M83,405.54v59.25 M13.74,415.31h59.08 M28.61,405.54H83
	 M355.17,271.97v9.98h-69.27 M355.17,271.97h-59.49 M152.27,64.51h49.51V34.78"/>
<path class="st0" d="M194.96,277.4v-1.02 M236.4,277.4h-41.44v0.81 M236.4,278.21v-0.81v-1.02 M236.4,278.21h-41.44 M245.95,224.77
	v-7.52 M245.95,243.67v-12.6 M245.95,262.36v-12.4 M245.95,276.38v-7.72 M186.83,224.77v-7.52 M186.83,243.67v-12.6 M186.83,262.36
	v-12.4 M186.83,276.38v-7.72 M238.43,276.38h7.52 M219.54,276.38h12.6 M200.85,276.38h12.39 M186.83,276.38h7.72 M194.55,217.25
	h-7.72 M213.24,217.25h-12.39 M232.13,217.25h-12.6 M245.95,217.25h-7.52"/>
<path class="st8" d="M211.4,240.06l9.9-2.16v1.1l-6.49,1.24c-0.67,0.13-1.34,0.25-2.02,0.34l1.83,0.36l6.69,1.54v1.31l-5.01,1.16
	c-1.22,0.28-2.39,0.49-3.51,0.63c0.64,0.1,1.36,0.24,2.15,0.4l6.36,1.28v1.08l-9.9-2.23v-1.03l7.54-1.72l1.16-0.26
	c-0.43-0.08-0.82-0.16-1.16-0.24l-7.54-1.72V240.06z"/>
<rect x="211.4" y="249.49" class="st8" width="1.38" height="1.13"/>
<path class="st8" d="M211.4,252.45h9.9v1.61l-7.01,1.93l-1.47,0.38c0.36,0.1,0.89,0.24,1.59,0.44l6.89,1.94v1.45h-9.9v-1.03h8.28
	l-8.28-2.37v-0.96l8.42-2.35h-8.42V252.45z"/>
<path class="st0" d="M489.16,305.53h77.91 M489.16,305.53l-2.24,0.4l-2.04,1.01l-1.63,1.62l-1.02,2.03l-0.41,2.23 M481.83,327.6
	v-14.78 M481.83,327.6l0.41,2.43l1.02,2.03l1.63,1.62l2.04,1.01l2.24,0.4 M567.07,335.09h-77.91 M567.07,335.09l2.24-0.4l2.04-1.01
	l1.63-1.62l1.02-2.03l0.41-2.43 M574.39,312.82v14.78 M574.39,312.82l-0.41-2.23l-1.02-2.03l-1.63-1.62l-2.04-1.01l-2.24-0.4"/>
<path class="st3" d="M495.53,328.12c-1.08,0-1.99-0.11-2.75-0.33c-0.76-0.22-1.47-0.5-2.13-0.82v-2.47h0.14
	c0.65,0.61,1.39,1.09,2.21,1.42c0.83,0.34,1.62,0.5,2.38,0.5c1.09,0,1.92-0.23,2.47-0.68c0.56-0.46,0.84-1.06,0.84-1.8
	c0-0.59-0.15-1.07-0.44-1.45c-0.29-0.37-0.76-0.65-1.4-0.83c-0.46-0.13-0.88-0.24-1.26-0.33c-0.38-0.09-0.85-0.21-1.43-0.35
	c-0.51-0.13-0.97-0.3-1.38-0.51c-0.4-0.21-0.76-0.48-1.08-0.81c-0.31-0.32-0.54-0.71-0.71-1.15c-0.17-0.44-0.25-0.95-0.25-1.53
	c0-1.2,0.47-2.21,1.4-3.03c0.94-0.82,2.13-1.22,3.59-1.22c0.83,0,1.61,0.08,2.36,0.25c0.74,0.17,1.43,0.4,2.06,0.71v2.36h-0.15
	c-0.47-0.43-1.08-0.81-1.81-1.13c-0.74-0.32-1.51-0.48-2.32-0.48c-0.92,0-1.66,0.21-2.22,0.64c-0.56,0.43-0.85,0.99-0.85,1.69
	c0,0.63,0.17,1.13,0.5,1.51c0.33,0.37,0.82,0.64,1.45,0.82c0.42,0.11,0.93,0.24,1.54,0.38c0.6,0.14,1.11,0.28,1.5,0.39
	c1.03,0.31,1.77,0.78,2.25,1.42c0.47,0.63,0.71,1.41,0.71,2.33c0,0.58-0.12,1.15-0.35,1.71c-0.24,0.57-0.57,1.05-0.99,1.44
	c-0.48,0.43-1.02,0.76-1.62,1C497.19,328.01,496.43,328.12,495.53,328.12"/>
<polygon class="st3" points="506.24,327.85 506.24,314.76 501.26,314.76 501.26,313 513.2,313 513.2,314.76 508.22,314.76 
	508.22,327.85 "/>
<path class="st3" d="M519.89,328.16c-0.87,0-1.63-0.12-2.29-0.34c-0.65-0.23-1.2-0.57-1.67-1.02c-0.52-0.52-0.88-1.14-1.1-1.86
	c-0.21-0.72-0.32-1.61-0.32-2.67V313h1.97v9.27c0,0.69,0.04,1.26,0.13,1.73c0.09,0.47,0.26,0.89,0.51,1.26
	c0.26,0.4,0.63,0.7,1.08,0.91c0.46,0.21,1.01,0.31,1.67,0.31c0.62,0,1.17-0.1,1.65-0.31c0.48-0.21,0.85-0.51,1.12-0.91
	c0.25-0.38,0.42-0.8,0.51-1.26c0.09-0.46,0.13-1.02,0.13-1.69V313h1.97v9.27c0,1.03-0.11,1.92-0.31,2.65
	c-0.21,0.74-0.58,1.36-1.1,1.88c-0.47,0.46-1.02,0.8-1.65,1.03C521.57,328.05,520.8,328.16,519.89,328.16"/>
<path class="st3" d="M537.75,320.41c0-1.14-0.19-2.12-0.57-2.93c-0.38-0.81-0.94-1.44-1.69-1.89c-0.52-0.32-1.09-0.55-1.69-0.69
	c-0.6-0.14-1.34-0.21-2.23-0.21h-1.51v11.46h1.51c0.88,0,1.65-0.07,2.3-0.21c0.66-0.14,1.26-0.4,1.8-0.78
	c0.68-0.47,1.2-1.09,1.54-1.86C537.58,322.54,537.75,321.57,537.75,320.41 M539.8,320.44c0,1.36-0.27,2.58-0.82,3.67
	c-0.55,1.09-1.28,1.94-2.21,2.55c-0.75,0.47-1.51,0.79-2.29,0.95c-0.77,0.16-1.76,0.24-2.97,0.24h-3.42V313h3.38
	c1.39,0,2.49,0.11,3.29,0.31c0.79,0.21,1.47,0.5,2.03,0.86c0.96,0.63,1.7,1.47,2.22,2.52C539.54,317.74,539.8,318.99,539.8,320.44"
	/>
<polygon class="st3" points="547.14,327.85 541.37,327.85 541.37,326.34 543.27,326.34 543.27,314.52 541.37,314.52 541.37,313 
	547.14,313 547.14,314.52 545.24,314.52 545.24,326.34 547.14,326.34 "/>
<path class="st3" d="M559.8,320.43c0-0.98-0.11-1.86-0.32-2.61c-0.21-0.76-0.51-1.39-0.9-1.89c-0.39-0.51-0.87-0.9-1.42-1.15
	c-0.56-0.26-1.18-0.38-1.87-0.38c-0.72,0-1.34,0.12-1.88,0.37c-0.53,0.25-1.01,0.64-1.42,1.16c-0.39,0.5-0.69,1.14-0.9,1.91
	c-0.21,0.76-0.32,1.63-0.32,2.59c0,1.95,0.41,3.44,1.23,4.47c0.82,1.04,1.92,1.55,3.29,1.55c1.38,0,2.47-0.52,3.29-1.55
	C559.4,323.87,559.8,322.38,559.8,320.43 M560.07,314.71c0.57,0.65,1,1.46,1.32,2.42c0.31,0.96,0.47,2.06,0.47,3.3
	c0,1.2-0.15,2.29-0.46,3.26c-0.31,0.97-0.75,1.79-1.33,2.45c-0.6,0.69-1.31,1.2-2.12,1.53c-0.81,0.33-1.7,0.49-2.67,0.49
	c-1,0-1.91-0.17-2.71-0.51c-0.8-0.34-1.5-0.85-2.08-1.52c-0.57-0.66-1.01-1.47-1.32-2.44s-0.46-2.05-0.46-3.27
	c0-1.25,0.15-2.35,0.46-3.29c0.31-0.94,0.75-1.76,1.32-2.44c0.57-0.66,1.26-1.16,2.07-1.5c0.81-0.34,1.71-0.51,2.71-0.51
	c1.01,0,1.92,0.18,2.73,0.53C558.83,313.57,559.51,314.07,560.07,314.71"/>
<line class="st2" x1="13.74" y1="15.01" x2="800.29" y2="15.01"/>
<path class="st3" d="M865.98,265.61h3.52c0.92,0,1.57-0.06,1.96-0.19c0.56-0.19,0.99-0.5,1.29-0.95c0.3-0.45,0.45-1.05,0.45-1.82
	c0-0.71-0.14-1.3-0.41-1.78c-0.28-0.47-0.64-0.8-1.1-0.98c-0.46-0.18-1.27-0.27-2.46-0.27h-3.26V265.61z M865.98,274.75h4.04
	c0.89,0,1.55-0.08,1.98-0.24c0.61-0.24,1.08-0.62,1.4-1.15c0.32-0.54,0.48-1.21,0.48-2.02c0-0.75-0.15-1.38-0.46-1.9
	c-0.31-0.52-0.72-0.9-1.24-1.13c-0.52-0.24-1.33-0.36-2.44-0.36h-3.76V274.75z M863.83,277.09v-19.8h6.1c1.24,0,2.21,0.19,2.93,0.57
	c0.72,0.38,1.31,0.98,1.77,1.79c0.46,0.81,0.69,1.71,0.69,2.69c0,0.91-0.2,1.73-0.59,2.46c-0.4,0.73-0.95,1.31-1.68,1.75
	c0.94,0.34,1.68,0.93,2.22,1.75c0.54,0.82,0.82,1.84,0.82,3.05c0,1.2-0.25,2.25-0.74,3.15c-0.49,0.91-1.15,1.56-1.97,1.97
	c-0.82,0.41-1.94,0.62-3.37,0.62H863.83z"/>
<path class="st3" d="M881.92,268.96h5.53l-1.69-5.49c-0.52-1.68-0.91-3.05-1.15-4.11c-0.21,1.27-0.51,2.53-0.89,3.78L881.92,268.96z
	 M877.26,277.09l6.26-19.8h2.3l6.65,19.8h-2.46l-1.89-6h-6.83l-1.76,6H877.26z"/>
<polygon class="st3" points="894.03,277.09 894.03,257.29 896.18,257.29 896.18,274.75 904.18,274.75 904.18,277.09 "/>
<path class="st3" d="M918.31,270.14l2.16,0.66c-0.48,2.22-1.31,3.88-2.5,4.98c-1.19,1.1-2.65,1.64-4.36,1.64
	c-1.5,0-2.79-0.37-3.86-1.1c-1.07-0.74-1.94-1.91-2.62-3.54c-0.68-1.62-1.02-3.54-1.02-5.74c0-2.18,0.34-4.03,1.02-5.54
	c0.68-1.51,1.6-2.65,2.77-3.42c1.16-0.77,2.46-1.16,3.89-1.16c1.57,0,2.92,0.49,4.04,1.46c1.13,0.97,1.92,2.4,2.37,4.29l-2.11,0.61
	c-0.72-2.75-2.17-4.12-4.34-4.12c-1.08,0-2.02,0.28-2.81,0.83c-0.79,0.55-1.43,1.42-1.9,2.59c-0.47,1.17-0.71,2.66-0.71,4.45
	c0,2.71,0.48,4.75,1.43,6.1c0.95,1.36,2.22,2.04,3.81,2.04c1.17,0,2.18-0.42,3.03-1.25C917.45,273.1,918.02,271.84,918.31,270.14"/>
<path class="st3" d="M924.76,267.48c0,2.44,0.54,4.34,1.61,5.68c1.08,1.35,2.38,2.02,3.92,2.02c1.58,0,2.9-0.68,3.96-2.04
	c1.07-1.36,1.6-3.36,1.6-6c0-1.7-0.27-3.23-0.82-4.57c-0.43-1.03-1.06-1.85-1.91-2.47c-0.85-0.62-1.78-0.93-2.79-0.93
	c-1.62,0-2.96,0.68-4,2.03C925.29,262.56,924.76,264.65,924.76,267.48 M922.55,267.44c0-3.38,0.74-5.97,2.23-7.79
	c1.49-1.81,3.34-2.72,5.55-2.72c1.43,0,2.74,0.41,3.92,1.22c1.18,0.81,2.11,1.99,2.8,3.53c0.69,1.54,1.03,3.38,1.03,5.52
	c0,2.94-0.66,5.33-2,7.17c-1.47,2.03-3.39,3.05-5.77,3.05c-2.39,0-4.32-1.05-5.78-3.13C923.21,272.4,922.55,270.12,922.55,267.44"/>
<polygon class="st3" points="940.74,277.09 940.74,257.29 942.94,257.29 951.48,272.86 951.48,257.29 953.53,257.29 953.53,277.09 
	951.33,277.09 942.81,261.51 942.81,277.09 "/>
<path class="st3" d="M961.74,277.09v-8.39l-6.25-11.41h2.62l3.19,5.98c0.63,1.18,1.18,2.3,1.66,3.35c0.48-1.04,1.07-2.2,1.77-3.5
	l3.15-5.83h2.48l-6.48,11.41v8.39H961.74z"/>
<polyline class="st1" points="840.29,99.05 1047.94,99.05 1047.94,460.02 "/>
<path class="st0" d="M840.24,108.79h197.96v351.27 M840.24,103.9h202.85v356.16"/>
<path class="st9" d="M823.62,19.79v435.29 M823.62,14.91h16.32v4.89h-16.32V14.91z M823.62,455.08h16.32v4.89h-16.32V455.08z"/>
<path class="st0" d="M835.35,19.7v435.47 M840.03,19.7v435.47"/>
<rect x="823.62" y="460.37" class="st9" width="224.27" height="24.47"/>
<path class="st10" d="M151.86,14.5H13.23l138.63,49.34V14.5z M13.23,14.5l138.63,49.34H13.23V14.5z"/>
<path class="st10" d="M823.42,14.5H661.75l161.67,49.34V14.5z M661.75,14.5l161.67,49.34H661.75V14.5z"/>
<path class="st1" d="M823.27,64.1H661.86V14.86h161.41V64.1z M152.17,64.1H13.59V14.86h138.58V64.1z"/>
<path class="st0" d="M823.52,476.45l8.35,8.49 M823.52,467.75l17.11,17.18 M824.75,460.27l24.65,24.66 M833.5,460.27l24.65,24.66
	 M842.26,460.27l24.65,24.66 M851.02,460.27l24.64,24.66 M859.78,460.27l24.64,24.66 M868.54,460.27l24.65,24.66 M877.09,460.27
	l24.85,24.66 M885.85,460.27l24.85,24.66 M894.61,460.27l24.85,24.66 M903.37,460.27l24.85,24.66 M912.13,460.27l24.85,24.66
	 M920.88,460.27l24.85,24.66 M929.64,460.27l24.65,24.66 M938.4,460.27l24.64,24.66 M947.16,460.27l24.64,24.66 M955.92,460.27
	l24.65,24.66 M964.68,460.27l24.65,24.66 M973.44,460.27l24.65,24.66 M982.19,460.27l24.65,24.66 M990.95,460.27l24.64,24.66
	 M999.51,460.27l24.85,24.66 M1008.26,460.27l24.85,24.66 M1017.03,460.27l24.85,24.66 M1025.78,460.27l22.2,22.04 M1034.54,460.27
	l13.44,13.34 M1043.3,460.27l4.69,4.65"/>
<g>
	<defs>
		<polyline id="SVGID_00000057135914802909048760000006305785374674949054_" points="-2151.25,668.46 1176.73,668.46 
			1176.73,-1428.72 -2151.25,-1428.72 		"/>
	</defs>
	<clipPath id="SVGID_00000110441320165782363920000003219211408267474853_">
		<use xlink:href="#SVGID_00000057135914802909048760000006305785374674949054_"  style="overflow:visible;"/>
	</clipPath>
</g>
<g>
	<defs>
		<polyline id="SVGID_00000147195490210808476110000011594490278981146757_" points="-2151.25,668.46 1176.73,668.46 
			1176.73,-1428.72 -2151.25,-1428.72 		"/>
	</defs>
	<clipPath id="SVGID_00000017516029620644483570000010577755365606060203_">
		<use xlink:href="#SVGID_00000147195490210808476110000011594490278981146757_"  style="overflow:visible;"/>
	</clipPath>
</g>
<g>
	<defs>
		<polyline id="SVGID_00000163783167395925868750000015869558659412274091_" points="-2151.25,668.46 1176.73,668.46 
			1176.73,-1428.72 -2151.25,-1428.72 		"/>
	</defs>
	<clipPath id="SVGID_00000124163575529192447150000018407976073049741186_">
		<use xlink:href="#SVGID_00000163783167395925868750000015869558659412274091_"  style="overflow:visible;"/>
	</clipPath>
</g>
<g>
	<defs>
		<polyline id="SVGID_00000052084749511380567450000012172540511728978606_" points="-2151.25,668.46 1176.73,668.46 
			1176.73,-1428.72 -2151.25,-1428.72 		"/>
	</defs>
	<clipPath id="SVGID_00000178917721339914543680000006453864176463823019_">
		<use xlink:href="#SVGID_00000052084749511380567450000012172540511728978606_"  style="overflow:visible;"/>
	</clipPath>
</g>
<g>
	<defs>
		<polyline id="SVGID_00000178198097047678805850000007783890903391942563_" points="-2151.25,668.46 1176.73,668.46 
			1176.73,-1428.72 -2151.25,-1428.72 		"/>
	</defs>
	<clipPath id="SVGID_00000091730285325941797500000014190868334594873512_">
		<use xlink:href="#SVGID_00000178198097047678805850000007783890903391942563_"  style="overflow:visible;"/>
	</clipPath>
</g>
<g>
	<defs>
		<polyline id="SVGID_00000121241551468893548920000000686924569706203536_" points="-2151.25,668.46 1176.73,668.46 
			1176.73,-1428.72 -2151.25,-1428.72 		"/>
	</defs>
	<clipPath id="SVGID_00000066512868899021063560000017773573618857901190_">
		<use xlink:href="#SVGID_00000121241551468893548920000000686924569706203536_"  style="overflow:visible;"/>
	</clipPath>
</g>
<g>
	<defs>
		<polyline id="SVGID_00000133519049000136031430000009857444359230320293_" points="-2154.81,667.77 1173.18,667.77 
			1173.18,-1429.41 -2154.81,-1429.41 		"/>
	</defs>
	<clipPath id="SVGID_00000152235209784977774330000004691181179499258278_">
		<use xlink:href="#SVGID_00000133519049000136031430000009857444359230320293_"  style="overflow:visible;"/>
	</clipPath>
</g>
<g>
	<defs>
		<polyline id="SVGID_00000122718364727227636050000013300970498724070049_" points="-2151.25,668.46 1176.73,668.46 
			1176.73,-1428.72 -2151.25,-1428.72 		"/>
	</defs>
	<clipPath id="SVGID_00000064351459555108202390000001943721931176448679_">
		<use xlink:href="#SVGID_00000122718364727227636050000013300970498724070049_"  style="overflow:visible;"/>
	</clipPath>
</g>
<g>
	<defs>
		<polyline id="SVGID_00000075885019520603703680000015982610981938254243_" points="-2151.25,668.46 1176.73,668.46 
			1176.73,-1428.72 -2151.25,-1428.72 		"/>
	</defs>
	<clipPath id="SVGID_00000178192366096775303220000012161340519476964525_">
		<use xlink:href="#SVGID_00000075885019520603703680000015982610981938254243_"  style="overflow:visible;"/>
	</clipPath>
</g>
<g>
	<defs>
		<polyline id="SVGID_00000126304160941783068850000010191089828316201347_" points="-2151.25,668.46 1176.73,668.46 
			1176.73,-1428.72 -2151.25,-1428.72 		"/>
	</defs>
	<clipPath id="SVGID_00000068660395702730324000000012514772040922093469_">
		<use xlink:href="#SVGID_00000126304160941783068850000010191089828316201347_"  style="overflow:visible;"/>
	</clipPath>
</g>
<g>
	<defs>
		<polyline id="SVGID_00000083774404574941243840000001199396836988066493_" points="-2151.25,668.46 1176.73,668.46 
			1176.73,-1428.72 -2151.25,-1428.72 		"/>
	</defs>
	<clipPath id="SVGID_00000176043807804953630280000018168571966225995928_">
		<use xlink:href="#SVGID_00000083774404574941243840000001199396836988066493_"  style="overflow:visible;"/>
	</clipPath>
</g>
<g>
	<defs>
		<polyline id="SVGID_00000004514630604780040050000014821104928796242584_" points="-2151.25,668.46 1176.73,668.46 
			1176.73,-1428.72 -2151.25,-1428.72 		"/>
	</defs>
	<clipPath id="SVGID_00000093171685169154549190000015527961501680948865_">
		<use xlink:href="#SVGID_00000004514630604780040050000014821104928796242584_"  style="overflow:visible;"/>
	</clipPath>
</g>
<g>
	<defs>
		<polyline id="SVGID_00000084526888986235876960000013890566158015909269_" points="-2151.25,668.46 1176.73,668.46 
			1176.73,-1428.72 -2151.25,-1428.72 		"/>
	</defs>
	<clipPath id="SVGID_00000066512724532691894620000010048793463932697786_">
		<use xlink:href="#SVGID_00000084526888986235876960000013890566158015909269_"  style="overflow:visible;"/>
	</clipPath>
</g>
</svg>
